<?xml version="1.0" encoding="UTF-8" standalone="no"?>
<!-- Created with Inkscape (http://www.inkscape.org/) -->

<svg
   width="210mm"
   height="297mm"
   viewBox="0 0 210 297"
   version="1.1"
   id="svg1"
   inkscape:version="1.4 (86a8ad7, 2024-10-11)"
   sodipodi:docname="drawing-4.svg"
   xmlns:inkscape="http://www.inkscape.org/namespaces/inkscape"
   xmlns:sodipodi="http://sodipodi.sourceforge.net/DTD/sodipodi-0.dtd"
   xmlns="http://www.w3.org/2000/svg"
   xmlns:svg="http://www.w3.org/2000/svg">
  <sodipodi:namedview
     id="namedview1"
     pagecolor="#ffffff"
     bordercolor="#000000"
     borderopacity="0.25"
     inkscape:showpageshadow="2"
     inkscape:pageopacity="0.0"
     inkscape:pagecheckerboard="0"
     inkscape:deskcolor="#d1d1d1"
     inkscape:document-units="mm"
     inkscape:zoom="0.76167929"
     inkscape:cx="397.14878"
     inkscape:cy="561.25984"
     inkscape:window-width="1920"
     inkscape:window-height="1057"
     inkscape:window-x="-8"
     inkscape:window-y="-8"
     inkscape:window-maximized="1"
     inkscape:current-layer="layer1" />
  <defs
     id="defs1" />
  <g
     inkscape:label="Layer 1"
     inkscape:groupmode="layer"
     id="layer1">
    <path
       style="fill:#000000;stroke-width:0.264583"
       id="path1"
       d="m 33.578932,32.144041 c 1.989508,0.572857 3.1369,1.437206 4.590402,2.875267 2.373106,2.647452 3.957531,5.869183 5.67364,8.952806 2.461712,4.31832 4.388207,8.896647 6.183191,13.52192 2.972239,8.399291 4.025397,17.312815 5.184404,26.101268 1.62818,12.454641 2.954637,25.032538 6.241931,37.192818 0.703622,2.60282 1.576192,5.15699 2.364287,7.73548 0.934302,2.35699 1.744126,4.76721 2.802906,7.07097 2.638174,5.7403 6.16557,10.93131 10.561661,15.46329 1.113624,1.14806 2.270917,2.26227 3.522263,3.25842 1.132541,0.90157 2.405116,1.61162 3.607671,2.41743 3.401076,1.88296 7.05368,3.35342 10.950043,3.72687 1.579499,0.1514 2.296361,0.0332 3.979603,-0.0625 2.488396,-0.33681 4.554106,-1.6838 6.608896,-3.02537 3.38684,-2.5483 6.76534,-5.11652 10.04844,-7.79824 2.68118,-2.22736 5.20473,-4.65262 7.54706,-7.2348 1.84811,-2.03736 2.66486,-3.11484 4.41251,-5.27896 2.8704,-3.72331 5.58248,-7.57741 7.64791,-11.81334 1.54585,-3.17034 1.70275,-3.87241 2.96473,-7.28726 1.94291,-5.56952 3.35007,-11.30451 4.30012,-17.12322 0.64333,-3.940207 0.75195,-5.322557 1.19893,-9.264324 0.5275,-5.226971 0.69372,-10.480845 0.46975,-15.729127 -0.11469,-2.687582 -0.23751,-3.860655 -0.45687,-6.512137 -0.43223,-4.736486 -1.30201,-9.406445 -2.47789,-14.009656 -0.68196,-2.860767 -1.8325,-5.570024 -3.05396,-8.23414 -1.59169,-3.365852 -3.9688,-6.247728 -6.29368,-9.122005 -4.61993,-5.323916 -10.33833,-9.470625 -16.1495,-13.383535 -3.29595,-2.102346 -6.74881,-3.996144 -10.42467,-5.349678 -2.15532,-0.793637 -2.70362,-0.885262 -4.92252,-1.477674 -5.772903,-1.326158 -11.720488,-1.602082 -17.615857,-1.92942 -5.266084,-0.3625 -10.555523,0.172484 -15.667728,1.469929 -0.981945,0.249211 -1.948148,0.556786 -2.922222,0.835179 -1.023646,0.384433 -2.054714,0.74965 -3.070937,1.153299 -2.400347,0.953429 -3.647212,1.496471 -5.915419,2.745873 -2.948948,1.624376 -5.694267,3.57232 -8.460422,5.481715 -2.47636,1.850943 -4.940081,3.727458 -7.242945,5.794058 -1.830507,1.642703 -3.527703,3.423322 -5.229333,5.196247 -4.074467,4.529447 -7.478626,9.574718 -10.638838,14.766052 -1.787244,3.103578 -3.528914,6.254467 -4.905258,9.56673 -0.678104,1.631905 -0.931176,2.448025 -1.490043,4.078589 -1.046655,3.25552 -1.125175,6.659708 -0.92904,10.039752 0.27488,1.630765 0.749437,3.221929 1.452434,4.720124 0.266771,0.568529 0.682865,1.343086 1.13123,1.816439 0.200838,0.212032 0.45407,0.367411 0.681106,0.551119 1.782429,1.095727 3.596587,0.472025 5.327782,-0.32076 2.324749,-1.276847 4.443741,-2.87856 6.537108,-4.496845 2.991689,-2.201336 5.822157,-4.60634 8.69146,-6.961722 4.025272,-3.405153 7.92622,-6.953096 11.927959,-10.385776 4.422161,-3.805203 8.987131,-7.458332 13.832075,-10.712445 2.468694,-1.648875 5.130591,-3.032879 8.07045,-3.559037 0.301527,-0.01267 0.604083,-0.06596 0.904579,-0.03802 0.05678,0.0053 -0.179438,0.0797 -0.131083,0.109931 0.234313,0.146466 0.525404,0.175395 0.775505,0.292886 0.828672,0.38929 1.51435,0.979392 2.218303,1.551199 1.244328,0.987724 1.955647,2.310305 2.47156,3.780854 0.393584,1.337762 0.644396,2.81106 0.184457,4.175157 -0.112212,0.332808 -0.289364,0.640058 -0.434049,0.960088 -1.151916,2.068496 -2.902346,3.695567 -4.618106,5.288814 -0.885521,0.822288 -2.773733,2.53618 -3.672943,3.354327 -2.39037,2.168797 -4.868788,4.227988 -7.096945,6.566852 -1.414653,1.44593 -2.637544,3.047259 -3.725191,4.748438 -1.170392,1.883386 -2.382363,3.77931 -3.118791,5.882206 -0.0019,0.08399 -0.333378,1.154324 0.08013,1.14882 1.074653,-0.01431 0.828559,0.07441 1.345912,-0.177768 0.947454,-0.347858 1.847648,-0.785622 2.722522,-1.287624 0.935416,-0.562798 1.858751,-1.115671 2.644079,-1.880936 0.577909,-0.5799 1.383777,-0.888786 2.08265,-1.291614 0.360592,-0.207843 0.714054,-0.427823 1.071083,-0.641733 3.112916,-1.853732 6.249757,-3.654351 9.476547,-5.302822 4.204052,-2.132152 8.590997,-3.887253 13.068411,-5.352521 0.461645,-0.127418 2.091444,-0.606565 2.629911,-0.649266 0.18956,-0.01503 0.373276,0.07396 0.557278,0.121952 0.600395,0.156575 1.21063,0.283988 1.795349,0.491582 1.658813,0.588937 2.804181,1.267098 4.377044,2.090661 3.189096,1.829623 6.239296,3.893556 9.446006,5.693066 0.64932,0.364376 1.29416,0.740667 1.97082,1.051319 0.67796,0.311248 1.39055,0.540711 2.08582,0.811067 2.83622,0.87992 5.90376,1.213549 8.82384,0.499031 1.58001,-0.386612 2.16178,-0.764162 3.61613,-1.469088 2.02624,-1.152293 3.90826,-2.565387 4.88202,-4.755735 0.66116,-1.487199 0.63989,-2.09314 0.89367,-3.717758 -0.009,-0.728734 0.0469,-1.461109 -0.0264,-2.186202 -0.27638,-2.735088 -1.31117,-5.331298 -2.54821,-7.761023 -0.42679,-0.83825 -0.86983,-1.672407 -1.39293,-2.454177 -0.55093,-0.823338 -1.21394,-1.565875 -1.82091,-2.348815 -1.9284,-1.924087 -4.15085,-4.328234 -6.8339,-5.207259 -2.30382,-0.754779 -5.48133,-0.667575 -7.77684,-0.50161 -1.15144,0.08325 -2.28422,0.336706 -3.42633,0.505058 -2.50054,0.58261 -4.97572,1.318757 -7.30832,2.404456 -0.820127,0.381723 -1.644968,0.821272 -2.338706,1.413428 -0.235066,0.200647 -0.424341,0.44944 -0.636513,0.674159 -1.002128,1.488511 -0.791776,3.316417 -0.828755,5.025199 -0.155149,3.561763 -0.379248,7.120903 -0.391086,10.686862 0.02667,1.752055 0.01373,3.535638 0.417696,5.253082 0.141843,0.603044 0.285329,0.916837 0.505909,1.484961 0.535393,1.391825 1.607114,2.447306 2.454244,3.645839 1.456341,2.270189 2.896841,4.547309 4.164431,6.929221 1.16863,2.100791 1.60738,4.477173 2.46112,6.702557 0.66563,1.841479 2.05256,3.202239 3.37161,4.587073 2.39165,2.518712 3.78084,5.542442 5.04607,8.731632 1.35531,3.7954 2.1512,7.78872 2.50014,11.80144 0.0783,0.90084 0.11072,1.80508 0.16608,2.70763 0.0732,3.46982 -0.16162,6.95854 -0.82312,10.36913 -0.34892,1.79897 -0.51569,2.25049 -1.00686,3.97733 -1.09074,3.07073 -2.6282,5.75078 -4.98619,8.00744 -0.2656,0.18291 -0.51307,0.39542 -0.79678,0.54874 -1.52102,0.82195 -3.69448,0.87119 -5.37711,0.78971 -4.423995,-0.32512 -8.853943,-1.00632 -12.967795,-2.73944 -0.800362,-0.33719 -1.564931,-0.75372 -2.347397,-1.13058 -2.755688,-1.59514 -5.135134,-3.80575 -6.667005,-6.6273 -0.825545,-1.52057 -0.98157,-2.33635 -1.475835,-3.97347 -0.514152,-2.46175 -0.589502,-5.01773 0.35097,-7.39512 0.63288,-1.59984 1.083085,-2.04729 2.085625,-3.46277 2.142866,-2.36435 4.768657,-4.77333 8.136856,-4.94944 0.237342,-0.0124 0.465844,0.0945 0.698767,0.14177 3.257431,0.71247 5.582825,3.00138 7.661286,5.45934 1.523858,1.83606 2.763318,3.90687 3.518168,6.17895 0.51492,1.5499 0.58886,2.27632 0.88688,3.89402 0.42175,3.29175 0.76845,6.68948 0.0136,9.96426 -0.10634,0.46138 -0.27428,0.90637 -0.41142,1.35955 -0.15509,0.34606 -0.25461,0.72285 -0.46527,1.03818 -0.67308,1.00754 -1.77795,1.30054 -2.92815,1.25669 -0.16747,-0.006 -0.31811,-0.10565 -0.478045,-0.15572 -0.504812,-0.15804 -1.010772,-0.31239 -1.516158,-0.46858 -3.209248,-1.24916 -5.797039,-3.4473 -8.057306,-5.98677 -1.847921,-2.50804 -2.468734,-5.55507 -2.855179,-8.58006 -0.183582,-1.76724 -0.32951,-3.59148 0.501583,-5.21388 0.318027,-0.46963 0.753711,-0.80383 1.31299,-0.92712 0.142478,-0.0314 0.551974,0.0222 0.433213,-0.0625 -0.137269,-0.098 -0.337201,0.007 -0.505804,0.0107 1.134348,0.10186 2.050415,0.73803 2.951789,1.37434 0.904661,0.65057 1.86748,1.21268 2.780192,1.85004 0.457679,0.38625 0.934445,1.03873 1.615188,0.23498 0.120637,-0.14244 -0.157165,-0.33871 -0.229618,-0.51073 -0.126759,-0.30096 -0.245282,-0.60531 -0.367922,-0.90796 -1.274053,-3.12331 -2.272157,-6.34926 -3.399917,-9.52679 -1.947637,-5.28285 -2.884426,-10.82094 -3.7592,-16.358957 -0.835178,-5.456481 -1.243745,-10.966021 -1.460778,-16.478157 -0.10683,-3.603033 -0.09174,-7.208375 -0.08054,-10.812566 -0.149167,-1.928442 0.27948,-4.006776 -0.113998,-5.915715 -0.361061,0.09663 -0.791768,0.05584 -1.083183,0.289893 -0.172053,0.138187 -0.0624,0.436917 -0.09373,0.655357 -0.06752,0.470826 -0.130617,0.942308 -0.202809,1.412441 -0.436758,2.844252 -1.096584,5.631918 -1.736714,8.436195 -1.378948,6.020786 -2.882903,12.010882 -4.607621,17.942051 -0.437946,1.680612 -1.037667,3.329086 -1.373468,5.036741 -0.01836,0.09343 -0.237024,1.398337 -0.107767,1.654437 0.08736,0.17309 0.318502,0.22118 0.477752,0.33177 0.593053,0.002 1.187728,0.0494 1.779162,0.006 0.513191,-0.038 2.016919,-0.46158 2.424472,-0.58419 1.567254,-0.47152 3.101033,-1.04832 4.631325,-1.625549 1.588167,-0.591273 3.180384,-1.226027 4.875638,-1.417524 0.01378,-0.0016 -0.03418,0.03195 -0.0209,0.03603 0.295389,0.0909 0.598173,0.155752 0.897258,0.23363 1.193411,0.497678 2.170631,1.325049 3.152341,2.142393 1.061664,0.8839 2.087182,1.78734 3.078591,2.74882 0.143878,0.17232 0.720461,0.76372 0.761963,1.10092 0.0105,0.0854 -0.223808,0.16674 -0.149601,0.2102 0.118951,0.0697 0.532251,0.005 0.409461,-0.058 -0.336454,-0.17161 -0.734464,-0.17876 -1.094895,-0.29161 -0.524016,-0.16407 -1.037839,-0.35908 -1.556759,-0.53862 -4.968803,-1.75265 -9.685144,-4.137843 -14.377235,-6.515333 -4.464228,-2.303484 -8.859534,-4.737521 -13.302126,-7.082182 -2.200389,-1.04022 -4.275598,-2.48585 -6.642063,-3.150984 -0.590063,-0.165846 -1.189079,-0.349763 -1.801762,-0.367109 -1.267203,-0.03588 -2.53161,0.139054 -3.797416,0.208579 -1.175748,0.243049 -2.365134,0.427543 -3.527243,0.729144 -2.69658,0.699841 -5.603046,1.749536 -8.170399,2.808015 -2.838368,1.170215 -5.037212,2.198105 -7.645633,3.810455 -1.127985,0.697246 -2.18476,1.503606 -3.277139,2.255409 -2.800215,2.360099 -3.362259,2.592811 -5.660488,5.518096 -0.805847,1.02572 -1.606725,2.07201 -2.215634,3.22557 -1.428689,2.70661 -2.324257,6.02972 -2.874573,9.00669 -0.304874,1.64924 -0.42727,3.32704 -0.640904,4.99056 -0.362534,6.29111 0.415831,11.87062 2.952827,17.66043 1.576305,3.59738 2.712416,5.23668 4.751811,8.63989 6.885757,10.68348 16.29664,19.35034 25.701701,27.76669 4.086037,3.54418 8.268131,6.98227 12.580636,10.24832 2.344629,1.7757 4.741492,3.55577 7.287591,5.04187 1.115718,0.65122 2.29282,1.19106 3.439234,1.7866 3.264042,1.16958 6.448075,2.66356 9.946272,3.00536 2.884437,0.28183 6.22374,-0.0388 9.017076,-0.56261 1.513791,-0.28387 2.978741,-0.7846 4.468111,-1.17689 1.55045,-0.57615 3.11924,-1.10519 4.65136,-1.72845 2.85021,-1.15947 6.68005,-2.98532 9.42975,-4.35356 3.10329,-1.54418 5.69438,-2.90806 8.68029,-4.65728 1.32545,-0.77647 2.61916,-1.60592 3.92873,-2.40888 6.1721,-4.11622 11.92171,-8.89418 17.16736,-14.14064 1.06316,-1.06332 2.08119,-2.17083 3.12179,-3.25624 2.02948,-2.35436 3.73427,-4.17566 5.44885,-6.77335 1.64229,-2.48816 3.07046,-5.33755 4.24885,-8.06907 1.43428,-3.32465 1.90556,-4.99659 3.03471,-8.41048 1.9655,-6.492 3.35436,-13.16826 4.10094,-19.91207 0.13165,-1.18916 0.21167,-2.38348 0.3175,-3.57521 0.29582,-4.3341 0.21777,-8.70923 -0.68317,-12.9738 -0.60277,-2.853172 -0.95435,-3.603573 -1.89784,-6.3508 -1.30127,-3.298428 -2.82839,-6.534319 -5.00928,-9.35115 -0.98195,-1.268283 -1.383,-1.617104 -2.46107,-2.712855 -2.03601,-2.02882 -4.49747,-3.518778 -6.92556,-5.018995 -0.71116,-0.459798 -1.52446,-0.9403 -2.14479,-1.526416 -1.78571,-1.687234 -2.82306,-3.973351 -3.86028,-6.151853 -1.27644,-3.125433 -2.20132,-6.430208 -2.62787,-9.785337 -0.0783,-0.616209 -0.11494,-1.237011 -0.17241,-1.855517 -0.0586,-2.5029 -0.0617,-5.330738 1.31932,-7.53927 0.20408,-0.326361 0.46928,-0.610254 0.70391,-0.915379 1.23591,-1.165032 2.82158,-2.039782 4.53744,-2.208268 0.28757,-0.02824 0.57774,-0.0136 0.86662,-0.0204 -0.0425,0.03978 -0.17955,0.093 -0.12761,0.11934 0.24674,0.125122 0.53322,0.147699 0.79983,0.221549 0.25698,0.122643 0.5237,0.226698 0.77095,0.367933 0.86636,0.494871 1.60787,1.173696 2.35227,1.828101 2.20932,1.824606 3.7863,4.156287 5.18718,6.623203 0.14966,0.431213 0.3885,0.841219 0.44899,1.293641 0.34395,2.572628 -1.77922,5.955297 -2.92896,8.130355 -1.77033,3.519167 -3.47092,7.079144 -4.75765,10.806104 -0.30736,0.969685 -0.57682,1.954207 -0.94316,2.904445 -0.057,0.147828 -0.3249,0.356687 -0.18805,0.436518 0.21264,0.124036 0.58632,0.07971 0.7285,-0.121259 0.10474,-0.148053 -0.23012,-0.280376 -0.34517,-0.420563 -1.1573,-1.988585 -2.21648,-4.037896 -3.14721,-6.141813 -1.41033,-3.127115 -2.38579,-6.402101 -3.23062,-9.718206 -0.74812,-3.21441 -1.32225,-6.459006 -1.7866,-9.72475 -0.35131,-2.051222 -0.62517,-4.12074 -0.56906,-6.207561 0.0461,-1.713842 0.21674,-3.005199 0.3963,-4.718484 0.61421,-4.708284 1.9536,-9.275239 3.06591,-13.880169 0.23267,-1.215175 0.73407,-2.517963 0.46348,-3.780515 -0.20066,-0.936281 -0.83668,-1.502131 -1.52808,-2.084372 -1.29484,-0.780375 -2.78841,-0.961517 -4.26815,-1.055106 -0.33539,-0.02121 -0.67316,-0.0044 -1.00744,-0.03892 -0.32031,-0.03311 -0.63473,-0.109073 -0.9521,-0.16361 -0.29795,-0.137236 -0.61444,-0.239844 -0.89385,-0.411708 -1.43815,-0.884598 -2.54144,-2.718944 -3.45074,-4.111931 -0.46133,-0.748384 -0.8952,-1.517839 -1.40847,-2.233146 -0.0595,-0.08293 -0.56559,-0.799452 -0.77845,-0.828424 -0.48532,-0.06606 -0.97871,0.04184 -1.46806,0.06276 -0.20338,0.167801 -0.42431,0.316343 -0.61012,0.503404 -0.9346,0.940859 -1.59398,2.114877 -2.28255,3.233951 -0.95356,1.549728 -0.4852,0.831333 -1.43002,2.21085 -0.2437,0.166837 -0.46386,0.37477 -0.73109,0.500509 -0.0435,0.02046 0.006,-0.115512 -0.0358,-0.139659 -0.44853,-0.260644 -0.94881,-0.425554 -1.39428,-0.691383 -1.88702,-1.126041 -3.60014,-2.587684 -5.34301,-3.917066 -5.32361,-4.116501 1.71033,1.329857 -2.9581,-2.306124 -1.18086,-0.919706 -1.89758,-1.629337 -3.38765,-1.907051 -0.4912,0.01981 -0.9862,-0.0047 -1.47361,0.05943 -0.41459,0.05455 -0.88689,0.502394 -1.33038,0.61265 -1.02649,0.255196 -1.35931,0.173215 -2.522,0.182269 -0.36619,-0.06114 -0.73317,-0.117781 -1.09858,-0.183429 -1.97531,-0.354871 -2.76633,-0.467305 -4.70794,-1.058653 C 98.753992,11.537843 96.805545,10.716677 94.858696,9.9545459 92.714219,9.0790354 91.811043,8.6486628 89.448882,9.3325385 89.293093,9.3776413 88.139526,10.107909 87.953328,10.223926 86.82775,11.149462 85.865551,10.649457 84.650595,10.318116 83.862065,10.103069 83.062616,9.9297118 82.273179,9.7180288 80.976159,9.3702419 79.375375,8.883946 78.074807,8.4960086 75.815112,7.8109666 74.049775,7.0874662 71.654301,7.3598925 71.445106,7.3836839 71.253492,7.4889936 71.053089,7.553544 68.790324,8.4876824 66.415588,9.1527105 64.065348,9.8303015 63.312497,10.047354 62.564292,10.28342 61.802065,10.464826 c -0.665642,0.158419 -1.344306,0.256021 -2.016459,0.384032 -0.605562,0.02895 -1.210616,0.101764 -1.81669,0.08686 -0.207229,-0.0051 -0.403254,-0.0963 -0.6044,-0.146403 C 56.931948,10.68156 56.494679,10.590576 56.067795,10.462138 55.115224,10.175536 54.208415,9.737854 53.274462,9.3974485 52.022975,9.1736697 50.64117,9.0549911 49.537061,9.8079686 48.26936,10.672513 47.333196,12.083515 46.387654,13.257405 c -0.64303,0.684879 -1.504582,2.772158 -2.841019,2.430363 -0.180731,-0.04622 -0.0907,-0.383544 -0.225983,-0.511988 C 42.900094,14.776489 42.368115,14.511908 41.920191,14.143578 41.45516,13.761181 41.030395,13.332292 40.585495,12.92665 39.476915,11.955123 38.630256,10.717955 37.511111,9.7581549 37.27714,9.557496 37.060116,9.2752673 36.756138,9.2242284 36.157505,9.1237153 35.501318,9.1000952 34.937954,9.3261113 34.417841,9.5347739 34.106723,10.07796 33.691107,10.453885 c -3.165652,3.461196 -4.913892,7.866081 -7.418335,11.769082 -0.492929,0.509263 -0.806039,1.092393 -1.593862,1.110903 -0.11334,0.0027 0.287423,-0.148807 0.232668,-0.24808 -0.139353,-0.252654 -0.464213,-0.345605 -0.671069,-0.546762 -0.323689,-0.314771 -0.853296,-1.010712 -1.136,-1.369878 -0.902452,-1.062727 -1.715773,-2.025885 -3.254498,-1.116792 -0.200329,0.118356 -0.191788,0.424001 -0.287682,0.636002 -0.565053,2.045415 -0.392896,4.190402 -0.685487,6.271067 -0.07085,0.143722 -0.338248,0.331788 -0.212549,0.43116 0.174454,0.137917 0.507764,0.08421 0.662915,-0.07512 0.09878,-0.101436 -0.223776,-0.173585 -0.333024,-0.263644 -0.34848,-0.287277 -0.660983,-0.75883 -1.216414,0.236021 -0.191212,0.342485 0.07109,0.781267 0.106633,1.171901 0.08226,1.242298 0.300512,4.190873 0.263065,5.297379 -0.157029,4.639913 -1.207022,9.356608 -2.35164,13.840497 -0.264038,0.536109 -0.482457,1.883134 -1.489456,1.695508 -0.138477,-0.0258 0.358845,-0.20868 0.274369,-0.321398 -0.126903,-0.169333 -0.435317,-0.243339 -0.619415,-0.139006 -0.574157,0.32539 -1.211535,0.717743 -1.471852,1.324184 -0.547479,1.275421 -0.564391,2.717937 -0.846586,4.076906 C 9.0721576,65.279018 6.4213744,76.30838 3.4858626,87.262969 3.3174463,87.8969 3.1567731,88.53294 2.980614,89.164762 c -0.023977,0.086 -0.9178686,2.271078 0.6625609,0.338093 0.059301,-0.07253 -0.080703,-1.763078 0.5533323,-1.080979 4.4547102,2.051677 8.2604148,5.224772 12.2401878,8.037544 1.020368,0.721161 2.019707,1.476785 3.087594,2.125511 0.900877,0.547267 1.871552,0.970373 2.807328,1.455559 2.405278,0.30934 3.254137,0.72073 5.701781,-0.380937 0.698082,-0.314201 1.242681,-0.912419 1.755282,-1.480998 1.483789,-1.645827 2.328328,-3.821599 3.157265,-5.834499 0.573503,-1.362752 1.059844,-2.883953 2.207731,-3.902657 1.469316,-1.303962 3.601011,-1.878351 5.382408,-2.538349 3.550457,-1.278998 6.25225,-2.474703 8.796094,-5.426842 3.140014,-3.644 5.150517,-8.196326 7.166877,-12.503835 1.343446,-3.251594 1.521926,-3.55088 2.620368,-6.663182 0.652475,-1.848712 0.908518,-2.957568 1.702107,-4.745638 0.937908,-2.113246 1.332142,-2.582955 2.56486,-4.545044 1.967568,-2.973459 4.680611,-5.200446 7.66455,-7.088741 0.629865,-0.398589 1.259438,-0.802748 1.926516,-1.135332 0.580522,-0.28943 1.20383,-0.483634 1.805747,-0.72545 1.272749,-0.310486 1.737966,-0.521359 3.02019,-0.488707 0.113699,0.0029 0.205277,0.09867 0.311663,0.138898 0.369311,0.139634 0.75747,0.23236 1.114745,0.400418 0.763535,0.359159 1.146056,0.726699 1.79464,1.245619 1.460735,1.339463 2.205577,3.075331 2.630315,4.969274 0.441169,2.845284 -0.417719,5.720932 -1.089993,8.463923 -0.89702,3.240614 -1.805599,6.508962 -3.313668,9.530453 -0.293741,0.588523 -0.631598,1.153972 -0.947397,1.73096 -0.990316,1.499624 -1.923216,3.285648 -3.575999,4.174085 -0.733785,0.394438 -1.41808,0.527293 -2.211293,0.73756 -0.366273,0.04598 -0.730051,0.154676 -1.098822,0.137938 -0.09812,-0.0044 -0.130493,-0.154059 -0.218474,-0.197723 -0.386416,-0.191765 -0.812073,-0.299326 -1.192591,-0.502542 -1.409938,-0.75298 -2.576634,-1.875652 -3.732813,-2.953758 -1.890356,-1.988576 -3.692472,-4.117152 -4.897901,-6.60382 -0.257088,-0.530341 -0.46551,-1.082921 -0.698267,-1.62438 -1.061638,-2.990924 -1.873067,-6.158886 -1.867958,-9.356071 0.0011,-0.670187 0.07659,-1.338189 0.114879,-2.007283 0.139774,-0.657394 0.225213,-1.328732 0.419317,-1.972183 0.761982,-2.525961 2.212205,-5.07946 4.187349,-6.853793 0.55322,-0.496977 1.184158,-0.899959 1.776238,-1.349938 2.987683,-2.025822 5.669854,-3.382762 9.381958,-3.208184 0.330943,0.01556 0.650605,0.125595 0.975908,0.188393 0.619368,0.191609 1.26022,0.324099 1.858105,0.574829 2.833751,1.188373 4.912481,3.520826 6.505794,6.079191 0.460788,0.739881 0.838108,1.528582 1.257163,2.292876 1.082815,2.194264 1.86569,4.515948 2.474563,6.881474 0.212415,0.825251 0.616,2.633237 0.710409,3.523049 0.05522,0.52048 0.0383,1.046099 0.05745,1.569151 -0.0899,0.527203 -0.121491,1.067742 -0.269697,1.58161 -0.967793,3.355581 -3.91096,5.781527 -6.414498,7.999386 -3.792958,3.22072 -8.264705,5.437058 -12.800883,7.399824 -1.169648,0.349031 -2.127146,0.80386 -3.382494,0.558769 -0.260802,-0.05092 -0.419251,-0.327171 -0.638585,-0.477182 -0.489878,-0.335044 -1.03129,-0.598654 -1.488218,-0.977407 -1.202779,-0.996998 -1.84147,-1.971115 -2.794309,-3.202583 -2.923585,-4.176744 -4.274674,-9.077965 -5.361937,-13.988317 -0.455375,-3.039203 -0.186664,-6.123435 0.949639,-8.992553 0.598155,-1.510315 1.121874,-2.262528 1.944135,-3.634456 1.786054,-2.617798 4.204798,-4.65505 6.741178,-6.507155 1.286196,-0.769617 2.609215,-1.522232 4.031457,-2.015223 0.798414,-0.276754 1.336429,-0.393469 2.151213,-0.598265 1.974554,-0.56366 4.023537,-0.79538 6.071592,-0.818491 0.06956,0.06019 0.121274,0.151905 0.208682,0.18056 0.372362,0.122073 0.768514,0.157165 1.145686,0.263448 1.381839,0.38939 2.540688,0.985096 3.711998,1.797597 1.785752,1.579595 2.935957,3.692131 4.073432,5.752018 1.131861,2.361899 1.330018,5.022871 1.614916,7.590441 0.377103,3.431291 0.407152,6.878262 0.290243,10.323473 -0.145537,2.27394 -0.402489,4.551764 -0.856152,6.786911 -0.136988,0.674921 -0.266266,1.354847 -0.480115,2.009487 -0.590069,1.806321 -0.931842,2.131645 -1.935555,3.728532 -0.466727,0.54392 -0.904843,1.113763 -1.400185,1.631757 -1.53938,1.609767 -3.602268,3.349799 -5.714444,4.153305 -0.426117,0.162099 -0.879422,0.240884 -1.319134,0.361325 -0.426037,0.01609 -0.854381,0.09536 -1.278114,0.04828 -0.118568,-0.01318 -0.181004,-0.156604 -0.281086,-0.221528 -0.501562,-0.325366 -1.05052,-0.58116 -1.522325,-0.948346 -2.10307,-1.636733 -3.699539,-3.808724 -5.311172,-5.896374 -2.109872,-3.05118 -4.005198,-6.287212 -5.34041,-9.759236 -0.776198,-2.018395 -0.842817,-2.558933 -1.359096,-4.639241 -0.57812,-3.006407 -0.917916,-6.068975 -0.851816,-9.133665 0.03656,-1.695212 0.132297,-2.307976 0.303126,-3.965178 0.339963,-2.217267 0.897395,-4.36077 2.065869,-6.294856 0.583816,-0.966348 0.989499,-1.409845 1.688113,-2.272728 1.574871,-1.911297 3.890264,-2.754053 6.114283,-3.664014 2.551398,-0.987234 5.160171,-1.91998 7.841654,-2.494436 0.498163,-0.106722 1.005671,-0.163872 1.508506,-0.245808 1.480688,-0.13022 2.551631,-0.440021 3.827897,0.279686 0.09808,0.07496 0.19617,0.149915 0.294256,0.224874 0,0 0.983771,-0.08952 0.983771,-0.08952 v 0 c -0.09901,-0.07906 -0.198017,-0.158108 -0.297026,-0.23716 -1.625648,-1.016942 -3.948896,-0.395446 -5.750002,-0.311086 -3.211158,0.544316 -6.334302,1.553318 -9.355574,2.761022 -2.237221,0.915993 -4.556093,1.770216 -6.12149,3.711702 -0.702371,0.877462 -1.094647,1.308997 -1.681004,2.291149 -1.164108,1.949894 -1.725856,4.100494 -2.057172,6.331675 -0.168214,1.678717 -0.258696,2.257433 -0.292944,3.975319 -0.06125,3.072236 0.276624,6.141588 0.857379,9.15547 0.517848,2.085459 0.585291,2.631265 1.365166,4.654134 1.341054,3.478475 3.247448,6.717798 5.352878,9.781241 1.399003,1.824607 1.978572,2.694334 3.559386,4.326626 0.554818,0.572883 2.291737,2.281578 3.227512,2.59145 1.095759,0.362847 2.329984,0.226076 3.457025,0.164153 0.439174,-0.126357 0.892125,-0.2121 1.317522,-0.379068 2.107035,-0.827 4.159485,-2.57451 5.696254,-4.193416 0.496104,-0.522621 0.934717,-1.096954 1.402075,-1.645433 1.002114,-1.606002 1.350181,-1.944492 1.93857,-3.758848 0.212971,-0.65672 0.34019,-1.338826 0.476001,-2.015726 0.449445,-2.240052 0.702702,-4.521795 0.85702,-6.799048 0.133995,-3.449698 0.112913,-6.901188 -0.271812,-10.337244 -0.281567,-2.578957 -0.467294,-5.253937 -1.597977,-7.628855 -1.146882,-2.068121 -2.30409,-4.187251 -4.076481,-5.795754 -0.284395,-0.201559 -0.556702,-0.421367 -0.853188,-0.604679 -1.844387,-1.14034 -3.989655,-1.605282 -6.130809,-1.694352 -2.049105,0.03652 -4.097083,0.272624 -6.071748,0.841304 -0.815062,0.20877 -1.35622,0.328623 -2.154687,0.610518 -1.421556,0.501872 -2.744457,1.260803 -4.027416,2.040258 -2.5312,1.865868 -4.944465,3.916643 -6.719703,6.546736 -0.81698,1.37596 -1.344572,2.143434 -1.939205,3.656073 -1.134811,2.886766 -1.396661,5.986677 -0.940096,9.041347 1.098404,4.918149 2.439202,9.835158 5.355547,14.02902 1.02914,1.34397 2.596129,3.608351 4.269537,4.238988 1.086479,0.409448 2.901053,0.661167 4.137392,0.442264 0.599395,-0.106127 1.163799,-0.357378 1.745697,-0.536064 4.531458,-1.981737 9.007499,-4.199845 12.797766,-7.429482 2.521323,-2.23825 5.471769,-4.677719 6.442033,-8.061391 0.149206,-0.520334 0.180695,-1.067421 0.271042,-1.601134 -0.02043,-0.527274 -0.0041,-1.057256 -0.06127,-1.581822 -0.09822,-0.901652 -0.509087,-2.695418 -0.728056,-3.532499 -0.619996,-2.370138 -1.406171,-4.698794 -2.488018,-6.901527 -0.418192,-0.767784 -0.794887,-1.559671 -1.254577,-2.303351 -1.590746,-2.57348 -3.65918,-4.924383 -6.49301,-6.141273 -0.597905,-0.256749 -1.2397,-0.39597 -1.85955,-0.593958 -1.627547,-0.112014 -3.158236,-0.314203 -4.779936,-0.129066 -2.781517,0.317542 -5.164447,1.629923 -7.429325,3.201149 -0.595006,0.455139 -1.229334,0.863025 -1.785019,1.365419 -1.978428,1.788694 -3.426839,4.366236 -4.189278,6.903939 -0.194728,0.648126 -0.279834,1.324248 -0.419751,1.98637 -0.0383,0.672516 -0.11312,1.343946 -0.114887,2.017549 -0.0084,3.20839 0.803838,6.384668 1.860804,9.3892 0.23146,0.544502 0.438338,1.100124 0.694375,1.633511 1.20046,2.500828 3.012787,4.632912 4.904298,6.633583 1.16736,1.100965 3.289125,3.157611 4.912662,3.513693 1.623282,0.356026 1.871953,0.236405 3.223971,0.05087 0.812086,-0.224247 1.46725,-0.354391 2.215521,-0.771334 1.642588,-0.915268 2.566167,-2.709241 3.551933,-4.21903 0.895289,-1.646796 1.068229,-1.866061 1.800029,-3.621024 1.034783,-2.481562 1.738307,-5.079759 2.457524,-7.664556 0.593767,-2.386409 1.424128,-5.165217 1.25921,-7.656494 -0.01897,-0.286414 -0.08629,-0.567557 -0.129442,-0.851339 -0.426415,-1.914136 -1.175411,-3.6703 -2.640306,-5.033888 -0.849416,-0.690333 -1.795158,-1.508136 -2.921675,-1.699551 -1.779251,-0.302327 -3.503178,-0.149934 -5.211011,0.378571 -0.599331,0.24675 -1.219821,0.447333 -1.797991,0.740254 -0.663396,0.3361 -1.289884,0.741619 -1.916735,1.141759 -2.983492,1.904455 -5.697656,4.14275 -7.664479,7.127023 -1.226386,1.956207 -1.638014,2.455502 -2.571072,4.562501 -0.825347,1.863778 -1.013077,2.816659 -1.679123,4.748025 -1.086255,3.149862 -1.230061,3.361057 -2.573369,6.657427 -2.018348,4.330946 -4.002228,8.825825 -7.185948,12.468643 -2.557661,2.926479 -5.289976,4.120523 -8.835602,5.388155 -1.809618,0.666334 -3.950004,1.243044 -5.428522,2.583095 -1.140251,1.033468 -1.618845,2.56305 -2.188821,3.932507 -0.818666,2.004071 -1.654183,4.163547 -3.14492,5.789965 -0.511297,0.557834 -1.13143,1.010216 -1.750364,1.445559 -0.401238,0.282217 -0.808036,0.64713 -1.296026,0.69718 -0.866559,0.0889 -1.730847,-0.19865 -2.59627,-0.29798 C 22.281885,99.461557 21.304615,99.04483 20.398501,98.499921 19.324882,97.854277 18.320589,97.099484 17.29642,96.377965 13.323288,93.578922 9.53885,90.427052 5.1496962,88.281654 4.4544699,88.25491 3.7440507,88.054422 3.0640176,88.201425 2.6986941,88.280395 2.0920536,90.443009 3.6938553,90.028068 4.606399,89.791679 2.6698392,86.68551 4.3852988,87.285908 7.1701741,76.293918 9.7834393,65.259563 12.507692,54.252481 c 0.312192,-1.353092 0.624383,-2.706185 0.936574,-4.059277 -0.151088,-0.408953 -0.518253,-0.795758 -0.453264,-1.226857 0.03138,-0.208135 0.414238,0.07506 0.620809,0.115459 2.295443,0.448953 2.13994,0.772043 3.09329,-1.461879 0.822012,-3.351956 1.548239,-6.711373 1.986347,-10.139759 0.158166,-1.237723 0.30919,-2.479275 0.359759,-3.726037 0.03401,-0.83861 -0.153084,-4.267647 -0.20477,-5.302107 -0.08957,-1.281446 0.270847,-1.230932 -1.056714,-1.505315 -0.09518,-0.01966 0.1511,0.122513 0.222475,0.188484 0.11504,0.106333 0.182337,0.300016 0.336449,0.328133 1.343454,0.245126 1.171438,0.25808 1.50265,-0.490802 0.269267,-2.073646 0.09959,-4.210258 0.688074,-6.241093 0.593492,-1.206331 0.285472,-0.08208 -0.320149,-0.867438 -0.08848,-0.114743 0.295598,-0.0043 0.432562,0.04298 0.640738,0.221214 1.035157,0.871938 1.482979,1.326886 0.368792,0.469613 1.251935,1.77847 1.809486,1.973167 0.747804,0.261134 1.755294,0.469126 2.464422,-0.06095 0.317119,-0.237046 0.539422,-0.579697 0.809133,-0.869545 2.466435,-3.917035 4.204192,-8.32494 7.415757,-11.742132 0.422177,-0.356704 0.885658,-0.6696054 1.266537,-1.0701102 0.04202,-0.044188 -0.162584,-0.1765679 -0.109511,-0.146539 1.569127,0.8878272 2.511398,2.5343132 3.856778,3.6868782 1.646618,1.514555 2.441861,2.602287 4.858274,2.811965 1.391449,0.120739 2.102117,-1.684663 2.823228,-2.49515 0.944325,-1.166213 1.885707,-2.569813 3.169497,-3.4037457 0.277833,-0.180476 0.621239,-0.238682 0.90728,-0.4058468 0.03249,-0.018989 -0.06172,-0.1104677 -0.02408,-0.1103003 0.312356,0.0014 0.620051,0.076225 0.930076,0.1143368 0.941988,0.3375567 1.851348,0.77734 2.808015,1.072083 1.815735,0.559418 3.711747,0.574488 5.590657,0.389315 0.669303,-0.131001 1.344961,-0.232922 2.007915,-0.393002 0.759639,-0.183427 1.505608,-0.419543 2.256313,-0.63666 2.368902,-0.6851285 4.757505,-1.3579152 7.05035,-2.2697567 0.198392,-0.0581 0.424664,-0.057418 0.595175,-0.1742988 0.0685,-0.046956 -0.322197,-0.072744 -0.239202,-0.069714 1.646592,0.060118 3.188462,0.8080735 4.76781,1.1815032 1.2807,0.3800298 2.939574,0.879815 4.211926,1.2239866 0.787111,0.2129137 1.567576,0.4601137 2.369494,0.6077717 0.761881,0.140286 3.322463,0.598762 4.496054,0.31161 0.266039,-0.06509 0.464206,-0.290799 0.696309,-0.436198 0.225118,-0.140021 0.446612,-0.286047 0.675355,-0.4200634 0.265739,-0.1556901 0.5741,-0.2480135 0.807646,-0.4487947 0.08579,-0.073755 -0.01566,-0.29758 0.0938,-0.3261915 1.030393,-0.269334 2.493968,0.7008069 3.424941,0.9396366 4.379349,1.702533 8.790422,3.496829 13.575982,3.469848 1.1915,-0.01925 1.51188,0.06426 2.55884,-0.212985 0.48751,-0.129098 0.48796,-0.23006 0.90326,-0.422638 0.138,-0.06399 0.45449,-0.01543 0.42555,-0.164754 -0.0301,-0.155199 -0.31328,-0.04275 -0.46991,-0.06412 0.20488,0.03018 0.41577,0.03277 0.61464,0.09055 1.06494,0.309381 1.94714,1.104095 2.80313,1.764617 0.4573,0.352879 0.91031,0.7113 1.36546,1.066951 0.53662,0.412957 1.07323,0.825915 1.60985,1.238873 0.13769,0.104971 3.49911,2.66856 3.62239,2.758301 1.58261,1.152068 2.9291,2.346207 5.04025,1.997027 0.29605,-0.04897 0.48244,-0.356984 0.72365,-0.535477 1.00189,-1.485094 0.39056,-0.547958 1.42046,-2.215552 0.68328,-1.106357 1.34837,-2.293516 2.30369,-3.198339 0.18485,-0.175072 0.40907,-0.303207 0.6136,-0.454811 -0.16216,-0.03707 -0.40303,-0.255126 -0.48648,-0.111225 -0.0803,0.138523 0.26993,0.176817 0.38227,0.290933 0.76818,0.780359 1.20212,1.851755 1.82024,2.738051 0.91336,1.403274 2.0276,3.24975 3.45367,4.165084 0.27979,0.179585 0.59759,0.291579 0.89639,0.437368 0.31846,0.05896 0.63337,0.142342 0.9554,0.176875 0.33516,0.03594 0.67415,0.01462 1.01067,0.03396 1.46913,0.08443 2.95403,0.248319 4.25282,0.997542 0.68031,0.553381 1.32326,1.096887 1.52883,2.005152 0.28247,1.248057 -0.21491,2.547984 -0.43376,3.752412 -1.08933,4.613267 -2.43113,9.18238 -3.04859,13.892442 -0.17134,1.601182 -0.3657,3.119906 -0.41737,4.729605 -0.0671,2.09047 0.20037,4.165698 0.55848,6.21964 0.46797,3.269416 1.05024,6.516256 1.7993,9.734597 0.83902,3.321651 1.81531,6.599663 3.21745,9.734365 0.9237,2.11101 1.98924,4.15849 3.12,6.166061 0.4528,0.640456 0.4105,0.853901 1.58,0.517057 0.15299,-0.04407 0.12465,-0.293169 0.17952,-0.442635 0.35021,-0.954003 0.61684,-1.936461 0.91932,-2.905776 1.27592,-3.722946 2.94893,-7.288066 4.73432,-10.792245 1.18131,-2.208781 3.29947,-5.585127 2.95566,-8.207592 -0.0601,-0.458444 -0.3021,-0.873998 -0.45315,-1.310997 -1.406,-2.468158 -2.96751,-4.82119 -5.17477,-6.655832 -1.10402,-0.978109 -2.38368,-2.257658 -3.92324,-2.473608 -0.59431,-0.08336 -1.19709,-0.08698 -1.79563,-0.130477 -0.28915,0.01151 -0.57995,0.0016 -0.86745,0.03455 -1.72384,0.197164 -3.30711,1.091197 -4.53654,2.280592 -0.23408,0.311123 -0.49895,0.601313 -0.70224,0.933373 -1.36789,2.234361 -1.35697,5.072422 -1.30012,7.592536 0.058,0.620588 0.0951,1.243481 0.17401,1.861759 0.42915,3.363434 1.36413,6.674202 2.63151,9.811787 1.03312,2.183934 2.06821,4.493154 3.84178,6.197005 0.62581,0.601204 1.42431,1.069686 2.14662,1.536935 2.42654,1.497968 4.89039,2.977743 6.93339,4.995712 1.09453,1.095637 1.48182,1.423328 2.47884,2.696697 2.19465,2.802958 3.73307,6.030573 5.04215,9.323069 0.9465,2.748661 1.29325,3.480592 1.89616,6.336003 0.89884,4.25702 0.97453,8.62444 0.69357,12.95128 -0.10323,1.19053 -0.18047,2.3836 -0.30968,3.57159 -0.73296,6.73921 -2.12841,13.4076 -4.08203,19.89608 -1.12586,3.41191 -1.59313,5.07886 -3.02812,8.4002 -1.197,2.77049 -2.58986,5.53012 -4.25844,8.05141 -1.73941,2.62831 -3.38352,4.37806 -5.44026,6.76344 -1.03935,1.08431 -2.05549,2.19136 -3.11805,3.25294 -5.24557,5.24072 -11.00136,10.00394 -17.16605,14.12247 -1.30699,0.80211 -2.59803,1.63081 -3.92098,2.40634 -2.94745,1.72783 -5.60448,3.12994 -8.66733,4.65348 -2.75496,1.37037 -6.57944,3.18898 -9.437,4.34477 -1.53522,0.62094 -3.10754,1.14587 -4.66131,1.71881 -1.96283,0.51128 -5.691166,1.6068 -7.899537,1.77727 -2.544768,0.19643 -4.780606,-0.041 -7.231319,-0.68352 -1.126377,-0.29533 -5.611209,-1.98282 -6.58871,-2.34358 -1.14985,-0.59241 -2.330378,-1.12874 -3.44955,-1.77725 -2.561476,-1.48427 -4.955162,-3.25293 -7.313687,-5.03183 -4.325098,-3.26215 -8.518054,-6.6994 -12.617775,-10.23942 -9.410628,-8.39303 -18.809443,-17.05198 -25.664588,-27.74449 -2.034765,-3.40798 -3.153812,-5.02701 -4.728287,-8.62579 -2.52643,-5.77466 -3.328455,-11.34237 -2.972005,-17.61889 0.214505,-1.66036 0.335978,-3.33542 0.643514,-4.98109 0.562372,-3.00933 1.455517,-6.24644 2.906735,-8.97432 0.610844,-1.14821 1.405888,-2.19342 2.211118,-3.21475 2.279817,-2.891672 2.885993,-3.163926 5.660387,-5.497246 1.089785,-0.749279 2.143985,-1.55315 3.269356,-2.247837 2.590599,-1.599163 4.816692,-2.641158 7.635856,-3.799075 2.58318,-1.06099 5.481389,-2.098982 8.195511,-2.790643 1.169263,-0.297973 2.365793,-0.476321 3.548692,-0.714483 0.656532,-0.07168 1.309609,-0.239292 1.969598,-0.215043 0.609733,0.02241 1.207678,0.191664 1.795997,0.353394 2.373061,0.652356 4.453927,2.099603 6.658195,3.136394 4.450942,2.34119 8.851043,4.778529 13.322059,7.081462 4.683458,2.373143 9.388287,4.759807 14.339009,6.532137 0.120002,0.0426 2.241468,0.82612 2.621613,0.866 0.891608,0.0936 2.185568,0.22645 1.447438,-0.83963 -0.15935,-0.23015 -0.36017,-0.42862 -0.54026,-0.64293 -0.997462,-0.96096 -2.0294,-1.86419 -3.090136,-2.75514 -0.980876,-0.823865 -1.952093,-1.663626 -3.138596,-2.185104 -0.300212,-0.08535 -0.590087,-0.224906 -0.900636,-0.256047 -2.433119,-0.243997 -4.528997,0.544118 -6.752762,1.415777 -1.531625,0.576574 -3.067137,1.152374 -4.63817,1.615354 -4.77866,1.40826 1.549033,-0.48465 -2.439886,0.55861 -0.05335,0.0139 0.106481,0.0287 0.159721,0.0431 -0.158578,-0.0782 -0.386985,-0.0817 -0.475732,-0.23469 -0.138491,-0.23867 0.07127,-1.558686 0.08413,-1.627602 0.318738,-1.707473 0.911127,-3.355208 1.343639,-5.03324 1.696251,-5.93774 3.171692,-11.932706 4.566584,-17.947973 0.654462,-2.807296 1.332267,-5.597761 1.806003,-8.441817 0.07833,-0.470276 0.151609,-0.941382 0.227873,-1.411997 0.03458,-0.213384 0.244387,-0.475067 0.104653,-0.639998 -0.203827,-0.240585 -0.598821,-0.197789 -0.898231,-0.296685 0.157932,0.568465 0.153958,1.226809 0.165727,1.808456 0.02753,1.360644 -0.02567,2.72292 -0.0013,4.083627 -0.0033,3.605564 -0.03825,7.21256 0.08333,10.816725 0.249367,5.51507 0.68254,11.027523 1.515628,16.487994 0.527,3.35643 1.005975,6.7397 1.804356,10.04616 0.516696,2.13988 1.241753,4.23331 1.901698,6.33094 1.126667,3.17608 2.120127,6.40033 3.36923,9.53139 0.11807,0.30419 0.231193,0.61035 0.354214,0.91257 0.06813,0.16737 0.05825,0.41351 0.219093,0.49586 0.315913,0.16175 0.702704,0.10045 1.053307,0.15561 0.03582,0.006 -0.07747,0.0117 -0.108554,-0.007 -0.07323,-0.044 -0.565615,-0.48416 -0.588235,-0.5041 -0.910407,-0.64309 -1.879385,-1.19776 -2.785361,-1.84909 -0.905002,-0.64462 -1.816891,-1.29705 -2.953729,-1.43445 -1.420378,0.004 -2.337811,-0.14781 -3.193203,1.08671 -0.822455,1.67556 -0.666742,3.45888 -0.477097,5.27171 0.39588,3.04045 1.019845,6.10649 2.863123,8.63677 2.262917,2.55099 4.856731,4.75996 8.063957,6.03748 1.913723,0.6166 1.513385,0.62257 3.884402,0.64663 1.18046,0.012 2.26998,-0.31969 2.94105,-1.35867 0.20717,-0.32074 0.30435,-0.70038 0.45653,-1.05057 0.1342,-0.4571 0.29854,-0.90642 0.40261,-1.37131 0.73621,-3.28895 0.39196,-6.69305 -0.0252,-9.99701 -0.29323,-1.61346 -0.37017,-2.36518 -0.88011,-3.91245 -0.75185,-2.28127 -1.99027,-4.36415 -3.51464,-6.20978 -2.114452,-2.51966 -4.356936,-4.74723 -7.668268,-5.53344 -1.76449,-0.092 -2.633802,-0.32668 -4.249642,0.15435 -2.623023,0.78086 -4.671673,2.76153 -6.451819,4.73628 -1.009367,1.42934 -1.460495,1.87768 -2.095982,3.49313 -0.942739,2.39652 -0.862533,4.97009 -0.342421,7.44932 0.490617,1.62938 0.6589,2.48573 1.478783,3.99986 1.535192,2.83515 3.925041,5.06406 6.685653,6.67603 0.784143,0.37966 1.550252,0.79909 2.352431,1.13899 4.10564,1.73965 8.525336,2.43131 12.943065,2.77361 2.12389,0.0323 5.29217,0.2699 7.27056,-0.84185 0.28293,-0.15898 0.52891,-0.37624 0.79337,-0.56436 2.32184,-2.27022 3.89029,-4.99708 4.96119,-8.05888 0.48453,-1.72456 0.65431,-2.19231 0.99598,-3.98808 0.65044,-3.41868 0.87534,-6.91426 0.81031,-10.38967 -0.054,-0.90414 -0.085,-1.80995 -0.16189,-2.71243 -0.34254,-4.02052 -1.13893,-8.02139 -2.4887,-11.82603 -1.24038,-3.15585 -2.65095,-6.27559 -5.01249,-8.769878 -1.30585,-1.378955 -2.69658,-2.724314 -3.36623,-4.549529 -0.86437,-2.227524 -1.30245,-4.61043 -2.47966,-6.713304 -1.26536,-2.383176 -2.69829,-4.664797 -4.14337,-6.94227 -0.835553,-1.197488 -1.902028,-2.246413 -2.448297,-3.622852 -0.2124,-0.537438 -0.375013,-0.898088 -0.514247,-1.466705 -0.418399,-1.708716 -0.409263,-3.488544 -0.440129,-5.23468 0.0063,-3.565499 0.220231,-7.125047 0.408106,-10.68474 0.04619,-1.682356 -0.157776,-3.493339 0.83493,-4.953953 0.208897,-0.21886 0.39588,-0.460967 0.62669,-0.656584 0.684731,-0.580335 1.502587,-1.018916 2.308707,-1.395458 2.31575,-1.081693 4.77366,-1.815647 7.25953,-2.387444 3.13823,-0.453871 6.29751,-1.035878 9.42238,-0.03147 2.68,0.861415 4.9077,3.255378 6.83393,5.168736 0.60514,0.778732 1.2656,1.517462 1.81541,2.336194 1.86095,2.771159 3.59084,6.827232 3.91917,10.169218 0.0707,0.720069 0.0141,1.447001 0.0211,2.170504 -0.26007,1.61915 -0.2379,2.204358 -0.90469,3.682944 -0.97741,2.167361 -2.85347,3.563411 -4.86683,4.700374 -1.46311,0.699248 -2.02628,1.064593 -3.6142,1.441677 -2.41532,0.573564 -4.62296,0.274056 -6.97444,-0.477996 -0.69487,-0.266684 -1.40696,-0.492226 -2.08461,-0.800055 -0.67977,-0.308795 -1.32814,-0.683123 -1.98037,-1.046509 -3.21358,-1.790425 -6.26559,-3.854612 -9.44864,-5.696855 -1.812123,-0.960236 -4.066071,-2.319864 -6.141727,-2.624587 -2.078128,-0.305086 -3.175889,-0.03774 -5.064765,0.550894 -4.468964,1.483976 -8.847908,3.249049 -13.055481,5.368549 -3.235442,1.651532 -6.381118,3.455776 -9.506805,5.305745 -0.359209,0.212479 -0.714893,0.43103 -1.077626,0.637437 -0.711502,0.404863 -1.532761,0.712785 -2.108187,1.31613 -0.7772,0.761098 -1.706885,1.293604 -2.630689,1.856872 -0.88053,0.497478 -1.789374,0.922288 -2.735902,1.278679 -0.480894,0.220974 -0.180682,0.04428 0.626197,0.144259 0.03806,0.0047 -0.07469,0.05661 -0.108458,0.03842 -0.136388,-0.07346 -0.08088,-0.428234 -0.07541,-0.476854 0.02014,-0.179054 0.06188,-0.355012 0.09282,-0.532518 0.721304,-2.100446 1.935199,-3.987142 3.107616,-5.859709 1.090792,-1.692341 2.315403,-3.28441 3.721266,-4.730366 2.216931,-2.333297 4.680416,-4.393708 7.054154,-6.563487 0.648478,-0.590598 3.043624,-2.769759 3.676865,-3.355425 1.732388,-1.602242 3.503326,-3.236264 4.661918,-5.323292 0.147392,-0.327242 0.327848,-0.641522 0.442177,-0.981729 0.463595,-1.379508 0.206732,-2.873457 -0.185745,-4.226938 -0.512871,-1.48926 -1.21947,-2.832997 -2.476244,-3.834328 -0.765127,-0.625436 -1.999496,-1.728703 -2.997721,-1.897163 -1.137965,-0.192043 -1.674418,-0.124622 -2.694051,-0.06664 -2.92649,0.55839 -5.575866,1.943256 -8.031046,3.602775 -4.830606,3.27083 -9.387242,6.9297 -13.814827,10.724624 -4.007942,3.434545 -7.917111,6.982497 -11.955496,10.381347 -2.873902,2.354138 -5.711704,4.7546 -8.705379,6.957682 -2.097591,1.616131 -4.223436,3.213658 -6.561204,4.47204 -0.528071,0.237398 -0.963411,0.453872 -1.518813,0.622203 -0.243853,0.07391 -0.509766,0.07492 -0.744151,0.174868 -0.08143,0.03473 0.350111,0.05005 0.263897,0.02993 -1.113225,-0.259715 -0.314608,0.06305 -1.394221,-0.48265 -0.227366,-0.17535 -0.480888,-0.321217 -0.682099,-0.526053 -0.454383,-0.462565 -0.876179,-1.229725 -1.145809,-1.792036 -0.711698,-1.484235 -1.190225,-3.064528 -1.45873,-4.687511 -0.194292,-3.36662 -0.116389,-6.75907 0.917212,-10.003621 0.559028,-1.65373 0.787492,-2.414294 1.475126,-4.070739 1.372329,-3.30581 3.100196,-6.457 4.880084,-9.556295 3.16101,-5.190902 6.572225,-10.233281 10.668118,-14.744292 1.694693,-1.770237 3.384494,-3.549187 5.208619,-5.188942 2.29639,-2.064292 4.753144,-3.940469 7.225469,-5.786207 2.766274,-1.906937 5.512903,-3.850595 8.463489,-5.469462 2.228683,-1.222788 3.555524,-1.804236 5.914202,-2.735854 1.01814,-0.402139 2.051936,-0.763451 3.077903,-1.145177 0.973497,-0.276673 1.939195,-0.582434 2.920495,-0.83002 4.519395,-1.140267 9.215622,-1.76348 13.876236,-1.453981 5.891962,0.32056 11.835405,0.596203 17.606439,1.911852 2.214674,0.586623 2.771564,0.679947 4.924424,1.466319 3.68244,1.345077 7.14464,3.229724 10.44712,5.3281 5.80906,3.894769 11.52267,8.028053 16.11907,13.358873 2.30949,2.868641 4.66144,5.751898 6.2518,9.100994 1.2223,2.659737 2.38135,5.360763 3.06919,8.216691 1.19395,4.595717 2.08099,9.260329 2.52202,13.993408 0.22173,2.617681 0.35187,3.85531 0.47081,6.507212 0.17213,3.837996 0.13038,7.65919 -0.11114,11.493479 -0.0888,1.409232 -0.21731,2.815675 -0.32597,4.223509 -0.43938,3.903906 -0.55304,5.358072 -1.19623,9.25853 -0.95847,5.81241 -2.37084,11.5447 -4.31613,17.10781 -1.24473,3.32664 -1.46532,4.1792 -2.98258,7.27511 -2.07113,4.22606 -4.78004,8.07938 -7.64863,11.79612 -0.74804,0.92199 -1.4796,1.85759 -2.24413,2.76596 -2.95881,3.51546 -6.215,6.78972 -9.74967,9.72645 -3.29151,2.68025 -6.6744,5.25275 -10.08016,7.78508 -2.05507,1.32837 -4.12056,2.66015 -6.60464,2.97951 -0.151413,0.0429 -0.296939,0.12363 -0.454237,0.1288 -1.056931,0.0347 -2.690548,-0.13344 -3.685338,-0.32736 -3.175776,-0.61908 -6.168136,-1.84214 -8.990815,-3.40959 -1.207098,-0.80095 -2.483688,-1.50594 -3.621296,-2.40286 -1.258779,-0.99245 -2.42471,-2.10275 -3.546144,-3.24812 -4.419426,-4.51378 -7.971158,-9.69614 -10.626275,-15.43238 -1.064932,-2.30073 -1.878825,-4.70955 -2.818236,-7.06432 -0.786297,-2.57692 -1.656146,-5.12982 -2.358885,-7.73077 C 58.910868,108.61411 57.568639,96.047249 56.036173,83.584562 54.896485,74.790781 53.862557,65.87473 50.924584,57.460985 49.153254,52.825655 47.233382,48.243926 44.7705,43.925013 43.056585,40.837344 41.486159,37.60775 39.128867,34.943624 37.711785,33.520819 36.515254,32.587784 34.558449,32.021049 Z" />
  </g>
</svg>
