<?xml version="1.0" encoding="UTF-8" standalone="no"?>
<!-- Created with Inkscape (http://www.inkscape.org/) -->

<svg
   width="210mm"
   height="297mm"
   viewBox="0 0 210 297"
   version="1.1"
   id="svg1"
   inkscape:version="1.4 (86a8ad7, 2024-10-11)"
   sodipodi:docname="drawing-1.svg"
   xmlns:inkscape="http://www.inkscape.org/namespaces/inkscape"
   xmlns:sodipodi="http://sodipodi.sourceforge.net/DTD/sodipodi-0.dtd"
   xmlns="http://www.w3.org/2000/svg"
   xmlns:svg="http://www.w3.org/2000/svg">
  <sodipodi:namedview
     id="namedview1"
     pagecolor="#ffffff"
     bordercolor="#000000"
     borderopacity="0.25"
     inkscape:showpageshadow="2"
     inkscape:pageopacity="0.0"
     inkscape:pagecheckerboard="0"
     inkscape:deskcolor="#d1d1d1"
     inkscape:document-units="mm"
     inkscape:zoom="0.76167929"
     inkscape:cx="366.95234"
     inkscape:cy="494.30253"
     inkscape:window-width="1920"
     inkscape:window-height="1057"
     inkscape:window-x="-32000"
     inkscape:window-y="-32000"
     inkscape:window-maximized="0"
     inkscape:current-layer="layer1" />
  <defs
     id="defs1">
    <rect
       x="90.589308"
       y="72.208869"
       width="606.5545"
       height="438.50477"
       id="rect1" />
  </defs>
  <g
     inkscape:label="Layer 1"
     inkscape:groupmode="layer"
     id="layer1">
    <circle
       id="path1"
       style="fill:#000000;stroke:#000000;stroke-width:0.264583"
       cx="304.98944"
       cy="47.589474"
       r="0.011567368" />
    <circle
       id="path5"
       style="fill:#000000;stroke:#000000;stroke-width:0.264583"
       cx="33.694736"
       cy="25.010525"
       r="0.011567368" />
    <text
       xml:space="preserve"
       style="font-size:50.8px;text-align:start;writing-mode:lr-tb;direction:ltr;text-anchor:start;white-space:pre;inline-size:57.4223;fill:#000000;stroke-width:0.264583"
       x="20.842104"
       y="17.36842"
       id="text6"><tspan
         x="20.842104"
         y="17.36842"
         id="tspan2"><tspan
           dx="0 34.825779"
           id="tspan1">BE</tspan></tspan></text>
    <path
       id="path2"
       style="fill:#000000;stroke-width:0.264583"
       d="m 101.19486,51.745679 c -0.0836,0.161739 -0.1682,0.322925 -0.25167,0.484725 0.13837,0.007 0.24781,0.0052 0.40773,0.01809 1.86396,0.149671 3.53696,0.836364 5.14956,1.682585 0.035,-0.04384 0.0704,-0.08741 0.10542,-0.131258 -1.32453,-0.760486 -2.67921,-1.463699 -4.15014,-1.842265 -0.379,-0.09754 -0.8146,-0.162411 -1.2609,-0.211873 z m -3.989941,0.204638 c -0.02927,0.0048 -0.05855,0.0093 -0.08785,0.01395 -2.087078,0.733774 -4.211146,1.729077 -5.796545,3.323311 -0.70008,0.703982 -0.880234,1.11705 -1.377177,1.949752 -0.851948,1.894515 -1.474472,3.885627 -2.098063,5.864758 -0.445219,1.662491 -0.919047,3.317393 -1.471745,4.947502 -0.575284,1.471602 -1.785601,4.406649 -3.359485,5.00693 -0.423098,0.16137 -0.898071,0.115397 -1.347204,0.173116 -0.680077,-0.200925 -1.387795,-0.324582 -2.040186,-0.602548 -1.881879,-0.801812 -3.792712,-1.992787 -5.490104,-3.132625 -2.636769,-1.77065 -4.621762,-3.217864 -7.118428,-5.20175 -0.914553,-0.726717 -1.802491,-1.486358 -2.698027,-2.236556 7.44e-4,0.105253 0.0013,0.21049 0.0021,0.315743 2.906697,2.39147 5.84141,4.741624 8.998417,6.806303 1.687108,1.103368 4.992884,3.160601 7.042981,4.016809 0.66579,0.278061 1.388989,0.390263 2.083594,0.585494 0.459526,-0.06997 0.947205,-0.03704 1.378727,-0.209806 1.548167,-0.619824 2.82049,-3.577656 3.398242,-5.051888 0.552783,-1.630968 1.035192,-3.285008 1.470712,-4.951119 0.616315,-1.974117 1.240662,-3.956082 2.081526,-5.847705 0.489066,-0.823376 0.664912,-1.229933 1.35444,-1.926497 1.268738,-1.281688 2.887756,-2.165385 4.559411,-2.833936 0.172827,-0.338322 0.348475,-0.684558 0.514697,-1.009241 z m -43.545145,0.202055 c -0.147765,0.01712 -0.308539,-0.01163 -0.443384,0.05116 -0.620773,0.289161 -0.581206,1.715918 -0.593245,2.278414 0.0054,0.490759 0.02087,0.981243 0.03462,1.471745 0.182713,-0.200715 -0.100466,0.1097 0.125573,-0.138493 0.239254,-0.257549 0.480675,-0.513001 0.717786,-0.772563 -7.61e-4,-0.03756 -0.0019,-0.07509 -0.0026,-0.112655 0.0076,-0.472315 -0.03867,-1.941956 0.520382,-2.152323 0.109196,-0.04109 0.231698,-0.01467 0.349849,-0.01033 0.151506,0.132888 0.399427,0.362255 0.665076,0.630452 0.07884,-0.08278 0.15828,-0.165104 0.236678,-0.248563 -0.04189,-0.0358 -0.121885,-0.131313 -0.156579,-0.15658 -0.452601,-0.329616 -0.969372,-0.56015 -1.454175,-0.840259 z m 55.984696,3.412195 c -0.0406,0.05098 -0.0818,0.101484 -0.12247,0.152446 1.48871,0.990601 2.42427,1.609646 4.23126,2.992065 3.2818,2.510686 6.35798,5.283086 9.5989,7.844999 2.90882,2.250405 5.77069,4.625985 9.0687,6.295223 5.34196,2.66994 10.85902,5.002967 16.00987,8.048088 1.60547,0.984067 3.24561,1.913517 4.81625,2.952274 4.779,3.160627 9.46235,6.776536 13.20539,11.149707 2.7829,3.251393 3.3561,4.709334 5.38675,8.376231 0.781,2.81261 1.59376,4.26859 0.9462,7.18354 -0.73696,3.31741 -3.77354,5.93429 -6.6306,7.42126 -1.3799,0.71817 -2.88623,1.16099 -4.32946,1.74149 -1.89006,0.48682 -3.76224,1.05047 -5.67045,1.46038 -4.51673,0.97023 -11.67486,2.02616 -16.07189,2.52387 -7.13754,0.8079 -15.27835,1.3772 -22.41878,1.62006 -4.13243,0.14054 -8.269,0.11948 -12.40338,0.17932 -4.16496,-0.0989 -8.332032,-0.13032 -12.494846,-0.29663 -10.288624,-0.41104 -20.586292,-1.23316 -30.725256,-3.00963 -0.0057,0.11661 -0.01087,0.23324 -0.01654,0.34985 2.900309,0.54011 5.758391,1.01457 9.131226,1.4087 7.34041,0.85776 14.724609,1.3338 22.107177,1.61592 4.157737,0.15889 8.319116,0.18895 12.478826,0.28319 4.13556,-0.0599 8.27283,-0.0406 12.40648,-0.17984 7.06972,-0.23808 15.39138,-0.81013 22.46943,-1.59008 4.34835,-0.47915 11.67752,-1.52785 16.16335,-2.46703 1.92158,-0.40231 3.80753,-0.95905 5.71128,-1.43868 1.45589,-0.57626 2.97514,-1.0132 4.36769,-1.72909 2.88487,-1.48307 5.9595,-4.11033 6.70967,-7.45071 0.66103,-2.94343 -0.1574,-4.41036 -0.94309,-7.25123 -2.03425,-3.67221 -2.62748,-5.16556 -5.40898,-8.420162 -3.74528,-4.38231 -8.43156,-8.011528 -13.21418,-11.182263 -1.56864,-1.039966 -3.20702,-1.970592 -4.81056,-2.955892 -5.59831,-3.442608 -11.66545,-5.983125 -17.51572,-8.937955 -0.35658,-0.190481 -0.72033,-0.36816 -1.06971,-0.571542 -0.0656,-0.0382 -0.10913,-0.106908 -0.17104,-0.150895 -2.54065,-1.805183 0.57632,0.509853 -2.55902,-1.837097 -1.91529,-1.433689 -1.68476,-1.26757 -3.67006,-2.798796 -3.25439,-2.556745 -6.33492,-5.334959 -9.6206,-7.852234 -2.10343,-1.611498 -2.88059,-2.095717 -4.94182,-3.478857 z M 59.030505,57.08127 c -0.05366,0.131799 -0.106302,0.26394 -0.15968,0.395842 0.404205,0.403626 0.824552,0.816769 1.341004,1.301729 0.180814,0.169789 0.368514,0.332142 0.551387,0.499711 -0.01396,-0.154356 -0.02846,-0.30866 -0.04237,-0.463021 -0.580758,-0.560675 -1.129288,-1.153727 -1.690336,-1.734261 z m -5.451863,3.028756 c 0.307645,-0.337666 -0.941847,1.038958 -0.794784,0.877466 0.04098,0.491636 0.09464,0.982817 0.179834,1.472778 0.02619,0.138658 0.0787,0.258584 0.121957,0.38499 0.186042,-0.511425 0.371972,-1.022849 0.562239,-1.532723 -0.03181,-0.400314 -0.05667,-0.801064 -0.06925,-1.202511 z m 3.635437,4.574398 c -0.253505,0.49362 -0.477589,1.000933 -0.72347,1.4981 -0.226133,-0.213609 -0.455745,-0.423733 -0.683163,-0.636137 -0.04176,0.117807 -0.08508,0.235058 -0.126607,0.35295 0.216364,0.204357 0.435771,0.405492 0.652673,0.609265 -1.018825,2.076523 -1.962405,4.187558 -2.878377,6.310726 -0.597832,2.0929 -1.186714,4.193053 -1.704289,6.309692 1.621811,-4.085224 3.340298,-8.132235 5.325257,-12.052494 l 0.667142,0.273368 c -0.183123,-0.168283 -0.364597,-0.338186 -0.545703,-0.508496 0.2844,-0.558053 0.566047,-1.117436 0.861446,-1.670182 z m -9.872783,23.949959 c -0.143612,0.438198 -0.26431,0.882934 -0.403593,1.3224 0.187896,-0.240362 0.384083,-0.436467 0.583427,-0.594796 -0.06366,-0.240619 -0.115112,-0.485038 -0.179834,-0.727604 z m -2.269112,10.955921 c -0.442675,0.736796 -0.882169,1.475536 -1.319816,2.215366 -0.675976,3.03612 -1.277093,6.08966 -1.746146,9.16895 -0.09539,1.76177 -0.535151,3.97965 0.686779,5.52163 1.675839,2.11479 6.192385,3.08328 8.616529,3.7884 1.8624,0.42165 3.71882,0.87099 5.587255,1.26504 0.609301,0.1285 1.10419,0.20912 1.682068,0.32763 0.0054,-0.11041 0.01013,-0.22085 0.0155,-0.33125 -2.670721,-0.5298 -5.33293,-1.10903 -7.975224,-1.79369 -1.26955,-0.37665 -2.54384,-0.73706 -3.808553,-1.12965 -1.385906,-0.43021 -2.29284,-0.57151 -3.253031,-1.73374 -1.251884,-1.5153 -0.830917,-3.73735 -0.753442,-5.49321 0.143568,-0.99406 0.265308,-1.99154 0.430464,-2.98224 0.494488,-2.96623 1.118891,-5.90619 1.837614,-8.823236 z" />
    <path
       id="path3"
       style="fill:#000000;stroke-width:0.264583"
       d="m 58.749902,68.31676 c 0.711929,0.62705 1.391572,1.288583 2.086178,1.934249 0.0025,-0.120208 0.0086,-0.270474 0.01085,-0.389123 4e-4,-0.02067 1.27e-4,-0.04134 5.17e-4,-0.06201 -0.399833,-0.368737 -0.784236,-0.753879 -1.189592,-1.116728 z m 5.483903,4.707206 c -0.0044,0.16062 -0.0083,0.317726 -0.01292,0.480591 3.444013,3.444239 6.736949,7.044832 9.992672,10.660848 3.591245,4.075207 7.069906,8.292791 9.98182,12.89017 1.287905,2.033365 1.505922,2.571959 2.539379,4.610055 0.220837,0.58294 0.530888,1.1394 0.662492,1.74873 0.327928,1.51832 -0.165569,3.32087 -0.731738,4.95939 -0.01961,0.003 -0.0393,0.005 -0.05891,0.007 -0.07638,-0.25564 -0.142776,-0.5135 -0.226343,-0.76739 -0.373036,-0.99975 -0.789147,-2.04793 -1.478979,-2.87166 -0.459544,-0.38634 -0.984821,-0.67688 -1.337386,-1.18339 -0.533572,-0.67057 -1.080835,-1.32747 -1.439189,-2.1177 -0.472213,-0.84609 -0.885115,-1.718771 -1.193209,-2.639119 -0.425288,-0.956424 -0.979278,-1.782013 -1.770951,-2.487186 -1.40548,-0.939205 -2.726194,-1.917323 -4.501017,-1.711007 -1.442217,0.105585 -2.882218,0.26955 -4.28501,0.63562 -0.82718,0.180829 -1.659821,0.341572 -2.503723,0.425297 -1.127548,0.111863 -0.626716,0.01793 -1.737879,0.06149 -0.279111,0.01093 -0.557539,0.04063 -0.836124,0.06098 -0.311224,0.05212 -0.626524,0.08203 -0.933277,0.156063 -0.368627,0.08896 -0.724269,0.218777 -1.080037,0.346749 -0.01179,0.249373 -0.02844,0.620853 -0.03979,0.861446 0.622902,-0.269731 1.256311,-0.510617 1.918229,-0.663009 0.305173,-0.07026 0.618641,-0.09624 0.928109,-0.144177 0.277793,-0.01725 0.555348,-0.04306 0.833541,-0.05168 1.079619,-0.03346 0.63763,0.05356 1.736328,-0.06201 0.847146,-0.08911 1.684104,-0.252274 2.514575,-0.436149 1.401271,-0.365244 2.840556,-0.522233 4.281392,-0.620634 0.954784,-0.07764 2.313105,0.170914 3.058212,0.81442 0.06624,0.05721 -0.173269,-0.02446 -0.259933,-0.03669 0.784683,0.688769 1.357158,1.496263 1.779737,2.439645 0.317709,0.920001 0.725963,1.797786 1.194759,2.649446 0.367523,0.78396 0.885584,1.46271 1.425752,2.13011 0.357545,0.50199 0.854613,0.82791 1.328085,1.20199 0.724117,0.78686 1.132734,1.83976 1.509985,2.82825 0.140878,0.42066 0.262248,0.84617 0.379305,1.27279 -0.0091,0.001 -0.01827,0.002 -0.02739,0.004 -3.096321,0.38961 -6.075319,1.33715 -9.121408,1.98748 -3.169963,0.56968 -6.435957,1.118 -9.658841,0.62063 -0.651841,-0.10059 -1.285293,-0.29597 -1.928048,-0.4439 -0.577807,-0.26026 -1.205064,-0.43141 -1.733744,-0.78083 -0.306345,-0.20247 -0.474677,-0.56021 -0.715202,-0.83768 -0.0041,-0.005 -0.0083,-0.009 -0.0124,-0.014 -0.0058,0.11851 -0.01129,0.23703 -0.01705,0.35553 0.450043,0.37172 0.92851,0.73444 1.480013,1.07901 0.537983,0.33612 1.162166,0.50989 1.743046,0.76481 0.645006,0.14405 1.281105,0.33448 1.934766,0.43201 3.231684,0.48217 6.502744,-0.0626 9.679512,-0.63923 1.772541,-0.37779 1.799131,-0.36662 3.52485,-0.79944 1.661001,-0.41659 3.309636,-0.87514 5.010547,-1.09347 0.05322,0.2253 0.0942,0.45345 0.137459,0.68109 -0.08029,0.21796 -0.169334,0.45806 -0.241329,0.66095 -0.847534,2.38836 -1.741175,4.76026 -2.600875,7.14426 -3.262633,8.87199 -6.031081,17.9082 -8.857857,26.92497 -1.45917,4.72778 -3.016272,9.4248 -4.481897,14.15056 -0.553519,1.78476 -1.14184,3.56073 -1.620056,5.36712 -0.566674,2.14053 -1.23334,4.91999 -1.037146,7.22488 0.06404,0.75236 0.391592,1.45826 0.587561,2.18746 0.558392,0.51144 1.026676,1.14415 1.67535,1.53479 0.642919,0.38717 1.298569,0.69036 1.963188,0.94258 0.06058,1.54844 0.147015,3.09617 0.272334,4.64054 -0.01524,0.56377 0.279171,3.82951 1.584916,1.911 0.416531,-0.7871 1.032786,-1.29261 1.841749,-1.63349 0.848635,-0.423 1.782093,-0.5018 2.711979,-0.57103 0.681522,-0.065 1.367687,-0.0442 2.050004,-0.0755 -0.09394,-0.19737 -0.193477,-0.39386 -0.2651,-0.59531 -0.857769,0.0861 -1.724986,0.0171 -2.584339,0.0992 -0.939012,0.0748 -1.878227,0.1656 -2.733683,0.59531 -0.698758,0.30915 -1.252305,0.75005 -1.669149,1.36684 -0.03119,-0.29567 -0.07324,-0.63716 -0.07648,-0.66817 -0.138361,-1.60176 -0.226411,-3.20707 -0.287321,-4.81366 2.019354,0.61312 4.123305,0.77817 6.310726,0.80977 1.51025,0.0218 6.173677,-0.0989 7.659998,-0.13281 4.400859,0.003 8.831391,-0.08 13.216764,0.38189 0.542567,0.0572 1.149577,0.15322 1.735807,0.23513 -0.12057,0.40331 -0.2303,0.80825 -0.35915,1.21129 -1.037492,3.24523 -2.271239,6.42584 -3.484539,9.60768 -0.274537,0.64533 -0.962402,2.65992 -1.682584,3.43959 -0.399759,0.43278 -1.591859,0.0863 -2.094446,0.0915 -1.316485,-0.0542 -2.596068,0.20045 -3.389974,1.35961 -0.09427,0.24554 -0.223112,0.48073 -0.28267,0.73691 -0.32501,1.39797 0.01028,2.86522 -0.119373,4.27829 -0.610419,-0.7613 -1.144616,-1.59261 -1.702221,-2.38487 -0.354948,-0.57544 -0.671168,-1.17086 -0.970484,-1.77457 -0.335526,-1.40084 -0.70591,-2.79206 -1.214913,-4.14238 -0.249906,-0.59962 -0.492928,-1.50542 -1.333768,-1.45986 -0.07112,-0.0432 -0.102513,-0.0686 -0.189136,-0.11989 -0.04961,-0.0294 0.05145,0.0596 0.119372,0.12506 -0.04187,0.005 -0.07767,-6.9e-4 -0.122473,0.009 -0.142385,0.0301 0.05539,0.28599 0.08992,0.42737 0.05665,0.23194 0.122164,0.4617 0.183452,0.69246 0.425917,1.43212 0.969997,2.82205 1.632458,4.1553 0.231168,0.96432 0.451336,1.93194 0.668176,2.89853 0.09919,0.46628 0.198893,0.93252 0.297657,1.39889 0.192323,0.9082 0.509593,1.51672 -0.457854,1.94871 -1.113414,0.26139 -2.284192,0.0349 -3.410127,0.2465 -0.684273,0.0982 -1.157116,0.14451 -1.83038,0.33383 -1.464175,0.41171 -2.737995,1.23841 -3.885551,2.21795 -0.371629,0.3406 -0.760913,0.66354 -1.115177,1.02216 -1.434022,1.45166 -2.558901,3.14846 -3.622001,4.88032 0.500338,-2.14014 1.186587,-4.24091 1.714107,-6.36912 1.305978,-4.70229 2.641623,-9.39621 3.94808,-14.09836 0.380902,-1.37092 0.774477,-2.73849 1.132747,-4.11551 0.219403,-0.84328 0.617757,-1.67286 0.599963,-2.54403 -0.0075,-0.36538 -0.136543,-0.70848 -0.290938,-1.04697 -0.22674,0.17298 -0.443971,0.35279 -0.554488,0.60617 -0.348102,0.79807 -0.352816,1.70575 -0.560689,2.55126 -0.340428,1.38466 -0.713619,2.76121 -1.083655,4.13825 -1.266547,4.7133 -2.61749,9.40322 -3.941878,14.10043 -0.332311,1.16424 -0.671351,2.32665 -0.996839,3.49281 -0.132951,0.47634 -0.693414,2.56023 -0.961181,3.66696 -1.60061,-1.29853 -3.146509,-2.64982 -4.658631,-4.06797 -4.963702,-4.36234 -10.284897,-8.31191 -15.690515,-12.10727 -2.763758,-1.7212 -6.939554,-4.69988 -10.428821,-3.30419 -0.460473,0.18419 -0.831666,0.5405 -1.247469,0.81081 -0.774631,0.93369 -1.161374,1.2399 -1.596802,2.39365 -0.819681,2.17191 -0.740613,4.62381 -0.618566,6.89415 0.306866,2.57749 1.488661,4.88509 2.96416,6.97942 0.854644,3.15898 0.621634,6.47346 0.754992,9.70845 0.03709,0.89973 -0.01667,1.81848 0.192237,2.69441 0.191154,0.8015 0.659975,1.51003 0.99012,2.26498 0.591759,0.59267 1.117721,1.25988 1.775602,1.77818 0.678159,0.53426 1.436493,0.96476 2.205034,1.35806 1.076253,0.55079 2.182884,1.04903 3.31711,1.46761 2.423075,0.89421 5.041424,1.20477 7.585067,1.52187 1.70611,0.20989 3.410589,-0.0389 5.106148,0.30128 1.52391,0.30575 6.868265,1.8375 7.735445,2.08256 2.035879,0.57534 4.069403,1.15965 6.10402,1.73943 6.203386,1.77743 12.387003,3.62143 18.579745,5.43532 3.210663,0.94041 4.691854,1.42767 7.806754,2.1301 0.82185,0.18533 1.65441,0.32027 2.48151,0.4806 0.7423,-0.10454 1.5124,-0.0863 2.22673,-0.31368 1.71499,-0.54588 3.84154,-1.98706 5.30097,-2.92902 1.54582,-0.99774 3.07133,-2.02705 4.61626,-3.02617 5.89,-3.80908 5.09255,-3.26773 11.09958,-6.92568 7.02324,-4.17601 14.35947,-7.77686 21.57336,-11.59981 0.39246,-0.28415 2.51946,-1.22311 2.62981,-1.85156 0.33325,-1.89792 -0.82838,-5.01204 -1.29966,-6.41563 -0.705,-2.09968 -1.53023,-4.15732 -2.29547,-6.2358 -4.94949,-12.7406 -10.92006,-25.03696 -16.92351,-37.30315 -2.7053,-5.05153 -4.93808,-10.4062 -8.27133,-15.09417 -1.0073,-1.29386 -2.17011,-2.45073 -3.29489,-3.63905 -0.91773,-1.06928 -1.01494,-2.42319 -1.11518,-3.76773 -0.061,-1.75458 -0.12205,-3.51271 -0.62993,-5.20227 -0.70243,-1.82604 -1.4535,-3.63006 -2.25258,-5.4162 -0.85087,-2.03087 -1.71482,-4.05471 -2.50941,-6.10867 -0.74008,-1.77355 -1.34111,-3.60047 -2.03553,-5.39089 -0.27486,-0.55381 -0.42959,-0.41933 -0.93173,-0.63097 0.15237,0.0623 0.3072,0.11049 0.39584,0.0677 0.17819,-0.086 -0.0544,-0.39228 -0.0687,-0.58963 -0.0211,-0.29182 -0.0248,-0.58463 -0.0372,-0.87695 -0.0341,-0.40219 -0.0574,-0.80553 -0.10232,-1.20664 -0.13799,-1.23183 -0.33636,-2.4559 -0.48834,-3.68608 -0.29817,-2.41347 -0.51754,-4.83142 -0.72037,-7.25434 -0.0658,-1.22929 -0.10642,-1.85465 -0.10439,-2.79983 0.20246,0.48624 0.38863,0.97907 0.58291,1.46864 0.9497,1.94651 1.32629,4.33777 2.95176,5.8968 1.20577,1.15648 2.73005,1.73587 4.19819,2.47685 2.21653,0.88205 4.55163,1.4633 6.95151,1.20561 0.96645,-0.10378 1.49055,-0.30425 2.40399,-0.57825 2.82006,-1.09454 5.43714,-2.58576 7.8481,-4.40232 0.73483,-0.60869 1.26711,-0.93634 1.74873,-1.79679 1.21033,-2.16234 1.42823,-4.96749 1.69499,-7.379394 0.0552,-1.906421 0.39036,-4.116787 -0.63407,-5.862175 -0.20232,-0.344715 -0.47509,-0.642808 -0.71262,-0.964282 -1.89322,-2.106797 -4.3452,-3.586846 -6.66471,-5.171261 -1.27058,-0.743524 -2.4747,-1.857689 -3.96203,-2.133203 -0.69572,-0.128873 -0.86,-0.05348 -1.56528,0.03101 -2.49994,0.852926 -4.66031,2.391686 -6.79855,3.89847 -1.78911,1.191939 -3.48921,2.505525 -5.17798,3.833358 -0.58499,0.561369 -1.30945,0.996413 -1.76113,1.685685 -0.2746,0.419033 -0.34244,0.74263 -0.52607,1.250053 -0.77245,2.19094 -1.66934,4.334681 -2.71094,6.410983 -0.33896,0.54475 -0.72199,1.05789 -1.09968,1.57871 -1.67582,1.83247 -4.04051,2.73449 -6.31021,3.58945 -2.3482,0.8587 -4.822258,1.13022 -7.300327,1.264 -1.906971,0.0554 -3.804046,0.28244 -5.697326,0.5271 0.03356,-0.10457 0.07626,-0.2061 0.10852,-0.31109 0.467199,-1.52031 0.841936,-2.57351 0.50953,-4.1305 -0.131443,-0.61568 -0.448484,-1.17653 -0.672827,-1.76475 -1.042559,-2.04251 -1.271357,-2.597197 -2.566252,-4.633825 C 82.081229,92.805536 78.591291,88.57577 74.986637,84.49045 71.485469,80.598032 67.953446,76.714218 64.233805,73.023966 Z M 80.15118,180.50164 c 0.139099,-0.10611 0.283086,-0.20884 0.404626,-0.32711 -0.17912,0.0215 -0.360011,0.0155 -0.540018,0.0238 0.04788,0.10061 0.08935,0.2024 0.135392,0.30334 z M 126.584,84.699223 c 0.2127,-0.0087 0.4237,0.009 0.76688,0.0801 0.24062,0.0499 0.46154,0.178095 0.70384,0.219108 0.0568,0.0096 -0.17375,-0.148174 -0.12299,-0.120922 0.47473,0.254852 1.29022,0.808016 1.71617,1.088305 2.31636,1.58224 4.76802,3.052707 6.67453,5.140772 0.23815,0.313274 0.51055,0.603243 0.71417,0.939994 1.04424,1.727031 0.72599,3.932125 0.68316,5.831685 -0.25697,2.401437 -0.4704,5.174887 -1.6862,7.323587 -0.47557,0.84048 -1.01242,1.17853 -1.73168,1.7787 -2.40078,1.81616 -5.01648,3.29698 -7.83621,4.36924 -0.9106,0.26995 -1.41885,0.46453 -2.38177,0.56431 -2.38762,0.24741 -4.70807,-0.34421 -6.90862,-1.2299 -1.20934,-0.47819 -1.49384,-0.48818 -2.59829,-1.5229 -1.64144,-1.53782 -2.02203,-3.92912 -2.96365,-5.872 -0.19932,-0.51354 -0.39199,-1.03005 -0.59789,-1.54099 -0.208,-0.51612 -0.40303,-1.10301 -0.80099,-1.50688 -4.4e-4,-5.7e-4 4.5e-4,-0.001 0,-0.002 -4.7e-4,-5.9e-4 -0.002,-4.4e-4 -0.003,-0.001 -0.13136,-0.13263 -0.29866,-0.23056 -0.48886,-0.307996 0.67529,-1.504753 1.31243,-3.026012 1.87534,-4.577498 0.16696,-0.442365 0.27067,-0.831879 0.52296,-1.21853 0.44476,-0.681628 1.16327,-1.113177 1.73788,-1.670699 1.68383,-1.327991 3.37621,-2.646375 5.16041,-3.839042 2.1286,-1.499113 4.28266,-3.039566 6.7877,-3.846794 0.34999,-0.03486 0.564,-0.06981 0.77669,-0.07855 z M 59.724003,98.042594 c -0.285752,0.16417 -0.58113,0.320307 -0.864547,0.481625 -0.426402,0.281157 -1.056333,0.618167 -1.377177,1.068152 -0.678812,0.952029 0.274337,2.321079 0.577743,3.208589 0.441323,0.90297 0.869486,1.72873 1.314648,2.51199 0.01819,-0.37654 0.03611,-0.7531 0.05426,-1.12965 -0.164993,-0.33066 -0.340563,-0.65838 -0.501262,-0.98805 -0.283961,-0.79592 -1.207667,-2.27045 -0.589111,-3.12229 0.300056,-0.413225 0.95398,-0.774651 1.334802,-1.027326 8.6e-4,-4.94e-4 0.0017,-0.0011 0.0026,-0.0016 0.01585,-0.333839 0.03227,-0.667648 0.04806,-1.00149 z m 49.604207,2.756426 c 0.004,1.09953 0.0426,1.65232 0.12144,3.01118 0.20702,2.42217 0.42671,4.84039 0.7121,7.25486 0.14471,1.22419 0.33193,2.4433 0.46302,3.66902 0.0426,0.39826 0.0635,0.79857 0.0951,1.19786 0.002,0.0798 0.0321,1.43423 0.0729,1.48828 0.0102,0.0135 0.23317,0.1766 0.38241,0.28836 -0.0308,-0.015 -0.0591,-0.0281 -0.0925,-0.046 -0.0749,-0.054 0.0329,0.0243 -0.0605,-0.0429 -0.0135,-0.01 0.0515,0.0378 0.0574,0.0413 -0.056,-0.0301 -0.0912,-0.0369 -0.15502,-0.0765 -0.11571,-0.0718 0.0199,0.0225 0.21342,0.11886 0.15375,0.10537 0.55199,0.39091 0.1974,0.28267 0.72522,1.78395 1.31057,3.62485 2.05879,5.4007 0.78623,2.05711 1.65459,4.07854 2.50166,6.11074 0.79945,1.78036 1.54468,3.5794 2.24637,5.40019 0.52601,1.68029 0.59581,3.43534 0.64854,5.18625 0.0912,1.35699 0.17044,2.72509 1.07332,3.82198 1.12699,1.19863 2.31244,2.34623 3.33313,3.64164 3.38125,4.69078 5.65415,10.06347 8.39122,15.13138 6.0459,12.25357 12.04095,24.5499 16.96072,37.3109 0.74407,2.06629 1.54903,4.11179 2.23191,6.1991 0.4098,1.25264 1.56137,4.48025 1.24385,6.27869 -0.10795,0.61139 -2.20575,1.56062 -2.58279,1.84433 -7.15392,3.88676 -14.44724,7.522 -21.44985,11.68559 -6.84201,4.16565 -4.38414,2.62477 -11.12904,6.90966 -1.56133,0.99188 -3.11502,1.99628 -4.67878,2.98431 -1.5474,0.9777 -3.5064,2.32348 -5.30614,2.87942 -0.70753,0.21855 -1.46745,0.19635 -2.20142,0.29455 -0.8178,-0.15524 -1.64095,-0.2858 -2.45359,-0.46612 -3.067487,-0.68067 -4.59113,-1.17217 -7.74785,-2.08876 -6.190501,-1.79749 -12.36969,-3.63298 -18.562691,-5.42189 -2.04696,-0.58914 -4.093325,-1.18148 -6.141227,-1.76734 -0.999201,-0.28584 -6.206763,-1.80733 -7.825362,-2.13268 -1.690309,-0.33976 -3.390473,-0.0842 -5.091162,-0.29146 -2.043025,-0.25435 -2.857402,-0.30349 -4.924248,-0.79323 -0.888108,-0.21045 -1.76225,-0.47747 -2.636531,-0.73949 -0.586788,-0.17586 -1.194034,-0.30769 -1.74563,-0.57413 -2.201833,-1.06354 -2.292842,-1.41743 -3.998722,-3.08353 -0.337002,-0.74654 -0.815272,-1.44425 -1.010791,-2.23966 -0.21489,-0.8742 -0.163457,-1.79343 -0.201539,-2.69285 -0.137271,-3.24207 0.104212,-6.54938 -0.67076,-9.73171 -1.492247,-2.07503 -2.686112,-4.3752 -3.012219,-6.94273 -0.148485,-2.60687 -0.260628,-5.82203 1.256771,-8.09615 0.264898,-0.397 0.611191,-0.73355 0.91674,-1.10019 0.408053,-0.2611 0.772968,-0.60716 1.224215,-0.78341 2.066874,-0.80725 4.839968,0.0567 6.671427,1.09451 0.729914,0.41361 1.422428,0.88942 2.13372,1.33428 5.409253,3.78286 10.728959,7.72722 15.685864,12.09125 1.745368,1.63552 3.526587,3.26517 5.427059,4.7315 -0.01043,0.0459 -0.04088,0.14853 -0.04909,0.18706 -0.108807,0.51035 -0.158914,0.86085 -0.0052,0.86042 0.236626,-5.6e-4 0.471329,-0.0402 0.706417,-0.0708 0.02985,0.0549 0.0582,0.11048 0.08578,0.1664 0.0029,-0.0591 0.0078,-0.11765 0.0155,-0.17673 0.152347,-0.0203 0.305252,-0.0307 0.457854,-0.046 3.81e-4,-6.6e-4 6.52e-4,-0.001 0.001,-0.002 0.882117,0.61916 1.791046,1.1997 2.749186,1.70739 1.405024,0.74447 2.444885,0.78247 3.989938,1.03766 0.847315,-0.0277 1.698818,0.005 2.541963,-0.0832 2.013529,-0.21109 5.325794,-0.95291 7.16132,-1.4335 6.016852,-1.57535 11.89017,-3.66712 17.68574,-5.90869 5.2044,-2.22119 8.85152,-3.54823 13.67617,-6.48384 3.05741,-1.86031 5.2908,-3.24921 6.84454,-6.4146 0.3958,-0.80636 0.65972,-1.71823 0.64544,-2.61637 -0.0101,-0.63639 -0.47691,-1.18027 -0.7152,-1.77044 -0.38523,-0.47129 -0.73545,-0.97331 -1.15548,-1.41386 -0.91427,-0.95892 -1.96729,-1.71888 -3.02101,-2.51096 -1.70272,-1.27993 -3.45194,-2.50766 -5.37073,-3.44837 -0.45298,-0.1948 -0.89452,-0.41919 -1.35909,-0.58446 -0.43769,-0.15571 -3.19226,-0.89257 -3.44062,-0.95498 -2.75584,-0.69249 -5.53741,-1.29064 -8.33489,-1.78801 -0.8304,-0.13389 -1.78978,-0.29233 -2.74712,-0.44338 0.28015,-0.97515 0.53251,-1.95562 0.70435,-2.97295 0.0991,-0.5865 0.12578,-1.18257 0.18862,-1.77405 -0.0141,-1.19014 0.0507,-2.61284 -0.7736,-3.59358 -0.3691,-0.43917 -1.09591,-0.70767 -1.52187,-0.93431 -0.29481,-0.0158 -0.54912,0.10569 -0.81493,0.21188 l 0.82268,0.55242 c 0.21985,-0.0832 0.42953,-0.15539 0.66146,-0.14676 0.8032,0.93696 0.76022,2.32957 0.79117,3.4742 -0.0565,0.59093 -0.076,1.1863 -0.1695,1.77251 -0.17834,1.11759 -0.46066,2.20275 -0.77205,3.28197 -0.89891,-0.13515 -1.8053,-0.2688 -2.595186,-0.35089 -4.377418,-0.45493 -8.800262,-0.34289 -13.191959,-0.35398 -3.50492,0.078 -7.426638,0.34578 -10.905795,-0.0481 -0.06063,-0.007 -1.236842,-0.20581 -2.364196,-0.43925 -0.0405,-1.16096 -0.07512,-2.32238 -0.07958,-3.48403 -0.01902,-2.40902 -0.03294,-4.81899 -0.128158,-7.22643 -0.05783,-1.28526 -0.0088,-2.55828 0.358118,-3.80442 0.07967,-0.22055 0.240042,-0.68715 0.34985,-0.90743 0.25586,-0.51327 0.7042,-0.89174 0.949296,-1.41129 0.409922,-1.14708 0.505457,-2.34684 0.755509,-3.53467 0.342302,-1.42934 0.72183,-2.85015 1.132747,-4.26123 0.978492,-3.01514 2.074313,-5.992 3.027723,-9.01599 1.464474,-4.62943 2.996763,-9.24181 4.173905,-13.95522 0.648922,-2.91841 1.344348,-5.82167 2.303219,-8.65735 0.525264,-1.95707 1.068715,-3.90971 1.689819,-5.83892 0.0058,-0.0215 0.299094,-1.10673 0.314709,-1.18856 0.108207,-0.56705 -0.03928,-1.15744 -0.06201,-1.72445 -0.03809,-0.27891 -0.108605,-0.55032 -0.163815,-0.82527 0.131673,-0.36223 0.25485,-0.7271 0.380339,-1.0914 2.231555,-0.29123 4.468497,-0.58262 6.718453,-0.64493 2.481254,-0.14313 4.957587,-0.42619 7.305495,-1.29656 2.28715,-0.86893 4.669,-1.78005 6.36861,-3.61786 0.38608,-0.51908 0.77745,-1.03893 1.09864,-1.59939 0.15699,-0.3209 0.29217,-0.65163 0.44338,-0.97513 z M 72.708223,210.5148 c -0.0038,0.0782 -0.02985,0.15598 -0.02067,0.23358 0.0063,0.0528 0.174919,0.08 0.156579,0.03 -0.03406,-0.0928 -0.09221,-0.17498 -0.135909,-0.26355 z M 86.36062,111.84434 c -0.04463,0.45181 -0.150555,0.89695 -0.296106,1.45159 -0.617093,1.93248 -1.151847,3.89005 -1.666565,5.85184 -0.966539,2.8365 -1.653606,5.74204 -2.298567,8.66407 -1.149729,4.71934 -2.674916,9.33455 -4.147034,13.96038 -0.959599,3.01891 -2.072633,5.9859 -3.071131,8.99119 -0.427513,1.4085 -0.799453,2.83411 -1.142565,4.26537 -0.254511,1.18171 -0.348663,2.37859 -0.760161,3.51968 -0.247465,0.51102 -0.686125,0.88663 -0.939477,1.39475 -0.11938,0.23942 -0.268949,0.68089 -0.356568,0.92501 -0.358243,1.25813 -0.433584,2.54238 -0.374137,3.83956 0.118906,2.40981 0.132649,4.82355 0.153479,7.23573 0.0062,1.24446 0.04141,2.48832 0.08733,3.73207 -0.502374,-0.12056 -0.928396,-0.2398 -1.099674,-0.34158 -0.646271,-0.38405 -1.131047,-0.99086 -1.696538,-1.48621 -0.208116,-0.7247 -0.54935,-1.42377 -0.624251,-2.17403 -0.22997,-2.30358 0.407158,-5.09884 0.954981,-7.24452 0.462904,-1.8131 1.037412,-3.59576 1.581298,-5.38623 0.91653,-3.0172 3.575971,-11.39633 4.451925,-14.1671 2.868871,-8.99378 5.803984,-17.96483 8.972062,-26.85831 0.748058,-2.061 1.518313,-4.1142 2.271696,-6.17326 z m 24.78195,5.86114 c 0.0196,0.01 0.042,0.0158 0.0625,0.0253 0.45141,0.33721 0.72183,0.5389 -0.0625,-0.0253 z m -8.93589,59.8904 c 1.23584,0.18607 2.47514,0.3867 3.58945,0.56637 3.46504,0.6256 6.91032,1.38365 10.29963,2.34043 0.50534,0.14266 1.01789,0.26439 1.51153,0.44338 0.46349,0.16805 0.90267,0.39725 1.35392,0.59583 0.4413,0.24102 0.89542,0.45909 1.32344,0.72295 0.26852,0.16553 0.50714,0.37526 0.76119,0.56224 0.5571,0.41003 1.11855,0.81426 1.67225,1.22887 1.03633,0.776 2.11671,1.562 3.01945,2.5001 0.41997,0.43642 0.77248,0.93327 1.15859,1.39992 0.24286,0.58196 0.70944,1.11531 0.72864,1.74563 0.0268,0.88096 -0.21609,1.78119 -0.59686,2.57607 -1.49776,3.12669 -3.7449,4.57119 -6.72621,6.41304 -4.82927,2.98352 -8.38168,4.26461 -13.6126,6.50452 -5.81211,2.23977 -11.709501,4.31075 -17.750343,5.85287 -1.856806,0.47401 -5.176051,1.19172 -7.208345,1.38803 -0.847032,0.0818 -1.701571,0.041 -2.552299,0.0615 -1.647589,-0.28984 -2.485569,-0.30393 -3.982703,-1.07642 -0.540022,-0.27864 -1.012136,-0.67386 -1.49965,-1.03663 -0.131778,-0.0981 -0.250397,-0.20827 -0.380855,-0.30747 1.19107,-2.06364 2.479046,-4.09082 4.166154,-5.79034 0.353184,-0.35578 0.740932,-0.67529 1.11156,-1.01286 1.845064,-1.58245 3.341886,-2.17157 5.701461,-2.49236 1.13371,-0.20622 2.313614,0.0443 3.429248,-0.24598 1.008412,-0.4863 0.725254,-1.11549 0.515214,-2.08824 -0.101222,-0.46879 -0.20644,-0.9367 -0.309542,-1.40508 -0.08558,-0.3769 -0.175979,-0.75324 -0.260449,-1.13068 0.393987,0.59724 0.800656,1.18556 1.235583,1.75389 0.06383,0.0834 0.548811,0.79686 0.778247,0.89452 0.222495,0.0947 0.462693,0.13958 0.699182,0.19431 -0.06896,-0.0574 -0.08877,-0.0633 -0.125057,-0.10336 -0.01371,-0.0151 -0.02412,-0.0333 -0.03772,-0.0486 0.06031,0.0518 0.120049,0.10419 0.179834,0.15658 0.117632,0.0272 0.23189,0.0644 0.347782,0.0966 0.218073,-1.47673 -0.194964,-3.01353 0.144177,-4.48241 0.05724,-0.24794 0.182143,-0.47508 0.273368,-0.71262 0.787051,-1.12615 2.050763,-1.32191 3.328996,-1.25315 0.53044,0.008 1.704261,0.34742 2.123385,-0.12713 0.724702,-0.82055 1.371256,-2.82912 1.658813,-3.5388 1.186378,-3.19528 2.418972,-6.37912 3.470592,-9.62267 0.1655,-0.51046 0.30985,-1.01629 0.46095,-1.5229 z m -11.808063,21.16305 c -0.0058,-0.001 -0.01129,-0.003 -0.01705,-0.005 0.118126,0.0983 0.282698,0.23936 0.214458,0.17673 -0.06433,-0.059 -0.131745,-0.11455 -0.197404,-0.17208 z" />
  </g>
</svg>
