<?xml version="1.0" encoding="UTF-8" standalone="no"?>
<!-- Created with Inkscape (http://www.inkscape.org/) -->

<svg
   width="210mm"
   height="297mm"
   viewBox="0 0 210 297"
   version="1.1"
   id="svg1"
   inkscape:version="1.4 (86a8ad7, 2024-10-11)"
   sodipodi:docname="drawing-5.svg"
   xmlns:inkscape="http://www.inkscape.org/namespaces/inkscape"
   xmlns:sodipodi="http://sodipodi.sourceforge.net/DTD/sodipodi-0.dtd"
   xmlns="http://www.w3.org/2000/svg"
   xmlns:svg="http://www.w3.org/2000/svg">
  <sodipodi:namedview
     id="namedview1"
     pagecolor="#ffffff"
     bordercolor="#000000"
     borderopacity="0.25"
     inkscape:showpageshadow="2"
     inkscape:pageopacity="0.0"
     inkscape:pagecheckerboard="0"
     inkscape:deskcolor="#d1d1d1"
     inkscape:document-units="mm"
     inkscape:zoom="1.0771772"
     inkscape:cx="312.39057"
     inkscape:cy="418.22275"
     inkscape:window-width="1920"
     inkscape:window-height="1057"
     inkscape:window-x="-8"
     inkscape:window-y="-8"
     inkscape:window-maximized="1"
     inkscape:current-layer="layer1" />
  <defs
     id="defs1" />
  <g
     inkscape:label="Layer 1"
     inkscape:groupmode="layer"
     id="layer1">
    <path
       style="opacity:0;fill:#000000;stroke-width:0.365001"
       d="m -91.357893,251.14737 -3.473686,-22.92632"
       id="path2" />
    <circle
       id="path30"
       style="display:none;fill:#000000;stroke:#000000;stroke-width:0.264583;stroke-dasharray:none"
       cx="94.320595"
       cy="86.460548"
       r="0.015457068" />
    <path
       style="opacity:1;fill:none;stroke:#000000;stroke-width:0.264583;stroke-linecap:round;stroke-linejoin:round;stroke-dasharray:none;stroke-opacity:1"
       d="m 2.7018922,10.807569 c 1.0225944,0.728318 0.8570372,2.268062 1.4737593,3.193145 0.5926039,0.888906 1.4776558,1.477656 2.2106392,2.210639 0.2087425,0.208743 0.2825107,0.528137 0.4912532,0.73688 1.6168806,1.616881 4.3979381,2.991976 6.6319171,3.438772 0.240857,0.04817 0.496023,-0.04817 0.73688,0 1.210485,0.242097 2.64222,0.588116 3.684398,-0.245627 1.807621,-1.446097 1.890561,-4.644632 1.228133,-6.631917 -0.13202,-0.396061 0.04958,-0.932927 -0.245627,-1.228133 -0.129456,-0.129456 -0.361796,-0.11617 -0.491253,-0.245627 -0.263568,-0.263568 -0.233295,-0.97634 -0.736879,-1.228132 -0.513098,-0.256549 -0.977967,-0.325989 -1.47376,-0.491253 -0.30268,-0.100894 -0.543919,-0.6666884 -0.982506,-0.4912535 -2.319806,0.9279225 -0.231981,-0.013645 -1.228133,0.9825065 -0.596578,0.596578 -0.360683,-0.07304 -0.73688,0.491253 -1.337826,2.00674 -1.228133,4.79672 -1.228133,7.12317 0,0.873023 -0.122479,1.844535 0,2.701892 0.141439,0.990067 0.597254,1.970133 0.73688,2.947519 0.11579,0.810526 -0.08147,1.641574 0,2.456267 0.07377,0.737735 0.171853,1.472903 0.245627,2.210638 0.116968,1.169678 0.619912,2.269094 0.73688,3.438771 0.07332,0.733224 -0.08138,1.478267 0,2.210639 0.128222,1.153999 0.364016,2.293644 0.491253,3.438774 0.425303,3.827732 0.686482,7.696131 0.982506,11.544448 0.13321,1.731724 0.579633,3.428447 0.736879,5.158158 0.104042,1.144458 0.169185,2.292138 0.245627,3.438771 0.08169,1.225412 -0.152331,2.46575 0,3.684399 0.09363,0.749025 0.367156,1.466054 0.491253,2.210639 0.650358,3.902149 0.871947,7.872031 1.228133,11.790074 0.53467,5.88137 -0.131059,-2.505739 0.73688,2.701893 0.09422,0.56533 -0.03575,1.147374 0,1.719384 0.0925,1.479942 0.398757,2.941339 0.491253,4.42128 0.03575,0.572011 -0.07575,1.151284 0,1.719385 0.08923,0.669242 0.407509,1.295064 0.491253,1.965012 0,4.404995 -0.179943,-0.342781 0.491253,3.6844 0.0673,0.403807 -0.08028,0.826704 0,1.228132 0.185546,0.927727 0.618332,1.75351 0.73688,2.701893 0.111709,0.893676 -0.07479,1.804371 0,2.701891 0.130476,1.565709 0.624623,3.095319 0.73688,4.666909 0.145175,2.03245 -0.09248,4.10613 0,6.14066 0.07816,1.71956 0.150144,3.43947 0.245626,5.15816 0.169235,3.04623 0.08803,0.92215 0.73688,3.19314 0.298512,1.0448 0,3.73644 0,4.91254 0,0.0819 0,-0.16376 0,-0.24563 0,-0.3275 0,-0.655 0,-0.98251 0,-1.39188 0,-2.78376 0,-4.17565 0,-4.3394 0,-8.6788 0,-13.01821 0,-5.414853 -0.174004,-10.818113 -0.491253,-16.211351 -0.07752,-1.317924 -0.403435,-2.612744 -0.491253,-3.930025 -0.392165,-5.882468 -0.441256,-10.102429 1.719386,-15.7201 1.704033,-4.430487 -0.675886,0.970968 1.228132,-2.456264 0.214127,-0.385429 0.234978,-0.869347 0.491253,-1.228135 0.171586,-0.240218 0.528138,-0.282509 0.73688,-0.491252 0.208742,-0.208743 0.238116,-0.584996 0.491253,-0.736881 0.210623,-0.126372 0.496024,0.04817 0.73688,0 0.42804,-0.08561 0.495715,-0.454249 0.982506,-0.245625 2.265931,0.971113 7.676827,7.075162 8.596929,8.105677 1.627505,1.822804 3.804269,4.415393 4.912532,6.631916 0.278857,0.557717 0.458023,1.161671 0.73688,1.719386 1.321374,2.642746 0.789186,0.843484 1.965013,3.930026 1.299416,3.410969 2.344425,6.914848 3.684397,10.316316 1.350558,3.428336 2.949231,6.706012 4.42128,10.070692 1.118619,2.55684 2.013773,5.87817 3.684397,8.10567 0.721704,0.96227 1.664848,1.1736 2.456267,1.96501 0.129456,0.12946 0.116168,0.3618 0.245626,0.49126 0.345284,0.34528 5.289632,-0.37133 5.64941,-0.49126 1.630122,-0.54337 2.442064,-2.0439 3.193145,-3.43877 0.797364,-1.48081 1.189604,-1.84942 1.719387,-3.43877 1.530979,-4.59294 1.96075,-10.712453 1.228132,-15.474471 -0.1661,-1.079653 -0.537972,-2.119053 -0.73688,-3.193145 -0.652619,-3.524155 -0.815959,-7.0773 -1.719385,-10.561944 -0.708517,-2.732852 -1.168397,-3.485275 -1.965012,-6.140665 -0.274098,-0.913656 -0.635355,-4.522803 -2.210639,-2.947516 -0.245626,0.245626 -0.552775,0.442312 -0.73688,0.736878 -0.396709,0.634732 -0.797209,2.354564 -0.982507,2.947519 -0.231682,0.741384 -0.56838,1.452396 -0.73688,2.210639 -0.527828,2.37523 -0.507397,8.194084 0,10.561941 0.397748,1.85615 1.122375,3.612753 1.719387,5.403787 0.821229,2.463683 1.077489,3.351448 2.456264,5.649409 2.012831,3.354719 3.612341,6.436138 7.368799,8.105678 0.334598,0.14871 0.625065,0.41182 0.982507,0.49125 0.399626,0.0888 0.818753,0 1.228132,0 1.122352,0 2.634829,0.0542 3.684397,-0.24562 0.459044,-0.13116 0.809016,-0.50827 1.228132,-0.73688 5.055442,-2.75752 8.619379,-7.355094 11.053196,-12.52696 2.799197,-5.948288 4.462728,-12.277312 5.895039,-18.667618 0.990658,-4.419859 2.279017,-10.788661 2.70189,-15.228845 0.233008,-2.44656 0.203261,-4.911535 0.245629,-7.368799 0.111698,-6.478381 -0.08383,-12.932662 -0.245629,-19.404497 -0.03274,-1.3096 0.118605,-2.625397 0,-3.930025 -0.143441,-1.577854 -1.067159,-7.182388 -2.210638,-9.088183 -0.178718,-0.297867 -0.528458,0.458984 -0.736878,0.736879 -1.487255,1.983004 -0.865389,0.629885 -1.965013,3.684399 -1.59844,4.440106 -3.202921,9.080843 -3.930025,13.755088 -0.290545,1.867778 -0.330962,3.765976 -0.491255,5.64941 -0.559059,6.568964 -1.209955,13.307642 -0.491252,19.895751 0.706993,6.480778 2.664796,12.840747 4.175652,19.158873 1.102857,4.611944 2.043422,9.220202 3.438771,13.755087 1.050888,3.415387 1.922637,5.062632 3.684395,8.10568 0.95485,1.64928 2.27728,4.62216 4.42128,5.15815 0.87374,0.21844 1.80228,0.0428 2.70189,0 2.94727,-0.14034 6.62033,-0.31228 9.08819,-2.21063 1.30897,-1.0069 4.5159,-5.710202 5.15816,-7.123175 0.42855,-0.942824 0.61072,-1.980896 0.9825,-2.947519 2.08567,-5.422736 1.22767,-1.793364 3.19315,-8.596929 1.6287,-5.637818 2.97069,-11.610872 3.68439,-17.439486 0.24958,-2.038205 0.32073,-4.094329 0.49126,-6.140664 0.54572,-6.5487 1.22813,-13.072883 1.22813,-19.650125 0,-4.65201 -0.10543,-9.259142 -1.47376,-13.755087 -0.25675,-0.843622 -0.70365,-1.619692 -0.98251,-2.456267 -0.2135,-0.640514 -0.26417,-1.329183 -0.49125,-1.965012 -0.82648,-2.31414 -2.59822,-5.721509 -4.17565,-7.614423 -0.26208,-0.314493 -0.52626,-0.631468 -0.73688,-0.982507 -0.0421,-0.07021 0.0579,-0.187732 0,-0.245626 -0.64979,-0.64979 -0.72163,1.153845 -1.22813,2.456265 -0.33178,0.853154 -0.9153,1.595983 -1.22813,2.456266 -1.39731,3.842594 -1.60039,8.270458 -1.96502,12.281329 -0.64037,7.044111 -0.42327,4.242718 -0.73688,11.29882 -0.28036,6.308058 -0.24562,12.599918 -0.24562,18.913247 0,1.605441 -0.28684,5.762524 0,7.368797 0.68873,3.856921 2.0269,7.730458 2.94752,11.544448 0.70154,2.906395 1.21776,6.192321 2.70189,8.842557 0.72119,1.287846 1.65184,2.446827 2.45626,3.684397 0.48563,0.747114 0.71215,1.457275 1.47376,1.965013 0.21543,0.143618 0.52145,0.102007 0.73688,0.245626 0.28903,0.192685 0.45595,0.532569 0.73688,0.73688 1.38459,1.006973 2.76421,1.727327 4.42128,2.210635 3.19606,0.93219 11.92687,1.99212 14.98322,0.24563 0.55521,-0.31726 0.9856,-0.815073 1.47376,-1.228133 6.83814,-5.786117 7.12317,-14.236025 7.12317,-22.597644 0,-2.910789 0.45315,-6.29309 -0.24563,-9.08818 -0.0397,-0.158864 0.0732,-0.344792 0,-0.491255 -0.2135,-0.427011 -0.60572,0.769091 -0.73688,1.228132 -0.20737,0.725813 -0.38926,1.462707 -0.49125,2.210639 -0.4188,3.071191 -0.49125,6.240214 -0.49125,9.333809 0,2.518175 -0.0969,5.389743 0.49125,7.860051 0.90325,3.793652 3.26689,8.186121 5.89504,11.053197 0.89192,0.973002 2.49797,3.372964 4.17565,2.701894 1.95125,-0.7805 3.27418,-3.060963 4.42128,-4.666907 0.40938,-0.57313 0.94208,-1.075772 1.22813,-1.719387 0.37914,-0.853064 0.48042,-1.804286 0.73688,-2.701891 0.47006,-1.645218 1.06423,-3.191486 1.22813,-4.912532 0.16302,-1.711642 0,-3.438773 0,-5.158157 0,-0.900631 0.12169,-1.80952 0,-2.701894 -0.34558,-2.534271 -1.55443,-5.716844 -2.94751,-7.860048 -1.74022,-2.677258 -4.03518,-4.574688 -6.3863,-6.631919 -0.39454,-0.345225 -0.85742,-1.353214 -1.22813,-0.982506 -0.69881,0.698812 -0.49125,2.088388 -0.49125,2.947519 0,1.190162 -0.25758,2.68596 0.49125,3.6844 0.52815,0.704191 2.75043,0.589587 3.43877,0.491251 0.20262,-0.02894 2.51058,-0.876223 2.70189,-0.982506 1.02859,-0.571436 2.60518,-1.868294 3.43878,-2.70189 0.78748,-0.787488 1.464,-2.210642 2.45626,-2.210642"
       id="path32" />
    <path
       style="opacity:1;fill:none;stroke:#000000;stroke-width:0.264583;stroke-linecap:round;stroke-linejoin:round;stroke-dasharray:none;stroke-opacity:1"
       d="m 194.29061,13.755088 c 0.2452,7.935873 -0.004,15.907585 0.49125,23.825775 0.19874,3.179826 -0.13265,6.395802 0,9.579438 0.11308,2.713874 0.55668,5.402617 0.73688,8.105674 0.29708,4.456137 0,9.043906 0,13.509464 0,4.666903 0,9.333809 0,14.000713 0,1.99718 -0.22051,4.156032 0,6.140664 0.27152,2.44366 0.24563,-0.0372 0.24563,0.982506"
       id="path33" />
    <path
       style="opacity:1;fill:none;stroke:#000000;stroke-width:0.264583;stroke-linecap:round;stroke-linejoin:round;stroke-dasharray:none;stroke-opacity:1"
       d="m 197.23813,103.65441 c -3.70764,-1.43068 4.91848,2.258 -2.21064,-0.98251 -0.74513,-0.33869 -2.40809,-1.28784 -2.94752,-1.71938 -0.14296,-0.11437 -0.11617,-0.3618 -0.24562,-0.49126 -0.12946,-0.12945 -0.3483,-0.13125 -0.49126,-0.24562 -1.36281,-1.090255 -2.05999,-2.171321 -1.47376,-3.930028 0.0819,-0.245626 0.0626,-0.553799 0.24563,-0.73688 0.55885,-0.55885 2.00231,1.246783 2.45626,1.473761 0.23158,0.115789 0.52146,0.102007 0.73689,0.245626 0.20793,0.138623 1.00949,2.934021 1.47375,2.701893 0.22642,-0.113207 0.94679,-2.364277 1.22814,-2.701893 0.67347,-0.808165 2.4041,-1.912845 3.19314,-2.701893 0.28948,-0.289473 0.44741,-0.693032 0.73688,-0.982504 0.43631,-0.436306 0.4797,0.468148 0.73688,0.982504 0.10357,0.207131 0.37211,0.292676 0.49126,0.491254 0.32624,0.543735 0.37229,1.822937 0.24562,2.456265 -0.29662,1.483106 -0.0824,0.08286 -0.73688,1.228135 -0.21875,0.382817 -0.27713,0.842703 -0.49125,1.228132 -0.61421,1.105568 -2.32302,2.881468 -2.94752,3.684398 z"
       id="path34" />
  </g>
</svg>
