<?xml version="1.0" encoding="UTF-8" standalone="no"?>
<!-- Created with Inkscape (http://www.inkscape.org/) -->

<svg
   width="210mm"
   height="297mm"
   viewBox="0 0 210 297"
   version="1.1"
   id="svg1"
   inkscape:version="1.4 (86a8ad7, 2024-10-11)"
   sodipodi:docname="drawing.svg"
   xmlns:inkscape="http://www.inkscape.org/namespaces/inkscape"
   xmlns:sodipodi="http://sodipodi.sourceforge.net/DTD/sodipodi-0.dtd"
   xmlns="http://www.w3.org/2000/svg"
   xmlns:svg="http://www.w3.org/2000/svg">
  <sodipodi:namedview
     id="namedview1"
     pagecolor="#ffffff"
     bordercolor="#000000"
     borderopacity="0.25"
     inkscape:showpageshadow="2"
     inkscape:pageopacity="0.0"
     inkscape:pagecheckerboard="0"
     inkscape:deskcolor="#d1d1d1"
     inkscape:document-units="mm"
     inkscape:zoom="0.76167929"
     inkscape:cx="397.14878"
     inkscape:cy="561.25984"
     inkscape:window-width="1920"
     inkscape:window-height="1057"
     inkscape:window-x="-8"
     inkscape:window-y="-8"
     inkscape:window-maximized="1"
     inkscape:current-layer="layer1" />
  <defs
     id="defs1" />
  <g
     inkscape:label="Layer 1"
     inkscape:groupmode="layer"
     id="layer1">
    <path
       style="fill:#000000;stroke-width:0.264583"
       id="path1"
       d="m 51.415132,86.691387 c 1.220531,-0.221692 2.394704,-0.583428 3.558762,-1.004758 0.208965,-0.09065 0.424886,-0.166717 0.626896,-0.271963 0.214918,-0.111969 1.178713,-0.727569 1.360675,-0.839268 0.716352,-0.439748 1.441966,-0.865458 2.166316,-1.291821 1.544539,-0.937085 3.261691,-1.522788 4.919472,-2.220317 1.604838,-0.794051 2.454071,-2.416484 3.258613,-3.937045 0.645459,-1.219903 1.213665,-2.504289 1.788954,-3.757623 0.966467,-2.132213 2.019536,-4.223496 3.110119,-6.294511 0.178427,-0.338831 0.379272,-0.666128 0.544438,-1.011616 0.280501,-0.586743 0.527778,-1.188799 0.791668,-1.783199 1.805244,-3.92539 3.62381,-7.850304 5.183621,-11.881302 0.407901,-1.230964 0.742146,-2.485025 1.061953,-3.741235 0.20252,-0.795507 0.356153,-1.58619 0.666581,-2.3466 0.05381,-0.07128 0.08718,-0.164217 0.16143,-0.213852 0.0422,-0.0282 0.101468,0.0028 0.152204,0.0042 -0.238019,-0.118051 -0.457737,-0.284228 -0.714057,-0.354152 -0.07693,-0.02098 0.09586,0.127876 0.136379,0.196559 0.167323,0.283601 0.163703,0.337788 0.278236,0.675156 0.488903,1.621665 0.885341,3.271374 1.266277,4.92148 0.298691,1.207569 0.672222,2.393584 1.020729,3.587263 0.356025,1.260372 0.969322,2.420122 1.484891,3.618174 0.891794,2.129568 2.232385,4.002254 3.588896,5.852507 1.084551,1.341122 2.017059,2.792264 3.023764,4.190346 0.980363,1.496502 2.153809,2.827819 3.416223,4.088461 1.585815,1.585682 3.452786,2.820622 5.341782,4.007284 1.681336,1.05765 3.416776,1.97096 5.281646,2.647476 1.6821,0.603507 3.34062,1.268878 5.00991,1.906238 1.4254,0.545187 2.82152,1.170223 4.15981,1.904307 -0.1027,-0.05345 -0.40125,-0.22914 -0.30811,-0.160359 0.52969,0.391176 1.12958,0.680969 1.72349,0.965327 0.24708,0.118303 0.33913,0.01786 0.31886,-0.185906 -1.51482,-1.120223 -4.23072,-1.656319 -6.08112,-2.092802 -0.36418,-0.01712 -0.72888,-0.07729 -1.09254,-0.05137 -1.88075,0.134043 -4.2649,1.303025 -6.0218,2.026195 -1.67388,0.730385 -3.444288,1.089641 -5.250995,1.26637 -1.210614,0.119041 -2.429909,0.02043 -3.640177,0.11635 -0.818264,0.110411 -1.63631,0.205785 -2.460935,0.249788 -0.893537,0.01093 -1.777174,0.03094 -2.663801,0.141449 -1.856499,0.381114 -3.757877,0.434097 -5.645536,0.512217 -3.003074,-0.09121 -6.007351,-0.145206 -9.011946,-0.189031 -2.712829,-0.02709 -5.423215,0.09154 -8.103095,0.521017 -1.42154,0.284795 -2.870779,0.361739 -4.315915,0.415917 -1.574178,0.09155 -3.141123,-0.04662 -4.695867,-0.282696 -0.200891,-0.04929 -0.40557,-0.08511 -0.602668,-0.147871 -0.638789,-0.203398 -0.294294,-0.195939 -0.969709,-0.372745 -1.220306,-0.319439 -2.501101,-0.453855 -3.746423,-0.627896 -2.865638,-0.343021 -5.748165,-0.572915 -8.635135,-0.550944 -1.288274,0.07005 -2.617589,0.168024 -3.818128,0.686808 -0.32549,0.14065 -0.682151,0.372457 -0.98625,0.559131 -0.244369,0.229044 -0.648216,0.486172 -0.790009,0.811001 -0.452133,1.035772 -0.686702,2.317255 -0.988536,3.405946 -0.228888,1.149289 -1.107088,3.256682 -0.576651,4.422519 0.05947,0.130706 0.176059,0.226906 0.264088,0.340362 0.0776,0.141872 0.190053,0.269658 0.232786,0.425617 0.211624,0.772332 0.179893,1.923071 0.192741,2.64496 0.03125,1.756103 0.06076,3.5089 0.123796,5.26433 0.126812,1.73807 0.113313,3.36607 1.3266,4.71908 1.25405,1.12153 2.88295,1.64203 4.507089,1.90699 1.79282,0.22371 3.599254,0.29481 5.40417,0.32356 1.91284,0.0142 3.807926,0.47559 5.637472,1.00281 1.66007,0.48309 3.266998,1.10402 4.989176,1.33799 1.021591,0.1388 1.80679,0.15481 2.827698,0.20313 3.066867,0.0838 6.130374,-0.0929 9.192455,-0.23542 2.638002,-0.0184 5.241888,-0.41013 7.836858,-0.84129 1.814092,-0.37288 3.649168,-0.32381 5.486736,-0.25754 0.337984,0.0132 0.675794,0.0473 1.013955,0.0397 2.173861,-0.0484 4.336208,-0.36728 6.483932,-0.67068 3.776665,-0.5335 3.798811,-0.54284 7.728407,-1.12107 3.916267,-0.55524 7.843267,-1.03198 11.777027,-1.44454 0.49249,-0.0516 4.37512,-0.42183 5.13937,-0.53375 0.55379,-0.0811 1.09844,-0.21561 1.64765,-0.32341 0.38496,-0.15034 0.83287,-0.19197 1.15486,-0.45103 1.30809,-1.05244 0.62187,-4.0507 0.34679,-5.43119 -0.20135,-2.284402 0.21129,-4.562605 0.30343,-6.845469 -0.0471,-1.226844 0.0143,-2.505057 -0.40252,-3.682183 -0.2013,-0.568528 -0.38208,-0.826947 -0.68023,-1.341178 -0.67724,-0.939014 -1.43066,-1.801505 -2.2642,-2.600978 -0.79305,-0.711214 -1.43465,-1.543775 -1.97613,-2.454969 -0.37378,-0.645353 -0.71918,-1.266578 -0.8782,-1.999162 -0.12904,-0.448995 -0.17738,-0.885394 -0.89151,-0.760775 -0.14273,0.0249 0.15597,0.244308 0.2293,0.369271 0.11097,0.189084 0.21566,0.38178 0.32349,0.572672 0.7311,1.216774 1.22149,2.541884 1.66581,3.882877 0.28694,1.089721 0.50161,2.199383 0.64688,3.316988 0.31176,1.341091 0.38458,2.708191 0.43973,4.07891 0.0167,2.068544 0.17165,4.131347 0.27499,6.196516 0.0423,1.57413 0.25248,3.13625 0.37555,4.70491 0.002,1.26027 0.15035,2.29641 0.50279,3.49873 0.38735,1.38635 0.94358,2.70812 1.58416,3.99343 0.4569,1.0636 1.16625,1.97435 1.75802,2.95791 0.66854,1.15112 0.20326,2.41828 -0.10258,3.61294 -0.41227,1.34555 -0.7771,2.70553 -1.19726,4.04872 -0.10183,0.32557 -0.14809,0.67838 -0.32373,0.9708 -0.25218,0.41986 -0.62562,0.75373 -0.93843,1.1306 -1.85649,1.79089 -3.79556,3.73676 -6.24326,4.69024 -0.44449,0.13461 -0.89753,0.18892 -1.34943,0.0551 -0.11005,-0.0326 -0.41449,-0.19477 -0.31728,-0.13375 0.18549,0.11646 0.38117,0.21846 0.58397,0.30119 0.11828,0.0482 -0.21914,-0.13137 -0.3287,-0.19706 -0.46022,-0.20264 -0.89422,-0.48044 -1.38064,-0.60793 -0.29597,-0.0776 -1.92109,0.10296 -2.08368,0.1197 -1.52564,0.15705 -2.69623,0.45569 -4.16777,0.87088 -1.66828,0.49003 -3.283189,1.1439 -4.959091,1.60994 -0.647227,0.17999 -1.301332,0.3346 -1.948559,0.51458 -1.80373,0.53687 -3.541614,1.25585 -5.302377,1.91285 -1.938292,0.83359 -3.894002,1.58857 -5.927127,2.15683 -5.633701,1.33553 -11.410547,2.03634 -17.174103,2.52355 -3.442087,0.21715 -6.898786,0.18989 -10.310654,-0.33373 -0.812223,-0.26331 -0.816134,-0.21526 -1.542386,-0.63918 -0.03481,-0.0203 0.149503,0.0478 0.11901,0.0215 -0.732505,-0.63323 -1.593972,-1.22448 -2.374871,-1.79614 -1.633469,-1.12302 -3.262389,-2.26039 -4.63427,-3.70449 -0.996275,-1.04872 -1.665049,-1.94515 -2.563214,-3.07821 -1.735405,-2.28577 -3.496903,-4.55337 -5.199449,-6.86375 -1.800881,-2.27308 -2.311535,-5.22153 -2.929776,-7.98181 -0.405003,-1.82174 -0.705782,-3.66583 -0.839833,-5.5275 -0.03957,-0.762 0.287145,-1.21554 0.98034,-1.47031 0.797094,-0.12372 1.647809,-0.2726 2.42725,-0.007 -0.204023,-0.10818 -0.385564,-0.27954 -0.612066,-0.32453 -0.0805,-0.016 0.09191,0.14221 0.103315,0.22348 0.0155,0.11053 -0.003,0.2245 -0.02514,0.33389 -0.107325,0.5299 -0.337044,1.0655 -0.50782,1.57609 -0.544888,1.41346 -1.034245,2.84458 -1.491305,4.28851 -0.8894,2.74349 -0.731319,5.69434 -0.702138,8.54129 0.09618,3.79328 0.56783,7.56203 1.022852,11.3252 0.35097,1.89827 0.379013,3.81731 0.471541,5.73527 0.05437,0.98526 0.294426,1.94657 0.433348,2.92158 0.259064,1.30793 -0.129239,2.56195 -0.431303,3.82691 -0.70785,2.24499 -1.078748,4.55765 -1.330865,6.89112 -0.05512,1.68301 0.131937,3.35694 0.330822,5.02458 0.0426,0.35717 0.06058,0.71844 0.131667,1.07104 0.0799,0.3963 0.2134,0.77988 0.320099,1.16982 1.512215,3.52286 3.594242,6.7882 5.662866,10.00801 1.205944,1.90177 2.072349,3.03212 4.278577,3.83098 0.640273,0.23183 1.709153,0.15918 2.350466,0.15418 2.566749,-0.15478 5.010578,-0.98808 7.499135,-1.5641 6.317951,-1.16237 12.764815,-1.40908 19.169798,-1.69271 4.13171,-0.12384 8.266787,-0.32555 12.400889,-0.18401 2.429208,0.0832 2.940513,0.1545 5.294934,0.35341 1.770107,0.13836 3.527163,0.39485 5.277392,0.68652 0.859046,0.14315 1.700746,0.26444 2.529416,0.53059 -0.13807,-0.068 -0.32255,-0.32781 -0.41422,-0.20415 -0.0908,0.12253 0.23228,0.19931 0.33276,0.31405 0.0922,0.10533 0.17168,0.22217 0.24255,0.34291 0.65908,1.12299 -0.17468,0.57888 2.07775,1.06885 4.53478,-1.51453 8.90393,-3.48405 13.1866,-5.59791 4.06542,-2.27548 8.05843,-4.67307 12.14712,-6.90964 2.59589,-1.54597 5.33316,-2.93141 7.53106,-5.04806 0.41849,-0.40302 0.78766,-0.85431 1.1815,-1.28146 1.34893,-1.70369 2.12976,-3.51019 1.66163,-5.71441 -0.25541,-1.20262 -0.56959,-1.47129 -1.23636,-2.49775 -2.00343,-2.32498 -4.2871,-4.38245 -6.38143,-6.62276 -1.59861,-1.70086 -2.87144,-3.65285 -4.06112,-5.65015 -1.0492,-1.83707 -2.44195,-3.45265 -3.81991,-5.04849 -1.15277,-1.26459 -2.54267,-2.29118 -4.17567,-2.84652 -1.16945,-0.28796 -2.37925,-0.2985 -3.57634,-0.31334 0,0 0.7937,0.5782 0.7937,0.5782 v 0 c 1.19153,0.0156 2.39783,0.0289 3.55701,0.33857 0.17622,0.0633 0.34443,0.22343 0.52864,0.18993 0.12563,-0.0229 -0.41981,-0.28828 -0.30599,-0.23043 0.8857,0.45017 1.5974,1.21811 2.28779,1.90715 1.38314,1.58805 2.77169,3.20495 3.82883,5.03366 1.19125,2.00403 2.45975,3.96678 4.06275,5.67323 2.09013,2.24217 4.37044,4.29895 6.38898,6.60847 0.66717,1.00038 0.98941,1.27582 1.25434,2.45493 0.49005,2.18109 -0.27917,3.96069 -1.61346,5.6499 -0.39139,0.42433 -0.75821,0.87272 -1.17417,1.273 -2.19268,2.11001 -4.93107,3.48356 -7.51271,5.03686 -4.07741,2.25361 -8.07346,4.64603 -12.14683,6.90508 -4.27214,2.12644 -8.6321,4.13295 -13.19721,5.55055 -0.023,0.19638 0.0585,0.43814 -0.0692,0.58913 -0.0646,0.0764 -0.095,-0.29928 -0.31348,-0.70208 -0.40569,-0.748 -1.07613,-1.05225 -1.83947,-1.44633 -0.82723,-0.24585 -1.665912,-0.36732 -2.518331,-0.50482 -1.742511,-0.28106 -3.491716,-0.52556 -5.252667,-0.6594 -2.33399,-0.19024 -2.879685,-0.26189 -5.286877,-0.34013 -4.129696,-0.13423 -8.259988,0.0647 -12.386733,0.20116 -6.424512,0.29134 -12.890138,0.53389 -19.2322,1.66892 -2.488036,0.56664 -4.931706,1.39748 -7.496704,1.53966 -3.249213,-0.0136 0.62534,0.0697 -2.332622,-0.18902 -0.04931,-0.004 -0.08426,0.10275 -0.126744,0.0773 -1.145188,-0.68468 -1.792912,-1.87312 -2.532877,-2.93161 -2.075424,-3.20263 -4.138705,-6.46401 -5.655569,-9.97297 -0.107509,-0.38515 -0.24189,-0.76379 -0.322525,-1.15544 -0.07267,-0.35296 -0.09233,-0.71478 -0.13616,-1.07246 -0.203464,-1.66048 -0.389845,-3.32715 -0.336867,-5.00364 0.242104,-2.33047 0.612341,-4.63975 1.328404,-6.87821 0.306811,-1.27205 0.720894,-2.53336 0.464217,-3.85132 -0.137269,-0.97417 -0.379873,-1.9331 -0.442579,-2.91634 -0.104691,-1.92538 -0.138904,-3.85271 -0.500873,-5.75742 -0.46197,-3.76142 -0.934574,-7.52909 -1.038209,-11.32117 -0.02477,-2.8321 -0.163973,-5.76782 0.726149,-8.49451 0.456565,-1.44328 0.942163,-2.87491 1.493298,-4.2853 0.0972,-0.28546 0.792956,-2.01109 0.495231,-2.2456 -0.331875,-0.26141 -0.728927,-0.42728 -1.093388,-0.64092 -0.802174,-0.22013 -1.6609,-0.093 -2.466493,0.0599 -0.715103,0.29092 -1.074939,0.7853 -1.036357,1.58299 0.140565,1.87133 0.451614,3.72418 0.862944,5.55472 0.621276,2.75816 1.11062,5.72874 2.895663,8.00991 1.71042,2.31738 3.492177,4.58257 5.22927,6.88006 0.866465,1.09804 1.59135,2.06603 2.549866,3.08629 1.360803,1.44847 2.978068,2.59359 4.611407,3.70927 1.722316,1.25553 3.352247,2.80166 5.467781,3.34891 3.402955,0.49776 6.848102,0.50934 10.27679,0.28167 5.774886,-0.50741 11.562733,-1.21553 17.216887,-2.51464 2.041432,-0.56477 4.006154,-1.31407 5.950783,-2.15098 1.754992,-0.66342 3.493082,-1.37233 5.29363,-1.90842 2.321036,-0.64349 4.619135,-1.33961 6.894565,-2.13381 1.42102,-0.39657 2.69372,-0.70934 4.16557,-0.85068 0.39448,-0.0379 0.78891,-0.0818 1.18491,-0.0973 0.2986,-0.0117 0.63667,0.16378 0.89634,0.0159 0.13623,-0.0776 -0.21432,-0.22886 -0.32149,-0.34329 1.20586,0.69135 1.76488,1.3119 3.14432,0.8724 2.4382,-1.00513 4.37575,-2.94748 6.24811,-4.74354 0.32312,-0.38476 0.70869,-0.72475 0.96937,-1.15428 0.17763,-0.29268 0.22068,-0.64827 0.32287,-0.97502 0.42025,-1.34366 0.78514,-2.70405 1.207,-4.04718 0.31497,-1.20851 0.80164,-2.50389 0.14403,-3.67847 -0.58064,-0.98926 -1.30845,-1.88736 -1.76272,-2.9523 -0.64425,-1.27913 -1.20978,-2.59216 -1.59077,-3.97717 -0.0334,-0.11365 -0.29204,-0.98346 -0.32028,-1.1185 -0.16226,-0.77597 -0.12777,-1.57687 -0.19166,-2.36222 -0.12684,-1.57011 -0.34189,-3.13329 -0.38968,-4.70881 -0.10443,-2.064381 -0.25642,-4.126639 -0.27341,-6.19445 -0.0502,-1.370555 -0.0988,-2.741224 -0.42344,-4.080566 -0.1437,-1.123391 -0.3581,-2.237562 -0.63956,-3.334318 -0.44518,-1.345415 -0.93302,-2.676417 -1.66009,-3.90062 -0.10515,-0.191019 -0.20786,-0.3834 -0.31545,-0.573056 -0.0714,-0.125815 -0.11301,-0.277402 -0.22135,-0.373242 -0.28316,-0.250487 -1.09819,-0.953979 -1.09883,-0.625613 -2.6e-4,0.197607 0.2633,0.342815 0.19154,0.561023 0.14996,0.747572 0.48142,1.376008 0.86693,2.029687 0.541,0.917207 1.16908,1.765012 1.96745,2.48018 0.83009,0.800958 1.59774,1.644619 2.28126,2.579188 0.2979,0.499147 0.48772,0.76635 0.69213,1.318802 0.4316,1.166458 0.37592,2.440387 0.4279,3.661111 -0.0863,2.289916 -0.50657,4.571833 -0.31774,6.863994 0.26872,1.312 0.97781,4.31627 -0.27489,5.31748 -0.3171,0.25344 -0.75569,0.29677 -1.13354,0.44516 -0.54261,0.10925 -1.08061,0.24458 -1.62782,0.32776 -0.82569,0.1255 -4.53209,0.49533 -5.10532,0.55774 -3.92781,0.42764 -7.84945,0.91111 -11.762433,1.45851 -4.245324,0.61329 -3.700354,0.54463 -7.764174,1.09482 -2.491809,0.33736 -5.012814,0.70955 -7.534764,0.58462 -1.842172,-0.0667 -3.681423,-0.10635 -5.498677,0.27309 -2.586138,0.43924 -5.183148,0.81889 -7.813116,0.84411 -3.062772,0.14446 -6.127499,0.31042 -9.194951,0.22247 -1.030118,-0.05 -1.785771,-0.064 -2.817146,-0.21106 -1.720265,-0.24534 -3.327921,-0.87479 -4.990105,-1.3505 -1.840161,-0.52291 -3.741343,-0.98618 -5.664261,-0.99114 -1.800667,-0.0297 -3.604067,-0.0954 -5.39125,-0.33246 -0.830379,-0.1478 -0.844553,-0.11515 -1.575258,-0.35991 -0.205663,-0.0689 -0.407297,-0.1494 -0.609005,-0.22914 -0.198667,-0.0785 -0.380989,-0.21197 -0.591949,-0.24561 -0.127707,-0.0204 0.382952,0.32187 0.330083,0.20385 -0.06701,-0.1496 -0.252724,-0.20883 -0.379087,-0.31324 -1.259311,-1.3099 -1.24538,-2.94203 -1.385943,-4.67091 -0.0709,-1.75598 -0.112262,-3.50692 -0.127849,-5.264288 -0.0059,-0.6691 0.03917,-1.920844 -0.13883,-2.668651 -0.03839,-0.16129 -0.147873,-0.296791 -0.221808,-0.445188 -0.09512,-0.100587 -0.220022,-0.17971 -0.285355,-0.301763 -0.575101,-1.07438 0.313462,-3.313464 0.529373,-4.388614 0.306617,-1.095471 0.528095,-2.310969 0.99736,-3.354025 0.142052,-0.315746 0.525377,-0.565494 0.767654,-0.786564 1.545555,-0.949227 2.940201,-1.156645 4.752681,-1.217322 2.88235,-0.01318 5.761299,0.206185 8.621554,0.558329 1.25363,0.180018 2.53511,0.324737 3.759906,0.663247 0.628682,0.173757 0.370332,0.184044 0.974415,0.362318 0.198287,0.05852 0.40299,0.09255 0.604486,0.138827 1.559346,0.228817 3.131698,0.359375 4.708985,0.269592 1.44567,-0.05965 2.895749,-0.139367 4.317029,-0.42958 2.665161,-0.433827 5.362395,-0.550617 8.061108,-0.530614 3.014173,0.04361 6.026883,0.131947 9.039775,0.202546 1.894983,-0.08187 3.801814,-0.137186 5.667905,-0.505693 0.88578,-0.105497 1.770358,-0.115982 2.661901,-0.134802 0.823995,-0.04704 1.640861,-0.14799 2.459199,-0.253423 1.209717,-0.08569 2.427491,0.0013 3.6366,-0.122029 1.808689,-0.189283 3.579527,-0.561086 5.253377,-1.298908 1.77744,-0.735354 4.08044,-1.879807 6.00065,-1.988688 0.36122,-0.02048 0.72227,0.044 1.0834,0.066 1.11216,0.262941 2.21779,0.539645 3.31058,0.876134 0.35241,0.108511 0.6857,0.296807 1.05143,0.343754 0.28473,0.03655 -0.5211,-0.516469 0.0364,-0.109913 0.0313,0.0011 0.0649,-0.0089 0.0939,0.003 0.0835,0.03443 -0.33049,-0.100629 -0.26864,-0.03483 0.121,0.12872 0.61971,0.277823 0.44347,0.290211 -0.71483,0.05025 -0.95052,-1.912903 -1.85039,-1.094364 -1.34162,-0.72535 -2.73708,-1.348113 -4.16262,-1.889882 -1.669,-0.638183 -3.32837,-1.301419 -5.01049,-1.904979 -1.25351,-0.463486 -2.4765,-0.991772 -3.61489,-1.699482 -1.890212,-1.182878 -3.763393,-2.407893 -5.353171,-3.988591 -1.260676,-1.253998 -2.43505,-2.576216 -3.410836,-4.069154 -1.012751,-1.398736 -1.943309,-2.856206 -3.035665,-4.196408 -1.357289,-1.840682 -2.700153,-3.704164 -3.588184,-5.827757 -0.506632,-1.19661 -1.12159,-2.349776 -1.481079,-3.603612 -0.351148,-1.194353 -0.724266,-2.381467 -1.034172,-3.587483 -0.383439,-1.64829 -0.777801,-3.296705 -1.248587,-4.922181 -0.202547,-0.662271 -0.965446,-2.310929 -1.764866,-1.207273 -0.300112,0.76975 -0.450456,1.567474 -0.651963,2.368373 -0.315558,1.254204 -0.649655,2.505268 -1.051914,3.734827 -1.525,4.043365 -3.323209,7.977944 -5.165873,11.884816 -1.408534,3.065282 -3.077713,6.00299 -4.442272,9.090919 -0.558205,1.216654 -1.155267,2.567358 -1.787835,3.7485 -0.804071,1.501373 -1.667142,3.089423 -3.258997,3.863552 -1.660033,0.70018 -3.374713,1.298635 -4.923856,2.232972 -1.373487,0.808569 -2.703502,1.71836 -4.150167,2.38394 -1.164625,0.422479 -2.343044,0.770446 -3.563766,0.993098 z" />
    <path
       style="fill:#000000;stroke-width:0.264583"
       id="path2"
       d="m 53.440184,94.469846 c -1.330563,0.951508 -3.465798,1.757674 -4.293987,3.24172 -0.125158,0.224271 -0.156268,0.489312 -0.234402,0.733967 0.02793,0.235741 0.0061,0.482915 0.08378,0.707229 0.509199,1.469898 3.274568,2.790588 4.471763,3.475808 1.452869,0.74669 2.976028,1.36615 4.529097,1.87234 1.163924,0.39365 1.772822,-0.1234 2.534735,-0.94719 0.907831,-0.92672 1.119555,-2.11739 1.282832,-3.35225 0.01889,-0.204097 0.0792,-0.40856 0.0567,-0.612294 -0.210349,-1.90437 -2.239058,-3.437099 -3.60313,-4.550534 -1.161995,-0.866751 -2.422274,-1.591705 -3.717306,-2.240148 -0.445236,-0.222938 -0.8435,-0.3732 -1.339752,-0.402386 -0.164724,-0.0097 -0.328845,0.02778 -0.493268,0.04168 -0.124362,0.05186 -0.248724,0.103711 -0.373086,0.155567 0,0 0.820094,0.549799 0.820094,0.549799 v 0 c 0.117734,-0.04409 0.235469,-0.08817 0.353203,-0.13226 1.526066,-0.07819 2.65824,0.829527 3.866129,1.672307 1.321816,1.065432 3.391,2.619256 3.617865,4.453178 0.02503,0.202435 -0.03567,0.406397 -0.05351,0.609595 -0.15594,1.216026 -0.360256,2.386816 -1.256252,3.297496 -0.761645,0.81454 -1.331124,1.25078 -2.470152,0.85599 -1.544659,-0.51086 -3.06297,-1.12311 -4.504987,-1.87779 -0.848005,-0.38675 -2.486755,-1.52701 -2.84408,-2.437058 -0.08265,-0.210486 -0.0701,-0.446794 -0.105156,-0.670189 0.0708,-0.234773 0.0946,-0.489249 0.212405,-0.704316 0.808363,-1.475832 2.966924,-2.29049 4.294216,-3.212915 z" />
    <path
       style="fill:#000000;stroke-width:0.264583"
       id="path3"
       d="m 86.789341,91.206507 c 0.218585,2.479048 0.383029,4.97564 0.819322,7.427695 0.08144,0.315651 0.123722,0.644094 0.244319,0.946954 0.781595,1.962864 2.65295,2.876164 4.394411,3.809304 1.548443,0.55019 2.43766,0.50555 3.740597,-0.48409 0.08174,-0.35499 0.209429,-0.70245 0.245214,-1.06497 0.217453,-2.202969 -0.456756,-4.892522 -1.085993,-6.999341 -0.369671,-0.944499 -0.713743,-1.996382 -1.516803,-2.675504 -0.395026,-0.33406 -1.447102,-0.824693 -1.684637,-0.949327 -0.817867,-0.246333 -1.645841,-0.04981 -2.456373,0.121764 0,0 0.80672,0.561075 0.80672,0.561075 v 0 c 0.802616,-0.165822 1.620914,-0.345559 2.422652,-0.07206 -0.141386,-0.101492 -0.446773,-0.131908 -0.424156,-0.304472 0.02191,-0.167219 0.296193,0.164304 0.428884,0.268396 0.151225,0.118637 0.295502,0.248939 0.418674,0.396497 0.541295,0.648467 0.826622,1.473798 1.137063,2.243013 0.652769,2.132933 1.313172,4.709308 1.103524,6.952429 -0.03174,0.33956 -0.148998,0.66561 -0.223499,0.99842 -1.238755,0.91957 -2.223109,0.96656 -3.669258,0.40276 -0.06557,0.38885 -0.0082,0.16483 -0.866267,-0.47837 -1.083167,-0.81197 -1.895416,-1.90906 -2.148734,-3.250561 -0.456186,-2.441831 -0.623019,-4.935421 -0.802293,-7.410547 z" />
    <path
       style="fill:#000000;stroke-width:0.264583"
       id="path4"
       d="m 71.562501,122.8177 c 1.707013,-0.4813 3.355391,-1.14304 5.056921,-1.65332 2.601912,-0.7558 5.253794,-1.31936 7.960783,-1.47621 0.313394,0.0127 1.646309,0.0122 1.859672,0.35968 0.08447,0.13755 -0.355024,-0.28876 -0.456039,-0.16286 -0.09831,0.12253 0.202922,0.2412 0.286409,0.37428 0.07953,0.12676 0.133617,0.26781 0.200424,0.40171 0.434325,1.09132 0.66275,2.25452 0.997424,3.37974 0.256069,0.92111 0.525132,1.83276 0.921761,2.70351 0.110373,0.45601 0.610986,0.96991 0.48006,1.46366 -0.02572,-0.006 -0.05143,-0.0129 -0.07713,-0.0193 0,0 0.819782,0.56659 0.819782,0.56659 v 0 c 0.04378,-0.0231 0.08756,-0.0462 0.131334,-0.0693 0.168563,-0.51847 -0.321035,-1.05356 -0.454948,-1.53122 -0.401257,-0.86794 -0.685221,-1.77217 -0.936027,-2.6951 -0.341046,-1.12639 -0.566243,-2.29164 -0.98524,-3.39101 -0.706601,-1.52698 -2.01844,-1.95917 -3.574492,-1.94477 -2.706804,0.17771 -5.357161,0.75394 -7.962085,1.50208 -1.709539,0.50708 -3.36696,1.16598 -5.085574,1.63236 z" />
    <path
       style="fill:#000000;stroke-width:0.264583"
       id="path5"
       d="m 76.790777,121.3158 c 0.308168,0.45908 0.448397,1.90309 0.865351,2.18724 0.348284,0.23735 0.742992,0.39813 1.114489,0.59719 0.890489,-0.11358 1.743276,-0.43952 2.622878,-0.63091 0.767929,-0.14255 1.459775,-0.0111 1.641136,-0.93169 -0.02784,-0.62982 -0.378129,-1.149 -0.715923,-1.65613 0,0 -0.906026,-0.39628 -0.906026,-0.39628 v 0 c 0.328494,0.48957 0.688647,0.98127 0.746959,1.58736 -0.126728,0.84999 -0.903806,0.68346 -1.57556,0.83516 -0.862719,0.19373 -1.712584,0.54352 -2.594766,0.58334 0.19118,0.13549 0.353071,0.32709 0.573538,0.40647 0.106777,0.0384 -0.149202,-0.17334 -0.203232,-0.27314 -0.319289,-0.58972 -0.362019,-1.29833 -0.669512,-1.89534 z" />
    <path
       style="fill:#000000;stroke-width:0.264583"
       id="path6"
       d="m 74.590875,102.23418 c 0.0127,1.07728 0.0836,2.15291 -0.287864,3.17975 -0.693,1.08653 -0.725967,0.81527 0.665567,1.56821 1.053775,0.20175 2.0911,0.47553 3.142583,0.68829 0.730512,0.0683 0.372145,0.047 1.07492,0.0668 0,0 -0.793665,-0.5806 -0.793665,-0.5806 v 0 c -0.695484,-0.0259 -0.341178,-7.9e-4 -1.062691,-0.0783 -1.051708,-0.21619 -2.093852,-0.47526 -3.141559,-0.70969 0.214582,0.13598 0.43612,0.26154 0.643744,0.40792 0.04915,0.0347 -0.144883,-0.0657 -0.13085,-0.12422 0.06942,-0.28932 0.378659,-0.47892 0.463556,-0.76102 0.37529,-1.03762 0.315865,-2.11865 0.307665,-3.20802 z" />
    <path
       style="fill:#000000;stroke-width:0.264583"
       id="path7"
       d="m 32.159432,97.107736 c -2.059789,0.246669 -4.153892,0.653714 -6.237227,0.408938 -1.590898,-0.186921 -2.529564,-0.547786 -4.065445,-1.011989 -1.422435,-0.6178 -2.594423,-1.069962 -3.926105,-1.869715 -0.33288,-0.199914 -0.633224,-0.451668 -0.926126,-0.706586 -1.245042,-1.083588 -2.09412,-1.905222 -3.087758,-3.227552 -0.427415,-0.568801 -0.781382,-1.189249 -1.172074,-1.783873 -0.806327,-1.641007 -2.335353,-3.694348 -1.45286,-5.623486 0.510097,-1.115076 1.155334,-1.394963 2.124318,-2.148689 3.003889,-1.800747 6.387728,-2.996605 9.875654,-3.35198 0.972357,-0.03125 1.85345,0.256474 2.696754,0.720373 0.03574,0.01966 -0.151021,-0.03441 -0.122261,-0.0055 0.358281,0.360442 0.77853,0.654222 1.149619,1.001464 0.336984,-0.09776 1.079355,1.551953 0.351486,1.522748 -0.619075,-0.02484 -0.855766,-0.308401 -1.270515,-0.649112 -2.928828,-2.11998 -5.186072,-4.894451 -7.101809,-7.926507 -0.133031,-0.350472 -0.307773,-0.687837 -0.399092,-1.051414 -0.473596,-1.885567 0.942554,-2.774858 2.299401,-3.677039 2.62767,-1.342459 5.58165,-3.075718 8.526224,-3.552217 0.424273,-0.06866 0.857351,-0.06189 1.286028,-0.09284 1.219155,0.277889 1.174015,0.180292 2.298071,0.79842 0.112376,0.0618 0.1905,0.172106 0.291793,0.250764 1.059942,0.823092 2.094047,1.644264 3.104004,2.528959 0.558845,0.654354 1.376291,1.162018 1.832081,1.909995 0.245835,0.403426 0.127005,0.508604 -0.289899,0.354272 -0.09016,-0.03338 -0.143888,-0.127542 -0.215831,-0.191312 -2.977324,-2.265349 -5.287452,-5.259785 -7.123766,-8.49271 -0.621974,-1.625795 -1.508223,-3.507494 -1.063011,-5.297752 0.05217,-0.209767 0.153088,-0.404302 0.229632,-0.606454 0.166886,-0.160766 0.30943,-0.351425 0.50066,-0.482301 0.672576,-0.460306 1.520651,-0.691822 2.277081,-0.92923 1.795735,-0.563599 3.608964,-0.971772 5.450562,-1.35096 2.66736,-0.556916 5.403752,-0.619117 8.109511,-0.335528 1.577808,0.165367 3.011773,0.45824 4.566211,0.744117 1.611027,0.368038 3.196418,0.875797 4.646184,1.681419 0.02638,0.01466 -2.9e-5,0.06583 0.02014,0.0883 0.720968,0.803479 0.372017,0.170305 0.740579,1.022731 -0.02643,0.14845 -0.06808,0.753528 -0.339762,0.797809 -0.950315,0.154887 -0.474446,-0.127495 -0.69577,-0.40921 -1.645846,-2.094949 -0.382489,-0.06255 -1.846963,-2.717874 -0.228658,-0.615609 -0.530911,-1.208693 -0.685972,-1.846826 -0.782609,-3.220712 -0.41134,-6.948588 0.442018,-10.113245 0.193897,-0.719072 0.45489,-1.418352 0.682337,-2.127528 0.638828,-1.414103 0.905772,-2.271678 1.920793,-3.470976 2.401731,-2.837757 5.985732,-4.721969 9.176482,-6.500479 4.154437,-2.260201 8.787408,-3.151258 13.481283,-3.226983 0.731004,-0.01179 1.461892,0.03 2.192835,0.045 1.390843,0.169056 2.982552,0.189928 4.150077,1.103739 0.04801,0.03758 -0.153932,0.06863 -0.132752,0.125799 0.540578,0.833266 0.330872,0.403807 0.648163,1.278903 0.27305,1.049843 -0.06588,2.102337 -0.168984,3.151222 -0.08385,1.706925 1.364996,0.02133 1.462299,-0.04619 0.276362,-0.191789 0.573291,-0.358243 0.884589,-0.485733 1.122958,-0.459896 2.842869,-0.902584 3.967763,-1.219457 4.377722,-1.228582 8.557271,-1.090085 12.880928,0.332415 0.8482,0.279061 1.66127,0.655317 2.49191,0.982977 2.1552,1.043808 4.68201,2.108669 5.73433,4.463987 0.58775,1.315524 0.53178,2.455542 0.61924,3.852696 -0.0628,2.081665 -0.51013,4.109362 -1.69611,5.848818 -0.33687,0.49408 -0.72189,0.880165 -1.12427,1.311481 1.00025,-0.235598 -0.56802,0.337566 -0.39294,0.350729 1.98082,0.148934 0.95996,0.12455 2.81639,-0.733094 1.86688,-0.862473 2.57969,-1.003274 4.61186,-1.633527 3.44296,-0.806484 7.04535,-1.409192 10.56733,-0.694179 1.69165,0.343426 3.12916,0.971674 4.7269,1.587103 0.53607,0.26321 2.14276,0.960519 2.79231,1.504484 2.6176,2.19207 4.12985,4.920491 5.6821,7.89604 0.72617,1.660742 1.02448,2.241775 1.59272,3.900612 0.38847,1.134043 0.78672,2.386107 0.3897,3.585937 -0.0849,0.256601 -0.26087,0.473454 -0.3913,0.710179 -0.20888,0.197726 -0.40757,0.406791 -0.62663,0.59318 -0.37885,0.32236 -0.79024,0.605451 -1.16564,0.931828 -1.52917,1.329457 -3.19409,2.963794 -4.61665,4.354293 -2.87318,2.80843 -3.33884,3.300177 -6.18923,6.173382 -1.35244,1.355604 -3.69087,3.720598 -5.144,5.104305 -1.33723,1.27335 -2.69738,2.550774 -4.32133,3.452273 0.36066,0.127008 0.70221,0.336518 1.08199,0.381026 0.15592,0.01828 0.27963,-0.143404 0.42424,-0.204496 0.17925,-0.07572 0.36228,-0.142521 0.54638,-0.205542 0.68242,-0.233616 1.04323,-0.266126 1.74862,-0.146164 0.0482,0.01482 0.96037,0.256416 0.95324,0.408009 -0.008,0.159835 -0.38911,-0.290425 -0.45739,-0.145714 -0.074,0.156932 0.23784,0.253902 0.34024,0.393983 0.25659,0.350983 0.3161,0.534601 0.49343,0.925314 0.40473,1.24075 0.63355,1.69032 -0.40597,2.646373 -0.809,0.69723 -1.84011,0.885791 -2.84798,1.11955 -1.30904,0.30361 -0.90684,0.206661 -2.22684,0.59109 -1.53001,0.512818 -3.02341,1.134576 -4.59909,1.497256 0.39064,0.350991 -0.8541,-0.142044 -0.66471,-0.02671 0.21653,0.131871 0.43907,0.282054 0.68962,0.32081 0.0768,0.01188 -0.0427,-0.149358 -0.064,-0.224036 0,0 -0.89273,-0.43194 -0.89273,-0.43194 v 0 c 0.12445,0.849849 1.04514,1.039032 1.74036,0.921181 1.56855,-0.377944 3.05558,-1.005991 4.58421,-1.513417 1.38178,-0.396774 0.85881,-0.26634 2.22792,-0.583398 1.02622,-0.237649 2.06969,-0.439433 2.88831,-1.154515 1.04994,-0.987213 0.88076,-1.473771 0.46472,-2.752913 -0.60549,-1.394761 -1.49225,-2.177978 -3.00889,-2.579626 -0.93168,-0.119695 -1.47405,0.03348 -2.33113,0.398087 -0.14812,0.06301 -0.46022,0.05105 -0.43484,0.209999 0.0474,0.297196 0.38597,0.461876 0.57896,0.692812 3.62103,-2.267225 6.26228,-5.780064 9.36709,-8.646364 2.92468,-2.942984 5.84415,-5.8963 8.89513,-8.709975 3.93283,-3.626918 0.3964,-0.341122 3.17318,-2.687169 0.22716,-0.191926 0.4289,-0.41207 0.64335,-0.618103 0.13435,-0.24701 0.31499,-0.473988 0.40301,-0.74103 0.40415,-1.226163 0.005,-2.485858 -0.39563,-3.644664 -0.57258,-1.65594 -0.87973,-2.260701 -1.6047,-3.918363 -1.17422,-2.258973 -2.34252,-4.48792 -4.05263,-6.403998 -0.49063,-0.549715 -1.00163,-1.093182 -1.59375,-1.531668 -1.36842,-1.013325 -2.87623,-1.675784 -4.39047,-2.410394 -1.61825,-0.61673 -3.02588,-1.229048 -4.73979,-1.567749 -3.52996,-0.697582 -7.13743,-0.07883 -10.58465,0.728364 -2.04178,0.628621 -2.76856,0.774525 -4.65018,1.629479 -0.49357,0.224263 -1.13739,0.310298 -1.43667,0.762336 -0.19263,0.290951 0.14138,0.685935 0.26073,1.013827 0.0603,0.165809 0.48946,-1.329383 0.37991,-0.368609 0.39733,-0.436756 0.78919,-0.841566 1.12153,-1.337109 1.1829,-1.763781 1.63555,-3.80851 1.7011,-5.909818 -0.0805,-1.390883 -0.0254,-2.580047 -0.59465,-3.895675 -1.242,-2.870618 -4.76769,-4.071659 -7.31352,-5.404831 -0.8324,-0.324612 -1.64745,-0.697823 -2.4972,-0.973836 -4.313965,-1.401244 -8.558694,-1.533046 -12.920765,-0.300953 -1.063996,0.296018 -2.938016,0.777684 -4.014158,1.214564 -0.32117,0.130387 -0.625644,0.304628 -0.911074,0.501309 -0.164156,0.113115 -0.468448,0.225174 -0.425847,0.419925 0.07077,0.323554 0.451212,0.484961 0.67682,0.727441 -2.65e-4,-0.04413 -7.94e-4,-0.08826 -0.0011,-0.132398 0.08374,-1.064876 0.448615,-2.126665 0.178811,-3.193111 -0.479671,-1.405397 -0.716854,-1.500177 -2.151689,-2.422847 -1.252281,-0.805276 -2.698814,-0.939385 -4.150183,-1.047201 -0.728901,-0.01097 -1.457875,-0.04805 -2.186702,-0.0329 -4.699206,0.09765 -9.337738,0.994035 -13.491556,3.270549 -3.163877,1.766298 -6.846195,3.711493 -9.229323,6.51899 -1.019032,1.200491 -1.290915,2.080154 -1.926151,3.497844 -0.226097,0.71296 -0.484637,1.416431 -0.678288,2.138876 -0.839079,3.130306 -1.228127,6.965116 -0.481587,10.15293 0.150217,0.641437 0.450562,1.238152 0.675841,1.857227 1.061379,1.980729 1.446202,2.800059 3.550325,3.89187 0.209888,0.108908 0.471313,0.185023 0.698976,0.121113 0.286628,-0.08046 0.345133,-0.702773 0.382937,-0.887307 -0.06975,-0.181906 -0.100164,-0.384304 -0.209249,-0.545721 -0.449738,-0.665488 -1.698916,-1.29694 -2.190239,-1.573512 -1.43842,-0.809704 -3.044621,-1.26764 -4.639709,-1.643898 -1.558558,-0.282059 -2.986892,-0.569143 -4.568696,-0.732587 -2.715265,-0.280559 -5.461153,-0.221318 -8.136273,0.347113 -1.845228,0.383296 -3.666366,0.79253 -5.467641,1.352925 -0.781431,0.243115 -1.634755,0.470437 -2.321843,0.951982 -0.201128,0.140959 -0.349195,0.345469 -0.52379,0.518202 -0.07858,0.208952 -0.181671,0.41026 -0.235728,0.626853 -0.45261,1.81347 0.431297,3.712369 1.054663,5.364793 1.83751,3.236944 4.146391,6.233752 7.09862,8.534622 0.637829,0.369919 1.233054,0.825719 1.913488,1.109752 0.616902,0.257514 0.517118,-0.3151 0.386056,-0.545597 -0.418184,-0.735452 -1.313611,-1.288648 -1.841394,-1.92936 -1.749369,-1.535346 -3.972195,-3.534434 -6.184072,-4.25568 -0.381352,-0.124349 -0.785952,-0.160782 -1.178928,-0.241173 -0.428963,0.03688 -0.862673,0.0371 -1.286888,0.110656 -2.951926,0.511839 -5.901471,2.240667 -8.550567,3.575781 -1.411616,0.929925 -2.844674,1.826461 -2.367998,3.786576 0.0902,0.370914 0.266469,0.715436 0.399704,1.073155 1.919774,3.036147 4.169591,5.823805 7.089324,7.965234 0.321666,0.199898 2.05187,1.589878 2.995012,1.514525 0.144224,-0.01151 0.250428,-0.170336 0.312872,-0.30085 0.245589,-0.513307 -0.310446,-1.057796 -0.600588,-1.370719 -1.491239,-1.415825 -3.279995,-2.667492 -5.410447,-2.643719 -3.492162,0.392718 -6.877167,1.603497 -9.889879,3.405841 -0.999243,0.774409 -1.645372,1.048454 -2.172475,2.19479 -0.9030202,1.963873 0.618183,4.030774 1.44627,5.706192 0.390093,0.598527 0.743381,1.222724 1.17028,1.795579 0.728767,0.977932 2.099577,2.50544 3.073712,3.249173 1.956777,1.493959 4.189878,2.562569 6.456225,3.484904 1.562723,0.466466 2.472869,0.816502 4.090263,1.000064 2.095878,0.237869 4.199271,-0.175974 6.27349,-0.405013 z" />
  </g>
</svg>
