<?xml version="1.0" encoding="UTF-8" standalone="no"?>
<!-- Created with Inkscape (http://www.inkscape.org/) -->

<svg
   width="210mm"
   height="297mm"
   viewBox="0 0 210 297"
   version="1.1"
   id="svg1"
   inkscape:version="1.4 (86a8ad7, 2024-10-11)"
   sodipodi:docname="drawing-3.svg"
   xmlns:inkscape="http://www.inkscape.org/namespaces/inkscape"
   xmlns:sodipodi="http://sodipodi.sourceforge.net/DTD/sodipodi-0.dtd"
   xmlns="http://www.w3.org/2000/svg"
   xmlns:svg="http://www.w3.org/2000/svg">
  <sodipodi:namedview
     id="namedview1"
     pagecolor="#ffffff"
     bordercolor="#000000"
     borderopacity="0.25"
     inkscape:showpageshadow="2"
     inkscape:pageopacity="0.0"
     inkscape:pagecheckerboard="0"
     inkscape:deskcolor="#d1d1d1"
     inkscape:document-units="mm"
     inkscape:zoom="1.0771772"
     inkscape:cx="246.47756"
     inkscape:cy="368.09172"
     inkscape:window-width="1920"
     inkscape:window-height="1057"
     inkscape:window-x="-8"
     inkscape:window-y="-8"
     inkscape:window-maximized="1"
     inkscape:current-layer="layer1" />
  <defs
     id="defs1" />
  <g
     inkscape:label="Layer 1"
     inkscape:groupmode="layer"
     id="layer1">
    <circle
       id="path1"
       style="fill:#000000;stroke:#000000;stroke-width:0.264583"
       cx="15.978947"
       cy="155.96841"
       r="0.011567368" />
    <path
       style="fill:#000000;stroke-width:0.264583"
       id="path2"
       d="m 7.6425162,10.889601 c 0.1544836,0.81988 0.2670792,1.716815 0.7415866,2.427973 0.084915,0.127264 0.1920221,0.238232 0.2880334,0.357348 0.1338728,0.09649 0.2567429,0.210454 0.4016187,0.289467 0.9788261,0.533837 2.3647171,0.526315 3.4507761,0.583537 1.660743,0.0125 3.334401,0.151747 4.985532,-0.0731 1.495337,-0.369613 2.323841,-1.628239 2.998374,-2.914919 0.374665,-0.880537 0.639516,-1.8149479 0.750149,-2.7673841 0.02081,-0.1791857 0.05349,-0.3607083 0.03435,-0.5400802 C 21.272224,8.0583759 21.191387,7.8755509 21.140613,7.6871075 20.55775,6.506098 19.913854,6.0987849 18.676421,5.7641262 c -0.75724,-0.016505 -1.301577,-0.049805 -2.127678,0.1226526 -0.640859,0.1337866 -1.489896,1.1155145 -1.885996,1.6112326 -0.117468,0.1795251 -0.463816,0.685733 -0.542878,0.8957968 -0.166636,0.4427461 -0.301883,1.3054719 -0.362607,1.7274118 -0.131451,0.913384 -0.169802,1.477739 -0.253358,2.402014 -0.16896,2.058786 -0.213239,4.124373 -0.23275,6.18903 0.0079,2.55444 -0.01256,5.10916 0.04299,7.663093 0.12199,4.357748 0.256196,8.717579 0.205679,13.077701 -0.01687,1.456364 -0.06988,2.912086 -0.104819,4.36813 -0.20634,7.75498 -0.840545,15.487179 -1.366521,23.224164 -0.293032,5.006687 -0.401302,10.021255 -0.462627,15.035292 -0.0429,3.995253 0.01316,7.990549 -0.03562,11.985691 -0.108323,4.092048 -0.31543,8.180205 -0.503015,12.269085 -0.04218,2.11576 -0.300777,4.21771 -0.402437,6.32972 -0.06493,1.34923 -0.03815,2.74575 -0.413607,4.05669 0.311174,-0.0853 0.715957,-0.0177 0.933521,-0.25595 0.166991,-0.18288 -0.01906,-0.49501 -0.02171,-0.74265 -0.0046,-0.4299 -0.0022,-0.85986 -3.6e-5,-1.28979 0.0094,-1.82416 0.0026,-3.64642 -0.01605,-5.47062 -0.109684,-5.01794 -0.322017,-10.032639 -0.461101,-15.049718 -0.125717,-5.530932 -0.188155,-11.062671 -0.05947,-16.593804 0.07353,-3.670925 0.428449,-7.330038 1.195927,-10.923307 0.474393,-2.221066 0.679671,-2.77245 1.306037,-4.88786 0.731453,-2.042435 1.330068,-4.358849 2.995232,-5.879803 0.153153,-0.139891 0.328605,-0.253217 0.492908,-0.379826 0.354795,-0.211055 0.740469,-0.404407 1.159257,-0.444473 0.111633,-0.01069 0.447738,-0.0079 0.336385,0.0054 -0.630907,0.07528 -0.934404,-0.05602 -0.148944,0.15321 1.598257,0.434554 3.101151,1.159417 4.527707,1.990098 1.771792,1.090057 2.805408,2.874288 3.831626,4.6209 1.377022,2.3109 2.409405,4.798012 3.400817,7.291282 1.189326,3.188298 1.841341,6.538261 2.410174,9.882579 0.644375,3.840017 1.027184,7.717578 1.477299,11.583394 1.1821,10.152518 -0.142933,-1.293603 1.020421,8.772319 0.426797,3.428659 0.618569,6.887659 1.194115,10.297839 0.164071,0.97214 0.442489,2.31601 0.796975,3.28636 0.10785,0.29523 0.268044,0.56861 0.402066,0.85291 0.138965,0.15414 0.251405,0.33718 0.416896,0.46242 0.455896,0.34499 1.41876,0.11688 1.76008,0.0368 0.378521,-0.0888 1.00344,-1.02402 1.210339,-1.29608 1.243174,-1.85547 2.294681,-3.82991 3.479969,-5.72184 2.118141,-3.35849 4.531262,-6.50856 6.95524,-9.648132 0.699378,-0.90029 1.395632,-1.803014 2.098138,-2.700867 1.995596,-2.550512 2.381387,-2.982677 4.318124,-5.54841 1.695871,-2.246638 3.331665,-4.537572 4.963848,-6.830526 1.306047,-1.936575 2.636716,-3.878341 3.601881,-6.01504 0.611987,-1.35482 0.763519,-1.924917 1.246331,-3.354403 0.981683,-3.442959 1.578028,-7.002568 1.85842,-10.570295 0.02217,-1.216064 0.04496,-2.850266 -1.060688,-3.6757 -0.146929,-0.109691 -0.323856,-0.172034 -0.485783,-0.25805 -1.492928,-0.431028 -2.966437,-0.07666 -4.127744,0.908703 -0.20801,0.176496 -0.393615,0.377812 -0.590423,0.566719 -1.700186,1.973569 -2.463249,4.512395 -3.309442,6.926434 -1.175092,3.504991 -1.995543,7.123809 -2.715612,10.74678 -0.286089,1.648701 -0.569291,3.319362 -0.490413,5.000329 0.04379,0.933206 0.233661,2.223764 0.35206,3.131439 0.502867,2.712675 0.893119,5.448752 1.472342,8.14711 0.438341,2.042031 0.561237,2.369617 1.12158,4.394486 1.021405,3.285803 2.26297,6.571843 4.082385,9.511613 0.204571,0.33053 0.44028,0.64075 0.660419,0.96113 0.199813,0.21594 0.375309,0.45725 0.59944,0.64783 0.757767,0.64434 1.785205,0.5655 2.701531,0.3209 0.378708,-0.10109 1.11379,-0.88792 1.329981,-1.0962 1.742043,-2.08013 3.140413,-4.41927 4.609944,-6.69297 2.358567,-3.748122 4.779724,-7.45586 7.057675,-11.253809 2.095106,-3.794524 4.193633,-7.604069 6.009593,-11.543241 1.34317,-2.9136 1.740871,-4.062545 2.912189,-7.058094 1.77741,-4.914775 3.269189,-9.942896 4.352245,-15.058384 0.612934,-2.895018 0.922409,-5.070824 1.38653,-7.984334 0.928497,-6.127993 1.47528,-12.30308 1.79469,-18.49007 0.177694,-3.903443 -0.04166,-7.807959 -0.576413,-11.674989 -0.391148,-2.490635 -0.862858,-4.975946 -1.565763,-7.39899 C 94.153056,10.285498 93.690271,9.2566984 92.811621,8.4567264 91.919229,7.9051048 90.724398,7.6526572 89.730406,8.1182691 c -0.848604,0.8659807 -1.181526,2.1065479 -1.51442,3.2408879 -0.464399,1.643811 -0.734227,3.332978 -0.991034,5.018965 -0.299236,2.253407 -0.444047,4.523519 -0.649719,6.786463 -0.235164,2.281025 -0.277664,4.574834 -0.315124,6.865718 -0.03248,2.294451 -0.03305,4.589158 -0.0321,6.883784 0.0069,2.125498 0.01979,4.249428 -0.06978,6.373309 -0.03538,1.432672 -0.157162,2.857844 -0.27881,4.284642 -0.259016,2.221211 -0.518255,4.442859 -0.75656,6.666994 -0.256789,2.492095 -0.585634,4.97228 -0.777084,7.470844 -0.245242,4.163973 -0.433821,8.330853 -0.697304,12.49372 -0.500512,6.173377 -0.979553,12.348377 -1.440619,18.524871 -0.09403,1.512133 -0.169249,3.035186 0.102388,4.534056 0.08971,0.495006 0.186518,0.892598 0.434335,1.324197 0.08541,0.148746 0.202824,0.276667 0.304234,0.415002 0.620805,0.73692 1.521179,1.137778 2.312987,1.659268 1.268005,0.84796 2.510753,1.72971 3.726672,2.6504 0.289934,0.20911 0.705708,0.55572 1.072859,0.64709 0.529691,0.13181 2.117503,-0.15236 2.259243,-0.18854 0.359458,-0.0918 1.096896,-0.65675 1.382284,-0.85931 1.478828,-1.24553 2.633901,-2.80923 3.793855,-4.341423 2.33581,-3.034826 3.814301,-6.596962 5.187871,-10.140444 1.4575,-3.821271 2.68307,-7.72218 3.79759,-11.655184 1.218,-4.693005 2.40282,-9.391745 3.79546,-14.036887 1.8576,-6.006518 3.86576,-11.963633 5.64974,-17.992894 1.44027,-5.198824 2.8208,-10.422617 3.91093,-15.707651 0.5192,-3.192002 0.80914,-6.416251 1.17181,-9.628793 0.24266,-1.938205 0.33644,-3.899075 0.24298,-5.850565 -0.0657,-1.058586 -0.12354,-2.130526 -0.47269,-3.139589 -0.21749,-0.7045907 -0.75979,-1.0442686 -1.39589,-1.3293209 -1.09034,-0.4974537 -2.19689,-0.9582052 -3.32715,-1.3571161 -0.79735,-0.2589941 -2.17655,-0.4836637 -2.86677,-0.00928 -0.12594,0.086558 -0.22968,0.2016403 -0.34452,0.3024603 -1.05705,1.2210079 -1.7579,2.6921927 -2.38287,4.1673937 -0.72315,1.638123 -1.21146,3.358355 -1.67999,5.081344 -0.57343,2.322773 -0.87618,4.704432 -1.17283,7.075687 -0.27958,2.10832 -0.47802,4.226699 -0.66928,6.344611 -0.13481,1.6479 -0.28252,3.294727 -0.42828,4.941766 -0.16951,2.134399 -0.45977,4.25668 -0.76335,6.375437 -0.31227,1.897856 -0.50024,3.809781 -0.71456,5.720043 -0.26741,2.176875 -0.35184,4.368819 -0.54172,6.552459 -0.26054,3.104446 -0.42048,6.216139 -0.52265,9.329502 -0.12575,4.906489 -0.15154,9.812864 0.0481,14.717083 0.11573,2.131144 0.26123,4.263106 0.52579,6.381773 0.098,0.784956 0.23957,1.842551 0.47362,2.625482 0.0873,0.292105 0.22399,0.567118 0.33599,0.850678 0.14172,0.231886 0.27148,0.471516 0.42515,0.695661 0.50702,0.739531 1.15164,1.39428 1.73224,2.073915 0.915,1.071057 0.65532,0.766146 1.57281,1.931733 1.12877,1.386952 2.07077,3.018994 3.53855,4.09524 0.16466,0.120734 0.34925,0.211613 0.52387,0.31742 1.40461,0.664221 2.83633,0.251537 4.2379,-0.12733 1.367,-0.387385 2.76287,-0.608918 4.11167,-1.065914 0.6584,-0.218803 1.35313,-0.434676 1.88536,-0.903592 0.2329,-0.205195 0.60094,-0.655156 0.7919,-0.878795 1.19369,-1.655426 1.83336,-3.622976 2.6213,-5.486672 1.39527,-3.135487 2.74322,-6.290046 3.99742,-9.484741 1.0731,-2.956814 2.005,-5.976525 3.36648,-8.820415 0.21946,-0.458419 0.47326,-0.899594 0.7099,-1.34939 1.35987,-2.343807 3.44893,-4.030742 5.62086,-5.578118 0.62319,-0.377569 1.22995,-0.845701 1.93265,-1.076442 0.15244,-0.05006 0.63237,-0.102896 0.47218,-0.09361 -0.82116,0.04761 -0.57238,0.0717 -0.11028,0.381196 0.18643,0.163349 1.51521,1.382932 1.09984,1.640779 -0.0627,0.0389 -0.14539,0.02495 -0.21808,0.03742 0.21736,-0.0095 0.4451,0.03856 0.65206,-0.02856 0.12737,-0.04131 -0.26579,-0.0332 -0.39809,-0.05381 -0.62729,-0.09768 -1.23684,-0.204782 -1.87228,-0.237675 -0.31622,-7.4e-5 -1.51399,-0.07075 -2.05279,0.07764 -1.25659,0.346061 -2.11576,1.280109 -2.96456,2.204074 -1.52165,1.915218 -2.91252,3.958026 -4.04883,6.127845 -0.53772,1.026798 -0.85926,1.832417 -1.31007,2.887234 -0.74866,2.076677 -1.22201,4.2525 -1.45209,6.447512 -0.14945,1.425736 -0.1291,1.922156 -0.15665,3.346617 0.11922,1.577572 0.15844,3.233973 0.81395,4.706419 0.30241,0.679309 0.72889,1.327935 1.11527,1.958945 0.21052,0.309259 0.41156,0.625192 0.63157,0.92778 0.5657,0.778037 1.38646,1.780612 1.96628,2.518469 1.25619,1.598556 2.49495,3.208152 3.77033,4.791613 1.02899,1.20196 1.92848,2.54057 3.12012,3.59745 0.27102,0.24038 0.54635,0.48884 0.87041,0.65078 1.0204,0.50993 1.88283,0.13544 3.00888,-0.006 2.76841,-1.17873 4.62283,-3.3632 6.48497,-5.633208 2.6473,-3.51767 4.77453,-7.384047 6.57045,-11.393771 0.21579,-0.54625 0.47104,-1.078513 0.64736,-1.638752 1.10057,-3.497038 1.16658,-7.369 1.15566,-11.0012 -0.0893,-2.194454 -0.34249,-4.380627 -0.74196,-6.539976 -0.11686,-0.631704 -0.22829,-1.266016 -0.39626,-1.886093 -0.43425,-1.603129 -0.71531,-2.075212 -1.38602,-3.568814 -0.91791,-1.752698 -1.90987,-3.578111 -3.43409,-4.892394 -0.73073,-0.630079 -1.08844,-0.750898 -1.92505,-1.175692 -0.32444,-0.102592 -0.63983,-0.240131 -0.97331,-0.307774 -0.33084,-0.06711 -0.6708,-0.09757 -1.00837,-0.09419 -1.58519,0.01582 -2.50537,0.106629 -3.85133,0.847238 -0.27555,0.151619 -0.52871,0.34078 -0.79306,0.511172 -1.03533,0.80268 -1.83908,1.815076 -2.25074,3.068032 -0.10003,0.304466 -0.16593,0.619106 -0.2489,0.928658 -0.54613,2.216071 -0.65106,4.504695 -0.84801,6.76982 -0.0602,1.10328 -0.4039,2.3736 0.26935,3.368672 0.0997,0.147291 0.23744,0.264808 0.35617,0.397211 0.54464,0.453784 1.20342,0.626311 1.90251,0.629338 1.42633,0.0062 1.01889,0.05667 1.86008,-0.09576 0.19693,-0.04453 0.55578,-0.113152 0.74304,-0.203594 0.93126,-0.449789 1.66077,-1.265433 2.36999,-1.988526 1.90924,-1.992797 3.113,-4.484288 4.39442,-6.894843 1.16978,-2.127478 2.19473,-4.35614 3.69116,-6.284834 0.8891,-1.145931 1.14597,-1.31732 2.17241,-2.287926 1.06532,-0.789702 2.16763,-1.859711 3.51532,-2.130046 0.13162,-0.02641 -0.40893,0.0011 -0.38035,0.132328 0.0627,0.287925 0.37233,0.456851 0.5585,0.685279 1.10429,2.21506 1.67545,4.636265 2.61485,6.918328 0,0 0.94829,-0.03767 0.94829,-0.03767 v 0 c -0.97259,-2.27711 -1.56335,-4.694396 -2.60685,-6.943559 -0.18366,-0.251211 -0.26399,-0.633325 -0.55098,-0.753636 -1.85893,-0.779288 -3.72234,1.040365 -5.02635,2.053709 -1.02191,0.980459 -1.27682,1.154163 -2.163,2.307061 -1.48904,1.937194 -2.51368,4.167452 -3.68711,6.296078 -1.29017,2.402763 -2.52003,4.880133 -4.43034,6.865469 -0.89698,0.898406 -1.82192,1.917171 -3.13426,2.129107 -1.63548,0.253736 0.70733,-0.137049 0.0766,0.08436 -0.15894,0.05579 -0.33768,0.0042 -0.50515,-0.01392 -0.5117,-0.05523 -0.98295,-0.220032 -1.38946,-0.539631 -0.11842,-0.123457 -0.25569,-0.231261 -0.35526,-0.370371 -0.68856,-0.96202 -0.33458,-2.23552 -0.29228,-3.314642 0.18379,-2.26065 0.29714,-4.543975 0.85256,-6.752291 0.0852,-0.30558 0.15358,-0.61636 0.25561,-0.916739 0.41766,-1.229648 1.21451,-2.226437 2.24038,-3.00964 0.70015,-0.441868 0.88748,-0.610235 1.67837,-0.902007 0.32351,-0.119351 0.67091,-0.166976 0.99285,-0.290516 0.0446,-0.01712 0.0301,-0.118316 0.0779,-0.120366 0.88761,-0.03815 1.14414,0.115194 1.98024,0.365672 0.83219,0.408784 1.20186,0.53018 1.93052,1.144014 1.53654,1.294386 2.5346,3.114381 3.45978,4.857768 0.68722,1.515049 0.94223,1.920984 1.38793,3.549161 0.16939,0.618786 0.2855,1.251251 0.40455,1.881661 0.40673,2.153652 0.65936,4.335481 0.74733,6.525617 0.0136,3.666953 -0.0566,7.435305 -1.17655,10.966479 -0.1769,0.557781 -0.42617,1.089969 -0.63926,1.634953 -1.78025,4.009842 -3.89764,7.878773 -6.57341,11.368862 -1.84621,2.224464 -3.76232,4.454574 -6.50987,5.569534 -0.32432,0.46335 -0.21001,0.47178 -1.12436,0.0443 -0.32792,-0.15332 -0.60683,-0.39867 -0.88084,-0.63523 -1.20898,-1.04377 -2.11386,-2.38616 -3.15086,-3.58558 -1.27643,-1.579904 -2.51138,-3.187846 -3.75756,-4.791488 -0.64453,-0.829405 -1.32017,-1.66143 -1.93697,-2.513896 -0.21865,-0.302191 -0.42173,-0.615352 -0.63258,-0.923031 -0.40156,-0.654672 -0.78922,-1.238364 -1.1055,-1.940219 -0.65857,-1.461442 -0.7247,-3.10039 -0.84549,-4.67134 0.0101,-0.550553 0.005,-1.101614 0.0303,-1.651654 0.12941,-2.760101 0.64019,-5.508394 1.58491,-8.106793 0.44196,-1.045549 0.76381,-1.860582 1.29216,-2.877749 1.1294,-2.174316 2.52982,-4.209822 4.07897,-6.103985 0.70911,-0.753025 1.36192,-1.460881 2.31782,-1.900814 0.21443,-0.09869 0.43914,-0.177668 0.66836,-0.234087 0.17904,-0.04407 0.3885,0.02469 0.54925,-0.06563 0.12395,-0.06964 -0.28433,-0.0021 -0.4265,-0.0033 1.2008,0.04273 2.35299,0.429641 3.56556,0.293049 0.0754,-0.03964 0.16973,-0.05519 0.2263,-0.118911 0.38399,-0.432509 -0.86468,-1.521132 -1.11808,-1.773471 -0.14169,-0.107788 -0.25156,-0.283495 -0.42506,-0.323365 -1.67204,-0.384204 -2.47618,0.244533 -3.78712,1.114845 -2.16604,1.567868 -4.25312,3.264739 -5.60389,5.62338 -0.23364,0.452099 -0.48406,0.895914 -0.70093,1.356294 -1.34332,2.851698 -2.28522,5.867633 -3.36026,8.823894 -1.26198,3.193698 -2.60749,6.351452 -4.02034,9.481341 -0.79447,1.855375 -1.44305,3.816993 -2.65294,5.455269 -0.22146,0.253428 -0.53161,0.631158 -0.79723,0.854768 -0.53553,0.450826 -1.22495,0.655191 -1.87384,0.876139 -1.34965,0.449283 -2.74692,0.668459 -4.1118,1.059958 -0.11403,0.03065 -1.06968,0.289541 -1.20352,0.317881 -0.18001,0.03812 -0.42224,-0.04932 -0.54498,0.08775 -0.1,0.111649 0.54441,0.134948 0.4492,0.01921 -0.2214,-0.269129 -0.81931,0.108921 -1.00952,-0.271852 -0.17624,-0.100277 -0.36277,-0.184314 -0.52872,-0.300831 -1.49006,-1.046202 -2.44069,-2.685814 -3.5631,-4.073279 -0.94636,-1.216734 -0.61907,-0.822298 -1.56083,-1.93684 -0.57314,-0.678288 -1.20815,-1.332034 -1.72018,-2.059985 -0.15403,-0.218982 -0.28599,-0.452683 -0.42898,-0.679024 -0.11567,-0.27854 -0.25611,-0.548044 -0.34701,-0.835625 -0.24739,-0.782651 -0.40021,-1.824961 -0.50585,-2.613877 -0.28322,-2.115085 -0.43405,-4.245899 -0.55848,-6.375162 -0.20104,-4.902367 -0.17353,-9.806316 -0.0161,-14.710312 0.1139,-3.112005 0.28196,-6.221947 0.55665,-9.324311 0.19624,-2.182368 0.27409,-4.374097 0.54351,-6.550038 0.22107,-1.90836 0.42072,-3.818268 0.71413,-5.717468 0.29714,-2.121435 0.59945,-4.244615 0.77395,-6.38024 0.1486,-1.646769 0.30136,-3.293295 0.42717,-4.941919 0.18083,-2.117203 0.38146,-4.233738 0.65272,-6.341427 0.28926,-2.369028 0.60531,-4.744517 1.18953,-7.06175 0.46959,-1.718075 0.95545,-3.435299 1.67902,-5.06836 0.62377,-1.463121 1.3209,-2.9325043 2.40082,-4.1204094 0.11536,-0.091808 0.22038,-0.1983856 0.34609,-0.2754238 0.0999,-0.061199 0.42543,-0.076409 0.32424,-0.135378 -0.18757,-0.1093007 -0.43644,-0.00995 -0.64904,-0.05389 -0.1185,-0.024495 0.24241,-0.01528 0.36301,-0.00523 0.34646,0.028875 0.54769,0.1102773 0.88468,0.2112563 1.13022,0.3897747 2.23484,0.8477983 3.31953,1.350355 0.61794,0.2655512 1.17024,0.5663616 1.38825,1.2495559 0.3619,0.995236 0.41737,2.062547 0.4891,3.110827 0.0973,1.945926 0.0213,3.900787 -0.2083,5.83558 -0.3485,3.210827 -0.65622,6.429574 -1.15789,9.620802 -1.04286,5.287817 -2.38001,10.517092 -3.84869,15.701359 -1.77775,6.032423 -3.79646,11.986855 -5.66184,17.992124 -1.40052,4.646888 -2.61581,9.342406 -3.84398,14.03695 -1.11096,3.929658 -2.31446,7.833471 -3.78173,11.647194 -1.37187,3.546117 -2.869802,7.094476 -5.232772,10.112158 -1.164841,1.521885 -2.320835,3.082085 -3.807433,4.310745 -0.22411,0.15503 -0.438478,0.32518 -0.672328,0.4651 -0.228552,0.13674 -0.548732,0.15241 -0.711784,0.36301 -0.06967,0.09 0.381383,0.13039 0.284075,0.18941 -0.50052,0.3036 -1.343033,-0.35537 -1.694138,-0.61362 -1.21625,-0.91992 -2.458328,-1.80056 -3.72043,-2.65689 -0.780307,-0.52505 -1.671125,-0.918349 -2.306802,-1.626821 -0.102277,-0.131519 -0.2199,-0.252425 -0.306832,-0.394557 -0.260032,-0.425146 -0.357172,-0.798388 -0.456673,-1.295368 -0.298009,-1.488445 -0.24248,-3.006487 -0.165466,-4.514022 0.40413,-6.180529 0.889381,-12.354883 1.42624,-18.525262 0.291398,-4.16174 0.50533,-8.327644 0.751482,-12.492199 0.204306,-2.497053 0.558194,-4.974304 0.793377,-7.468198 0.234249,-2.226521 0.500505,-4.448669 0.785374,-6.668629 0.123912,-1.427994 0.230849,-2.855127 0.26195,-4.289089 0.0837,-2.125195 0.0731,-4.250595 0.06375,-6.377213 2.64e-4,-2.294072 -0.003,-4.58825 0.0254,-6.882193 0.03922,-2.28886 0.09403,-4.579524 0.324008,-6.858812 0.199001,-2.261584 0.342308,-4.530081 0.652188,-6.780365 0.262241,-1.68157 0.539898,-3.365677 1.003212,-5.005839 0.327234,-1.103459 0.64924,-2.3542579 1.528041,-3.1541835 0.491061,-0.1938909 0.381404,-0.1030216 -0.388229,-0.1631328 -0.111202,-0.00869 0.223203,0.00991 0.333648,0.025493 0.425537,0.060019 0.816755,0.2169787 1.180729,0.4443656 0.89044,0.7689823 1.35096,1.7905897 1.639803,2.9206557 0.72276,2.414885 1.206749,4.89642 1.600499,7.384353 0.544481,3.860195 0.777698,7.759215 0.611703,11.657801 -0.289591,6.183349 -0.810334,12.356292 -1.72321,18.481587 -0.493617,3.123552 -0.728323,4.86981 -1.388184,7.978174 -1.085164,5.111819 -2.579235,10.135188 -4.35683,15.046666 -0.46786,1.193324 -0.911487,2.396438 -1.403583,3.579974 -2.152332,5.176573 -4.83141,10.118881 -7.566892,15.004725 -2.300796,3.792116 -4.734854,7.499609 -7.105529,11.248199 -1.476512,2.2679 -2.885482,4.60267 -4.642858,6.66825 -0.235352,0.21797 -0.453133,0.4566 -0.706053,0.65392 -0.196324,0.15316 -0.530427,0.16691 -0.635469,0.39267 -0.05785,0.12432 0.512625,0.10298 0.383448,0.14898 -0.589646,0.20998 -1.485334,-0.69722 -1.77555,-1.04806 -0.225108,-0.31738 -0.466217,-0.624 -0.675323,-0.95215 -1.857864,-2.91552 -3.104848,-6.20023 -4.117655,-9.487063 -0.562594,-2.038014 -0.676447,-2.33268 -1.11593,-4.387715 -0.576514,-2.695789 -0.965023,-5.428779 -1.449676,-8.141467 -0.113882,-0.912908 -0.293433,-2.182066 -0.3337,-3.119207 -0.07193,-1.674056 0.20897,-3.33819 0.478255,-4.982895 0.697405,-3.623149 1.513631,-7.238392 2.707376,-10.73353 0.850847,-2.40321 1.633444,-4.929814 3.348074,-6.879584 0.453615,-0.425376 0.681376,-0.687705 1.219031,-1.003742 0.212815,-0.125092 0.440211,-0.225653 0.670755,-0.313904 0.211707,-0.08104 0.468959,-0.05914 0.652243,-0.192538 0.08814,-0.06415 -0.429225,-0.07401 -0.323717,-0.04657 0.187682,0.04882 0.380743,0.07395 0.571116,0.110918 0.160554,0.07566 0.335251,0.126643 0.481658,0.226973 1.123752,0.770099 1.10499,2.405795 1.09665,3.592227 -0.24589,3.562604 -0.8465,7.114622 -1.835187,10.547215 -0.493299,1.439812 -0.636894,1.977869 -1.257387,3.341497 -0.966592,2.124217 -2.278811,4.065026 -3.564559,6.003229 -1.611641,2.2959 -3.229303,4.587798 -4.915276,6.830195 -1.746149,2.32243 -2.510692,3.252914 -4.319831,5.547561 -0.708816,0.899035 -1.41569,1.7996 -2.123535,2.6994 -2.455585,3.13542 -4.891886,6.2887 -7.031516,9.65266 -1.185826,1.8924 -2.233504,3.87151 -3.502075,5.71117 -0.241028,0.30784 -0.534139,0.71946 -0.839203,0.98285 -0.115335,0.0996 -0.454832,0.12089 -0.38023,0.25375 0.09881,0.17598 0.391202,0.11056 0.592547,0.12439 0.33273,0.0229 -1.657014,-0.28159 -0.8397,-0.54403 -0.140597,-0.27919 -0.307798,-0.54651 -0.421791,-0.83757 -0.379166,-0.96814 -0.678489,-2.29255 -0.858512,-3.27124 -0.626089,-3.40377 -0.844111,-6.86408 -1.27001,-10.294138 -0.2515,-2.165673 -0.771353,-6.613814 -1.008716,-8.772046 -0.425241,-3.866542 -0.72534,-7.750834 -1.370463,-11.589814 -0.562538,-3.350897 -1.223245,-6.701411 -2.391674,-9.902187 -0.968801,-2.509197 -2.042099,-4.983909 -3.411273,-7.305053 -1.012008,-1.76234 -2.024948,-3.569277 -3.798442,-4.672388 -1.422913,-0.834761 -2.925288,-1.564048 -4.516665,-2.015683 -1.116532,-0.34588 -2.300185,-0.315363 -3.283705,0.324204 -0.478093,0.387967 -0.617699,0.462613 -1.026493,0.980519 -1.223401,1.549937 -1.760808,3.505618 -2.384426,5.3412 -0.598856,2.066692 -0.831137,2.734839 -1.28889,4.897199 -0.761618,3.59778 -1.1347987,7.261942 -1.1928147,10.937396 -0.1185333,5.532411 -0.0849,11.065973 0.049701,16.598032 0.1216144,5.016878 0.3728327,10.029699 0.4318437,15.048249 0.01719,2.25548 -0.01285,4.50603 -0.04043,6.76096 -0.0031,0.25385 -0.1815579,0.58369 -4.5e-4,0.76161 0.255296,0.25081 0.694286,0.17404 1.04143,0.26106 0.320912,-1.3303 0.32777,-2.71823 0.389486,-4.07734 0.108193,-2.11074 0.318178,-4.21594 0.354593,-6.33049 0.170805,-4.09034 0.384419,-8.178976 0.486581,-12.271977 0.05108,-3.995081 0.02248,-7.990613 0.04584,-11.985937 0.03511,-5.012301 0.121495,-10.025809 0.417335,-15.030553 0.48133,-7.739819 1.065993,-15.47467 1.302381,-23.227736 0.157571,-5.8146 0.216536,-11.634894 0.03269,-17.449838 -0.05197,-2.553074 -0.02676,-5.106854 -0.01707,-7.660328 0.01496,-2.061823 0.05034,-4.125054 0.216944,-6.181214 0.113518,-1.223235 0.196723,-2.9418102 0.648071,-4.0881919 0.08567,-0.2175957 0.413936,-0.6915483 0.538284,-0.8796861 0.390736,-0.480536 0.781874,-0.9371391 1.316871,-1.2675962 0.177879,-0.1098722 0.476491,-0.087297 0.562273,-0.2779652 0.05502,-0.1222827 -0.498337,-0.04258 -0.385481,-0.11499 0.163379,-0.1048258 0.38816,-0.0075 0.582239,-0.011253 1.223332,0.3049217 1.860927,0.6660875 2.4576,1.8211255 0.05015,0.1777532 0.129727,0.3497337 0.150453,0.5332592 0.01988,0.1760242 -0.01078,0.3545004 -0.03031,0.530564 -0.104527,0.9424736 -0.366085,1.8671217 -0.741046,2.7360017 -0.675578,1.270344 -1.50598,2.496574 -3.000112,2.821782 -1.263389,0.156714 -1.329876,0.09685 -3.067949,0.06693 -1.079774,-0.05246 -2.443052,-0.03938 -3.431193,-0.531777 C 9.9046902,13.799175 9.7816925,13.69493 9.649077,13.60737 9.5531346,13.494084 9.4463668,13.389142 9.3612498,13.267513 8.8782034,12.577256 8.7697216,11.688053 8.6275994,10.88067 Z" />
  </g>
</svg>
