<?xml version="1.0" encoding="UTF-8" standalone="no"?>
<!-- Created with Inkscape (http://www.inkscape.org/) -->

<svg
   width="210mm"
   height="297mm"
   viewBox="0 0 210 297"
   version="1.1"
   id="svg1"
   inkscape:version="1.4 (86a8ad7, 2024-10-11)"
   sodipodi:docname="drawing-2.svg"
   xmlns:inkscape="http://www.inkscape.org/namespaces/inkscape"
   xmlns:sodipodi="http://sodipodi.sourceforge.net/DTD/sodipodi-0.dtd"
   xmlns="http://www.w3.org/2000/svg"
   xmlns:svg="http://www.w3.org/2000/svg">
  <sodipodi:namedview
     id="namedview1"
     pagecolor="#ffffff"
     bordercolor="#000000"
     borderopacity="0.25"
     inkscape:showpageshadow="2"
     inkscape:pageopacity="0.0"
     inkscape:pagecheckerboard="0"
     inkscape:deskcolor="#d1d1d1"
     inkscape:document-units="mm"
     inkscape:zoom="0.76167929"
     inkscape:cx="187.08661"
     inkscape:cy="706.99047"
     inkscape:window-width="1920"
     inkscape:window-height="1057"
     inkscape:window-x="-8"
     inkscape:window-y="-8"
     inkscape:window-maximized="1"
     inkscape:current-layer="layer1" />
  <defs
     id="defs1">
    <rect
       x="68.270203"
       y="84.024865"
       width="523.84252"
       height="943.96685"
       id="rect2" />
  </defs>
  <g
     inkscape:label="Layer 1"
     inkscape:groupmode="layer"
     id="layer1">
    <text
       xml:space="preserve"
       transform="scale(0.26458333)"
       id="text2"
       style="font-size:133.333px;text-align:start;writing-mode:lr-tb;direction:ltr;white-space:pre;shape-inside:url(#rect2);display:inline;fill:#000000" />
    <path
       style="fill:#000000;stroke-width:0.264583"
       id="path6"
       d="m 16.559776,10.309577 c 0.511765,1.541117 1.041335,3.076593 1.560227,4.61554 1.030778,3.451049 2.09299,6.895327 2.929024,10.399735 1.06304,4.163394 1.602491,8.425223 2.211998,12.670399 0.741579,4.989602 1.53032,9.971542 2.224437,14.968106 0.356302,2.436937 0.685726,4.882441 0.847708,7.34142 0.08196,1.244198 0.08355,2.026158 0.109161,3.276603 0.03174,3.123932 -0.03104,6.247815 -0.121277,9.370266 -0.186828,3.519866 -0.298208,7.043005 -0.391949,10.566381 -0.05732,3.027643 -0.03574,6.05613 -0.09656,9.083691 -7.67e-4,2.026587 -0.20439,4.053332 -0.176258,6.079643 0.04275,0.507651 0.02877,0.661633 0.968775,0.581914 0.01982,-0.0016 0.05865,-1.203422 0.06187,-1.312978 0.07487,-1.785118 0.151194,-3.570309 0.194591,-5.356998 0.07973,-2.431058 0.01744,-4.863441 -0.109106,-7.291641 -0.150088,-2.420414 -0.232389,-4.843955 -0.279385,-7.268319 0.01289,-2.286661 0.663099,-4.504735 1.385687,-6.654905 0.664601,-2.064147 1.563108,-4.033187 2.512761,-5.978314 0.914326,-1.909535 2.044679,-3.687069 3.340605,-5.35645 1.535912,-1.548378 3.482867,-2.573895 5.50331,-3.338679 1.322403,-0.370752 2.690598,-0.759245 4.073623,-0.820287 0.239836,-0.01058 0.480057,0.0089 0.720087,0.01336 1.171974,0.07814 2.312493,0.434081 3.385264,0.902031 1.274236,0.555831 1.071745,0.484288 0.740156,0.373721 1.336069,0.818123 2.397993,1.970868 3.189097,3.319002 0.222801,0.379675 0.409263,0.779537 0.613894,1.169308 1.617554,3.415038 2.417604,7.128208 3.050763,10.831086 0.367284,2.424163 0.823618,4.840235 0.933018,7.293377 -0.01767,2.067594 0.09236,4.131339 0.342892,6.183151 0.293812,1.863701 0.910416,3.653282 1.481844,5.445181 0.323477,0.993568 0.663573,1.962832 1.193036,2.864559 0.430305,0.630663 1.117991,1.026961 1.730684,1.461635 1.083612,0.729689 2.239031,1.324152 3.500504,1.658739 0.495485,0.09075 0.250425,0.053 0.734986,0.114498 0,0 -0.787993,-0.588597 -0.787993,-0.588597 v 0 c -0.478861,-0.06673 -0.236865,-0.02588 -0.725757,-0.123865 -0.431607,-0.119824 -0.848453,-0.255452 -1.259068,-0.437099 -0.164211,-0.07264 -0.307472,-0.219835 -0.48669,-0.230884 -0.138554,-0.0085 0.475406,0.286099 0.351978,0.222576 -0.144868,-0.07455 -0.27767,-0.170522 -0.416505,-0.255784 C 60.992352,95.67045 60.312516,95.278065 59.85771,94.6784 59.79795,94.578303 59.509637,94.098076 59.46369,94.009242 59.10554,93.316781 58.939575,92.540242 58.636111,91.824724 58.05869,90.037908 57.443192,88.251452 57.139905,86.392704 56.888453,84.343429 56.762946,82.282349 56.794468,80.216633 56.689555,77.752124 56.207239,75.329157 55.832149,72.89548 55.192239,69.1926 54.395848,65.479011 52.814039,62.048125 52.613509,61.656615 52.43142,61.2551 52.212443,60.873602 51.433404,59.516369 50.384053,58.346927 49.050593,57.519519 48.529782,57.214346 48.017456,56.894211 47.48816,56.604 c -1.29653,-0.710883 -2.771143,-1.153102 -4.240488,-1.27517 -1.635985,-0.01064 -3.250607,0.360288 -4.808453,0.840999 -2.028198,0.783535 -3.976243,1.836724 -5.528344,3.384868 -1.292704,1.679434 -2.426703,3.46157 -3.347024,5.375002 -0.959049,1.945521 -1.841386,3.926589 -2.51382,5.991939 -0.730407,2.156706 -1.37983,4.387469 -1.406355,6.681185 0.05568,2.426221 0.142355,4.851532 0.284751,7.274374 0.129292,2.425721 0.191595,4.856306 0.112361,7.284995 -0.04817,1.782257 -0.136195,3.562038 -0.222211,5.342208 -0.0118,0.353795 -0.01746,0.620199 -0.04077,0.969515 -0.0072,0.107987 -0.100324,0.242763 -0.0282,0.323456 0.234744,0.262649 0.575978,0.40572 0.86275,0.610293 0.01529,0.0109 -0.03211,-0.01947 -0.04816,-0.0292 -0.01196,-0.08523 -0.02395,-0.170463 -0.03591,-0.255693 -0.07845,-2.029317 0.141386,-4.06422 0.138179,-6.093804 0.07516,-3.028138 0.0038,-6.058432 0.09028,-9.086789 0.0729,-3.525213 0.19096,-7.048934 0.383894,-10.569821 0.09901,-3.123748 0.165661,-6.247437 0.125609,-9.373222 -0.06677,-3.572637 -0.389451,-7.105483 -0.964601,-10.63435 C 25.574547,48.36697 24.781331,43.37967 24.048715,38.382706 23.455187,34.140401 22.940489,29.880408 21.875101,25.721772 21.047564,22.219599 19.962459,18.787686 18.977075,15.327733 18.475595,13.794459 17.939997,12.272352 17.454227,10.734388 Z" />
    <path
       style="fill:#000000;stroke-width:0.264583"
       id="path8"
       d="m 65.024327,97.245169 c 1.415413,-0.24161 2.802618,-0.612786 4.185261,-0.994519 1.495063,-0.4924 3.152233,-0.734454 4.47828,-1.642163 0.311718,-0.213378 0.587203,-0.475379 0.880805,-0.713068 1.451857,-1.273439 2.450891,-2.923492 3.392112,-4.585901 0.977755,-1.72693 1.084575,-1.97391 2.000515,-3.74265 1.337183,-2.871462 2.835084,-5.724596 3.703912,-8.787558 0.122854,-0.43311 0.207727,-0.876105 0.31159,-1.314157 0.254743,-1.354426 0.360701,-2.727216 0.391083,-4.1031 0.02138,-0.968642 0.06038,-1.35228 -0.188032,-2.285 -0.08901,-0.334213 -0.23864,-0.649258 -0.35796,-0.973889 -0.872371,-1.683477 -1.979901,-2.769462 -3.817429,-3.383862 -0.529423,-0.09371 -1.882156,-0.606761 -2.366529,-0.471693 -0.12056,0.03362 -0.211301,0.134199 -0.316952,0.2013 -0.07799,0.130294 -0.181163,0.24851 -0.23396,0.390887 -0.453496,1.222902 -0.310293,3.418782 -0.251998,4.720995 0.19616,2.561833 0.269651,5.129641 0.318294,7.697782 0.135128,2.891552 0.841037,5.696305 1.603264,8.474549 0.776094,2.659983 2.249276,4.987618 3.839557,7.224008 1.037026,1.414283 2.179298,2.484985 3.891782,3.036491 0.841394,0.198056 1.700456,0.132863 2.550232,0.04919 0.585385,-0.08094 1.169982,-0.167603 1.756219,-0.242303 0.189548,-0.02416 0.788543,-0.08537 0.987928,-0.144436 0.172387,-0.05107 0.332724,-0.136369 0.499089,-0.204552 0.881896,-0.385093 1.758987,-0.843084 2.410076,-1.564555 0.40027,-0.571534 0.51272,-1.244473 0.563227,-1.923918 -0.0069,-0.425669 0.106449,-0.913032 -0.117856,-1.300234 0,0 -0.913702,-0.392572 -0.913702,-0.392572 v 0 c 0.305956,0.29606 0.126378,0.86225 0.155451,1.238697 -0.04284,0.65841 -0.139356,1.31414 -0.527077,1.868982 -0.643734,0.707715 -1.510104,1.156642 -2.380432,1.530249 -0.16337,0.06213 -0.321755,0.139412 -0.490112,0.186383 -0.1916,0.05346 -0.802629,0.120968 -0.981609,0.144386 -0.586005,0.07668 -1.170533,0.164206 -1.75705,0.23703 -0.843431,0.07629 -1.698697,0.134448 -2.52852,-0.08395 -0.13339,-0.04645 -0.382744,-0.279498 -0.400169,-0.139332 -0.01923,0.15472 0.527619,0.328057 0.384352,0.266547 -0.93703,-0.402299 -1.596025,-1.454928 -2.234139,-2.185858 -1.601721,-2.226202 -3.077268,-4.548931 -3.869547,-7.201522 -0.77203,-2.768023 -1.447612,-5.567415 -1.603126,-8.448611 -0.0599,-2.566435 -0.107519,-5.134716 -0.307877,-7.695026 -0.05813,-1.293455 -0.20043,-3.439932 0.251682,-4.656658 0.04729,-0.127278 0.141306,-0.231902 0.211958,-0.347856 0.09478,-0.05223 0.178522,-0.134051 0.284347,-0.156691 0.52831,-0.113038 1.785438,0.389919 2.342986,0.491902 0.164777,0.05945 0.324443,0.221076 0.494332,0.178367 0.126045,-0.03169 -0.411623,-0.314736 -0.32049,-0.222071 0.141534,0.143913 0.324273,0.241562 0.473416,0.377569 0.638554,0.582308 1.142365,1.281324 1.536576,2.048658 0.122775,0.32 0.275778,0.629986 0.368321,0.960001 0.259289,0.924631 0.223547,1.305856 0.206841,2.271538 -0.02371,1.370608 -0.129977,2.737858 -0.382368,4.08704 -0.101669,0.436311 -0.185499,0.877167 -0.305009,1.308936 -0.848564,3.065719 -2.308416,5.932156 -3.667882,8.79041 -1.510527,2.912909 -2.975996,6.006828 -5.412401,8.271648 -0.292799,0.231685 -0.568285,0.487114 -0.878396,0.695058 -1.3288,0.891029 -2.975247,1.135052 -4.466031,1.623406 -1.389539,0.378891 -2.785102,0.741842 -4.208309,0.972818 z" />
    <path
       style="fill:#000000;stroke-width:0.264583"
       id="path11"
       d="m 95.577474,90.917624 c 0.431352,-1.940055 1.157795,-3.633076 2.216094,-5.306412 1.209569,-1.734904 2.283022,-3.57315 3.085582,-5.534718 0.16047,-0.392216 0.29045,-0.796226 0.43568,-1.19434 0.1129,-0.487124 0.24404,-0.97038 0.33869,-1.461378 0.25019,-1.297824 0.3653,-2.445766 0.52262,-3.765018 0.30628,-2.56848 0.60242,-5.137857 0.88884,-7.708622 0.68915,-5.612969 1.10852,-11.253108 1.70204,-16.875638 0.62923,-4.028517 0.24021,-8.088151 -0.18025,-12.112646 -0.61834,-4.390538 -1.09851,-8.798161 -1.6316,-13.199332 -0.2363,-2.100554 -0.75354,-4.151277 -1.19093,-6.215013 -0.26009,-1.189609 -0.5857,-2.39637 -1.1428,-3.487521 C 100.2558,13.340843 99.979479,13.017233 99.502353,12.360165 98.358186,10.98764 97.25767,9.555926 95.87849,8.4078132 95.362283,8.056261 94.998491,7.790136 94.351304,7.5251156 c -0.08687,-0.035572 -0.217916,-0.03113 -0.278693,0.040405 -0.469876,0.5530265 -0.425445,2.2602814 -0.462349,2.8855654 -0.08611,3.252762 0.01,6.50638 -0.0177,9.759459 -0.0766,3.498966 -0.106868,6.998091 0.09472,10.493012 0.230065,2.893774 0.637333,5.768945 0.934204,8.656079 0.280556,4.157207 0.290449,8.328284 0.426431,12.492209 0.03766,3.317759 0.349787,6.618875 0.624716,9.922399 0.19268,2.705113 0.350554,5.411263 0.619196,8.110188 0.288465,2.297983 0.707845,4.575701 1.122458,6.85337 0.384268,2.002004 0.799854,4.00009 1.476383,5.925523 0.686882,1.752672 1.57962,3.405561 2.52711,5.027586 0.74705,1.31553 1.48159,2.637666 2.24448,3.944094 0.43447,0.661352 0.72333,1.452279 1.34942,1.960451 0.36548,0.204597 0.72109,0.427927 1.09644,0.613794 0.40865,0.202353 1.63411,0.276987 2.1132,0.320016 1.86636,0.232095 3.73466,-0.08475 5.58465,-0.314217 1.49983,-0.298278 2.99656,-0.649126 4.36111,-1.363236 0.7015,-0.367112 1.39476,-0.850186 2.05368,-1.287002 1.94474,-1.511171 3.72609,-3.306699 4.9379,-5.471742 0.26889,-0.480412 0.48351,-0.989251 0.72527,-1.483876 0.20043,-0.547222 0.42664,-1.085681 0.60131,-1.641663 0.3582,-1.14015 0.75633,-2.901498 1.00547,-4.052184 0.29553,-1.364948 0.61036,-2.916174 0.79487,-4.300709 0.0962,-0.721678 0.14694,-1.448686 0.22041,-2.173028 0.33732,-4.721151 0.33449,-9.454034 0.41186,-14.1835 0.0558,-5.184688 0.18764,-10.363555 0.4764,-15.540771 0.20769,-3.727492 0.60177,-7.459397 0.41493,-11.195549 -0.61478,-4.199996 -0.70668,-8.434438 -0.64353,-12.670518 0.0454,-0.788386 0.20178,-3.293859 0.21087,-4.189815 0.009,-0.862722 -7.9e-4,-1.75566 -0.26288,-2.590688 -0.238,-0.758338 -0.44027,-0.892088 -0.92251,-1.468158 -1.03784,-0.8960861 -2.2452,-1.4520146 -3.53818,-1.8658936 -0.0809,-0.035548 -0.16193,-0.070712 -0.24264,-0.1066432 -0.10851,-0.048307 -0.48768,-0.2185403 -0.57997,-0.2670408 -0.11891,-0.062482 -0.46816,-0.2635141 -0.34929,-0.2009576 0.1454,0.076521 2.5616,1.4624184 -0.78073,-0.4502759 -0.69326,-0.3978857 -1.46296,-0.5359963 -2.24706,-0.6038302 -1.17394,-0.039062 -1.65491,0.6711169 -2.17642,1.612928 -0.55405,1.2325686 -0.70794,2.5565093 -0.80378,3.8873853 -0.3582,3.356943 -0.48437,6.732109 -0.61291,10.103846 -0.0424,3.252847 0.25062,6.493075 0.53972,9.72891 0.50675,4.301345 1.02487,8.601443 1.53257,12.90288 0.18968,1.249672 0.36095,2.502281 0.56906,3.749016 0.20182,1.209098 0.39622,2.420686 0.66061,3.617661 1.02335,4.632942 2.69006,9.082109 4.41143,13.490559 0.33234,0.80241 0.66345,1.60533 0.99702,2.407232 0.6313,1.517679 1.04172,2.358861 1.49412,3.939643 0.6673,2.331678 0.97357,4.755441 1.32516,7.147788 0.096,0.768273 0.18681,1.537213 0.28802,2.304817 0.15381,1.16667 0.40532,3.00578 0.63738,4.18139 0.45255,2.292636 1.11938,4.533649 1.75961,6.778395 0.49625,1.59313 0.93561,3.215754 1.60985,4.747233 0.0473,0.107575 0.51817,1.114759 0.73621,1.282073 0.35912,0.27558 0.78298,0.454533 1.17447,0.6818 0.92922,-0.08788 1.79745,-0.436896 2.652,-0.789525 0.73311,-0.302516 1.56591,-0.660746 2.24218,-1.080455 0.3927,-0.243718 0.75432,-0.534276 1.13148,-0.801412 0.36622,-0.329118 0.73243,-0.658238 1.09865,-0.987356 0,0 -0.79237,-0.491652 -0.79237,-0.491652 v 0 c -0.36544,0.325298 -0.73088,0.650592 -1.09632,0.975889 -0.37674,0.262708 -0.73867,0.548037 -1.13021,0.78812 -0.66769,0.409411 -1.51424,0.777237 -2.23824,1.069433 -0.64583,0.260643 -1.32495,0.527587 -2.01549,0.656481 -0.20287,0.03787 -0.41164,0.03033 -0.61746,0.0455 0.16157,0.106699 0.35097,0.460097 0.4847,0.320091 0.13343,-0.139679 -0.24703,-0.298773 -0.34742,-0.463802 -0.15873,-0.260937 -0.30031,-0.532741 -0.42765,-0.810347 -0.70163,-1.52949 -1.15233,-3.159945 -1.65813,-4.759169 -0.64262,-2.239933 -1.29678,-4.474744 -1.7505,-6.762935 -0.25842,-1.303221 -0.47569,-2.876312 -0.65171,-4.184219 -0.10357,-0.769601 -0.19741,-1.540481 -0.29611,-2.310722 -0.34787,-2.391119 -0.64019,-4.821389 -1.29951,-7.153548 -0.46685,-1.651373 -0.8437,-2.373833 -1.51322,-3.955208 -0.34037,-0.803953 -0.67733,-1.609352 -1.01599,-2.414027 -1.27763,-3.220344 -2.52601,-6.451309 -3.48959,-9.783622 -0.84225,-2.912734 -1.12639,-4.353298 -1.62114,-7.321992 -0.20729,-1.243891 -0.3734,-2.494296 -0.56011,-3.741444 -0.4888,-4.284345 -0.92875,-8.574153 -1.4421,-12.855686 -0.31147,-3.233864 -0.60205,-6.473682 -0.56164,-9.72665 0.11072,-3.366174 0.24274,-6.736223 0.64512,-10.082627 0.11252,-1.312312 0.24488,-2.628319 0.79474,-3.8451134 0.51623,-0.9236977 0.97331,-1.5771484 2.12332,-1.5128861 0.77791,0.075862 1.53612,0.233327 2.21955,0.634616 -0.1488,-0.087991 -0.59611,-0.3504213 -0.44641,-0.2639716 0.78888,0.4555511 1.55697,0.9592644 2.4157,1.2771215 0.3107,0.1012534 1.09881,0.3862697 1.10123,0.3839433 0.10154,-0.097339 -0.47364,-0.2956978 -0.34122,-0.2482493 0.31372,0.1124167 0.86788,0.5660516 1.11308,0.7516326 0.49162,0.552825 0.7049,0.688053 0.95597,1.429895 0.28012,0.827671 0.3033,1.726221 0.30416,2.586404 0.001,1.038827 -0.13403,3.245317 -0.18566,4.205047 -0.0569,4.223778 0.004,8.454462 0.58278,12.646851 0.22684,3.743679 -0.13922,7.487756 -0.3346,11.225217 -0.28753,5.173324 -0.46983,10.348876 -0.50394,15.530531 -0.073,4.726255 -0.0705,9.45588 -0.41506,14.173319 -0.0723,0.722805 -0.12143,1.448311 -0.21696,2.168417 -0.17745,1.337796 -0.50621,2.976017 -0.79365,4.295026 -0.25695,1.179131 -0.64675,2.867935 -1.01699,4.032797 -0.17551,0.552183 -0.40035,1.087454 -0.60052,1.631181 -0.24078,0.491148 -0.45459,0.996468 -0.72235,1.473446 -1.20893,2.153546 -2.98618,3.939024 -4.93365,5.428612 -0.67953,0.451104 -1.31631,0.899623 -2.04381,1.275223 -1.36317,0.703794 -2.85822,1.048239 -4.35467,1.333103 -1.85211,0.233275 -3.7227,0.539342 -5.59021,0.28443 -0.47621,-0.0446 -0.9515,-0.08955 -1.42205,-0.178465 -0.13127,-0.02479 -0.26219,-0.0522 -0.39151,-0.08573 -0.0965,-0.025 -0.35904,-0.156538 -0.28512,-0.08972 0.17213,0.15561 0.39442,0.244544 0.59164,0.366816 -0.66377,-0.460558 -0.93768,-1.276361 -1.37519,-1.929231 -0.77165,-1.307086 -1.51647,-2.629214 -2.26186,-3.951478 -0.94206,-1.619927 -1.84721,-3.261031 -2.532344,-5.010229 C 99.074656,81.147789 98.648873,79.154154 98.266513,77.15279 97.84844,74.878815 97.429978,72.603777 97.145048,70.308355 96.865693,67.606637 96.683046,64.899134 96.50342,62.1891 96.24081,58.879594 95.898564,55.575906 95.842613,52.253401 95.698486,48.096154 95.704855,43.933046 95.469325,39.78044 95.155627,36.893298 94.748698,34.01605 94.517529,31.120394 94.303386,27.627344 94.31906,24.128912 94.41662,20.631392 c 0.03293,-3.24954 -0.08211,-6.499635 0.02816,-9.7485 0.05454,-0.822128 0.05653,-1.4892831 0.246881,-2.2813459 0.03875,-0.1612365 0.07212,-0.3402737 0.184906,-0.4618418 0.0557,-0.060042 0.298101,0.060636 0.245692,-0.0023 -0.135493,-0.1627058 -0.355237,-0.2305182 -0.534029,-0.3439459 -0.12976,-0.082323 0.25796,0.1670862 0.38694,0.2506292 1.401005,1.1293798 2.503156,2.5664224 3.653954,3.9384344 0.463388,0.631294 0.762457,0.98457 1.120364,1.674024 0.562652,1.083876 0.892732,2.285618 1.152802,3.471095 0.43381,2.070293 0.96863,4.121842 1.22881,6.224758 0.56094,4.399424 1.05014,8.807734 1.64312,13.203135 0.42795,4.021297 0.80045,8.073155 0.19983,12.101611 -0.56639,5.627687 -0.9556,11.273139 -1.68359,16.884361 -0.29138,2.566247 -0.59593,5.130062 -0.91709,7.69275 -0.16737,1.335516 -0.28052,2.434248 -0.53991,3.744627 -0.0962,0.486089 -0.22827,0.964398 -0.3424,1.446598 -0.14423,0.395962 -0.27419,0.79742 -0.43269,1.187889 -0.796228,1.961552 -1.867942,3.793625 -3.09101,5.516439 -0.467944,0.741777 -0.583282,0.878347 -0.966771,1.673793 -0.561782,1.165262 -0.941494,2.409082 -1.286812,3.652248 z" />
    <path
       style="fill:#000000;stroke-width:0.264583"
       id="path12"
       d="m 140.87747,96.861809 c 1.16603,-0.970283 2.52663,-1.657607 3.78274,-2.498064 0.27732,-0.228891 0.57488,-0.43525 0.83195,-0.68667 1.98069,-1.937192 3.10241,-4.932966 4.21582,-7.415845 1.20719,-2.612324 2.07969,-5.354167 2.95628,-8.089085 0.64982,-2.312458 1.52491,-4.538782 2.49513,-6.732066 1.19496,-2.292199 2.39647,-4.579763 3.563,-6.886692 0.45463,-0.765418 0.69902,-1.801553 1.44485,-2.368772 0.27804,-0.211447 0.53447,-0.26783 0.85707,-0.375377 0.58164,-0.113967 1.15571,-0.02717 1.69517,0.211907 0.12016,0.05325 0.46861,0.237622 0.34793,0.185536 -0.17025,-0.07349 -0.33134,-0.166589 -0.49701,-0.249883 0.63799,0.394425 0.94574,1.067618 1.39916,1.628072 0.50358,0.555961 1.03633,1.083267 1.5201,1.657032 1.03707,1.405919 2.37841,2.527345 3.73696,3.6078 1.3447,0.896022 2.75218,2.159789 4.23731,2.809362 0.28921,0.126497 0.0655,-0.290261 -0.003,-0.463709 -0.65625,-0.832533 -1.45441,-1.534938 -2.22803,-2.254319 -1.38925,-1.300853 -3.0077,-2.296591 -4.7396,-3.07463 -1.7447,-0.579281 -3.58893,-0.749456 -5.38682,-1.101733 -0.63627,-0.118189 -1.265,-0.267544 -1.90281,-0.377841 -0.36624,-0.06333 -0.9004,-0.170338 -1.27302,-0.109595 -0.26459,0.04314 -0.51066,0.163377 -0.76599,0.245065 -0.27939,0.19227 -0.59056,0.34504 -0.83815,0.576812 -0.84306,0.789181 -1.58308,1.939484 -2.14455,2.909541 -1.42624,2.464118 -2.40085,5.109946 -3.40332,7.763264 -0.98874,2.890724 -2.07641,5.760561 -2.77027,8.741643 -0.28841,1.239128 -0.41917,2.060321 -0.64164,3.304513 -0.1775,1.267458 -0.41209,2.534455 -0.50616,3.812725 -0.0197,0.267629 -0.0904,1.151671 0.12039,1.447684 0.1573,0.22089 0.43227,0.327546 0.6484,0.491321 0.66902,0.273669 1.31748,0.604284 2.00706,0.821012 0.51419,0.161605 2.58522,0.443696 3.09434,0.507265 1.53005,0.191034 3.04983,0.287837 4.58958,0.351229 3.63775,0.09903 7.28162,0.09883 10.91693,-0.07948 0.3255,-0.08438 0.66999,-0.114863 0.97651,-0.253129 1.46324,-0.660038 1.50297,-2.262108 1.71906,-3.611838 1.14145,-3.545805 3.39683,-6.55285 5.50751,-9.569481 0.5491,-0.788744 1.08995,-1.604677 1.41628,-2.516421 0.0576,-0.160824 0.13218,-0.32413 0.13278,-0.494945 0.002,-0.491308 -0.28355,-0.79705 -0.52941,-1.192324 -0.886,-1.261427 -2.14725,-2.183466 -3.15632,-3.331697 -0.19455,-0.221376 -0.36733,-0.460973 -0.55099,-0.691459 -0.92325,-1.252119 -1.47168,-2.658893 -2.33869,-3.95541 -0.61888,-0.980842 -1.28478,-1.73093 -2.37577,-2.205656 -0.0536,-0.02331 -0.10387,0.05343 -0.1558,0.08015 -0.0136,0.07692 -0.0488,0.153049 -0.0409,0.230759 0.0548,0.536959 0.70539,1.744385 0.95711,2.270869 0.20516,0.373509 0.39022,0.793043 0.7122,1.087435 0.9331,0.853133 2.20084,1.242083 3.3678,1.653016 1.26605,0.34722 2.53247,0.929804 3.87292,0.879628 0.5299,-0.01984 0.65301,-0.09185 1.1305,-0.244507 0.80486,-0.409667 1.00239,-1.211979 1.10741,-2.039979 0.0619,-0.592548 0.007,-1.187964 0.047,-1.780866 0.15252,-0.585142 0.49191,-1.10295 0.81637,-1.606637 0.0755,-0.117184 0.13231,-0.248814 0.22665,-0.351422 0.0828,-0.09004 0.1973,-0.144627 0.29596,-0.216943 1.07159,0.119917 2.04986,0.654677 2.98462,1.157769 1.11863,0.602057 0.8645,0.389726 1.34369,0.833806 0,0 0.88257,0.343365 0.88257,0.343365 v 0 c -1.46131,-0.894366 -3.6161,-2.357874 -5.29546,-2.795434 -0.24157,-0.06294 -0.49745,-0.04267 -0.74617,-0.064 -0.10411,0.08235 -0.22375,0.148193 -0.31233,0.247055 -0.093,0.103801 -0.1499,0.235013 -0.22488,0.352499 -0.33105,0.518737 -0.67665,1.048983 -0.84563,1.645817 -0.0509,0.591497 0.0122,1.185545 -0.0436,1.777772 -0.0917,0.79235 -0.26202,1.566442 -1.04295,1.947638 -0.46389,0.141618 -0.58821,0.210883 -1.10154,0.223551 -1.32854,0.03279 -2.58515,-0.542401 -3.83975,-0.890058 -0.38136,-0.137689 -0.75329,-0.305041 -1.1441,-0.41307 -0.0374,-0.01032 -0.0568,0.08827 -0.0918,0.07144 -0.58758,-0.283167 -0.92327,-0.863869 -1.21058,-1.414068 -0.36712,-0.757449 -0.78202,-1.531958 -0.98105,-2.350315 0.31875,-0.04918 0.31437,-0.02598 -0.52525,-0.397211 -0.10921,-0.04829 0.19102,0.144217 0.27752,0.226539 0.41854,0.398328 0.74314,0.881695 1.06953,1.354159 0.8712,1.280295 1.43374,2.711101 2.34232,3.964876 0.183,0.233529 0.35465,0.476412 0.549,0.700585 0.99815,1.151335 2.26424,2.060842 3.15616,3.311263 0.21326,0.322871 0.54068,0.689914 0.55457,1.116023 0.005,0.166979 -0.0646,0.328795 -0.11785,0.487156 -0.30655,0.911927 -0.837,1.728963 -1.37378,2.517662 -2.08977,3.047415 -4.3381,6.063083 -5.54771,9.594725 -0.22094,1.302724 -0.24083,2.884972 -1.66331,3.516969 -0.30007,0.133313 -0.63593,0.163827 -0.95389,0.245739 -3.62802,0.197205 -7.26579,0.202248 -10.89672,0.08307 -1.53703,-0.07393 -3.06081,-0.167568 -4.58834,-0.361444 -0.52902,-0.06715 -1.05778,-0.138457 -1.58346,-0.228106 -0.50769,-0.08658 -1.00322,-0.248012 -1.51557,-0.300405 -0.12596,-0.01288 -0.24275,0.07212 -0.36413,0.108183 -0.22296,-0.141478 -0.5026,-0.219305 -0.66888,-0.424437 -0.22985,-0.283575 -0.16934,-1.167339 -0.15349,-1.426691 0.0782,-1.280295 0.3094,-2.550033 0.47998,-3.819041 0.22034,-1.252622 0.34589,-2.054654 0.6301,-3.303235 0.67933,-2.984326 1.72865,-5.867295 2.72079,-8.757203 0.99991,-2.648247 1.97882,-5.281348 3.42807,-7.726757 0.57214,-0.965401 1.31183,-2.079273 2.16782,-2.852087 0.24613,-0.222213 0.55368,-0.365069 0.83052,-0.547605 0.25098,-0.07208 0.49422,-0.180951 0.75295,-0.216249 0.92294,-0.125915 2.22725,0.402944 3.16305,0.497681 1.79473,0.339685 3.63648,0.511955 5.3685,1.116264 0.26483,0.121502 0.5264,0.250409 0.7945,0.364508 0.0136,0.0058 -0.037,-0.04491 -0.0246,-0.03687 0.81857,0.530958 1.59619,1.12114 2.31594,1.780439 0.76876,0.715169 1.55833,1.412933 2.22989,2.223648 0.0633,0.07253 0.14186,0.134178 0.18993,0.217596 0.009,0.01632 -0.0585,0.02299 -0.0442,0.0353 0.0932,0.08031 0.41398,0.265716 0.31259,0.196088 -0.9783,-0.671782 -1.97493,-1.317834 -2.91605,-2.042893 -1.35097,-1.067726 -2.68858,-2.174772 -3.71049,-3.575465 -0.47692,-0.578774 -1.0073,-1.106898 -1.51731,-1.655734 -0.47155,-0.551188 -0.75578,-1.248394 -1.39199,-1.654063 -1.11664,-0.683059 -1.92259,-1.324005 -3.26932,-1.054836 -0.34358,0.123889 -0.5868,0.180777 -0.88102,0.414689 -0.7416,0.589601 -0.98341,1.626286 -1.43424,2.408659 -1.15347,2.315638 -2.36091,4.601527 -3.56017,6.89356 -0.97298,2.197634 -1.86541,4.419536 -2.49075,6.745827 -0.88026,2.730719 -1.76315,5.466585 -2.93164,8.091278 -1.11085,2.49274 -2.22393,5.425157 -4.22964,7.35742 -0.25721,0.247784 -0.55423,0.450601 -0.83134,0.675899 -1.26656,0.83907 -2.63071,1.532591 -3.81576,2.491131 z" />
    <path
       style="fill:#000000;stroke-width:0.264583"
       id="path13"
       d="m 25.11106,125.11535 c 0.08068,5.02739 -0.06259,10.05495 0.07983,15.08219 0.165552,5.84395 0.428442,9.59819 0.769392,15.52364 0.5117,7.88217 1.146694,15.75569 1.790209,23.62797 0.242204,2.96292 0.706098,8.29441 0.916135,11.35761 0.11375,1.65891 0.19526,3.31987 0.292889,4.9798 0.313703,6.58108 0.303315,13.17049 0.138345,19.75494 -0.09353,2.88175 -0.27962,5.75906 -0.475853,8.63521 -0.03398,0.64031 -0.258609,1.25934 -0.216204,1.90221 0.129235,0.4677 0.28634,0.82415 1.077444,0.71794 0.181253,-0.0243 0.08479,-0.35668 0.105632,-0.53837 0.0793,-0.69114 0.05102,-1.31036 0.04832,-2.01246 -0.122868,-2.52301 0.0649,-5.04469 0.274364,-7.55725 0.275924,-3.30978 0.378032,-4.37579 0.991669,-7.79425 0.278498,-1.55146 0.623716,-3.0902 0.935575,-4.63529 0.870619,-4.22547 1.923558,-8.412 3.106679,-12.56028 0.438957,-1.53909 1.140188,-3.88685 1.711426,-5.45011 0.223649,-0.61204 0.491426,-1.20704 0.73714,-1.81056 0.676931,-1.40639 1.545473,-2.76751 2.965248,-3.51558 0.532091,-0.28036 0.787713,-0.31318 1.352188,-0.4585 1.006017,-0.1675 2.038405,-0.17345 3.050524,-0.0592 0.408998,0.0536 0.8353,0.0998 1.218896,0.26508 0.138924,0.0598 0.450278,0.0709 0.400349,0.21367 -0.05194,0.14854 -1.150096,-0.80674 0.01648,0.14967 0.493541,0.44632 1.029719,0.85654 1.470882,1.35817 0.05644,0.0642 0.54841,0.70127 0.600874,0.76898 0.097,0.12249 0.212003,0.23265 0.290995,0.36745 0.2883,0.49201 0.411699,0.9678 0.544583,1.52537 0.283007,1.18749 0.427099,2.39593 0.571657,3.60575 0.215661,1.92856 0.372596,3.86371 0.849712,5.74918 0.998087,3.62514 1.878581,7.28302 2.838206,10.91911 0.560655,2.0274 1.200523,4.03556 1.563785,6.11148 0.07601,0.43437 0.266764,1.8238 0.333516,2.30137 0.359862,2.27553 0.441989,4.57692 0.569809,6.87299 0.07558,1.48067 0.309332,2.94962 0.379479,4.43002 0,0 0.87213,0.43858 0.87213,0.43858 v 0 c -0.08678,-1.48628 -0.332404,-2.95991 -0.413332,-4.44735 -0.128686,-2.29587 -0.183431,-4.60058 -0.555512,-6.8749 -0.175249,-1.20944 -0.333234,-2.41709 -0.6023,-3.61064 -0.29455,-1.3066 -0.421939,-1.65436 -0.802309,-2.97235 -0.179096,-0.62058 -0.356611,-1.24161 -0.534916,-1.86242 -0.589611,-2.21377 -1.161891,-4.43208 -1.713026,-6.6558 -0.276627,-1.11613 -0.519269,-2.24068 -0.808136,-3.35371 -0.07668,-0.29546 -0.170148,-0.5863 -0.255222,-0.87944 -0.497276,-1.88206 -0.658019,-3.81876 -0.877221,-5.74822 -0.142457,-1.21091 -0.286035,-2.4201 -0.552275,-3.6118 -0.111739,-0.50015 -0.252262,-1.09223 -0.508934,-1.55247 -0.07613,-0.13651 -0.194831,-0.24448 -0.292246,-0.36672 -0.200543,-0.25859 -0.384807,-0.53025 -0.59732,-0.7791 -0.43519,-0.50961 -0.97618,-0.9189 -1.468898,-1.36849 -0.965867,-0.82314 -2.046116,-1.48546 -3.326421,-1.57777 -1.018323,-0.0997 -2.054053,-0.0958 -3.062153,0.0946 -0.571174,0.15763 -0.825145,0.19413 -1.361548,0.48837 -1.420694,0.77931 -2.285698,2.16089 -2.952226,3.5908 -0.23899,0.60943 -0.499761,1.21075 -0.716971,1.82827 -0.554228,1.57565 -1.230164,3.9355 -1.658749,5.48393 -0.666065,2.40641 -1.521735,5.68595 -2.082562,8.07827 -0.350938,1.497 -0.661924,3.0031 -0.992886,4.50465 -0.690793,3.35126 -1.203674,5.51727 -1.648315,8.87655 -0.155281,1.17315 -0.229785,2.3556 -0.335883,3.53422 -0.224816,2.49748 -0.471427,5.00412 -0.370253,7.51576 -0.0041,0.80321 0.01995,1.22302 -0.0664,1.98266 -0.01799,0.15827 -0.176366,0.33822 -0.08677,0.46992 0.178483,0.26236 0.502317,0.39173 0.778833,0.54739 0.09315,0.0524 -0.227132,-0.34008 -0.126894,-0.29451 -0.06287,-0.64065 0.166301,-1.25996 0.1905,-1.8996 0.156252,-2.89103 0.307414,-5.78254 0.403466,-8.67633 0.152968,-6.60519 0.08926,-13.21303 -0.237813,-19.81323 -0.102262,-1.66282 -0.186174,-3.32687 -0.306785,-4.98847 -0.242527,-3.34122 -0.700069,-8.11898 -0.988065,-11.39376 -0.692708,-7.87674 -1.351428,-15.75728 -1.838066,-23.64991 -0.346839,-6.56694 -0.537174,-9.06181 -0.662491,-15.46602 -0.07393,-3.7779 -0.01615,-6.32369 0.04377,-10.00815 0.11156,-6.8595 0.01421,-0.24097 0.08223,-4.96847 z" />
    <path
       style="fill:#000000;stroke-width:0.264583"
       id="path16"
       d="m 57.910367,224.10082 c 0.188928,-0.2241 0.406495,-0.42691 0.56679,-0.67232 0.322887,-0.49432 0.603729,-1.01554 0.87743,-1.5387 1.114697,-2.13068 1.991386,-4.25202 2.556751,-6.59584 0.203853,-0.8451 0.339831,-1.70514 0.509746,-2.55772 0.118983,-0.86967 0.261453,-1.73645 0.356949,-2.60901 0.324623,-2.96609 0.447038,-5.95293 0.760606,-8.92103 0.374462,-3.5445 0.471162,-3.95108 0.995717,-7.54928 0.692557,-5.1428 1.804141,-10.26222 1.88228,-15.46749 -0.01222,-0.32442 -0.0176,-0.64917 -0.0367,-0.97325 -0.01413,-0.23963 -0.05651,-2.12963 -1.12759,-1.04923 -0.26103,0.26331 -0.05088,0.74021 -0.05435,1.11096 -0.0048,0.51186 0.01971,1.02358 0.02957,1.53537 0.188725,4.47672 0.317506,8.95554 0.454168,13.43408 0.08861,3.37722 0.323366,6.77146 1.068655,10.07509 0.335153,1.48562 0.777621,2.87475 1.213223,4.33241 0.563618,1.63773 0.92447,3.36363 1.667793,4.93812 0.201716,0.42728 0.865473,1.60919 1.298546,1.92055 0.650229,0.46748 1.401855,0.77469 2.102781,1.16204 1.470528,0.58392 3.008511,0.96461 4.557168,1.27178 0.364206,0.0722 1.729412,0.33945 2.179912,0.29228 0.303676,-0.0318 0.582809,-0.18236 0.874213,-0.27355 0.247756,-0.21713 0.533241,-0.39758 0.743265,-0.65139 0.559014,-0.67556 0.969758,-1.71057 1.273164,-2.49285 0.660739,-1.7036 1.118118,-3.45487 1.556986,-5.22477 0.85527,-3.62932 1.771856,-7.2432 2.517309,-10.89733 0.586793,-3.24021 0.804132,-6.53398 1.009666,-9.81637 0.05564,-1.97776 0.243371,-3.97118 0.04966,-5.94472 -0.269816,-1.23498 -0.611237,-2.97944 -1.399156,-4.00407 -0.113935,-0.14817 -0.265501,-0.26315 -0.398254,-0.39472 -0.630457,-0.38652 -1.83076,-1.32616 -2.65563,-0.64522 -0.07503,0.0619 -0.126434,0.14792 -0.189651,0.22188 -0.459655,0.8645 -0.243295,1.81549 -0.08382,2.73014 0.187243,0.67176 0.240843,1.53867 0.776455,2.05789 0.372072,0.36069 1.671513,0.87088 1.78672,0.92472 1.52042,0.2502 3.044968,-0.0489 4.551683,-0.25597 0.870325,-0.10652 1.749589,-0.24344 2.551181,-0.6115 0.611915,-0.29695 1.203254,-0.63467 1.807742,-0.94642 -0.122042,-0.0174 -0.403738,-0.16959 -0.366123,-0.0522 0.122513,0.38237 0.474501,0.65029 0.670111,1.00094 0.29029,0.52037 0.554238,1.05668 0.784357,1.60631 1.087604,2.59774 1.826318,5.32881 2.594618,8.0315 0.750998,2.78415 1.424294,5.61555 1.526315,8.51028 0.04875,1.38329 -0.0294,1.96517 -0.129257,3.31935 -0.327845,2.71384 -1.180079,5.32537 -1.901365,7.95225 -0.20561,0.81412 -0.426153,1.62429 -0.608062,2.44417 -0.02394,0.10789 -0.04394,0.21664 -0.06872,0.32434 -0.0084,0.0364 -0.06376,0.0905 -0.03065,0.10765 0.27082,0.14052 0.571413,0.21412 0.857118,0.32119 -0.138123,-1.17071 -0.213365,-2.36807 -0.169143,-3.54704 0.02368,-0.63129 0.09062,-1.26022 0.13593,-1.89032 0.708197,-5.40053 2.265546,-10.64478 3.730536,-15.87719 1.42856,-5.07625 2.70618,-10.19777 3.9131,-15.33144 0.13018,-0.53053 0.25479,-1.06247 0.39056,-1.59161 0.12146,-0.47335 0.40489,-1.6493 0.68677,-2.1359 0.29145,-0.50313 0.59129,-0.73852 1.165,-0.34404 0.11232,0.0772 0.0683,0.26392 0.10241,0.39588 0.38985,0.62197 0.82425,1.21815 1.16956,1.86592 2.84837,5.34317 4.11488,11.61083 5.33697,17.48958 0.48698,2.31235 0.86874,4.65045 0.88187,7.01852 0.003,0.54605 -0.0312,1.68098 -0.181,2.28018 -0.0308,0.12323 -0.12309,0.22224 -0.18463,0.33336 0.22618,-0.0396 0.59003,0.0932 0.67854,-0.11867 0.14723,-0.35244 -0.12385,-0.75466 -0.15464,-1.13537 -0.0489,-0.60511 -0.0666,-1.21248 -0.0843,-1.81931 -0.0754,-2.57757 -0.0427,-5.15973 -0.0362,-7.73787 0.10209,-3.25297 -0.12497,-6.53232 0.23505,-9.77544 0.14946,-1.34642 0.29451,-1.82126 0.5877,-3.08953 0.35429,-1.00948 0.78291,-2.02549 1.76938,-2.57307 0.78912,-0.43803 1.57911,-0.39223 2.4318,-0.30263 0.2512,0.14274 0.543,0.23042 0.75361,0.42821 0.0502,0.0471 -0.14634,0.10935 -0.11565,0.17092 1.78295,3.57745 -0.70947,-2.50068 1.10858,1.81676 0.47274,1.12265 0.59889,1.7746 0.92112,2.97719 1.02608,4.51733 1.00137,9.14837 0.98212,13.75116 -0.0282,5.00445 -0.1561,10.00821 -0.0857,15.01274 0,0 0.81007,0.41069 0.81007,0.41069 v 0 c -0.13258,-5.01017 -0.0426,-10.02186 0.042,-15.03226 0.016,-1.53782 0.0583,-4.05186 0.0168,-5.6396 -0.0711,-2.72247 -0.40703,-5.43459 -0.93268,-8.10518 -0.35566,-1.37249 -0.669,-2.79974 -1.398,-4.03804 -0.64741,-1.0997 -1.74312,-1.7999 -2.87713,-2.32656 -0.87349,-0.0701 -1.67049,-0.0957 -2.46738,0.36734 -0.99207,0.57648 -1.42734,1.60724 -1.78151,2.63978 -0.2857,1.27914 -0.42736,1.75802 -0.57113,3.11423 -0.3448,3.25265 -0.0891,6.53702 -0.20371,9.79817 -0.0148,2.57264 -0.0512,5.14734 -0.008,7.71992 0.0103,0.60436 0.0172,1.2092 0.0534,1.81256 0.0229,0.38205 -0.0594,0.8055 0.12378,1.14153 0.23399,0.4291 0.70288,0.67932 1.05431,1.01898 0.0595,-0.12483 0.14806,-0.23959 0.17842,-0.37448 0.14006,-0.62229 0.16271,-1.74019 0.15337,-2.31285 -0.0389,-2.38636 -0.43992,-4.74012 -0.94789,-7.06724 -1.25902,-5.93003 -2.47111,-12.05161 -5.26707,-17.49 -0.33254,-0.64683 -0.7472,-1.24804 -1.1208,-1.87206 -0.1479,-0.11297 -1.64337,-1.73586 -2.50563,-1.41284 -0.43426,0.16268 -0.7255,1.17289 -0.81315,1.45739 -0.17703,0.57461 -0.5827,2.36209 -0.69546,2.84381 -1.17036,5.14475 -2.44171,10.27092 -3.8702,15.34994 -1.479408,5.22945 -3.025394,10.47528 -3.785796,15.86759 -0.149368,1.80371 -0.269095,3.62142 -0.05114,5.42559 0.304281,0.1947 0.589621,0.42279 0.912846,0.5841 0.03548,0.0177 0.01691,-0.0775 0.02413,-0.11649 0.02019,-0.10911 0.03702,-0.21884 0.05812,-0.32778 0.159935,-0.82573 0.376806,-1.63818 0.578311,-2.45441 0.711006,-2.63727 1.578999,-5.25198 1.895909,-7.9756 0.0967,-1.35559 0.17402,-1.95319 0.12422,-3.33715 -0.10472,-2.90997 -0.79613,-5.75122 -1.560707,-8.54708 -0.766294,-2.69264 -1.493348,-5.4223 -2.542013,-8.02377 -0.106133,-0.26329 -0.996916,-2.25709 -1.389626,-2.62542 -0.389457,-0.36528 -0.905368,-0.56633 -1.358049,-0.84949 -0.601278,0.31404 -1.193154,0.64706 -1.804032,0.94202 -0.798515,0.34766 -1.662509,0.48996 -2.522723,0.59758 -1.498589,0.21124 -3.020956,0.50693 -4.529939,0.21815 0.09466,0.0995 0.407194,0.23786 0.28398,0.29853 -0.13994,0.0689 -0.282837,-0.13925 -0.401246,-0.24079 -0.562226,-0.48211 -0.619066,-1.3613 -0.805217,-2.01922 -0.15508,-0.88081 -0.37465,-1.80721 0.05794,-2.64513 0.289756,-0.32588 0.637567,-0.43593 1.078542,-0.34648 0.138973,0.0282 0.379418,0.27073 0.40467,0.13119 0.02697,-0.14904 -0.256418,-0.16128 -0.384628,-0.24192 0.137454,0.1244 0.29468,0.22996 0.412364,0.37321 0.806522,0.98175 1.15687,2.7589 1.426229,3.96859 0.20248,1.97191 0.02167,3.9634 -0.02461,5.94051 -0.179858,3.28306 -0.401968,6.57458 -0.984556,9.81477 -0.734521,3.65563 -1.659023,7.26686 -2.511156,10.89608 -0.439311,1.76276 -0.891505,3.51157 -1.561338,5.20484 -0.296082,0.74847 -0.72871,1.79438 -1.276159,2.44207 -0.204547,0.24199 -0.482637,0.41069 -0.723953,0.61603 -0.283551,0.0821 -0.556681,0.2194 -0.850649,0.24632 -0.451286,0.0413 -1.78899,-0.21677 -2.155235,-0.28928 -1.545693,-0.30604 -3.080062,-0.68939 -4.540707,-1.29097 -0.167167,-0.0688 -0.364689,-0.0882 -0.501499,-0.20641 -0.503566,-0.43489 -1.046229,-1.32676 -1.324737,-1.9002 -0.763744,-1.57253 -1.136457,-3.30404 -1.705478,-4.94648 -0.408506,-1.36369 -0.904565,-2.93807 -1.223433,-4.32754 -0.757169,-3.29935 -0.995318,-6.69128 -1.084067,-10.0667 -0.13045,-4.47022 -0.243504,-8.94091 -0.409665,-13.40999 -0.005,-0.50675 -0.02646,-1.01361 -0.01508,-1.52025 0.0081,-0.36006 0.197839,-0.73996 0.07342,-1.07794 -0.129937,-0.35297 -0.473167,-0.59488 -0.772882,-0.82214 -0.08973,-0.068 0.08888,0.20881 0.109873,0.31943 0.08186,0.4314 0.107064,1.24536 0.128051,1.62912 0.0038,5.21803 -1.069388,10.36038 -1.770475,15.51174 -0.49602,3.33065 -0.665676,4.24478 -1.028684,7.53697 -0.326689,2.96281 -0.454232,5.94431 -0.781035,8.90619 -0.09607,0.87066 -0.237003,1.73579 -0.355504,2.60369 -0.169865,0.84986 -0.305285,1.70733 -0.509596,2.54957 -0.462362,1.90601 -0.794279,2.82531 -1.595506,4.58945 -0.464294,1.02228 -1.22165,2.51318 -1.884312,3.47233 -0.162544,0.23527 -0.383051,0.42469 -0.574575,0.63703 z" />
    <path
       style="fill:#000000;stroke-width:0.264583"
       id="path18"
       d="m 123.81623,209.73347 c 0.80224,0.42751 2.43779,1.45567 3.44452,1.41888 0.14137,-0.005 0.27739,-0.0557 0.41609,-0.0835 0.26219,-0.13699 0.38716,-0.17393 0.59305,-0.39048 0.54166,-0.5697 0.81301,-1.65349 1.06411,-2.36186 0.97145,-2.62237 1.60178,-5.3457 2.15342,-8.08133 0.44345,-2.2013 1.02385,-4.37294 1.35326,-6.59565 0.21679,-1.3882 0.37995,-2.79014 0.73014,-4.15352 0.31984,-1.24515 0.52818,-1.7545 0.97546,-3.0659 1.14691,-3.15278 2.37267,-6.27984 3.70674,-9.35853 0.28034,-0.64697 0.55473,-1.29704 0.86148,-1.93191 0.25466,-0.52706 0.54786,-1.03461 0.82179,-1.55192 0.93209,-1.279 2.03906,-2.76526 3.71849,-3.06525 0.69438,-0.12403 0.92114,0.0332 1.55644,0.23871 -0.0608,-0.0204 -0.22359,-0.11058 -0.18249,-0.0613 0.9356,1.12182 0.14473,-0.21369 0.95324,1.03758 0.38429,0.59475 0.62622,1.27555 0.8743,1.93335 0.44026,1.34605 0.55567,2.77609 0.68305,4.17997 0.1095,1.6924 0.22178,3.38529 0.45271,5.06585 0.2925,1.86574 0.68253,3.71411 0.97698,5.57954 0.11914,0.75801 -0.0435,1.05762 1.05062,1.05436 0.009,-3e-5 0.0134,-0.27409 0.0182,-0.50215 0.002,-0.76014 -0.007,-1.52026 -0.0124,-2.28038 -0.0163,-1.8678 -0.0133,-3.73568 -0.0134,-5.60354 0.043,-1.4965 -0.0752,-2.98647 -0.30814,-4.46324 -0.18643,-1.19749 -0.45034,-2.37871 -0.73844,-3.55501 -0.22308,-0.94587 -0.54762,-1.85756 -1.14812,-2.62815 -0.75883,-0.60722 -1.62689,-1.17248 -2.58098,-1.40832 -0.49406,-0.12212 -0.65658,-0.10535 -1.15774,-0.12839 -1.5743,0.0903 -1.9572,0.73847 -2.64001,2.03626 -0.53649,1.18403 -0.93017,2.42496 -1.42091,3.62832 -1.00401,2.06064 -2.41506,3.89102 -3.61515,5.83726 -0.34511,0.55967 -0.66353,1.13536 -0.9953,1.70303 -1.02628,2.02763 -2.00447,4.09095 -2.73351,6.2477 -0.75707,2.23966 -1.26364,4.54511 -1.74717,6.85463 -0.57352,2.8414 -0.90276,5.72907 -0.69449,8.62496 0.12222,1.17785 0.23652,2.22703 1.01421,3.15934 1.42775,0.99965 3.03118,1.41582 4.72942,1.63199 1.30674,0.19738 2.60741,0.0573 3.9021,-0.14687 1.69081,-0.32552 3.39347,-0.64292 5.03782,-1.1622 1.22043,-0.41656 1.39899,-0.98593 1.86188,-2.12413 0.65219,-1.55021 1.01755,-3.19593 1.32526,-4.84284 0.29114,-1.3911 0.35802,-2.809 0.44888,-4.22243 0.0489,-0.74165 0.11449,-1.48164 0.11717,-2.22543 8e-4,-0.22656 -0.0259,-0.45368 -0.009,-0.67963 0.05,-0.67576 0.19445,-1.13399 0.35696,-1.79903 0.60234,-2.0293 1.42829,-3.98184 2.2469,-5.93083 0.12472,-0.3131 0.25705,-0.62329 0.37417,-0.93932 0.0517,-0.13966 0.29755,-0.84879 0.33555,-1.09824 0.0595,-0.39073 -0.65183,-0.51162 -1.04378,-0.56258 -0.11625,-0.0151 -0.1596,0.17177 -0.2394,0.25765 -0.76427,1.09035 -1.19371,2.36011 -1.56122,3.62719 -0.31378,1.1939 -0.2687,2.42799 -0.189,3.64716 0.0983,1.53315 0.80295,2.91424 1.47176,4.26663 0.49493,1.03914 1.0177,2.08233 2.00224,2.72835 1.10404,0.70507 1.69671,0.85339 2.91158,0.72927 0.60474,-0.0382 1.17875,-0.12429 1.67504,-0.48867 0.1818,-0.17615 0.26628,-0.3413 0.15877,-0.57537 0,0 -0.91216,-0.3963 -0.91216,-0.3963 v 0 c 0.17402,0.15466 0.0634,0.29742 -0.0825,0.44045 -0.48949,0.34145 -1.05442,0.40924 -1.63956,0.45004 -0.47155,0.0425 -0.92112,0.068 -1.3859,-0.0475 -0.10745,-0.0267 -0.38611,-0.18323 -0.31795,-0.096 0.12532,0.16036 0.33855,0.22598 0.50782,0.33898 -1.01509,-0.60246 -1.54357,-1.64734 -2.03729,-2.68487 -0.67004,-1.33938 -1.38005,-2.70937 -1.48479,-4.23043 -0.081,-1.20904 -0.12477,-2.43138 0.17173,-3.61828 0.35876,-1.25159 0.77955,-2.51266 1.55181,-3.57741 0.42265,-0.41471 0.34395,-0.1924 -0.47798,-0.77233 -0.031,-0.0219 0.0595,0.0605 0.0573,0.0983 -0.008,0.13713 -0.0506,0.27038 -0.0873,0.40275 -0.19413,0.6998 -0.3008,0.91027 -0.58407,1.63784 -0.8182,1.95403 -1.66528,3.90292 -2.26119,5.93956 -0.15761,0.62143 -0.32854,1.17448 -0.3814,1.81423 -0.0186,0.22483 0.009,0.45112 0.01,0.67671 0.001,0.74324 -0.0554,1.48254 -0.11035,2.22337 -0.0999,1.40923 -0.15675,2.82478 -0.4414,4.21356 -0.30743,1.64022 -0.6597,3.28225 -1.31989,4.82312 -0.46365,1.10842 -0.63301,1.64389 -1.82307,2.04869 -1.63614,0.52231 -3.33025,0.84914 -5.01726,1.15799 -1.293,0.188 -2.59151,0.31684 -3.89356,0.11971 -0.68914,-0.092 -1.35669,-0.19769 -2.0246,-0.39685 -0.22918,-0.0683 -0.45769,-0.13973 -0.6824,-0.22161 -0.22278,-0.0812 -0.42489,-0.23105 -0.65922,-0.26724 -0.12577,-0.0194 0.21068,0.14282 0.31601,0.21422 -0.0932,-0.10191 -0.19845,-0.19398 -0.27956,-0.30575 -0.57972,-0.79894 -0.65141,-1.87139 -0.78444,-2.80823 -0.23624,-2.89358 0.0778,-5.78338 0.63216,-8.62789 0.47493,-2.30849 0.97528,-4.60854 1.73553,-6.84462 0.73081,-2.14946 1.70263,-4.21145 2.74112,-6.22611 0.91158,-1.53921 1.87398,-3.03267 2.85191,-4.53027 0.46025,-0.70482 1.05061,-1.5575 1.47551,-2.3025 0.12712,-0.2229 0.22985,-0.45886 0.34477,-0.68829 0.48468,-1.20242 0.88281,-2.43842 1.41211,-3.62217 0.67232,-1.27416 1.04018,-1.8763 2.58437,-1.94041 0.5045,0.032 0.64637,0.0162 1.1424,0.14999 0.1777,0.0479 0.3621,0.27466 0.52122,0.18217 0.13315,-0.0774 -0.46888,-0.14078 -0.37823,-0.26527 0.046,-0.0632 0.75889,0.50232 0.76595,0.50768 0.62035,0.74862 0.94801,1.65345 1.17327,2.59274 0.28878,1.17461 0.55647,2.35294 0.74394,3.5489 0.24115,1.47309 0.36691,2.96261 0.32938,4.45672 5.3e-4,1.86479 0.004,3.72958 -0.005,5.59436 -2.6e-4,0.75755 0.004,1.51509 0.002,2.27263 -0.002,0.0858 -0.002,0.17163 -0.005,0.25741 -0.003,0.0785 -0.0664,0.17929 -0.0114,0.23533 1.22867,1.25119 0.797,0.57196 0.69916,-0.16763 -0.30795,-1.86586 -0.71005,-3.71481 -0.99334,-5.58487 -0.22432,-1.67749 -0.34108,-3.36768 -0.44401,-5.05662 -0.12341,-1.41057 -0.23971,-2.84777 -0.66993,-4.20262 -0.39522,-1.05958 -0.81992,-2.35697 -1.80565,-3.02993 -0.47366,-0.32336 -0.98669,-0.58489 -1.48003,-0.87734 -0.6602,-0.18686 -0.8766,-0.33126 -1.58572,-0.1848 -1.68618,0.34826 -2.7892,1.83878 -3.72423,3.14442 -0.27018,0.52176 -0.55937,1.03411 -0.81054,1.5653 -0.38663,0.81766 -1.50404,3.49692 -1.80566,4.23282 -0.17191,0.41942 -1.80928,4.49869 -1.98418,4.94972 -0.27149,0.70012 -0.5265,1.40652 -0.78975,2.10978 -0.21575,0.60273 -0.44618,1.20039 -0.64724,1.80817 -0.58073,1.75545 -0.83985,3.58172 -1.10908,5.40419 -0.32072,2.22465 -0.88103,4.40242 -1.32687,6.60387 -0.55218,2.72887 -1.17039,5.45114 -2.1661,8.05868 -0.24942,0.68103 -0.53128,1.75652 -1.06291,2.30125 -0.19842,0.20331 -0.31057,0.22962 -0.56288,0.35122 -0.13208,0.0208 -0.26253,0.0627 -0.39622,0.0623 -0.54712,-0.002 -1.09704,-0.2701 -1.58792,-0.47953 -0.18572,-0.0792 -0.34942,-0.25274 -0.55133,-0.2509 -0.15739,10e-4 0.26611,0.16819 0.39916,0.25229 z" />
    <path
       style="fill:#000000;stroke-width:0.264583"
       id="path19"
       d="m 157.66721,196.16002 c 0.14531,-3.00085 0.41997,-5.99385 0.66075,-8.98809 0.30113,-3.18623 0.66386,-6.36359 0.87185,-9.5579 0.1153,-1.71991 0.32511,-3.4386 0.33413,-5.16401 -0.0315,0.0184 0.0126,-0.36899 -0.12291,-0.39547 -0.33156,-0.0648 -0.70715,-0.27211 -1.00683,-0.11614 -0.20714,0.1078 -0.0933,0.45975 -0.10182,0.69311 -0.0319,0.87657 0.10168,1.79636 0.19182,2.65961 0.78825,5.24975 2.09449,10.40297 3.17131,15.59723 0.71386,3.23738 1.28385,6.49853 1.67705,9.78929 0.19839,2.10454 0.67579,4.16711 1.18377,6.21448 0.45,-0.36277 -0.0486,1.19979 0.3073,1.08185 0.29803,-0.0988 0.64962,-0.36833 0.64934,-0.68229 -0.001,-1.0844 -0.44771,-2.12221 -0.65283,-3.18703 -0.66796,-3.46745 -0.87191,-4.82543 -1.45704,-8.32998 -0.52547,-3.235 -1.01997,-6.48427 -1.28566,-9.75326 -0.058,-0.71319 -0.17852,-2.82701 -0.0984,-3.66074 0.0444,-0.46168 0.18113,-0.90976 0.2717,-1.36464 0.38014,-1.04824 0.85727,-2.2498 1.59113,-3.11501 0.7216,-0.85076 2.03336,-1.90965 2.82177,-2.56888 0.73455,-0.61421 1.47844,-1.21715 2.21766,-1.82573 2.38536,-1.83157 4.72137,-3.74927 7.21958,-5.42971 1.01538,-0.68301 2.18176,-1.50716 3.46182,-1.64832 0.46037,-0.0508 0.91818,0.12251 1.37728,0.18376 1.65478,1.87969 1.26815,4.7132 1.07308,6.98267 -0.18595,2.16329 -0.66431,5.52617 -0.94896,7.64886 -0.48316,3.50187 -0.98266,7.00146 -1.47097,10.50262 -0.26216,1.87965 -0.53385,3.74384 -0.67708,5.63597 0.0775,0.45807 0.0702,0.93891 0.23249,1.37423 0.42471,1.13916 1.58469,2.69075 2.26281,3.61618 1.3307,1.816 2.73329,3.58035 4.15808,5.32273 0.7335,0.75227 1.35314,1.71921 2.25519,2.30387 0.38785,0.25138 0.80256,0.45867 1.20384,0.68801 0,0 -0.76396,-0.61479 -0.76396,-0.61479 v 0 c 0.15283,0.0959 0.55519,0.43986 0.45849,0.28756 -0.12552,-0.19767 -0.37766,-0.27817 -0.55188,-0.43462 -0.72891,-0.65459 -1.08181,-1.10543 -1.76342,-1.87322 -1.43699,-1.73861 -2.84411,-3.50315 -4.17716,-5.32361 -0.65164,-0.88991 -1.8213,-2.46189 -2.24033,-3.5615 -0.16353,-0.42911 -0.1639,-0.90369 -0.24585,-1.35553 0.12037,-1.9003 0.36682,-3.77493 0.6114,-5.66364 0.45465,-3.51082 0.93683,-7.01802 1.43157,-10.5234 0.2625,-1.91411 0.79823,-5.66898 0.98887,-7.63508 0.15553,-1.60407 0.38272,-3.57555 -0.0148,-5.21012 -0.12847,-0.52828 -0.28924,-1.09503 -0.66234,-1.49048 -0.52039,-0.55155 -1.27328,-0.82388 -1.90992,-1.23582 -0.46296,-0.0476 -0.92759,-0.20429 -1.38889,-0.14265 -1.27906,0.17091 -2.42557,1.00015 -3.44043,1.69593 -2.48348,1.70265 -4.81043,3.62956 -7.21406,5.43907 -0.74699,0.60423 -1.49738,1.20428 -2.24097,1.8127 -0.78319,0.64081 -2.16362,1.71927 -2.88485,2.56206 -0.2265,0.26468 -0.39462,0.57493 -0.57069,0.87552 -0.62087,1.05992 -0.57741,1.10016 -1.02382,2.27934 -0.0907,0.46159 -0.23012,0.91623 -0.27196,1.38477 -0.0733,0.82045 0.0749,3 0.13776,3.69159 0.2981,3.28118 0.81489,6.54182 1.35028,9.79048 0.7292,4.40427 0.64509,3.9718 1.41213,8.31042 0.50841,2.87575 0.0403,2.796 1.65652,4.65851 0.2475,0.28522 -0.82137,-1.6981 -0.32849,-1.08427 -0.52004,-2.04266 -1.0007,-4.10406 -1.19647,-6.20728 -0.4049,-3.30799 -1.02114,-6.57947 -1.74721,-9.8322 -1.08103,-5.17781 -2.37936,-10.3191 -3.12009,-15.56164 -0.083,-0.85114 -0.20941,-1.7575 -0.1694,-2.62111 0.0104,-0.22516 0.20591,-0.46504 0.10715,-0.66766 -0.15525,-0.31854 -0.53919,-0.46191 -0.78302,-0.71905 -0.0823,-0.0868 0.83483,0.27978 0.18128,0.30973 0.0278,1.72829 -0.20514,3.45107 -0.29935,5.17455 -0.19133,3.19921 -0.55046,6.38129 -0.84026,9.57238 -0.24199,2.98366 -0.52757,5.96392 -0.73072,8.95061 z" />
    <path
       style="fill:#000000;stroke-width:0.264583"
       id="path20"
       d="m 186.28761,206.96693 c 1.38932,0.71232 2.78511,1.41098 4.16736,2.13717 1.77651,0.96098 3.64386,1.72528 5.50528,2.50071 0.45709,0.11017 1.41427,0.71789 1.91021,0.52595 0.90069,-0.34857 1.75277,-2.90424 2.01941,-3.53489 1.90184,-5.05394 3.78135,-10.11873 5.45874,-15.25221 0.45121,-1.48288 0.94345,-2.96701 1.16634,-4.50702 0.0912,-0.62997 0.12617,-1.02541 -0.002,-1.63676 -0.0398,-0.19038 -0.12331,-0.36893 -0.18497,-0.55339 -0.44772,-0.85964 -1.4274,-1.61415 -2.41568,-1.67878 -0.18498,-0.0121 -0.37058,0.0115 -0.55587,0.0173 -1.86185,0.2916 -3.70115,0.71504 -5.56064,1.02881 -1.41014,0.21057 -2.81982,0.41875 -4.20279,0.76952 -0.70527,0.14598 -2.59113,0.69351 -3.17803,0.10612 -0.0706,-0.0706 0.065,-0.18885 0.0974,-0.28328 -1.69779,-2.39562 -2.65772,-5.23081 -3.56283,-8.00043 -0.41006,-1.4437 -0.96798,-2.9516 -0.62499,-4.475 0.25956,-1.15285 0.79133,-2.06771 1.307,-3.11896 2.33811,-3.6781 5.62296,-6.59688 8.94969,-9.35678 0.39366,-0.30171 0.75805,-0.64604 1.18098,-0.90513 1.67751,-1.02764 3.37271,-0.94942 5.02601,0.0818 0.19057,0.11886 0.31161,0.32353 0.46741,0.4853 1.29412,1.03258 2.26896,2.33978 3.11217,3.74593 0,0 0.87506,0.38791 0.87506,0.38791 v 0 c -0.84888,-1.41853 -1.8272,-2.74208 -3.12523,-3.79106 -0.97927,-0.66991 -2.20453,-1.67923 -3.42804,-2.03493 -1.26476,-0.36769 -2.62477,-0.0571 -3.7157,0.62822 -0.41942,0.26346 -0.77993,0.61074 -1.1699,0.91611 -3.31541,2.79092 -6.59989,5.72097 -8.97026,9.38894 -0.51384,1.03446 -1.07361,2.00156 -1.34397,3.13779 -0.36542,1.53572 0.18497,3.0525 0.60654,4.50878 0.91911,2.775 1.88039,5.60281 3.53779,8.03489 0.51477,0.41549 0.99428,0.87896 1.54433,1.24648 0.80659,0.53892 2.34684,0.0141 3.21332,-0.1519 1.37869,-0.34493 2.78359,-0.55039 4.18642,-0.77181 1.85841,-0.32154 3.6995,-0.75052 5.56747,-1.00531 0.18251,0.001 0.36603,-0.0154 0.54751,0.004 0.13888,0.0148 0.46366,0.22576 0.40739,0.0979 -0.083,-0.18852 -0.34716,-0.22209 -0.51474,-0.34184 -0.10345,-0.0739 0.22448,0.12283 0.32215,0.20423 0.27989,0.23323 0.34487,0.40027 0.53813,0.71295 0.0667,0.17924 0.15568,0.35171 0.20015,0.53771 0.1436,0.60062 0.11428,0.99615 0.0336,1.62057 -0.19939,1.54376 -0.67472,3.03474 -1.11351,4.52156 -1.63924,5.14268 -3.52129,10.20414 -5.46529,15.23868 -0.2444,0.55204 -1.14938,3.11296 -2.01532,3.39945 -0.49678,0.16437 -1.42053,-0.4371 -1.87948,-0.54154 -1.86257,-0.77132 -3.72529,-1.5444 -5.49989,-2.50748 -1.39116,-0.73138 -2.79638,-1.43445 -4.19573,-2.14993 z" />
    <circle
       id="path21"
       style="fill:#000000;stroke:#000000;stroke-width:0.264583"
       cx="93.442108"
       cy="64.957893"
       r="0.011567368" />
    <circle
       id="path22"
       style="fill:#000000;stroke:#000000;stroke-width:0.264583"
       cx="137.21053"
       cy="49.326317"
       r="0.011567368" />
    <circle
       id="path23"
       style="fill:#000000;stroke:#000000;stroke-width:0.264583"
       cx="67.389473"
       cy="159.09473"
       r="0.011567368" />
    <circle
       id="path24"
       style="fill:#000000;stroke:#000000;stroke-width:0.264583"
       cx="-24.31579"
       cy="219.18948"
       r="0.011567368" />
  </g>
</svg>
