<?xml version="1.0" encoding="UTF-8" standalone="no"?>
<!-- Created with Inkscape (http://www.inkscape.org/) -->

<svg
   width="210mm"
   height="297mm"
   viewBox="0 0 210 297"
   version="1.1"
   id="svg1"
   inkscape:version="1.4 (86a8ad7, 2024-10-11)"
   sodipodi:docname="portfolio_writing1 (8).svg"
   xmlns:inkscape="http://www.inkscape.org/namespaces/inkscape"
   xmlns:sodipodi="http://sodipodi.sourceforge.net/DTD/sodipodi-0.dtd"
   xmlns="http://www.w3.org/2000/svg"
   xmlns:svg="http://www.w3.org/2000/svg">
  <sodipodi:namedview
     id="namedview1"
     pagecolor="#ffffff"
     bordercolor="#000000"
     borderopacity="0.25"
     inkscape:showpageshadow="2"
     inkscape:pageopacity="0.0"
     inkscape:pagecheckerboard="0"
     inkscape:deskcolor="#d1d1d1"
     inkscape:document-units="mm"
     inkscape:zoom="1.2778474"
     inkscape:cx="294.63612"
     inkscape:cy="156.90449"
     inkscape:window-width="1920"
     inkscape:window-height="1057"
     inkscape:window-x="-8"
     inkscape:window-y="-8"
     inkscape:window-maximized="1"
     inkscape:current-layer="layer1" />
  <defs
     id="defs1" />
  <g
     inkscape:label="Layer 1"
     inkscape:groupmode="layer"
     id="layer1">
    <path
       style="fill:none;fill-opacity:1;stroke:#000000;stroke-width:0.264583;stroke-linecap:round;stroke-linejoin:round;stroke-dasharray:none;stroke-opacity:1"
       d="m 20.705393,15.114937 c -0.555937,4.81243 -0.713238,9.6633 -1.03527,14.493774 -0.07346,1.101841 0.06888,2.210726 0,3.312864 -0.218742,3.499876 -0.366663,6.910395 0.207054,10.352695"
       id="path204" />
    <path
       style="fill:none;fill-opacity:1;stroke:#000000;stroke-width:0.264583;stroke-linecap:round;stroke-linejoin:round;stroke-dasharray:none;stroke-opacity:1"
       d="m 10.55975,14.700829 c 5.885304,1.462103 12.163481,1.752241 18.220746,1.449377 2.570737,-0.128537 5.079439,-0.621161 7.660995,-0.621161"
       id="path205" />
    <path
       style="fill:none;fill-opacity:1;stroke:#000000;stroke-width:0.264583;stroke-linecap:round;stroke-linejoin:round;stroke-dasharray:none;stroke-opacity:1"
       d="m 10.55975,40.789624 c 0.276072,-0.06902 0.545388,-0.175628 0.828216,-0.207055 1.357463,-0.150828 2.77785,0.07573 4.141079,0 2.004254,-0.111347 4.000086,-0.308607 6.004564,-0.414107 2.338563,-0.123082 4.703483,0.155757 7.039832,0 1.260766,-0.08405 2.456974,-0.207055 3.726971,-0.207055"
       id="path206" />
    <path
       style="fill:none;fill-opacity:1;stroke:#000000;stroke-width:0.264583;stroke-linecap:round;stroke-linejoin:round;stroke-dasharray:none;stroke-opacity:1"
       d="m 58.803314,47.829456 c 0.71052,-4.192214 1.956425,-8.276979 2.898757,-12.423235 0.515456,-2.268011 0.910756,-4.570574 1.449377,-6.83278 0.166899,-0.700974 0.479845,-1.363961 0.621162,-2.070539 0.27037,-2.703695 0.05659,-1.393434 0.621162,-3.934024 0.506831,-2.280741 1.068816,-4.549418 1.449377,-6.832779 0.02048,-0.12281 0.321085,-1.242324 0.621162,-1.242324 1.175039,0 1.575832,6.440905 1.656432,7.246887 0.571942,5.719421 1.091364,11.457299 1.449377,17.185475 0.177411,2.838609 0.177226,0.529939 0.414108,2.898757 0.0304,0.304019 0.152087,2.387525 0,2.691701 -0.255858,0.511712 -0.207055,-0.07147 -0.207055,0.414107"
       id="path207" />
    <path
       style="fill:none;fill-opacity:1;stroke:#000000;stroke-width:0.495511;stroke-linecap:round;stroke-linejoin:round;stroke-dasharray:none;stroke-opacity:1"
       d="m 53.74243,38.189512 c 3.688374,-1.398542 7.399233,-2.035987 11.062439,-3.737931 1.293944,-0.601169 2.509132,-2.24276 3.821571,-2.24276"
       id="path208" />
    <path
       style="fill:none;fill-opacity:1;stroke:#000000;stroke-width:0.264583;stroke-linecap:round;stroke-linejoin:round;stroke-dasharray:none;stroke-opacity:1"
       d="m 72.882981,52.384644 c 0.09724,-1.580943 0.307266,-3.159611 0.41411,-4.76224 0.160465,-2.406994 0.07322,-4.837935 0.207053,-7.246887 0.31301,-5.634154 1.307967,-11.280198 2.484646,-16.771369 0.416539,-1.943839 0.582263,-3.856227 1.44938,-5.590456 0.03086,-0.06173 -0.04881,-0.158251 0,-0.207054 0.367342,-0.367342 0.414107,0.756491 0.414107,0.828215 0,0.828216 0,1.656432 0,2.484647 0,1.372874 0.01495,2.589261 0.207052,3.934025 0.03898,0.272866 -0.123269,0.788729 0,1.03527 0.356256,0.712509 0.841082,1.412724 1.863487,1.242324 1.759791,-0.293298 5.242602,-5.551111 6.211618,-7.246888 0.341392,-0.597438 0.620215,-1.310078 1.035269,-1.863485 0.117129,-0.15617 0.305824,-0.251682 0.414108,-0.414108 0.195214,-0.29282 0.330472,-1.118905 0.828217,-0.621162 0.06902,0.06902 0.18791,0.111343 0.207052,0.207054 0.05414,0.270711 -0.02747,0.553514 0,0.828216 0.441489,4.414891 -0.242779,8.83699 -0.621162,13.251452 -0.260392,3.037924 -0.442569,6.074293 -0.62116,9.110371 -0.151212,2.570596 -0.41411,5.079198 -0.41411,7.660997"
       id="path209" />
    <path
       style="fill:none;fill-opacity:1;stroke:#000000;stroke-width:0.229235;stroke-linecap:round;stroke-linejoin:round;stroke-dasharray:none;stroke-opacity:1"
       d="m 118.62088,20.480382 c -2.36414,-0.04275 -6.80014,0.469243 -7.08043,3.63611 -0.0321,0.362118 -0.0931,0.740034 0,1.090833 0.0906,0.340915 0.34018,0.615009 0.53102,0.909027 1.19488,1.840869 2.75282,3.013668 4.42528,4.363333 1.75251,1.414271 3.47718,3.036422 4.77928,4.908747 0.67131,0.965287 0.76596,1.492418 1.23907,2.54528 0.81288,1.80895 1.19842,3.695786 0,5.454164 -0.23737,0.348304 -1.0409,1.36651 -1.41608,1.636248 -2.25643,1.622291 -6.78161,2.789633 -9.38157,1.454445 -0.88715,-0.455593 -0.82298,-0.742165 -1.23907,-1.454445 -0.0859,-0.146979 -0.29205,-0.204462 -0.35402,-0.36361 -0.16543,-0.424785 0.0274,-0.783377 0.177,-1.090831 0.14845,-0.304922 0.0492,-0.595897 0.35402,-0.90903"
       id="path210" />
    <path
       style="fill:none;fill-opacity:1;stroke:#000000;stroke-width:0.233302;stroke-linecap:round;stroke-linejoin:round;stroke-dasharray:none;stroke-opacity:1"
       d="m 130.02499,21.310814 c -1.66104,1.846617 -2.52568,4.11264 -3.32004,6.264999 -1.2664,3.431445 -1.93661,6.881306 -1.45251,10.441664 0.13114,0.964451 0.12809,1.947542 0.415,2.891538 0.13535,0.445346 0.43563,0.8511 0.62251,1.285129 0.60263,1.399593 1.58228,3.373462 3.94254,3.373462 2.48065,0 4.76543,-1.510436 6.22506,-2.891538 3.24306,-3.0686 3.65137,-5.929456 2.28252,-9.63846 -0.40773,-1.104789 -0.62582,-2.318887 -1.24501,-3.373462 -0.47852,-0.814994 -1.35488,-1.455238 -1.86752,-2.248974 -0.33753,-0.522613 -0.0279,-0.503472 -0.62251,-0.963846 -1.06041,-0.820937 0.28941,0.673564 -0.83001,-0.481923 -0.10803,-0.111526 -0.31592,-0.565865 -0.41499,-0.642564 -0.0489,-0.03786 -0.15861,0.03786 -0.20751,0 -0.0489,-0.03786 0.0367,-0.115233 0,-0.160641 -0.31535,-0.390612 -0.69168,-0.749658 -1.03751,-1.124487"
       id="path211" />
    <path
       style="fill:none;fill-opacity:1;stroke:#000000;stroke-width:0.264583;stroke-linecap:round;stroke-linejoin:round;stroke-dasharray:none;stroke-opacity:1"
       d="m 11.59502,91.724889 c 2.829263,-6.451216 5.256757,-13.110731 7.246887,-19.877177 0.169715,-0.57703 1.186376,-5.383401 1.656432,-5.383401 0.06902,0 -0.0488,0.15825 0,0.207053 0.8283,0.828302 0.05562,-0.679892 0.621161,0.828217 0.813747,2.169988 1.173453,4.740458 1.449378,7.039832 0.189847,1.582055 0.247303,3.177593 0.414108,4.762241 0.16728,1.589161 0.476675,3.172894 0.621162,4.762241 0.04374,0.481142 -0.09475,0.975632 0,1.449376 0.237919,1.189599 0.207054,-0.05942 0.207054,0.621163"
       id="path212" />
    <path
       style="fill:none;fill-opacity:1;stroke:#000000;stroke-width:0.428646;stroke-linecap:round;stroke-linejoin:round;stroke-dasharray:none;stroke-opacity:1"
       d="M 6.1030952,83.900407 C 12.3918,79.85509 19.172204,77.605964 25.946119,77.605964"
       id="path213" />
    <path
       style="fill:none;fill-opacity:1;stroke:#000000;stroke-width:0.264583;stroke-linecap:round;stroke-linejoin:round;stroke-dasharray:none;stroke-opacity:1"
       d="m 29.401659,71.226552 c 0.432837,2.131494 0.708128,4.281895 1.242321,6.41867 0.382382,1.529524 0.809258,3.039451 1.242325,4.555188 0.116634,0.408221 0.728803,3.420504 1.03527,3.726969 0.06634,0.06634 0.940273,-0.661972 1.035269,-0.828215 0.738103,-1.29168 1.432729,-3.001645 2.070539,-4.348133 2.756117,-5.818471 -0.631512,1.470083 2.07054,-3.934024 0.393916,-0.787834 0.980802,-3.28563 1.863484,-3.726971 0.242789,-0.121393 0.24575,0.122875 0.41411,0.207055 1.457682,0.72884 1.130607,0.914194 1.863484,2.484647 1.58219,3.390408 2.446975,6.983277 3.519916,10.559751 0.07212,0.240403 0.680037,2.070539 0.828217,2.070539 0.06902,0 -0.0488,-0.158253 0,-0.207055 0.109128,-0.109128 0.321511,-0.08359 0.414108,-0.207055 0.353814,-0.47175 0.422828,-1.101095 0.621162,-1.656429 1.207817,-3.381894 1.420841,-7.018616 1.863484,-10.559751 0.258419,-2.067343 0.207055,-1.099992 0.207055,-2.898757 0,-0.345088 -0.0837,-0.700481 0,-1.035269 0.05293,-0.211736 0.425307,-0.62116 0.207052,-0.62116 -0.06902,0 -0.06902,0.207052 0,0.207052 0.09761,0 0.138036,-0.138035 0.207055,-0.207052"
       id="path214" />
    <path
       style="fill:none;fill-opacity:1;stroke:#000000;stroke-width:0.264583;stroke-linecap:round;stroke-linejoin:round;stroke-dasharray:none;stroke-opacity:1"
       d="m 56.93983,69.156013 c 0,1.105315 0.03424,1.117298 -0.207055,2.484646 -0.654645,3.709662 -0.918371,7.46388 -1.449377,11.180911 -0.03087,0.216061 -0.171172,0.405879 -0.207055,0.621162 -0.01418,0.08514 0.107786,1.134539 0,1.242325 -0.192844,0.192844 -0.207052,-0.01625 -0.207052,0.414107"
       id="path215" />
    <path
       style="fill:none;fill-opacity:1;stroke:#000000;stroke-width:0.264583;stroke-linecap:round;stroke-linejoin:round;stroke-dasharray:none;stroke-opacity:1"
       d="m 55.490453,68.948958 c 1.720583,0.366051 3.458771,0.171757 5.176348,0 0.915628,-0.09156 1.798344,-0.493541 2.691702,-0.621162 0.273296,-0.03904 0.5559,0.04539 0.828214,0 0.3912,-0.0652 0.441931,-0.207053 0.828215,-0.207053"
       id="path216" />
    <path
       style="fill:none;fill-opacity:1;stroke:#000000;stroke-width:0.264583;stroke-linecap:round;stroke-linejoin:round;stroke-dasharray:none;stroke-opacity:1"
       d="m 54.662236,81.372193 c 0.753922,-0.343159 1.498325,-0.302784 2.277594,-0.414107 0.497409,-0.07106 0.951968,-0.343051 1.449377,-0.414108 0.845471,-0.120782 0.483127,0.161042 1.449377,0 0.464222,-0.07737 0.742815,-0.207055 1.242325,-0.207055"
       id="path217" />
    <path
       style="fill:none;fill-opacity:1;stroke:#000000;stroke-width:0.372681;stroke-linecap:round;stroke-linejoin:round;stroke-dasharray:none;stroke-opacity:1"
       d="m 54.302177,88.150924 c 1.69822,-0.490969 3.404177,-0.563439 5.095921,-1.201788 0.505254,-0.190648 0.97704,-0.653368 1.48631,-0.80119 0.419719,-0.121832 0.851425,0.07973 1.27398,0 1.530133,-0.288685 2.912722,-1.201788 4.458927,-1.201788"
       id="path218" />
    <path
       style="fill:none;fill-opacity:1;stroke:#000000;stroke-width:0.321063;stroke-linecap:round;stroke-linejoin:round;stroke-dasharray:none;stroke-opacity:1"
       d="m 80.807419,70.219493 c -2.050311,0.345116 -4.111295,0.525744 -6.167445,0.706263 -1.517937,0.133269 -6.686269,1.215468 -5.631147,3.531327 0.0939,0.206082 0.357536,0.313898 0.536302,0.470846 2.074563,1.821361 4.99247,2.949196 7.508191,4.237589 1.271604,0.651238 2.571763,1.048653 3.485948,2.118799 0.312713,0.366062 0.678044,0.733193 0.80445,1.177109 0.03067,0.107662 -0.268148,0.124442 -0.268148,0.235423 0,0.248154 0.268148,0.458108 0.268148,0.706262 0,0.950462 -2.082473,2.498778 -2.949648,2.825063 -0.999933,0.376239 -2.890805,0.706265 -4.022249,0.706265"
       id="path219" />
    <path
       style="fill:none;fill-opacity:1;stroke:#000000;stroke-width:0.273486;stroke-linecap:round;stroke-linejoin:round;stroke-dasharray:none;stroke-opacity:1"
       d="m 85.723766,71.692837 c -0.746618,2.237672 -1.288858,4.695053 -1.448353,7.084156 -0.09478,1.419826 -0.04854,5.391463 0.82763,6.641397 0.09253,0.132005 0.285498,0.129852 0.413814,0.221381 0.752057,0.536438 0.908863,0.921449 1.86217,1.106899 2.275292,0.442624 4.855504,-1.338571 6.414134,-2.877938 1.73436,-1.712926 3.412912,-4.658072 3.103614,-7.305537 -0.05709,-0.488636 -0.459188,-1.14638 -0.620721,-1.549659 -0.84639,-2.113045 -2.179303,-3.248517 -4.34506,-3.763458 -0.47129,-0.112058 -0.969299,0.06407 -1.448353,0 -0.282171,-0.03774 -0.547134,-0.171361 -0.827632,-0.221381 -0.272122,-0.04853 -0.580879,-0.132005 -0.827629,0 -0.137939,0.0738 0.206905,0.442759 -0.206909,0.221381 -0.168238,-0.09 -0.171197,-0.351174 -0.413814,-0.221381 -0.325475,0.174121 -0.234583,0.221381 -0.620723,0.221381"
       id="path220" />
    <path
       style="fill:none;fill-opacity:1;stroke:#000000;stroke-width:0.280764;stroke-linecap:round;stroke-linejoin:round;stroke-dasharray:none;stroke-opacity:1"
       d="m 101.67156,85.91929 c 1.34217,-1.392857 1.58821,-3.05474 2.10053,-4.757381 0.43736,-1.453523 0.70051,-2.896801 1.16697,-4.343698 0.44706,-1.386737 0.88569,-2.768537 1.40035,-4.136853 0.22444,-0.596762 0.64199,-2.223711 0.93355,-2.482112 0.7836,-0.694456 1.60552,1.769859 1.63375,1.861584 0.218,0.708385 0.33178,2.257664 0.46678,2.895798 0.37081,1.752665 0.9185,3.462868 1.40035,5.171067 0.06,0.212338 0.0537,0.668221 0.2334,0.82737 0.11002,0.09751 0.31917,-0.0436 0.46679,0 0.16503,0.04875 0.29801,0.244237 0.46678,0.206844 0.63984,-0.141765 1.59212,-1.513409 1.86713,-1.861587 0.28568,-0.361672 0.69503,-0.646639 0.93357,-1.034212 0.2356,-0.382816 0.28404,-0.836182 0.46679,-1.241055 0.49264,-1.091519 1.28079,-2.063357 1.86713,-3.10264 0.11967,-0.212117 0.52172,-1.289739 0.70017,-1.447901 0.055,-0.04875 0.17839,0.04876 0.2334,0 0.11002,-0.0975 -0.11002,-0.316177 0,-0.413684 0.055,-0.04875 0.1638,0.03084 0.23339,0 0.0984,-0.0436 0.12336,-0.206841 0.23338,-0.206841 0.55495,0 0.90788,1.472561 0.93358,1.654739 0.0873,0.619526 0.16329,1.240338 0.23339,1.861585 0.098,0.868662 0,1.813745 0,2.688955 0,1.547098 0.23339,3.003438 0.23339,4.550539"
       id="path221" />
    <path
       style="fill:none;fill-opacity:1;stroke:#000000;stroke-width:0.264583;stroke-linecap:round;stroke-linejoin:round;stroke-dasharray:none;stroke-opacity:1"
       d="m 126.717,71.433604 c 0.0149,0.728274 0.52072,1.367454 0.62116,2.07054 0.0781,0.546594 -0.0781,1.109837 0,1.656431 0.0309,0.216062 0.17619,0.405101 0.20706,0.621163 0.1972,1.380437 0,2.952953 0,4.348133 0,2.176103 -0.067,-0.535659 0.20705,1.656429 0.1385,1.107954 0.0459,2.184705 0.20706,3.312864"
       id="path222" />
    <path
       style="fill:none;fill-opacity:1;stroke:#000000;stroke-width:0.264583;stroke-linecap:round;stroke-linejoin:round;stroke-dasharray:none;stroke-opacity:1"
       d="m 127.95933,72.882981 c 2.23528,-0.967139 4.46004,-2.098516 6.83278,-2.691698 0.57626,-0.144069 1.07029,-0.523473 1.65643,-0.621163 0.20423,-0.03404 0.42029,0.05022 0.62116,0 0.0947,-0.02368 0.11975,-0.163404 0.20705,-0.207055 0.0617,-0.03087 0.15825,0.0488 0.20706,0 0.0488,-0.0488 -0.0617,-0.176188 0,-0.207052 0.12346,-0.06173 0.28019,0.03348 0.41411,0 0.78371,-0.195929 1.51121,-0.572757 2.27759,-0.828217"
       id="path223" />
    <path
       style="fill:none;fill-opacity:1;stroke:#000000;stroke-width:0.309967;stroke-linecap:round;stroke-linejoin:round;stroke-dasharray:none;stroke-opacity:1"
       d="m 126.53264,81.970663 c 2.0701,-0.567158 4.09029,-1.634812 6.18641,-1.997359 0.32375,-0.05599 2.88432,-0.140826 3.0932,-0.285339 0.087,-0.06015 0.13747,-0.190223 0.20621,-0.285334 0.5499,-0.09511 1.09981,-0.190228 1.64971,-0.285339"
       id="path224" />
    <path
       style="fill:none;fill-opacity:1;stroke:#000000;stroke-width:0.264583;stroke-linecap:round;stroke-linejoin:round;stroke-dasharray:none;stroke-opacity:1"
       d="m 126.50995,86.548541 c 3.15455,0.468254 6.36181,0.03623 9.52448,-0.207052 1.23736,-0.09518 2.49399,-0.07006 3.72697,-0.207055 0.97462,-0.108292 1.91841,-0.414108 2.89876,-0.414108"
       id="path225" />
    <path
       style="fill:none;fill-opacity:1;stroke:#000000;stroke-width:0.264583;stroke-linecap:round;stroke-linejoin:round;stroke-dasharray:none;stroke-opacity:1"
       d="m 150.73526,58.596262 c -0.31215,4.616659 -0.89876,9.32661 -1.65643,13.872612 -0.1128,0.676809 -0.45373,1.400799 -0.62116,2.070539"
       id="path226" />
    <path
       style="fill:none;fill-opacity:1;stroke:#000000;stroke-width:0.264583;stroke-linecap:round;stroke-linejoin:round;stroke-dasharray:none;stroke-opacity:1"
       d="m 161.29501,55.283398 c -0.97829,3.124915 -1.56812,6.331839 -2.27759,9.524482 -0.24769,1.114589 -0.6434,2.203944 -0.82822,3.312863 -0.035,0.210019 0.0856,0.778304 0,1.03527 -0.33676,1.010274 -0.2597,2.232022 -0.41411,3.312861"
       id="path227" />
    <path
       style="fill:none;fill-opacity:1;stroke:#000000;stroke-width:0.423937;stroke-linecap:round;stroke-linejoin:round;stroke-dasharray:none;stroke-opacity:1"
       d="m 157.28151,84.578282 c 0.22148,-0.441755 1.10735,-1.10439 0.66441,-1.325269 -0.44293,-0.220876 -0.78452,1.804419 -0.66441,1.325269 0.14279,-0.569835 1.4704,-3.171969 0.99663,-3.644482 -0.0783,-0.07808 -0.25392,0.07808 -0.33222,0 -0.0782,-0.07808 0.11071,-0.331314 0,-0.331314 -0.1107,0 0.0783,0.253223 0,0.331314 -0.0197,0.01974 -1.98015,0.344337 -1.3288,0.99395 0.11071,0.11043 0.22146,-0.220877 0.33221,-0.331317 0.68733,-0.685503 -0.0269,1.047544 0.6644,-0.331315 0.0679,-0.135543 0.0931,-1.563779 0,-1.656581 -0.33035,-0.329459 -2.63587,0.983101 -2.65762,0.993949"
       id="path228" />
    <path
       style="fill:none;fill-opacity:1;stroke:#000000;stroke-width:0.401616;stroke-linecap:round;stroke-linejoin:round;stroke-dasharray:none;stroke-opacity:1"
       d="m 146.65806,85.328578 c 0.396,0.196897 1.12627,0.728438 1.59467,0.495549 0.29139,-0.144893 0.50905,-0.811933 0.79734,-0.991094 0.77945,-0.484435 0.99666,-0.873716 0.99666,-2.973281 0,-0.330364 0.0737,-0.716213 0,-0.991093 -0.0824,-0.307326 -0.26578,-0.330362 -0.39866,-0.495549 -0.28978,-0.360195 -1.21861,-0.43933 -1.39534,0 -0.0469,0.116814 0.0469,0.378751 0,0.495549 -0.0469,0.1168 -0.15235,-0.116799 -0.19933,0 -0.0469,0.1168 0.0469,0.378743 0,0.49555 -0.0469,0.116799 -0.15235,-0.116814 -0.19934,0 -0.047,0.116799 0.0399,0.363398 0,0.495543 -0.36754,1.218328 -1.74391,2.787763 -1.196,3.468826 0.87627,1.089202 1.99334,-5.75667 1.99334,-1.982186"
       id="path229" />
  </g>
</svg>
