<?xml version="1.0" encoding="UTF-8" standalone="no"?>
<!-- Created with Inkscape (http://www.inkscape.org/) -->

<svg
   width="210mm"
   height="297mm"
   viewBox="0 0 210 297"
   version="1.1"
   id="svg1"
   inkscape:version="1.4 (86a8ad7, 2024-10-11)"
   sodipodi:docname="portfolio_writing1 (9).svg"
   xmlns:inkscape="http://www.inkscape.org/namespaces/inkscape"
   xmlns:sodipodi="http://sodipodi.sourceforge.net/DTD/sodipodi-0.dtd"
   xmlns="http://www.w3.org/2000/svg"
   xmlns:svg="http://www.w3.org/2000/svg">
  <sodipodi:namedview
     id="namedview1"
     pagecolor="#ffffff"
     bordercolor="#000000"
     borderopacity="0.25"
     inkscape:showpageshadow="2"
     inkscape:pageopacity="0.0"
     inkscape:pagecheckerboard="0"
     inkscape:deskcolor="#d1d1d1"
     inkscape:document-units="mm"
     inkscape:zoom="1.2778474"
     inkscape:cx="222.64004"
     inkscape:cy="189.77227"
     inkscape:window-width="1920"
     inkscape:window-height="1057"
     inkscape:window-x="-8"
     inkscape:window-y="-8"
     inkscape:window-maximized="1"
     inkscape:current-layer="layer1" />
  <defs
     id="defs1" />
  <g
     inkscape:label="Layer 1"
     inkscape:groupmode="layer"
     id="layer1">
    <path
       style="fill:none;fill-opacity:1;stroke:#000000;stroke-width:0.264583;stroke-linecap:round;stroke-linejoin:round;stroke-dasharray:none;stroke-opacity:1"
       d="m 20.705393,15.114937 c -0.555937,4.81243 -0.713238,9.6633 -1.03527,14.493774 -0.07346,1.101841 0.06888,2.210726 0,3.312864 -0.218742,3.499876 -0.366663,6.910395 0.207054,10.352695"
       id="path204" />
    <path
       style="fill:none;fill-opacity:1;stroke:#000000;stroke-width:0.264583;stroke-linecap:round;stroke-linejoin:round;stroke-dasharray:none;stroke-opacity:1"
       d="m 10.55975,14.700829 c 5.885304,1.462103 12.163481,1.752241 18.220746,1.449377 2.570737,-0.128537 5.079439,-0.621161 7.660995,-0.621161"
       id="path205" />
    <path
       style="fill:none;fill-opacity:1;stroke:#000000;stroke-width:0.264583;stroke-linecap:round;stroke-linejoin:round;stroke-dasharray:none;stroke-opacity:1"
       d="m 10.55975,40.789624 c 0.276072,-0.06902 0.545388,-0.175628 0.828216,-0.207055 1.357463,-0.150828 2.77785,0.07573 4.141079,0 2.004254,-0.111347 4.000086,-0.308607 6.004564,-0.414107 2.338563,-0.123082 4.703483,0.155757 7.039832,0 1.260766,-0.08405 2.456974,-0.207055 3.726971,-0.207055"
       id="path206" />
    <path
       style="fill:none;fill-opacity:1;stroke:#000000;stroke-width:0.264583;stroke-linecap:round;stroke-linejoin:round;stroke-dasharray:none;stroke-opacity:1"
       d="m 58.803314,47.829456 c 0.71052,-4.192214 1.956425,-8.276979 2.898757,-12.423235 0.515456,-2.268011 0.910756,-4.570574 1.449377,-6.83278 0.166899,-0.700974 0.479845,-1.363961 0.621162,-2.070539 0.27037,-2.703695 0.05659,-1.393434 0.621162,-3.934024 0.506831,-2.280741 1.068816,-4.549418 1.449377,-6.832779 0.02048,-0.12281 0.321085,-1.242324 0.621162,-1.242324 1.175039,0 1.575832,6.440905 1.656432,7.246887 0.571942,5.719421 1.091364,11.457299 1.449377,17.185475 0.177411,2.838609 0.177226,0.529939 0.414108,2.898757 0.0304,0.304019 0.152087,2.387525 0,2.691701 -0.255858,0.511712 -0.207055,-0.07147 -0.207055,0.414107"
       id="path207" />
    <path
       style="fill:none;fill-opacity:1;stroke:#000000;stroke-width:0.264583;stroke-linecap:round;stroke-linejoin:round;stroke-dasharray:none;stroke-opacity:1"
       d="m 72.882981,52.384644 c 0.09724,-1.580943 0.307266,-3.159611 0.41411,-4.76224 0.160465,-2.406994 0.07322,-4.837935 0.207053,-7.246887 0.31301,-5.634154 1.307967,-11.280198 2.484646,-16.771369 0.416539,-1.943839 0.582263,-3.856227 1.44938,-5.590456 0.03086,-0.06173 -0.04881,-0.158251 0,-0.207054 0.367342,-0.367342 0.414107,0.756491 0.414107,0.828215 0,0.828216 0,1.656432 0,2.484647 0,1.372874 0.01495,2.589261 0.207052,3.934025 0.03898,0.272866 -0.123269,0.788729 0,1.03527 0.356256,0.712509 0.841082,1.412724 1.863487,1.242324 1.759791,-0.293298 5.242602,-5.551111 6.211618,-7.246888 0.341392,-0.597438 0.620215,-1.310078 1.035269,-1.863485 0.117129,-0.15617 0.305824,-0.251682 0.414108,-0.414108 0.195214,-0.29282 0.330472,-1.118905 0.828217,-0.621162 0.06902,0.06902 0.18791,0.111343 0.207052,0.207054 0.05414,0.270711 -0.02747,0.553514 0,0.828216 0.441489,4.414891 -0.242779,8.83699 -0.621162,13.251452 -0.260392,3.037924 -0.442569,6.074293 -0.62116,9.110371 -0.151212,2.570596 -0.41411,5.079198 -0.41411,7.660997"
       id="path209" />
    <path
       style="fill:none;fill-opacity:1;stroke:#000000;stroke-width:0.264583;stroke-linecap:round;stroke-linejoin:round;stroke-dasharray:none;stroke-opacity:1"
       d="m 120.09128,16.771368 c -2.76538,-0.04868 -7.95428,0.534409 -8.28216,4.141079 -0.0375,0.412407 -0.10896,0.842807 0,1.242323 0.10589,0.38826 0.39793,0.700419 0.62116,1.03527 1.39768,2.09652 3.22004,3.432194 5.17635,4.969294 2.04996,1.61068 4.06735,3.458109 5.59046,5.590455 0.78524,1.099341 0.89595,1.699678 1.44937,2.898757 0.95085,2.06017 1.40181,4.209042 0,6.211617 -0.27767,0.396674 -1.21757,1.556285 -1.65643,1.863484 -2.63941,1.847588 -7.93263,3.177046 -10.97386,1.656432 -1.03772,-0.518864 -0.96266,-0.845235 -1.44937,-1.656432 -0.10044,-0.167391 -0.34161,-0.232857 -0.41411,-0.414107 -0.19351,-0.483777 0.032,-0.89217 0.20705,-1.242322 0.17364,-0.347268 0.0575,-0.678653 0.41411,-1.035272"
       id="path210" />
    <path
       style="fill:none;fill-opacity:1;stroke:#000000;stroke-width:0.264583;stroke-linecap:round;stroke-linejoin:round;stroke-dasharray:none;stroke-opacity:1"
       d="m 130.02987,14.286721 c -1.65745,2.380148 -2.52023,5.300878 -3.31287,8.075103 -1.26367,4.42287 -1.93243,8.869476 -1.44937,13.458504 0.13085,1.243103 0.12781,2.510232 0.4141,3.726971 0.13506,0.574017 0.43469,1.097003 0.62117,1.656432 0.60132,1.803969 1.57886,4.348134 3.93402,4.348134 2.4753,0 4.75514,-1.946836 6.21162,-3.726971 3.23606,-3.95519 3.64348,-7.642614 2.27759,-12.423235 -0.40685,-1.423988 -0.62447,-2.988867 -1.24232,-4.348134 -0.47749,-1.050465 -1.35196,-1.87569 -1.86349,-2.898755 -0.3368,-0.673608 -0.0278,-0.648936 -0.62116,-1.242323 -1.05812,-1.058125 0.28878,0.868172 -0.82822,-0.621162 -0.1078,-0.143748 -0.31524,-0.729357 -0.4141,-0.828216 -0.0488,-0.0488 -0.15826,0.0488 -0.20706,0 -0.0488,-0.0488 0.0366,-0.148527 0,-0.207054 -0.31467,-0.503469 -0.69018,-0.966252 -1.03527,-1.449377"
       id="path211" />
    <path
       style="fill:none;fill-opacity:1;stroke:#000000;stroke-width:0.264583;stroke-linecap:round;stroke-linejoin:round;stroke-dasharray:none;stroke-opacity:1"
       d="m 11.59502,91.724889 c 2.829263,-6.451216 5.256757,-13.110731 7.246887,-19.877177 0.169715,-0.57703 1.186376,-5.383401 1.656432,-5.383401 0.06902,0 -0.0488,0.15825 0,0.207053 0.8283,0.828302 0.05562,-0.679892 0.621161,0.828217 0.813747,2.169988 1.173453,4.740458 1.449378,7.039832 0.189847,1.582055 0.247303,3.177593 0.414108,4.762241 0.16728,1.589161 0.476675,3.172894 0.621162,4.762241 0.04374,0.481142 -0.09475,0.975632 0,1.449376 0.237919,1.189599 0.207054,-0.05942 0.207054,0.621163"
       id="path212" />
    <path
       style="fill:none;fill-opacity:1;stroke:#000000;stroke-width:0.264583;stroke-linecap:round;stroke-linejoin:round;stroke-dasharray:none;stroke-opacity:1"
       d="m 10.55975,81.7863 c 4.855887,-1.996043 10.091444,-3.105808 15.321991,-3.105808"
       id="path213" />
    <path
       style="fill:none;fill-opacity:1;stroke:#000000;stroke-width:0.264583;stroke-linecap:round;stroke-linejoin:round;stroke-dasharray:none;stroke-opacity:1"
       d="m 29.401659,71.226552 c 0.432837,2.131494 0.708128,4.281895 1.242321,6.41867 0.382382,1.529524 0.809258,3.039451 1.242325,4.555188 0.116634,0.408221 0.728803,3.420504 1.03527,3.726969 0.06634,0.06634 0.940273,-0.661972 1.035269,-0.828215 0.738103,-1.29168 1.432729,-3.001645 2.070539,-4.348133 2.756117,-5.818471 -0.631512,1.470083 2.07054,-3.934024 0.393916,-0.787834 0.980802,-3.28563 1.863484,-3.726971 0.242789,-0.121393 0.24575,0.122875 0.41411,0.207055 1.457682,0.72884 1.130607,0.914194 1.863484,2.484647 1.58219,3.390408 2.446975,6.983277 3.519916,10.559751 0.07212,0.240403 0.680037,2.070539 0.828217,2.070539 0.06902,0 -0.0488,-0.158253 0,-0.207055 0.109128,-0.109128 0.321511,-0.08359 0.414108,-0.207055 0.353814,-0.47175 0.422828,-1.101095 0.621162,-1.656429 1.207817,-3.381894 1.420841,-7.018616 1.863484,-10.559751 0.258419,-2.067343 0.207055,-1.099992 0.207055,-2.898757 0,-0.345088 -0.0837,-0.700481 0,-1.035269 0.05293,-0.211736 0.425307,-0.62116 0.207052,-0.62116 -0.06902,0 -0.06902,0.207052 0,0.207052 0.09761,0 0.138036,-0.138035 0.207055,-0.207052"
       id="path214" />
    <path
       style="fill:none;fill-opacity:1;stroke:#000000;stroke-width:0.264583;stroke-linecap:round;stroke-linejoin:round;stroke-dasharray:none;stroke-opacity:1"
       d="m 56.93983,69.156013 c 0,1.105315 0.03424,1.117298 -0.207055,2.484646 -0.654645,3.709662 -0.918371,7.46388 -1.449377,11.180911 -0.03087,0.216061 -0.171172,0.405879 -0.207055,0.621162 -0.01418,0.08514 0.107786,1.134539 0,1.242325 -0.192844,0.192844 -0.207052,-0.01625 -0.207052,0.414107"
       id="path215" />
    <path
       style="fill:none;fill-opacity:1;stroke:#000000;stroke-width:0.264583;stroke-linecap:round;stroke-linejoin:round;stroke-dasharray:none;stroke-opacity:1"
       d="m 55.490453,68.948958 c 1.720583,0.366051 3.458771,0.171757 5.176348,0 0.915628,-0.09156 1.798344,-0.493541 2.691702,-0.621162 0.273296,-0.03904 0.5559,0.04539 0.828214,0 0.3912,-0.0652 0.441931,-0.207053 0.828215,-0.207053"
       id="path216" />
    <path
       style="fill:none;fill-opacity:1;stroke:#000000;stroke-width:0.264583;stroke-linecap:round;stroke-linejoin:round;stroke-dasharray:none;stroke-opacity:1"
       d="m 54.662236,81.372193 c 0.753922,-0.343159 1.498325,-0.302784 2.277594,-0.414107 0.497409,-0.07106 0.951968,-0.343051 1.449377,-0.414108 0.845471,-0.120782 0.483127,0.161042 1.449377,0 0.464222,-0.07737 0.742815,-0.207055 1.242325,-0.207055"
       id="path217" />
    <path
       style="fill:none;fill-opacity:1;stroke:#000000;stroke-width:0.264583;stroke-linecap:round;stroke-linejoin:round;stroke-dasharray:none;stroke-opacity:1"
       d="m 54.662236,88.204973 c 1.656022,-0.253765 3.319589,-0.291222 4.969296,-0.621162 0.492699,-0.09854 0.952762,-0.337704 1.449377,-0.414108 0.409291,-0.06297 0.83027,0.04121 1.242324,0 1.492112,-0.149211 2.840347,-0.621162 4.348131,-0.621162"
       id="path218" />
    <path
       style="fill:none;fill-opacity:1;stroke:#000000;stroke-width:0.264583;stroke-linecap:round;stroke-linejoin:round;stroke-dasharray:none;stroke-opacity:1"
       d="m 80.958086,70.191283 c -1.583164,0.30353 -3.174569,0.462393 -4.762241,0.621159 -1.172086,0.117211 -5.162854,1.069007 -4.348133,3.105809 0.0725,0.18125 0.276074,0.276074 0.41411,0.41411 1.60189,1.601891 3.854974,2.593824 5.797507,3.726968 0.98188,0.572765 1.985807,0.922293 2.691702,1.863487 0.241464,0.321953 0.523557,0.644845 0.621162,1.03527 0.02368,0.09469 -0.207052,0.109447 -0.207052,0.207055 0,0.218252 0.207052,0.402907 0.207052,0.621159 0,0.835933 -1.607997,2.19768 -2.277594,2.484649 -0.772105,0.330902 -2.232157,0.62116 -3.105809,0.62116"
       id="path219" />
    <path
       style="fill:none;fill-opacity:1;stroke:#000000;stroke-width:0.264583;stroke-linecap:round;stroke-linejoin:round;stroke-dasharray:none;stroke-opacity:1"
       d="m 85.720326,72.675929 c -0.747146,2.092867 -1.289769,4.391226 -1.449377,6.625725 -0.09485,1.327946 -0.04857,5.042569 0.828215,6.211617 0.0926,0.123463 0.2857,0.121449 0.414107,0.207055 0.752589,0.501724 0.909506,0.86182 1.863487,1.03527 2.276901,0.41398 4.858938,-1.25195 6.41867,-2.691701 1.735587,-1.602079 3.415326,-4.356638 3.105809,-6.83278 -0.05713,-0.457015 -0.459513,-1.072195 -0.62116,-1.449377 -0.846989,-1.976305 -2.180844,-3.038298 -4.348133,-3.519916 -0.471623,-0.104807 -0.969984,0.05992 -1.449377,0 -0.282371,-0.0353 -0.547521,-0.160272 -0.828217,-0.207055 -0.272315,-0.04539 -0.58129,-0.123463 -0.828215,0 -0.138036,0.06902 0.207052,0.414107 -0.207055,0.207055 -0.168357,-0.08418 -0.171318,-0.328449 -0.414107,-0.207055 -0.325705,0.162853 -0.234749,0.207055 -0.621162,0.207055"
       id="path220" />
    <path
       style="fill:none;fill-opacity:1;stroke:#000000;stroke-width:0.264583;stroke-linecap:round;stroke-linejoin:round;stroke-dasharray:none;stroke-opacity:1"
       d="m 103.94107,86.341489 c 1.1907,-1.39428 1.40898,-3.057861 1.86349,-4.762241 0.388,-1.455007 0.62145,-2.899759 1.03527,-4.348133 0.39661,-1.388153 0.78575,-2.771365 1.24232,-4.141079 0.19912,-0.597371 0.56955,-2.225982 0.82821,-2.484646 0.69517,-0.695166 1.42434,1.771666 1.44938,1.863484 0.1934,0.70911 0.29434,2.25997 0.41411,2.898756 0.32896,1.754455 0.81484,3.466405 1.24232,5.176348 0.0532,0.212556 0.0477,0.668904 0.20706,0.828215 0.0976,0.09761 0.28315,-0.04365 0.41411,0 0.14641,0.0488 0.26438,0.244486 0.4141,0.207055 0.56764,-0.141909 1.41246,-1.514954 1.65643,-1.863487 0.25344,-0.362042 0.6166,-0.6473 0.82822,-1.035269 0.20902,-0.383207 0.25199,-0.837036 0.41411,-1.242322 0.43705,-1.092634 1.13626,-2.065465 1.65643,-3.105809 0.10617,-0.212334 0.46284,-1.291056 0.62116,-1.44938 0.0488,-0.0488 0.15825,0.04881 0.20706,0 0.0976,-0.0976 -0.0976,-0.3165 0,-0.414107 0.0488,-0.0488 0.14532,0.03087 0.20705,0 0.0873,-0.04365 0.10945,-0.207052 0.20705,-0.207052 0.49232,0 0.80542,1.474065 0.82822,1.656429 0.0775,0.620159 0.14487,1.241605 0.20705,1.863487 0.087,0.869548 0,1.815597 0,2.691701 0,1.548678 0.20706,3.006506 0.20706,4.555186"
       id="path221" />
    <path
       style="fill:none;fill-opacity:1;stroke:#000000;stroke-width:0.264583;stroke-linecap:round;stroke-linejoin:round;stroke-dasharray:none;stroke-opacity:1"
       d="m 126.717,71.433604 c 0.0149,0.728274 0.52072,1.367454 0.62116,2.07054 0.0781,0.546594 -0.0781,1.109837 0,1.656431 0.0309,0.216062 0.17619,0.405101 0.20706,0.621163 0.1972,1.380437 0,2.952953 0,4.348133 0,2.176103 -0.067,-0.535659 0.20705,1.656429 0.1385,1.107954 0.0459,2.184705 0.20706,3.312864"
       id="path222" />
    <path
       style="fill:none;fill-opacity:1;stroke:#000000;stroke-width:0.264583;stroke-linecap:round;stroke-linejoin:round;stroke-dasharray:none;stroke-opacity:1"
       d="m 127.95933,72.882981 c 2.23528,-0.967139 4.46004,-2.098516 6.83278,-2.691698 0.57626,-0.144069 1.07029,-0.523473 1.65643,-0.621163 0.20423,-0.03404 0.42029,0.05022 0.62116,0 0.0947,-0.02368 0.11975,-0.163404 0.20705,-0.207055 0.0617,-0.03087 0.15825,0.0488 0.20706,0 0.0488,-0.0488 -0.0617,-0.176188 0,-0.207052 0.12346,-0.06173 0.28019,0.03348 0.41411,0 0.78371,-0.195929 1.51121,-0.572757 2.27759,-0.828217"
       id="path223" />
    <path
       style="fill:none;fill-opacity:1;stroke:#000000;stroke-width:0.264583;stroke-linecap:round;stroke-linejoin:round;stroke-dasharray:none;stroke-opacity:1"
       d="m 126.50995,81.993355 c 2.07853,-0.411556 4.10696,-1.186296 6.21162,-1.449377 0.32507,-0.04063 2.89608,-0.10219 3.10581,-0.207055 0.0873,-0.04365 0.13803,-0.138035 0.20705,-0.207052 0.55214,-0.06902 1.10429,-0.138038 1.65643,-0.207055"
       id="path224" />
    <path
       style="fill:none;fill-opacity:1;stroke:#000000;stroke-width:0.264583;stroke-linecap:round;stroke-linejoin:round;stroke-dasharray:none;stroke-opacity:1"
       d="m 126.50995,86.548541 c 3.15455,0.468254 6.36181,0.03623 9.52448,-0.207052 1.23736,-0.09518 2.49399,-0.07006 3.72697,-0.207055 0.97462,-0.108292 1.91841,-0.414108 2.89876,-0.414108"
       id="path225" />
    <path
       style="fill:none;fill-opacity:1;stroke:#000000;stroke-width:0.264583;stroke-linecap:round;stroke-linejoin:round;stroke-dasharray:none;stroke-opacity:1"
       d="m 150.73526,58.596262 c -0.31215,4.616659 -0.89876,9.32661 -1.65643,13.872612 -0.1128,0.676809 -0.45373,1.400799 -0.62116,2.070539"
       id="path226" />
    <path
       style="fill:none;fill-opacity:1;stroke:#000000;stroke-width:0.264583;stroke-linecap:round;stroke-linejoin:round;stroke-dasharray:none;stroke-opacity:1"
       d="m 161.29501,55.283398 c -0.97829,3.124915 -1.56812,6.331839 -2.27759,9.524482 -0.24769,1.114589 -0.6434,2.203944 -0.82822,3.312863 -0.035,0.210019 0.0856,0.778304 0,1.03527 -0.33676,1.010274 -0.2597,2.232022 -0.41411,3.312861"
       id="path227" />
    <path
       style="fill:none;fill-opacity:1;stroke:#000000;stroke-width:0.264583;stroke-linecap:round;stroke-linejoin:round;stroke-dasharray:none;stroke-opacity:1"
       d="m 157.77509,82.614518 c 0.13804,-0.276072 0.69018,-0.690182 0.41411,-0.828218 -0.27607,-0.138035 -0.48897,1.12766 -0.41411,0.828218 0.089,-0.356114 0.91646,-1.982301 0.62117,-2.277595 -0.0488,-0.0488 -0.15826,0.0488 -0.20706,0 -0.0488,-0.0488 0.069,-0.207052 0,-0.207052 -0.069,0 0.0488,0.15825 0,0.207052 -0.0123,0.01233 -1.23419,0.215191 -0.82821,0.621163 0.069,0.06902 0.13803,-0.138036 0.20705,-0.207055 0.4284,-0.4284 -0.0168,0.654656 0.41411,-0.207053 0.0423,-0.08471 0.058,-0.977273 0,-1.035269 -0.2059,-0.205894 -1.64288,0.614383 -1.65643,0.621162"
       id="path228" />
    <path
       style="fill:none;fill-opacity:1;stroke:#000000;stroke-width:0.264583;stroke-linecap:round;stroke-linejoin:round;stroke-dasharray:none;stroke-opacity:1"
       d="m 146.59418,83.85684 c 0.41134,0.08227 1.16989,0.304363 1.65643,0.207055 0.30267,-0.06054 0.52877,-0.339249 0.82822,-0.414108 0.80964,-0.202411 1.03527,-0.365064 1.03527,-1.242324 0,-0.138036 0.0766,-0.299255 0,-0.414108 -0.0856,-0.12841 -0.27608,-0.138035 -0.41411,-0.207055 -0.301,-0.1505 -1.26581,-0.183565 -1.44938,0 -0.0488,0.04881 0.0488,0.158253 0,0.207055 -0.0488,0.0488 -0.15825,-0.0488 -0.20705,0 -0.0488,0.0488 0.0488,0.15825 0,0.207055 -0.0488,0.0488 -0.15825,-0.04881 -0.20706,0 -0.0488,0.0488 0.0414,0.151839 0,0.207053 -0.38178,0.509053 -1.81146,1.164809 -1.24232,1.449377 0.9102,0.455101 2.07054,-2.405306 2.07054,-0.828215"
       id="path229" />
    <path
       style="fill:none;stroke:#000000;stroke-width:0.264583;stroke-linecap:round;stroke-linejoin:round"
       d="m 53.292964,36.309493 c 0.195213,0.0488 0.536832,0.341619 0.585637,0.146407 0.0488,-0.195212 -0.78295,-0.18587 -0.585637,-0.146407 0.775013,0.155001 2.065737,0.508428 2.928184,0.292817 0.491019,-0.122754 0.975188,-0.341448 1.464093,-0.439227 0.287131,-0.05743 0.600662,0.0926 0.878456,0 0.166931,-0.05564 0.270034,-0.244478 0.439227,-0.29282 0.187701,-0.05363 0.393081,0.03209 0.585637,0 0.218884,-0.03648 0.520316,-0.222242 0.732046,-0.292817 0.138896,-0.0463 0.297191,0.03551 0.439227,0 0.211738,-0.05294 0.373901,-0.239884 0.585637,-0.292819 0.137797,-0.03445 0.301432,0.03445 0.439229,0 0.489635,-0.12241 1.056513,-0.235437 1.464091,-0.439227 0.157329,-0.07866 0.416245,0.05646 0.585639,0 0.103526,-0.03451 0.186949,-0.119944 0.292817,-0.14641 0.212786,-0.0532 0.874027,0.150839 1.024866,0 0.03451,-0.03451 -0.04365,-0.124585 0,-0.14641 0.17281,-0.0864 0.681641,0 0.878454,0 0.305721,0 0.733361,0.07288 1.024866,0 0.105868,-0.02647 0.186949,-0.119941 0.292817,-0.14641 0.36966,-0.09241 0.978665,0.169511 1.317683,0 0.148505,-0.07425 -0.175694,-0.146407 0.29282,-0.146407"
       id="path1" />
    <path
       style="fill:none;stroke:#000000;stroke-width:0.264583;stroke-linecap:round;stroke-linejoin:round"
       d="m 157.97557,80.232265 c -0.19521,0 -0.58564,-0.195215 -0.58564,0 0,0.195212 0.78085,0 0.58564,0 -0.39042,0 -0.78324,-0.04312 -1.17127,0 -0.0686,0.0076 -0.089,0.108124 -0.14641,0.146407 -0.13375,0.08916 -0.35531,0.124973 -0.43923,0.29282 -0.2846,0.569198 -0.60654,1.422291 -0.29282,2.049729 0.1803,0.360598 -0.42499,-0.13217 0.14641,0.439227 0.16307,0.163074 0.74676,-0.108783 0.87845,-0.14641 0.79942,-0.228404 1.02487,0.135594 1.02487,-0.585636"
       id="path2" />
  </g>
</svg>
