<?xml version="1.0" encoding="UTF-8" standalone="no"?>
<!-- Created with Inkscape (http://www.inkscape.org/) -->

<svg
   width="210mm"
   height="297mm"
   viewBox="0 0 210 297"
   version="1.1"
   id="svg1"
   inkscape:version="1.4 (86a8ad7, 2024-10-11)"
   sodipodi:docname="drawing-6.svg"
   xmlns:inkscape="http://www.inkscape.org/namespaces/inkscape"
   xmlns:sodipodi="http://sodipodi.sourceforge.net/DTD/sodipodi-0.dtd"
   xmlns="http://www.w3.org/2000/svg"
   xmlns:svg="http://www.w3.org/2000/svg">
  <sodipodi:namedview
     id="namedview1"
     pagecolor="#ffffff"
     bordercolor="#000000"
     borderopacity="0.25"
     inkscape:showpageshadow="2"
     inkscape:pageopacity="0.0"
     inkscape:pagecheckerboard="0"
     inkscape:deskcolor="#d1d1d1"
     inkscape:document-units="mm"
     inkscape:zoom="2.437035"
     inkscape:cx="344.47597"
     inkscape:cy="426.13258"
     inkscape:window-width="1920"
     inkscape:window-height="991"
     inkscape:window-x="-9"
     inkscape:window-y="-9"
     inkscape:window-maximized="1"
     inkscape:current-layer="layer1" />
  <defs
     id="defs1" />
  <g
     inkscape:label="Layer 1"
     inkscape:groupmode="layer"
     id="layer1">
    <path
       style="fill:none;fill-opacity:1;stroke:#000000;stroke-width:0.264583;stroke-linecap:round;stroke-linejoin:round;stroke-dasharray:none;stroke-opacity:1"
       d="m 7.5997402,3.1484638 c 0.067115,0.679186 -0.084625,1.3857846 0,2.0627867 0.1357572,1.0860561 0.3134207,2.169378 0.434271,3.2570316 0.067489,0.6074 0.047729,1.2372604 0.1085678,1.8456509 0.057816,0.578163 0.1755875,1.155415 0.2171353,1.737084 0.098054,1.37275 0.1255554,2.751873 0.2171356,4.125573 0.067221,1.008323 -0.077499,2.03241 0,3.039896 0.016883,0.219482 0.091685,0.431925 0.1085675,0.651407 0.074135,0.96375 0,1.964176 0,2.931328 0,1.809462 0,3.618924 0,5.428386 0,1.50381 0.1153449,3.060361 0,4.559845 -0.016883,0.219482 -0.090287,0.432035 -0.1085675,0.651407 -0.062425,0.749099 0.042861,0.622898 0.1085675,1.41138 0.046366,0.55639 -0.1605864,1.90673 0,2.388489 0.016185,0.04855 0.092384,0.06001 0.1085678,0.108566 0.1015148,0.304546 0.1665693,0.782281 0.2171354,1.085678"
       id="path103" />
    <path
       style="fill:none;fill-opacity:1;stroke:#000000;stroke-width:0.264583;stroke-linecap:round;stroke-linejoin:round;stroke-dasharray:none;stroke-opacity:1"
       d="M 8.6854174,17.913674 C 11.630675,17.04488 14.681584,16.570515 17.696538,16.068022 18.80632,15.883059 19.92399,15.416616 21.062137,15.416616"
       id="path104" />
    <path
       style="fill:none;fill-opacity:1;stroke:#000000;stroke-width:0.264583;stroke-linecap:round;stroke-linejoin:round;stroke-dasharray:none;stroke-opacity:1"
       d="m 19.433622,1.8456512 c 0.236786,0.9256369 0.458097,1.8085637 0.759974,2.714193 0.05118,0.153538 0.17063,0.2792531 0.217135,0.4342709 0.06325,0.2108467 0.05065,0.4390324 0.108568,0.6514063 0.102555,0.3760362 0.322271,0.7123451 0.434271,1.0856772 0.507517,1.6917236 1.120608,3.3722094 1.519948,5.1026824 0.452643,1.961453 0.51868,3.980327 0.651406,5.971225 0.05802,0.870217 0.159121,1.735409 0.217136,2.605625 0.05043,0.756467 -0.05401,1.52373 0,2.279922 0.09301,1.302177 0.225595,2.607037 0.325703,3.908438 0.172426,2.24154 0.866686,4.441997 1.302812,6.622632 0.05956,0.297823 0.268216,0.581105 0.325704,0.86854 0.02129,0.10646 -0.01785,0.218615 0,0.325705 0.04135,0.248076 0.11948,0.456094 0.217135,0.651406 0.01717,0.03435 0.108568,1.086954 0.108568,1.194245"
       id="path105" />
    <path
       style="fill:none;fill-opacity:1;stroke:#000000;stroke-width:0.264583;stroke-linecap:round;stroke-linejoin:round;stroke-dasharray:none;stroke-opacity:1"
       d="m 33.33029,12.810991 c 0.108569,-0.144757 0.470461,-0.325703 0.325702,-0.434271 -0.144756,-0.108568 -0.438738,0.575566 -0.325702,0.434271 0.457247,-0.571559 0.6517,-0.814701 0.977109,-1.302813 0.11507,-0.172604 0.278881,-0.209161 0.434271,-0.325703 0.20266,-0.151995 0.34018,-0.390844 0.54284,-0.542838 0.972537,-0.7294033 2.267461,-1.2102634 3.474167,-1.4113808 0.21418,-0.035697 0.436451,0.030708 0.651404,0 0.516917,-0.073845 0.9066,-0.1682605 1.41138,0 0.162854,0.054284 0.108569,-0.1085678 0.325705,0 0.03237,0.016184 -0.03237,0.092383 0,0.1085678 0.06474,0.032369 0.144756,0 0.217136,0 0.07238,0.036189 0.147746,0.066934 0.217135,0.1085675 0.67913,0.407479 1.165686,0.9199945 1.519947,1.6285155 0.102359,0.204718 0.114776,0.446689 0.217135,0.651407 0.282284,0.564564 0.620464,1.217853 0.759976,1.845651 0.0314,0.14131 -0.01796,0.290632 0,0.434271 0.05512,0.440952 0.270584,0.86186 0.325702,1.302813 0.05338,0.427047 0.03796,0.879166 0.108567,1.302812 0.01331,0.07982 0.0927,0.137785 0.108569,0.217135 0.0968,0.484019 -0.05462,1.028357 0,1.519949 0.04784,0.430592 0.18224,0.86078 0.108566,1.302812 -0.01881,0.112884 -0.09238,0.212413 -0.108566,0.325703 -0.07784,0.544869 0.169262,1.555001 0,2.062787 -0.01619,0.04855 -0.09239,0.06001 -0.108569,0.108568 -0.09636,0.289083 0.0601,0.676636 0,0.977109 -0.276622,1.383114 -0.217136,2.806765 -0.217136,4.234141 0,0.16933 -0.01863,1.718466 0,1.737084 0.02559,0.02559 0.08298,-0.02558 0.108569,0 0.09897,0.09897 0,0.821606 0,0.977109 0,0.239133 0.108567,0.154692 0.108567,0.325702 0,0.07238 -0.07238,0.217136 0,0.217136 0.08383,0 -0.203933,-2.187506 -0.217136,-2.279923 -0.07093,-0.496514 0.07093,-1.023429 0,-1.519946 -0.01619,-0.113289 -0.08975,-0.21282 -0.108566,-0.325705 -0.05284,-0.317064 0.04548,-0.658773 0,-0.977108 -0.05291,-0.370336 -0.156589,-0.722389 -0.217136,-1.085677 -0.0357,-0.214181 0.03071,-0.436453 0,-0.651406 -0.09894,-0.692585 -0.432805,-1.511154 -0.542837,-2.171355 -0.07003,-0.420142 -0.139867,-0.714005 -0.325705,-1.085677 -0.118499,-0.237 -0.494242,-0.819945 -0.651407,-0.977109 -0.05722,-0.05722 -0.159914,-0.05135 -0.217133,-0.108568 -0.554823,-0.554822 0.455221,0.151423 -0.325705,-0.434271 -0.06474,-0.04855 -0.159914,-0.05135 -0.217135,-0.108568 -0.05722,-0.05722 -0.05135,-0.159915 -0.108567,-0.217135 -0.08092,-0.08092 -0.230484,-0.04509 -0.325704,-0.108568 -0.06733,-0.04489 -0.03619,-0.180946 -0.108567,-0.217135 -0.06474,-0.03237 -0.148471,0.02289 -0.217136,0 -0.171661,-0.05722 -0.267954,-0.254425 -0.434271,-0.325704 -0.497459,-0.213196 -1.207735,-0.346046 -1.737082,-0.434271 -0.384786,-0.06413 -0.723,0.05676 -1.085678,0.108568 -0.363529,0.05193 -0.722974,0.05675 -1.085678,0.108568 -0.618493,0.08836 -1.246299,0.371595 -1.845651,0.542839 -0.08318,0.02376 -1.289751,0.312641 -1.302811,0.325703 -0.02558,0.02559 0.03237,0.09238 0,0.108568 -0.06474,0.03237 -0.1524,-0.03237 -0.217136,0 -0.03237,0.01618 0.03237,0.09238 0,0.108567 -0.133461,0.06673 -0.292716,0.06138 -0.434271,0.108568 -0.172569,0.05752 -0.270251,0.352261 -0.434271,0.434271 -0.123336,0.06167 -0.226788,0.06876 -0.325705,0.217135 -0.2477,0.371553 -0.649351,0.860322 -0.759973,1.302813 -0.16025,0.641001 -0.38113,1.307385 -0.542838,1.954219 -0.05961,0.238423 0.0596,0.521551 0,0.759974 -0.239577,0.958311 -0.127979,2.63655 0.108567,3.582735 0.101258,0.405032 0.0073,0.897779 0.108569,1.302811 0.07367,0.294698 0.120544,0.578768 0.217135,0.868543 0.04578,0.137329 -0.02839,0.292324 0,0.434271 0.03863,0.19314 0.163174,0.380955 0.217136,0.542837 0.104616,0.313857 0.118925,0.68248 0.217136,0.977112 0.03237,0.0971 0.171357,0.125582 0.217132,0.217136 0.07521,0.150415 0.127434,0.408283 0.217136,0.542837 0.275281,0.41292 0.622387,0.839523 0.977112,1.194245 0.195405,0.195405 0.41484,0.424555 0.651404,0.542837 0.03237,0.01619 0.08298,-0.02558 0.108569,0 0.02558,0.02559 -0.02558,0.08298 0,0.108569 0.05118,0.05118 0.165957,-0.05118 0.217135,0 0.02559,0.02559 -0.02558,0.08298 0,0.108567 0.04991,0.04992 0.348891,0.174448 0.434272,0.217136 0.110175,0.05509 0.521028,0.08676 0.542837,0.108569 0.02559,0.02558 -0.02558,0.08298 0,0.108566 0.04855,0.04855 1.464599,-0.08089 1.51995,-0.108566 0.252446,-0.126225 0.507526,-0.19948 0.759973,-0.325705 0.125759,-0.06288 0.312444,-0.04765 0.434271,-0.108567 0.126468,-0.06323 0.199234,-0.153902 0.325702,-0.217135 0.06474,-0.03237 0.1524,0.03237 0.217136,0 0.107706,-0.05385 0.213246,-0.17965 0.325704,-0.217136 0.06866,-0.02289 0.148471,0.02289 0.217136,0 0.170728,-0.05691 0.369522,-0.26793 0.542838,-0.325702 0.06866,-0.02289 0.148471,0.02289 0.217135,0 0.177615,-0.05921 0.367012,-0.237791 0.542838,-0.325705 0.235797,-0.117898 0.526225,-0.139218 0.759973,-0.217135 0.108117,-0.03604 0.217588,-0.181097 0.325705,-0.217136 0.06867,-0.02289 0.148471,0.02289 0.217136,0 0.0971,-0.03237 0.120028,-0.184766 0.217135,-0.217135 0.06866,-0.02289 0.146918,0.01754 0.217136,0 0.19146,-0.04787 0.379383,-0.255651 0.542838,-0.325702 0.137146,-0.05878 0.29573,-0.05315 0.434271,-0.10857 0.551807,-0.22072 -0.547558,0.0011 0.325702,-0.217132 0.582538,-0.145635 3.453146,-0.933339 4.017007,-0.651407 0.09751,0.04875 0.499843,0.174138 0.542838,0.217135 0.02558,0.02559 -0.02558,0.08298 0,0.108567 0.03619,0.03619 0.289515,0.07238 0.325702,0.108569 0.0059,0.0059 0.211254,0.31982 0.217135,0.325702 0.02559,0.02558 0.08298,-0.02558 0.10857,0 0.02558,0.02558 -0.02559,0.08298 0,0.108566 0.02558,0.02559 0.07846,-0.02008 0.108566,0 0.08517,0.05678 0.144759,0.144759 0.217136,0.217136"
       id="path106" />
    <path
       style="fill:none;fill-opacity:1;stroke:#000000;stroke-width:0.264583;stroke-linecap:round;stroke-linejoin:round;stroke-dasharray:none;stroke-opacity:1"
       d="m 49.615447,9.4453915 c 0.144758,0.1085678 0.325704,0.4704601 0.434271,0.3257032 0.108569,-0.144757 -0.562219,-0.4536514 -0.434271,-0.3257032 0.344275,0.3442737 0.815607,0.5720035 1.085678,0.9771095 0.06348,0.09522 0.02765,0.244782 0.108569,0.325703 0.02558,0.02559 0.08298,-0.02559 0.108566,0 0.371261,0.371261 0.579819,0.978297 0.868543,1.411381 0.458536,0.687806 0.969936,1.356476 1.41138,2.062786 0.511788,0.818861 0.874339,1.74868 1.302813,2.605625 0.150085,0.300171 0.392753,0.568371 0.542838,0.868542 0.102359,0.204717 0.114776,0.446689 0.217136,0.651407 0.268557,0.537117 0.491415,1.091397 0.759973,1.628515 0.218797,0.437593 0.213952,0.970742 0.434271,1.411381 0.05835,0.116707 0.158782,0.208996 0.217136,0.325703 0.375959,0.75192 0.529846,1.691616 0.759973,2.497057 0.154368,0.540285 0.435197,1.090305 0.54284,1.628516 0.0213,0.10646 -0.03433,0.222707 0,0.325703 0.01146,0.03433 0.08298,-0.02559 0.108567,0 0.02814,0.02814 0.153199,1.066369 0.217135,1.194245 0.138555,0.277111 0.01873,0.273362 0.108567,0.54284 0.01619,0.04855 0.08568,0.06279 0.108569,0.108566 0.04343,0.08685 -0.04343,0.23885 0,0.325702 0.168569,0.337141 0.197988,0.702535 0.325702,1.085679 0.04194,0.125806 -0.03157,0.307964 0,0.434271 0.05094,0.203742 0.13298,0.374525 0.217136,0.542837 0.06892,0.137848 -0.0481,0.39855 0,0.542841 0.06857,0.205697 0.108569,0.17077 0.108569,0.434271 0,0.235228 0.108566,-0.0181 0.108566,0.217136 0,0.06625 -0.0423,0.391966 0,0.434268 0.02558,0.02558 0.08298,-0.02558 0.108569,0 0.05118,0.05118 -0.07238,0.217136 0,0.217136 0.07238,0 0,-0.144757 0,-0.217136 0,-0.253323 0,-0.506648 0,-0.759973 0,-0.361138 0.02492,-0.642538 0.108567,-0.977109 0.06596,-0.263835 -0.04398,-0.604666 0,-0.868542 0.01331,-0.07982 0.0927,-0.137785 0.108569,-0.217136 0.120912,-0.604568 0.13933,-1.223206 0.217136,-1.845651 0.03268,-0.261427 0.179874,-0.499161 0.217132,-0.759974 0.0819,-0.57331 0.121346,-1.162336 0.217136,-1.737083 0.03763,-0.225767 0.184769,-0.424826 0.217136,-0.651407 0.03547,-0.248258 -0.03547,-0.511715 0,-0.759974 0.128598,-0.900178 0.175805,-1.814805 0.325704,-2.714193 0.04165,-0.249877 -0.02797,-0.508198 0,-0.759974 0.03295,-0.296598 0.180121,-0.572422 0.217136,-0.868541 0.07711,-0.616912 0.0653,-1.238327 0.217136,-1.845652 0.180697,-0.722791 0.203493,-1.438099 0.325702,-2.171354 0.317105,-1.902632 0.434271,-3.704437 0.434271,-5.6455215"
       id="path107" />
    <path
       style="fill:none;fill-opacity:1;stroke:#000000;stroke-width:0.264583;stroke-linecap:round;stroke-linejoin:round;stroke-dasharray:none;stroke-opacity:1"
       d="m 70.351882,15.742319 c 1.21793,0.218675 2.472148,0.101597 3.691303,0 0.790635,-0.06589 1.596778,0.05278 2.388488,0 0.757188,-0.05048 1.527408,-0.109633 2.279923,-0.217135 1.181182,-0.16874 2.419921,-0.274497 3.582736,-0.542839 0.368149,-0.08496 0.71913,-0.234066 1.085675,-0.325703 1.080387,-0.270096 1.746422,-0.493223 2.714194,-0.977109 0.03237,-0.01619 0.08298,0.02559 0.108569,0 0.02558,-0.02559 -0.02559,-0.08298 0,-0.108568 0.02558,-0.02559 0.0762,0.01619 0.108567,0 0.09364,-0.04682 0.402815,-0.381845 0.434271,-0.434271 0.05888,-0.09813 0.05739,-0.223344 0.108566,-0.325703 0.208738,-0.417474 0.06801,-0.903607 -0.217135,-1.302813 -0.288714,-0.4042 -0.518277,-0.404343 -0.977109,-0.651406 -1.135571,-0.611462 -2.19724,-0.9154206 -3.474167,-1.0856773 -0.68285,-0.091047 -1.37718,-0.2685693 -2.062787,-0.3257032 -0.494168,-0.041181 -1.022268,0 -1.519946,0 -0.309994,0 -0.674341,-0.060554 -0.977109,0 -0.158703,0.03174 -0.275572,0.1853954 -0.434272,0.2171356 -0.10646,0.021291 -0.222707,-0.034332 -0.325704,0 -0.444021,0.1480069 -0.802439,0.5380979 -1.085676,0.8685419 -0.476594,0.556025 -0.968049,1.067557 -1.302813,1.737083 -0.08716,0.174311 -0.122492,0.372479 -0.217136,0.542839 -0.08788,0.158175 -0.237829,0.276095 -0.325702,0.434271 -0.212362,0.382248 -0.335526,0.809236 -0.54284,1.194245 -0.358939,0.666602 -0.684054,1.420191 -1.085676,2.062786 -0.526518,0.842427 -1.066905,1.804034 -1.194247,2.822761 -0.107399,0.859213 -0.217871,1.839764 -0.108566,2.714193 0.107918,0.86334 0.236929,1.464163 0.542837,2.279922 0.212477,0.566603 0.330264,1.170213 0.542841,1.737084 0.671589,1.79091 2.752039,3.609058 4.559842,4.125572 0.581763,0.166219 1.145077,0.3497 1.737085,0.434271 0.610833,0.08726 0.24783,-0.0232 0.759973,-0.108566 0.714854,-0.119142 -0.128548,0.223795 0.868543,-0.10857 0.153537,-0.05118 0.282731,-0.160308 0.434271,-0.217135 1.058955,-0.397108 2.115709,-0.72481 3.148462,-1.194245 1.02317,-0.465076 2.125469,-0.729247 3.148465,-1.194244 0.595913,-0.27087 1.139949,-0.60315 1.737082,-0.868543 0.420278,-0.186787 3.061608,-1.628514 3.148465,-1.628514"
       id="path108" />
    <path
       style="fill:none;fill-opacity:1;stroke:#000000;stroke-width:0.264583;stroke-linecap:round;stroke-linejoin:round;stroke-dasharray:none;stroke-opacity:1"
       d="m 111.71618,14.005236 c 0.43814,-0.732367 0.86186,-1.51193 1.41138,-2.171355 0.31945,-0.383334 0.74088,-0.632305 1.08568,-0.977109 0.12795,-0.127948 0.19776,-0.306323 0.3257,-0.434271 0.12665,-0.126644 0.92579,-0.7543359 1.08568,-0.8685417 0.1317,-0.094069 0.30789,-0.1160327 0.43427,-0.2171353 0.0632,-0.050552 0.0438,-0.1685827 0.10857,-0.2171356 0.0915,-0.068664 0.22334,-0.057388 0.3257,-0.1085678 0.1275,-0.063746 0.41535,-0.3705244 0.54284,-0.4342707 0.0647,-0.032369 0.14692,0.017555 0.21714,0 0.64972,-0.1624314 0.55938,-0.3257031 1.41138,-0.3257031 1.25514,0 2.4461,0.7536981 3.3656,1.5199479 1.25576,1.0464653 2.36214,2.4517383 2.93132,4.0170053 0.0631,0.17342 0.0502,0.367779 0.10857,0.542839 0.0512,0.153538 0.16596,0.280733 0.21714,0.434271 0.15982,0.479466 0.26986,1.12596 0.3257,1.628516 0.0643,0.578365 0.0505,1.156707 0.10857,1.737083 0.0951,0.951296 0.21538,1.970003 0.10857,2.931328 -0.0165,0.1483 -0.0901,0.286212 -0.10857,0.434271 -0.052,0.416207 0,0.882994 0,1.302813 0,1.458664 -0.10857,2.881005 -0.10857,4.342708 0,0.09634 -0.0492,0.444452 0,0.54284 0.13416,0.268314 0.10857,-0.03748 0.10857,0.217136 0,0.108566 0,0.217136 0,0.325702 0,0.03619 -0.0362,0.108566 0,0.108566 0.0589,0 -0.3034,-1.528132 -0.3257,-1.628515 -0.44054,-1.982391 -0.69566,-3.051982 -1.84566,-4.776979 -0.2011,-0.301656 -0.45872,-0.642604 -0.75997,-0.868542 -0.0647,-0.04855 -0.15992,-0.05135 -0.21713,-0.108567 -0.0256,-0.02559 0.0256,-0.08298 0,-0.108568 -0.26397,-0.26397 -0.75878,-0.461113 -1.08568,-0.542839 -0.32122,-0.0803 -0.64402,-0.259085 -0.97711,-0.325703 -0.78338,-0.156675 -1.63305,0.06605 -2.38849,0.217136 -0.6789,0.13578 -1.42665,0.260113 -2.06279,0.542838 -0.11923,0.05299 -0.20577,0.165736 -0.3257,0.217136 -0.13715,0.05878 -0.29272,0.06138 -0.43427,0.108567 -0.24375,0.08125 -0.29508,0.201822 -0.54284,0.325704 -0.65796,0.328979 -1.27525,0.705327 -1.84565,1.194245 -0.64783,0.555283 -1.31368,1.321837 -1.73709,2.062786 -0.20712,0.362474 -0.28964,0.808581 -0.43427,1.194245 -0.0292,0.315974 -0.32591,0.489075 -0.43427,0.759974 -0.0269,0.0672 0.0142,0.146161 0,0.217136 -0.0665,0.332687 -0.26995,0.64262 -0.3257,0.977109 -0.19523,1.171363 -0.0206,2.248971 0.65141,3.257031 0.73675,1.10513 2.04357,1.737085 3.3656,1.737085 0.45688,0 0.95871,0.05029 1.41138,0 0.29659,-0.03296 0.57493,-0.163753 0.86854,-0.217136 0.95068,-0.172852 1.8225,-0.472233 2.71419,-0.868542 1.07988,-0.479946 2.09983,-1.104199 3.14846,-1.628516 0.6329,-0.316449 1.32341,-0.553132 1.95422,-0.868542 0.50979,-0.254892 0.13659,-0.163203 0.54284,-0.325702 0.38773,-0.155091 2.19242,-0.640877 2.60563,-0.434271 0.22214,0.111072 0.4266,0.213304 0.6514,0.325702 0.12936,0.06468 0.4448,0.119094 0.54284,0.217135 0.0543,0.05429 0.0543,0.162851 0.10857,0.217136 0.0572,0.05722 0.15991,0.05135 0.21714,0.108569"
       id="path109" />
    <path
       style="fill:none;fill-opacity:1;stroke:#000000;stroke-width:0.264583;stroke-linecap:round;stroke-linejoin:round;stroke-dasharray:none;stroke-opacity:1"
       d="m 7.1654696,50.809694 c 0.5315005,-0.175882 1.7613508,-0.761619 3.4741674,0.217135 1.040081,0.594331 2.036683,1.96569 2.497057,3.039896 0.207565,0.484317 0.289514,1.013299 0.434271,1.519947 0.135225,0.473289 0.323589,0.931759 0.434271,1.41138 0.293185,1.270471 0.110774,2.523535 0.217135,3.799871 0.06097,0.731597 0.108568,1.433137 0.108568,2.171354 0,1.664705 0,3.329411 0,4.994116 0,0.88315 0.04098,1.727002 0.108568,2.605625 0,1.801312 -0.04389,-0.547426 0.108567,0.977108 0.03961,0.396108 -0.03961,0.79814 0,1.194245 0.136957,1.369571 0.108568,-0.17888 0.108568,0.977111 0,0.556385 0.108568,1.067745 0.108568,1.628516 0,0.0671 -0.03008,0.681485 0.108568,0.542838 0.08487,-0.08487 -0.09443,-0.18887 -0.108568,-0.217136 -0.083,-0.166005 0.0113,-0.852792 0,-0.977109 -0.01993,-0.219225 -0.09288,-0.431834 -0.108568,-0.651406 -0.206213,-2.886978 0.265388,1.332976 -0.108568,-1.845652 -0.122716,-1.04309 -0.273241,-2.099222 -0.325703,-3.148465 -0.03253,-0.650592 0.04333,-1.304253 0,-1.954217 -0.074,-1.10993 -0.194004,-0.432406 -0.108567,-1.628516 0.067,-0.938046 0.144888,-1.883545 0.217135,-2.82276 0.09368,-1.217875 0.48722,-2.400803 0.759974,-3.582736 0.151066,-0.654617 0.290948,-1.324494 0.542839,-1.954218 0.168901,-0.422254 0.454954,-0.801341 0.651406,-1.194245 0.01618,-0.03237 -0.02559,-0.08298 0,-0.108569 0.22463,-0.224631 -0.0088,0.343265 0.217135,-0.108566 0.07232,-0.144648 0.195928,-0.413065 0.325703,-0.542841 0.09486,-0.09486 0.458042,-0.174736 0.542839,-0.217135 0.783427,-0.391713 -0.191713,-0.05359 0.759974,-0.434269 1.128718,-0.451487 2.308488,-0.752628 3.474167,-1.085678 1.554691,-0.444198 3.588251,-0.943073 4.77698,0.542838 0.985372,1.231717 1.284081,2.85016 1.628515,4.342709 0.617509,2.675872 -0.159374,-0.963205 0.434272,1.41138 0.245713,0.982851 0.418322,2.043764 0.542837,3.039896 0.181343,1.450729 0.04466,-0.747696 0.217136,0.977109 0.165558,1.655572 0.214717,3.329313 0.325705,4.994116 0.03404,0.510659 0.174633,1.009923 0.217135,1.519949 0.01503,0.180319 -0.01998,0.362998 0,0.542838 0.06532,0.587854 0.368954,1.149228 0.434269,1.737082 0.05917,0.532548 0.08448,0.989341 0.217135,1.51995 0.09054,0.362164 0.25259,0.720111 0.325705,1.085678 0.06031,0.301577 -0.09047,0.180945 0,0.542837 0.01241,0.04965 0.08568,0.06279 0.108567,0.108569 0.0452,0.09039 -0.06887,0.365403 0,0.434269 0.101118,0.101118 0.108569,-0.0085 0.108569,0.217135"
       id="path110" />
    <path
       style="fill:none;fill-opacity:1;stroke:#000000;stroke-width:0.264583;stroke-linecap:round;stroke-linejoin:round;stroke-dasharray:none;stroke-opacity:1"
       d="m 35.067374,52.981047 c 0.730862,2.669818 1.717488,5.241438 2.388489,7.925443 0.301205,1.204822 -0.02532,0.123084 0.108567,1.194244 0.04932,0.394587 0.159935,0.79383 0.217136,1.194248 0.05065,0.354525 -0.04442,0.730302 0,1.085675 0.01852,0.148061 0.09006,0.286213 0.108569,0.434271 0.053,0.423974 -0.07026,0.881282 0,1.302814 0.08399,0.503946 0.144055,1.008398 0.217135,1.519946 0.03071,0.214953 -0.0357,0.437227 0,0.651407 0.01881,0.112885 0.09238,0.212413 0.108567,0.325705 0.06043,0.422994 -0.04248,0.877967 0,1.302811 0.136956,1.36957 0.108569,-0.17888 0.108569,0.977109 0,0.465621 -0.124132,2.341798 0,2.714193 0.140285,0.420857 0.108566,0.85193 0.108566,1.302814 0,0.07238 -0.05118,0.165955 0,0.217136 0.02559,0.02559 0.08298,-0.02559 0.108569,0 0.09927,0.09927 -0.04451,0.626461 0,0.759973 0.01619,0.04855 0.07238,0.07238 0.108567,0.108566 0.03619,0.506651 0.07238,1.013302 0.108569,1.51995"
       id="path111" />
    <path
       style="fill:none;fill-opacity:1;stroke:#000000;stroke-width:0.264583;stroke-linecap:round;stroke-linejoin:round;stroke-dasharray:none;stroke-opacity:1"
       d="m 31.267503,46.358415 c -0.144756,-0.108566 -0.325702,-0.470458 -0.434271,-0.325702 -0.108567,0.144756 0.562221,0.453652 0.434271,0.325702 -0.308139,-0.308139 -0.614521,-0.626816 -0.977109,-0.86854 -0.06733,-0.04489 -0.159914,-0.05135 -0.217136,-0.108569 -0.224631,-0.224631 0.343265,0.0088 -0.108566,-0.217135 -0.03237,-0.01619 -0.08298,0.02558 -0.108569,0 -0.03619,-0.03619 -0.07238,-0.289513 -0.108567,-0.325702 -0.02558,-0.02559 -0.08298,0.02558 -0.108569,0 -0.11638,-0.11638 0.234815,-0.886222 0.325705,-0.977109 0.09226,-0.09227 0.225462,-0.133604 0.325702,-0.217136 0.379457,-0.316214 0.694277,-0.683561 1.085678,-0.977111 0.379338,-0.284504 0.04903,0.01984 0.434268,-0.108567 0.04855,-0.01619 0.06279,-0.08568 0.10857,-0.108569 0.198903,-0.09945 0.4515,-0.04193 0.651406,-0.108566 0.508008,-0.169336 0.865196,-0.110242 1.302811,0.108566 0.06474,0.03237 0.1524,-0.03237 0.217136,0 0.158337,0.07917 0.17368,0.17368 0.217136,0.217136 0.02559,0.02558 0.08298,-0.02559 0.108569,0 0.02558,0.02558 -0.02559,0.08298 0,0.108569 0.02558,0.02558 0.08298,-0.02559 0.108566,0 0.03619,0.03619 0.07238,0.289512 0.108569,0.325702 0.02559,0.02558 0.08298,-0.02558 0.108567,0 0.07276,0.07275 -0.09223,1.044845 -0.108567,1.085678 -0.14969,0.374226 -0.419049,0.760375 -0.651407,1.085678 -0.117318,0.164245 -0.252399,0.530156 -0.434271,0.651404 -0.257553,0.171704 -0.494188,0.518515 -0.759973,0.651407 -0.208709,0.104354 -0.440261,0.22013 -0.651407,0.325705 -0.04578,0.02289 -0.06517,0.135691 -0.108569,0.108566 -0.282932,-0.176832 -0.46155,-0.800619 -0.759973,-0.651407 -0.276559,0.138279 0.217135,0.57903 0.325705,0.868543"
       id="path112" />
    <path
       style="fill:none;fill-opacity:1;stroke:#000000;stroke-width:0.264583;stroke-linecap:round;stroke-linejoin:round;stroke-dasharray:none;stroke-opacity:1"
       d="m 58.409432,53.523885 c -0.478639,-0.237969 -0.990037,-0.627497 -1.519947,-0.759974 -0.705572,-0.176392 -1.990558,-0.307588 -2.714193,-0.217135 -0.148059,0.01852 -0.285973,0.09209 -0.434272,0.108569 -0.468291,0.05203 -0.945441,0.04201 -1.41138,0.108566 -1.164703,0.166386 -2.753013,1.015929 -3.582733,1.845652 -0.09227,0.09226 -0.13222,0.226634 -0.217136,0.325702 -0.233151,0.272007 -0.526825,0.487968 -0.759976,0.759976 -1.025059,1.195903 -1.827016,2.665743 -2.388489,4.125574 -1.070922,2.784398 0.553276,-1.05749 -0.434271,1.41138 -0.660553,1.651381 -1.092808,3.63425 -0.86854,5.428384 0.143119,1.144966 0.573286,2.18017 0.977109,3.257032 0.209455,0.558548 0.405173,1.131795 0.759974,1.628515 0.08924,0.124939 0.23646,0.200766 0.325702,0.325705 0.09407,0.131697 0.123068,0.302572 0.217135,0.434271 0.321961,0.450745 0.763148,0.842053 1.085678,1.302811 0.272291,0.273521 0.336164,0.667097 0.542838,0.977109 0.664567,0.99685 1.761037,1.749063 2.822763,2.279923 0.06473,0.03237 0.148471,-0.02289 0.217135,0 0.26956,0.08986 0.470797,0.267869 0.759974,0.325704 0.645374,0.129075 1.507288,0.219245 2.171353,0.108567 0.225766,-0.03763 0.42564,-0.179507 0.651407,-0.217136 0.10709,-0.01786 0.220376,0.02633 0.325702,0 0.189068,-0.04726 0.354822,-0.165856 0.54284,-0.217135 0.755941,-0.206166 0.500502,-0.009 1.194245,-0.217136 0.694346,-0.208304 1.333074,-0.62217 1.954217,-0.977109 0.841349,-0.480769 1.746811,-0.873405 2.605628,-1.302813 0.451831,-0.225915 -0.116065,0.0075 0.108566,-0.217136 0.02558,-0.02559 0.08298,0.02558 0.108569,0 0.197192,-0.197189 0.105976,-0.215839 0.325702,-0.325702 0.14541,-0.0727 0.150434,-0.259003 0.217136,-0.325702 0.05722,-0.05722 0.159914,-0.05135 0.217136,-0.108569 0.125018,-0.125019 0.05629,-0.217136 0.217135,-0.217136"
       id="path113" />
    <path
       style="fill:none;fill-opacity:1;stroke:#000000;stroke-width:0.264583;stroke-linecap:round;stroke-linejoin:round;stroke-dasharray:none;stroke-opacity:1"
       d="m 66.443444,59.060839 c 1.658024,0.03543 3.272351,-0.05684 4.885547,-0.325702 0.214183,-0.0357 0.436454,0.03071 0.651407,0 1.500706,-0.214387 3.20771,-0.478708 4.451275,-1.411381 0.221687,-0.166264 0.540986,-0.17971 0.759976,-0.325704 0.03011,-0.02008 -0.02558,-0.08298 0,-0.108567 0.08092,-0.08092 0.24478,-0.02765 0.325703,-0.108569 0.05722,-0.05722 0.05135,-0.159914 0.108569,-0.217135 0.02558,-0.02559 0.0762,0.01619 0.108566,0 0.443997,-0.221996 0.910307,-0.864384 1.085678,-1.302811 0.15998,-0.399955 -0.08983,-1.246611 -0.217135,-1.628516 -0.399259,-1.197779 -1.107536,-2.330683 -2.171357,-3.039896 -0.09522,-0.06348 -0.22757,-0.04969 -0.325702,-0.108569 -0.537236,-0.322342 -1.078529,-0.516591 -1.737084,-0.434271 -0.569312,0.07117 -1.973482,0.536535 -2.388489,0.868542 -0.06319,0.05055 -0.05135,0.159914 -0.108567,0.217136 -0.326252,0.326252 -0.845389,0.563292 -1.194247,0.868542 -0.752692,0.658606 -1.591537,1.468178 -2.171353,2.279923 -0.645184,0.903255 -1.112467,1.804056 -1.519947,2.82276 -0.120216,0.300535 -0.36645,0.55204 -0.434271,0.868542 -0.07621,0.355624 -0.0087,0.735973 -0.108569,1.085676 -0.350732,1.227563 -0.521759,0.917043 -0.651407,1.95422 -0.07753,0.620249 -0.0771,1.445953 0,2.062787 0.01849,0.148058 0.09372,0.285798 0.108569,0.434271 0.02162,0.216056 -0.01966,0.43516 0,0.651404 0.155617,1.711788 0.902195,4.18447 1.737082,5.645523 0.385699,0.674971 0.858568,1.319583 1.302814,1.954218 0.391393,0.559131 0.252666,0.578371 0.759973,1.085678 0.831855,0.831853 1.872451,1.397569 2.82276,2.062787 0.652831,0.45698 0.490022,0.520203 1.302814,0.868542 0.24216,0.103781 0.510032,0.133821 0.759973,0.217133 0.585441,0.195149 1.131589,0.511678 1.737085,0.651407 0.567981,0.131075 1.592175,0.325705 2.171353,0.325705 0.149212,0 0.285801,-0.09372 0.434272,-0.108569 0.921477,-0.09215 1.922356,-0.05558 2.82276,-0.325702 0.500914,-0.150276 0.995965,-0.483032 1.41138,-0.759974 0.139155,-0.09277 0.696243,-0.261972 0.759976,-0.325704 0.06657,-0.06657 0.07439,-0.217136 0.325702,-0.217136"
       id="path114" />
    <path
       style="fill:none;fill-opacity:1;stroke:#000000;stroke-width:0.264583;stroke-linecap:round;stroke-linejoin:round;stroke-dasharray:none;stroke-opacity:1"
       d="m 31.701774,99.339462 c -1.482773,-0.479057 -3.09418,-0.685951 -4.668411,-0.542837 -0.367544,0.03341 -0.72091,0.161017 -1.085678,0.217135 -0.810103,0.124632 -1.494613,0.328663 -2.279922,0.542838 -0.178028,0.04855 -0.371507,0.04004 -0.542839,0.108569 -0.195925,0.07837 -0.358376,0.223224 -0.542838,0.325702 -1.568452,0.871361 -2.63674,1.342411 -3.79987,2.822761 -1.0417,1.3258 -1.575767,3.38569 -1.95422,4.99412 -0.213552,0.90759 -0.371659,1.80123 -0.542838,2.71419 -0.055,0.29331 -0.177695,0.57273 -0.217136,0.86854 -0.03348,0.2511 0.01805,0.50729 0,0.75997 -0.01823,0.25525 -0.09154,0.50465 -0.108567,0.75998 -0.07213,1.08192 0.03678,0.66026 0.108567,1.73708 0.07424,1.11363 0.143679,2.16731 0.434271,3.25703 0.129465,0.4855 0.570075,2.23255 0.868542,2.60563 0.08151,0.10189 0.233438,0.12487 0.325703,0.21713 0.05722,0.0572 0.07238,0.14476 0.108568,0.21714 0.108568,0.10857 0.207752,0.22741 0.325703,0.3257 0.514636,0.42887 1.503002,1.08285 2.171354,1.19425 0.429838,0.0716 0.872149,0.15561 1.302813,0.21713 0.610834,0.0873 0.247831,-0.0232 0.759974,-0.10856 0.107091,-0.0179 0.218613,0.0179 0.325703,0 0.409332,-0.0682 0.27627,-0.13814 0.651407,-0.32571 0.918099,-0.45905 1.477675,-1.08891 2.171354,-1.84565 0.564653,-0.61598 1.201438,-1.22208 1.628515,-1.95422 0.543309,-0.93138 1.006179,-2.24402 1.41138,-3.25703 0.204719,-0.51179 0.466013,-1.00084 0.651407,-1.51995 0.349401,-0.97832 0.126749,-0.56742 0.325705,-1.62851 0.510587,-2.72314 0.825354,-5.46797 0.651404,-8.25115 -0.18201,-2.91217 -0.03951,1.35158 -0.217133,-1.84565 -0.01807,-0.3252 0.02032,-0.65204 0,-0.97711 -0.03416,-0.54658 -0.180708,-1.082087 -0.217136,-1.628518 -0.08834,-1.325097 0,-2.688561 0,-4.017004 0,-1.145202 0.0878,-2.332779 0,-3.474167 -0.01688,-0.219483 -0.08864,-0.432181 -0.108569,-0.651407 -0.03276,-0.360405 0.04489,-0.72658 0,-1.085678 -0.01421,-0.113557 -0.09238,-0.212413 -0.108566,-0.325702 -0.05045,-0.35314 0.05864,-0.733817 0,-1.085678 -0.06274,-0.376452 -0.108569,-0.693013 -0.108569,-1.085676 0,-0.580996 0.02289,0.245896 -0.108567,-0.54284 -0.0485,-0.290991 0.09298,-0.698159 0,-0.977109 -0.01619,-0.04855 -0.08568,-0.06279 -0.108569,-0.108566 -0.08042,-0.160846 0,-0.576176 0,-0.759976 0,-0.253323 0,-0.506648 0,-0.759974 0,-0.108566 0,-0.434271 0,-0.325702 0,1.991741 -0.05647,3.990806 0.108569,5.971223 0.03005,0.360643 -0.03601,0.725583 0,1.085678 0.192043,1.920436 0.503804,3.83526 0.651407,5.754089 0.06143,0.798621 0.264268,1.589868 0.325702,2.388489 0.06379,0.829248 0.0055,1.672748 0.108566,2.497058 0.0812,0.64956 0.253299,1.30258 0.325705,1.95422 0.08475,0.76273 0.122566,1.52337 0.217136,2.27992 0.109037,0.87231 0.462939,1.72672 0.542837,2.60563 0.01966,0.21624 -0.01966,0.43516 0,0.6514 0.06628,0.72909 0.330679,1.44622 0.434272,2.17136 0.09344,0.65409 0.144975,1.30479 0.217135,1.95422 0.04987,0.44885 0.202827,0.87274 0.325702,1.30281 0.03619,0.14476 0.07238,0.28951 0.108569,0.43427 0,0.0724 -0.01418,0.14616 0,0.21714 0.06681,0.33405 0.258893,0.64305 0.325702,0.97711 0.103056,0.51527 0.264846,1.01167 0.434272,1.51994 0.29755,0.89266 -0.03815,-0.22888 0.108569,0.65141 0.04187,0.25121 0.236225,0.75342 0.325702,0.97711 0.220723,0.5518 -0.0011,-0.54756 0.217135,0.3257 0.01754,0.0702 -0.02289,0.14847 0,0.21714 0.04696,0.14089 0.239999,0.30571 0.325703,0.43427 0.195138,0.2927 0.294677,0.72894 0.54284,0.97711 0.05722,0.0572 0.159914,0.0513 0.217135,0.10857 0.05722,0.0572 0.06001,0.15239 0.108567,0.21713 0.174625,0.23284 0.521237,0.49225 0.759973,0.65141 0.03011,0.0201 0.08298,-0.0256 0.108569,0 0.05722,0.0572 0.05135,0.15991 0.108567,0.21713 0.03455,0.0345 0.759402,0.3797 0.868542,0.43427 0.06474,0.0324 0.152398,-0.0324 0.217136,0 0.126468,0.0632 0.199236,0.15391 0.325702,0.21714 0.06407,0.032 0.252733,0 0.325705,0"
       id="path115" />
    <path
       style="fill:none;fill-opacity:1;stroke:#000000;stroke-width:0.264583;stroke-linecap:round;stroke-linejoin:round;stroke-dasharray:none;stroke-opacity:1"
       d="m 43.86136,103.57361 c 0.10483,-0.47833 0.492606,-0.72919 0.759973,-1.08568 0.04855,-0.0647 0.05135,-0.15992 0.108566,-0.21714 0.05722,-0.0572 0.159917,-0.0513 0.217136,-0.10856 0.05722,-0.0572 0.06368,-0.14981 0.108569,-0.21714 0.219689,-0.32953 0.609775,-0.66659 0.86854,-0.97711 0.47222,-0.56667 1.073983,-0.94927 1.628518,-1.411382 0.196583,-0.16382 0.32992,-0.400892 0.542838,-0.542838 0.0755,-0.05033 0.241559,-0.0665 0.325702,-0.108569 0.147561,-0.07378 0.286711,-0.25192 0.434271,-0.325702 0.303842,-0.151921 0.716905,-0.360516 1.085678,-0.434271 0.812237,-0.162446 1.731608,0.213484 2.388489,0.651407 0.348724,0.232481 0.686377,0.686376 0.977109,0.977108 0.217136,0.217136 0.472924,0.401527 0.651407,0.651407 0.09407,0.1317 0.127362,0.29961 0.217136,0.43427 0.05678,0.0852 0.144756,0.14476 0.217135,0.21714 0.108569,0.14475 0.229801,0.28083 0.325702,0.43427 0.235731,0.37716 0.387557,0.88872 0.542841,1.30281 0.359881,0.95969 0.36708,1.92346 0.434271,2.93133 0.09982,1.49735 0.165274,2.9638 0,4.45127 -0.09128,0.82151 0.102497,1.67709 0,2.49706 -0.08601,0.68805 -0.102973,1.37781 -0.217136,2.06279 -0.111297,0.66777 0.06746,1.38816 0,2.06279 -0.02191,0.21903 -0.08864,0.43217 -0.108569,0.6514 -0.07151,0.78665 0.09794,1.60496 0,2.38849 -0.0739,0.59123 -0.108566,1.13029 -0.108566,1.73709 0,0.51843 0.02906,0.29664 -0.10857,0.43427 -0.06556,0.0656 0,0.54844 0,0.6514 0,0.10857 -0.108566,0.32571 0,0.32571 0.05575,0 0.07536,-0.22607 0.10857,-0.32571 0.216963,-0.65089 0.23944,-1.37269 0.325702,-2.06278 0.01421,-0.11356 0.09238,-0.21242 0.108569,-0.32571 0.06078,-0.4255 -0.04749,-0.87542 0,-1.30281 0.103539,-0.93185 0.115014,-1.46836 0,-2.38849 -0.0404,-0.32319 0.03597,-0.6534 0,-0.97711 -0.05293,-0.47637 -0.272309,-0.93083 -0.325705,-1.41138 -0.01598,-0.14387 0.03511,-0.29383 0,-0.43427 -0.03925,-0.15701 -0.160308,-0.28273 -0.217136,-0.43427 -0.208735,-0.55663 -0.01077,-0.35803 -0.217135,-0.97711 -0.197054,-0.59117 -0.589476,-1.17895 -0.86854,-1.73708 -0.216262,-0.43253 -0.532379,-1.07522 -0.868542,-1.41138 -0.02559,-0.0256 -0.08298,0.0256 -0.108569,0 -0.05722,-0.0572 -0.06001,-0.1524 -0.108567,-0.21714 -0.28154,-0.37539 -0.892379,-0.8403 -1.302814,-0.97711 -0.06866,-0.0229 -0.14847,0.0229 -0.217135,0 -0.04855,-0.0162 -0.06001,-0.0924 -0.108567,-0.10857 -0.151437,-0.0505 -0.386082,0.0314 -0.542837,0 -0.112221,-0.0224 -0.211265,-0.10856 -0.325705,-0.10856 -0.05118,0 -0.05891,0.0961 -0.108567,0.10856 -1.032131,0.25804 0.545442,-0.38096 -0.759975,0.10857 -0.470483,0.17643 -1.061038,0.62677 -1.411381,0.97711 -0.09226,0.0923 -0.12487,0.23344 -0.217135,0.3257 -0.09226,0.0923 -0.225462,0.13361 -0.325702,0.21714 -0.317876,0.2649 -0.502812,0.55995 -0.759973,0.86854 -0.600935,0.72112 -0.785662,0.81777 -1.194245,1.73708 -0.118499,0.26662 -0.319339,0.4918 -0.434271,0.75998 -0.05878,0.13714 -0.05618,0.29456 -0.108569,0.43427 -0.309052,0.82414 -0.741831,1.61009 -0.868543,2.49706 -0.02048,0.1433 0.02048,0.29096 0,0.43427 -0.06151,0.43059 -0.162404,0.86498 -0.217133,1.30281 -0.06113,0.48907 0.04947,0.93863 0.108567,1.41138 0.06043,0.48342 0.0302,0.94119 0.108566,1.41138 -0.218035,0.19331 0.180949,0.3257 0.217136,0.43427 0.06867,0.20602 0.132636,0.50647 0.217135,0.75998 0.05807,0.17419 0.06436,0.36601 0.10857,0.54283 0.170442,0.68177 0.711274,1.39262 1.085675,1.95422 0.104968,0.15745 0.896226,0.66525 1.085678,0.75998 0.193932,0.097 0.4343,0.0543 0.651407,0.10856 0.444463,0.11112 0.805847,0.29997 1.302813,0.21714 0.07982,-0.0133 0.137314,-0.0953 0.217136,-0.10857 0.384733,-0.0641 0.708263,0.0172 1.085675,-0.10857 0.227994,-0.076 0.423416,-0.2497 0.651407,-0.3257 0.730933,-0.24364 1.462011,-0.30639 2.171354,-0.54284 0.154048,-0.0513 0.398825,0.072 0.54284,0 0.202702,-0.10135 0.294476,-0.10856 0.542838,-0.10856 0.810424,0 1.504415,0.1008 2.171356,0.43427 0.08685,0.0434 0.238847,-0.0434 0.325702,0 0.04577,0.0229 0.06279,0.0857 0.108566,0.10856 0.06474,0.0324 0.165957,-0.0512 0.217136,0 0.02558,0.0256 -0.02558,0.083 0,0.10857 0.05118,0.0512 0.1524,-0.0324 0.217135,0 0.126469,0.0632 0.199237,0.1539 0.325705,0.21714 0.06474,0.0324 0.165955,-0.0512 0.217136,0 0.02558,0.0256 0,0.0724 0,0.10856"
       id="path116" />
    <path
       style="fill:none;fill-opacity:1;stroke:#000000;stroke-width:0.264583;stroke-linecap:round;stroke-linejoin:round;stroke-dasharray:none;stroke-opacity:1"
       d="m 67.311986,100.75084 c -0.409712,2.39256 -0.739301,4.8338 -0.434271,7.27404 0.1919,1.53519 0.457668,3.04832 0.759973,4.55985 0.623779,3.11888 -0.167436,-1.17946 0.434271,1.62851 0.336746,1.57148 -0.158294,-0.053 0.325705,1.51995 0.283295,0.92071 0.549585,1.64201 0.977109,2.49706 0.05118,0.10236 0.04969,0.22757 0.108567,0.3257 0.105328,0.17554 0.311441,0.2705 0.434271,0.43427 0.04855,0.0647 0.05135,0.15992 0.108569,0.21714 0.131011,0.13101 0.371496,0.24003 0.542838,0.3257 1.318312,0.65916 2.531538,0.14105 3.582733,-0.75998 0.537803,-0.46097 0.449424,-0.22358 0.977112,-0.86854 0.362338,-0.44286 0.693216,-0.91457 0.977108,-1.41138 0.13674,-0.23929 0.195038,-0.51731 0.325702,-0.75997 0.123725,-0.22977 0.302779,-0.42599 0.434272,-0.65141 0.285419,-0.48929 0.493408,-1.02014 0.759976,-1.51995 0.501642,-0.94058 1.072819,-1.85398 1.519946,-2.82276 0.295553,-0.64036 0.47453,-1.31197 0.759973,-1.95422 0.175202,-0.3942 0.391536,-0.79076 0.542841,-1.19424 0.104783,-0.27942 0.11235,-0.58912 0.217135,-0.86854 0.176078,-0.46955 0.403606,-0.92407 0.542838,-1.41138 0.0199,-0.0696 0,-0.14476 0,-0.21714 0.03619,-0.14475 0.05315,-0.29573 0.108567,-0.43427 0.019,-0.0475 0.09615,-0.0589 0.108569,-0.10857 0.03511,-0.14043 -0.10236,-0.33191 0,-0.43427 0.02558,-0.0256 0.08298,0.0256 0.108566,0 0.0423,-0.0423 0,-0.36802 0,-0.43427 0,-0.0468 0.13416,-0.3257 0.108569,-0.3257 -0.183882,0 -0.09654,0.47069 -0.108569,0.54284 -0.16307,0.97843 -0.348128,1.95778 -0.542838,2.93133 -0.331104,1.65552 -0.541956,3.32266 -0.759973,4.99411 -0.255135,1.95602 -0.330967,3.89989 -0.434271,5.86266 -0.104743,1.99013 -0.215151,3.9813 -0.325705,5.97122 -0.03613,0.65041 0.03825,1.30394 0,1.95422 -0.08735,1.48503 -0.22674,2.96686 -0.325702,4.45128 -0.09472,1.42084 -0.164592,2.9558 -0.542837,4.34271 -0.149715,0.54895 -0.379201,1.08305 -0.542841,1.62851 -0.245721,0.81908 -0.40572,1.67811 -0.651404,2.49706 -0.114723,0.2868 -0.240607,0.5707 -0.325705,0.86854 -0.108574,0.38002 -0.15444,0.7095 -0.217135,1.08568 -0.131144,0.78686 -0.663856,1.46653 -0.977109,2.17135 -0.09296,0.20916 -0.114776,0.44669 -0.217136,0.65141 -0.217027,0.43405 -0.293973,0.35277 -0.542837,0.65141 -0.367004,0.4404 -0.64021,0.94814 -0.977112,1.41138 -0.667808,0.91824 -1.256604,1.90801 -2.062784,2.71419 -0.283628,0.28363 -0.556101,0.61859 -0.868543,0.86854 -0.06319,0.0505 -0.159916,0.0513 -0.217135,0.10857 -0.09227,0.0923 -0.135626,0.22381 -0.217136,0.3257 -0.236654,0.29582 -0.592389,0.4673 -0.868542,0.65141 -0.12527,0.0835 -0.200433,0.24219 -0.325702,0.3257 -0.27745,0.18497 -0.5812,0.37043 -0.868543,0.54284 -0.149135,0.0895 -0.419356,0.0936 -0.542837,0.21713 -0.02559,0.0256 0.03237,0.0924 0,0.10857 -0.19357,0.0968 -0.330523,0.002 -0.542841,0.10857 -0.433083,0.21654 -0.693287,0.46761 -1.194244,0.21714 -0.03237,-0.0162 -0.09238,0.0324 -0.108567,0 -0.03237,-0.0647 0.01754,-0.14692 0,-0.21714 -0.01963,-0.0785 -0.07238,-0.14476 -0.108569,-0.21714 -0.03619,-0.10856 -0.08081,-0.21468 -0.108566,-0.3257 -0.214675,-0.85869 -0.272405,-1.72131 -0.217136,-2.60562 0.07811,-1.24979 0.148479,-2.83393 0.542838,-4.01701 0.359613,-1.07884 0.935953,-2.02112 1.41138,-3.03989 0.484037,-1.03722 0.917779,-2.17894 1.302813,-3.25704 0.397463,-1.11289 0.692103,-2.28958 1.194245,-3.3656 0.260167,-0.5575 0.552016,-1.10097 0.868542,-1.62851 0.160169,-0.26695 0.396338,-0.48529 0.542838,-0.75998 0.145508,-0.27282 0.201771,-0.58526 0.325705,-0.86854 0.272529,-0.62293 0.550407,-1.24473 0.86854,-1.84565 0.497861,-0.9404 1.122129,-1.65848 1.737084,-2.49705 0.803924,-1.09627 1.306322,-2.392 2.279923,-3.36561 0.235923,-0.23592 0.532942,-0.40691 0.759973,-0.6514 0.492501,-0.53039 0.8464,-1.17534 1.302814,-1.73708 0.485171,-0.59714 0.994976,-1.17462 1.519946,-1.73709 0.989383,-1.06005 1.908384,-2.13164 2.82276,-3.25703 2.511328,-3.09086 -0.923324,1.22197 1.51995,-1.62852 0.584165,-0.68152 1.142965,-1.52462 1.628515,-2.27992 0.446956,-0.69526 0.799526,-1.4477 1.194245,-2.17135 0.327993,-0.60132 0.734422,-1.15166 1.085678,-1.73709 0.123708,-0.20618 0.1924,-0.45145 0.325702,-0.6514 0.134043,-0.20107 0.434271,-0.41607 0.434271,-0.54284"
       id="path118" />
    <path
       style="fill:none;fill-opacity:1;stroke:#000000;stroke-width:0.264583;stroke-linecap:round;stroke-linejoin:round;stroke-dasharray:none;stroke-opacity:1"
       d="m 96.516702,87.722717 c -0.108566,0.144756 -0.470461,0.325705 -0.325702,0.434271 0.144756,0.108567 0.406625,-0.596114 0.325702,-0.434271 -0.152683,0.305366 -0.379354,0.56882 -0.542838,0.868542 -0.201414,0.369255 -0.262088,0.849876 -0.434271,1.194245 -0.06919,0.138377 0.03768,0.392123 0,0.542837 -0.249639,0.998559 0.03333,1.890091 0.651407,2.714194 0.284954,0.379939 0.565251,0.486664 0.977109,0.651407 0.658005,0.263202 1.258885,0.448913 1.954218,0.217136 0.04855,-0.01619 0.06002,-0.09239 0.108569,-0.10857 0.06866,-0.02289 0.152397,0.03237 0.217135,0 0.03237,-0.01619 -0.03237,-0.09238 0,-0.108566 0.06474,-0.03237 0.149934,0.02688 0.217136,0 0.811033,-0.324416 1.325303,-1.30475 1.628513,-2.062787 0.3804,-0.950997 0.34927,-2.185665 0.10857,-3.148465 -0.0821,-0.328332 -0.49114,-0.710004 -0.65141,-0.977109 -0.0186,-0.03103 0.0256,-0.08298 0,-0.108566 -0.25213,-0.252135 -0.57567,-0.367118 -0.868537,-0.542841 -0.320247,-0.192145 -0.290219,-0.253465 -0.651407,-0.325702 -1.041712,-0.208343 -2.015136,0.582571 -2.714194,1.194245 z"
       id="path119" />
    <path
       style="fill:none;fill-opacity:1;stroke:#000000;stroke-width:0.264583;stroke-linecap:round;stroke-linejoin:round;stroke-dasharray:none;stroke-opacity:1"
       d="m 95.973864,111.71618 c -0.108569,0.14476 -0.470461,0.32571 -0.325704,0.43427 0.144759,0.10857 0.369591,-0.60981 0.325704,-0.43427 -0.336386,1.34555 -0.662852,0.58274 -0.434271,1.95422 0.486294,2.91776 3.824097,4.55985 6.514067,4.55985 0.69131,0 1.76835,-0.13985 2.27992,-0.65141 0.0572,-0.0572 0.06,-0.1524 0.10856,-0.21714 0.5774,-0.76985 0.65141,-1.05338 0.65141,-2.06278 0,-0.28952 0.0241,-0.58003 0,-0.86854 -0.1003,-1.20362 -1.05528,-2.81061 -2.17135,-3.25704 -0.1344,-0.0538 -0.29149,0.0238 -0.43427,0 -0.14719,-0.0245 -0.28709,-0.084 -0.43427,-0.10856 -0.61885,-0.10314 -1.24372,0.13114 -1.84566,0.21713 -0.248254,0.0355 -0.51171,-0.0355 -0.759969,0 -0.260813,0.0373 -0.49916,0.17988 -0.759973,0.21714 -0.95676,0.13668 -1.721853,0.21713 -2.714194,0.21713 z"
       id="path120" />
    <path
       style="fill:none;fill-opacity:1;stroke:#000000;stroke-width:0.264583;stroke-linecap:round;stroke-linejoin:round;stroke-dasharray:none;stroke-opacity:1"
       d="m 113.56183,82.511468 c 2.42483,0.726503 4.90927,1.334013 7.27404,2.27992 2.2357,0.894281 4.50867,1.920102 6.51406,3.257034 0.46187,0.307908 1.01335,0.579072 1.41139,0.977108 0.16385,0.163854 0.27041,0.378984 0.43426,0.542838 0.48856,0.488556 1.0314,0.922827 1.51995,1.41138 0.32771,0.327708 0.57903,0.723786 0.86855,1.085678 1.49833,1.872917 2.67073,3.938754 3.47416,6.188361 0.258,0.7224 0.37262,1.433711 0.54284,2.171353 0.0515,0.22302 0.16162,0.42936 0.21714,0.65141 0.32729,1.30919 0.3257,2.88505 0.3257,4.23414 0,0.42691 0.0471,0.87913 0,1.30281 -0.0846,0.76146 -0.29603,1.62815 -0.43427,2.38849 -0.12776,0.70269 -0.1819,1.49835 -0.43427,2.17135 -0.42469,1.13251 -0.99192,2.23848 -1.62852,3.25704 -0.24111,0.38578 -0.35554,0.83921 -0.6514,1.19424 -0.84546,1.01455 -1.81116,1.87119 -2.82276,2.71419 -0.4474,0.37284 -0.82867,0.85557 -1.30282,1.19425 -0.38421,0.27444 -0.81003,0.48553 -1.19424,0.75997 -0.12494,0.0892 -0.20077,0.23646 -0.32571,0.32571 -0.23741,0.16958 -0.48907,0.32591 -0.75997,0.43427 -0.0672,0.0269 -0.14993,-0.0269 -0.21714,0 -0.29627,0.11851 -1.14819,0.69417 -1.41138,0.75997 -0.92674,0.23168 -1.87085,0.65701 -2.82276,0.86854 -1.54245,0.34277 0.31451,-0.0529 -0.9771,0.10857 -0.4403,0.055 -0.86494,0.25272 -1.30282,0.3257 -0.27552,0.0459 -0.60164,0.0418 -0.86854,0.10857 -0.0496,0.0124 -0.0628,0.0857 -0.10857,0.10857 -0.17371,0.0868 -0.47769,-0.0869 -0.6514,0 -0.0458,0.0229 -0.0628,0.0857 -0.10857,0.10857 -0.18309,0.0915 -0.72938,-0.13917 -0.86854,0 -0.0256,0.0256 0.0256,0.083 0,0.10856 -0.0328,0.0328 -0.64763,0 -0.65141,0"
       id="path121" />
  </g>
</svg>
