<?xml version="1.0" encoding="UTF-8" standalone="no"?>
<!-- Created with Inkscape (http://www.inkscape.org/) -->

<svg
   width="210mm"
   height="297mm"
   viewBox="0 0 210 297"
   version="1.1"
   id="svg1"
   inkscape:version="1.4 (86a8ad7, 2024-10-11)"
   sodipodi:docname="drawing-3.svg"
   xmlns:inkscape="http://www.inkscape.org/namespaces/inkscape"
   xmlns:sodipodi="http://sodipodi.sourceforge.net/DTD/sodipodi-0.dtd"
   xmlns="http://www.w3.org/2000/svg"
   xmlns:svg="http://www.w3.org/2000/svg">
  <sodipodi:namedview
     id="namedview1"
     pagecolor="#ffffff"
     bordercolor="#000000"
     borderopacity="0.25"
     inkscape:showpageshadow="2"
     inkscape:pageopacity="0.0"
     inkscape:pagecheckerboard="0"
     inkscape:deskcolor="#d1d1d1"
     inkscape:document-units="mm"
     inkscape:zoom="2.4769088"
     inkscape:cx="257.78098"
     inkscape:cy="277.15998"
     inkscape:window-width="1920"
     inkscape:window-height="991"
     inkscape:window-x="-9"
     inkscape:window-y="-9"
     inkscape:window-maximized="1"
     inkscape:current-layer="layer1" />
  <defs
     id="defs1" />
  <g
     inkscape:label="Layer 1"
     inkscape:groupmode="layer"
     id="layer1">
    <path
       style="fill:none;fill-opacity:1;stroke:#000000;stroke-width:0.264583;stroke-linecap:round;stroke-linejoin:round;stroke-dasharray:none;stroke-opacity:1"
       d="M 26.41209,7.3054717 C 25.854716,7.412797 25.369193,7.0346196 24.838603,6.968296 c -0.297397,-0.037175 -0.602435,0.042386 -0.899135,0 -1.248097,-0.1782996 -2.580672,-0.067134 -3.821323,0.2247836 -1.221972,0.287523 -2.335836,1.0199299 -3.371756,1.6858782 -0.254073,0.1633325 -0.547336,0.265408 -0.786743,0.4495675 -0.503938,0.3876445 -0.899135,0.8991347 -1.348703,1.3487027 -0.933931,0.93393 -1.902291,1.862037 -2.697405,2.922188 -1.743234,2.324313 -3.020964,4.988399 -4.158499,7.642648 -0.8247205,1.924348 -1.4217512,3.919641 -1.9106618,5.956769 -0.9330531,3.887721 -1.2655997,8.079547 1.4610945,11.351577 0.3309263,0.397113 0.8271573,1.033971 1.2363103,1.348703 0.9283065,0.714082 2.653599,1.530184 3.821324,1.68588 0.297082,0.03961 0.600087,-0.01995 0.899135,0 0.264323,0.01762 0.522506,0.09352 0.786743,0.11239 1.17564,0.08398 0.388149,-0.02986 1.461094,-0.11239 0.261475,-0.02011 0.527545,0.03988 0.786743,0 0.50364,-0.07748 0.985494,-0.266644 1.461095,-0.449569 0.942999,-0.362691 1.739476,-1.026046 2.472621,-1.685878 0.732672,-0.659405 1.484395,-1.288981 2.023053,-2.135446 0.550749,-0.86546 0.844696,-1.808806 1.011527,-2.809796 0.07493,-0.449567 0.186934,-0.894508 0.224784,-1.348703 0.05275,-0.63301 -0.01652,-0.725564 -0.112392,-1.348703 -0.275893,-1.793303 -0.620091,-2.969466 -1.79827,-4.38328 -0.690629,-0.828757 -2.167974,-1.870732 -3.146972,-2.360231 -0.130798,-0.0654 -0.724009,-0.462645 -0.674351,-0.561959 0.124252,-0.248505 0.06975,-0.03488 0.224783,-0.112392 0.468643,-0.234322 0.814807,-0.373297 1.348703,-0.449568 0.466916,-0.0667 0.874198,-0.284453 1.348702,-0.337175 1.72097,-0.191219 3.580656,-0.486218 5.282418,0 0.676479,0.193279 1.265283,0.535086 1.685878,1.123919 0.162753,0.227852 0.345903,0.778277 0.449566,1.011526 1.206207,2.713961 1.19729,5.864703 1.461096,8.766566 0.08189,0.90074 0.20973,1.805279 0.337177,2.697406 0.09451,0.661607 0.0024,1.363453 0.11239,2.023052 0.0694,0.416425 0.141864,0.821711 0.224784,1.23631 0.02695,0.134726 -0.06421,0.433547 0,0.561959 0.104923,0.209847 0.112393,0.304851 0.112393,0.561962"
       id="path55" />
    <path
       style="fill:none;fill-opacity:1;stroke:#000000;stroke-width:0.264583;stroke-linecap:round;stroke-linejoin:round;stroke-dasharray:none;stroke-opacity:1"
       d="m 39.337154,41.697383 c -0.116125,-1.373227 0.152138,-2.789264 0,-4.158499 -0.06682,-0.601419 -0.1646,-1.19643 -0.224782,-1.798269 -0.03728,-0.37278 0.04647,-0.752174 0,-1.123919 -0.01468,-0.117557 -0.09564,-0.219895 -0.112392,-0.337177 -0.02119,-0.148349 0.01857,-0.300868 0,-0.449566 -0.240266,-1.922127 -0.767056,-3.854969 -1.236311,-5.731987 -0.46663,-1.866517 -0.858866,-3.50258 -1.573488,-5.170024"
       id="path56" />
    <path
       style="fill:none;fill-opacity:1;stroke:#000000;stroke-width:0.264583;stroke-linecap:round;stroke-linejoin:round;stroke-dasharray:none;stroke-opacity:1"
       d="m 39.224762,19.106618 c -0.850157,-0.0527 -1.683671,-0.179386 -2.472621,-0.337176 -0.162722,-0.03254 -0.399238,-0.192239 -0.56196,-0.224783 -0.146944,-0.02939 -0.3074,0.04739 -0.449566,0 -0.818642,-0.272881 -2.341499,-0.824211 -2.585014,-1.79827 -0.496705,-1.986823 2.011442,-3.414948 3.48415,-4.046108 0.553699,-0.237299 1.115118,-0.242049 1.685877,-0.337175 0.08263,-0.01377 0.142637,-0.09596 0.224782,-0.112392 0.446694,-0.08934 1.387235,0.08777 1.798273,0.224784 0.100525,0.03351 0.130005,0.177395 0.224782,0.224783 0.211021,0.105511 0.476136,0.238068 0.674351,0.337176 0.172138,0.08607 0.08789,0.200284 0.224785,0.337176 0.272976,0.272977 0.165039,-0.03342 0.337174,0.224783 0.138023,0.207035 0.233051,0.466102 0.337177,0.674352 0.03351,0.06702 -0.03351,0.157766 0,0.224783 0.100997,0.201994 0.36153,0.62564 0.224782,0.899135 -0.05483,0.109664 -0.401087,0.738264 -0.449566,0.786743 -0.02649,0.02649 -0.0859,-0.02649 -0.112393,0 -0.06514,0.06514 -0.159641,0.384426 -0.224782,0.449568 -0.02649,0.02649 -0.0859,-0.02649 -0.112392,0 -0.06514,0.06514 -0.159642,0.384425 -0.224785,0.449567 -0.0061,0.0061 -0.331086,0.218694 -0.337174,0.224784 -0.03747,0.03746 -0.07493,0.299712 -0.112393,0.337176 -0.02649,0.02649 -0.0859,-0.02649 -0.112392,0 -0.02649,0.02649 0.02649,0.0859 0,0.112392 -0.02649,0.02649 -0.0859,-0.02649 -0.112392,0 -0.02649,0.02649 0.02649,0.0859 0,0.112391 -0.02649,0.02649 -0.0859,-0.02649 -0.112393,0 -0.02649,0.02649 0.02649,0.0859 0,0.112392 -0.02649,0.02649 -0.0859,-0.02649 -0.112389,0 -0.02649,0.02649 0.02649,0.0859 0,0.112392 -0.02649,0.02649 -0.0859,-0.02649 -0.112393,0 -0.02649,0.02649 0.02649,0.0859 0,0.112392 -0.02649,0.02649 -0.0859,-0.02649 -0.112392,0 -0.02649,0.02649 0.02649,0.0859 0,0.112392 -0.02649,0.02649 -0.0859,-0.02649 -0.112392,0 -0.02649,0.02649 0,0.07493 0,0.112392 -0.262247,0.224783 -0.524495,0.449567 -0.786744,0.674351 z"
       id="path57" />
    <path
       style="fill:none;fill-opacity:1;stroke:#000000;stroke-width:0.264583;stroke-linecap:round;stroke-linejoin:round;stroke-dasharray:none;stroke-opacity:1"
       d="m 43.608045,21.579239 c 0.377799,1.749931 0.939885,3.48042 1.573488,5.170027 0.253105,0.67495 0.595074,1.320266 0.786741,2.023052 0.213611,0.783241 0.41629,1.586042 0.674351,2.360231 0.127598,0.382792 0.333624,0.737436 0.44957,1.123919 0.05489,0.182972 0.05198,0.380732 0.112389,0.561959 0.194879,0.584628 0.570844,1.110141 0.786744,1.685877 0.05424,0.144632 0.05154,0.307589 0.112393,0.449567 0.259471,0.605433 0.650933,1.257382 1.011525,1.79827 0.115494,0.173238 0.214437,0.664003 0.337178,0.786743 0.02649,0.02649 0.0859,-0.02649 0.112392,0 0.104981,0.104984 0.119801,0.456978 0.224782,0.56196 0.02649,0.02649 0.0859,-0.02649 0.112392,0 0.05298,0.05298 -0.05298,0.171801 0,0.224784 0.02649,0.02649 0.0859,-0.02649 0.112393,0 0.05298,0.05298 -0.05298,0.171802 0,0.224782 0.04499,0.04499 0.142827,0.06087 0.224784,0.224785 0.29971,0.599424 -0.337177,-0.337174 0.11239,0.112392 0,0.03746 0,0.07493 0,0.112393 0,0.03746 -0.02649,0.0859 0,0.112392 0.02649,0.02649 0.0859,-0.02649 0.112392,0 0.05298,0.05298 -0.05298,0.171799 0,0.224782 0.02649,0.02649 0.0859,-0.02649 0.112393,0 0.05298,0.05298 -0.05298,0.171802 0,0.224785 0.02649,0.02649 0.0859,-0.02649 0.112392,0 0.09366,0.09366 0.01873,0.355907 0.112392,0.449567 0.02649,0.02649 0.0859,-0.02649 0.11239,0 0.09366,0.09366 0.01873,0.355907 0.112393,0.449566 0.02649,0.02649 0.0859,-0.02649 0.112392,0 0.05298,0.05298 -0.05298,0.171802 0,0.224785 0.02649,0.02649 0.0859,-0.02649 0.112392,0 0.02649,0.02649 -0.03746,0.112392 0,0.112392 0.210987,0 0.197311,-0.367146 0.224785,-0.449566 0.05298,-0.158949 0.165955,-0.292693 0.224782,-0.44957 0.289973,-0.77326 0.525007,-1.575019 0.786744,-2.360229 0.33428,-1.002842 0.565933,-2.034973 0.899133,-3.03458 0.248045,-0.744127 0.580684,-1.492284 0.786744,-2.247836 0.08492,-0.311365 0.117057,-0.91313 0.224785,-1.236311 0.05298,-0.158946 0.171802,-0.290621 0.224782,-0.449569 0.120819,-0.362453 0.103968,-0.761466 0.224785,-1.123919 0.05298,-0.158945 0.171802,-0.290621 0.224784,-0.449566 0.163587,-0.490763 0.224822,-1.067901 0.337175,-1.573485 0.209616,-0.943274 0.405249,-1.869533 0.561959,-2.809798 0.03853,-0.231188 0.112392,-0.55646 0.112392,-0.786743 0,-0.169364 -0.08046,-0.625817 0,-0.786744 0.116301,-0.232601 0.112393,-0.390256 0.112393,-0.674351"
       id="path58" />
    <path
       style="fill:none;fill-opacity:1;stroke:#000000;stroke-width:0.264583;stroke-linecap:round;stroke-linejoin:round;stroke-dasharray:none;stroke-opacity:1"
       d="m 59.904867,26.074914 c 1.429388,0.532533 3.01403,0.436447 4.495676,0.224784 0.11126,-0.01589 0.23055,0.03554 0.337174,0 0.128146,-0.04272 0.213019,-0.171574 0.337175,-0.224784 0.373996,-0.160284 0.75529,-0.265253 1.123921,-0.449568 1.128887,-0.564444 -0.454539,0.114877 0.674351,-0.449567 0.315349,-0.157675 0.752605,-0.303037 1.011526,-0.561959 0.02649,-0.02649 -0.02649,-0.0859 0,-0.112392 0.0458,-0.04581 0.613712,-0.53164 0.674351,-0.56196 0.03351,-0.01675 0.09564,0.03351 0.112393,0 0.03351,-0.06702 -0.02371,-0.1537 0,-0.224783 0.01675,-0.05026 0.07493,-0.07493 0.11239,-0.112392 0.03746,-0.07493 0.09208,-0.143513 0.112392,-0.224784 0.03604,-0.14414 0.05071,-0.634613 0,-0.786743 -0.05211,-0.156343 -0.328713,-0.665889 -0.449567,-0.786743 -0.05923,-0.05924 -0.165547,-0.05316 -0.224785,-0.112392 -0.05923,-0.05924 -0.05315,-0.165548 -0.112389,-0.224784 -0.42164,-0.421639 -0.207206,-0.07111 -0.561962,-0.337175 -0.08477,-0.06358 -0.140012,-0.161206 -0.224782,-0.224784 -0.365085,-0.273814 -1.791737,-0.428396 -2.247839,-0.337176 -1.414452,0.282891 -2.694117,1.39997 -3.484147,2.585013 -0.329806,0.494709 -0.690087,1.128416 -0.899134,1.685878 -0.05424,0.144633 -0.02946,0.319249 -0.112392,0.449568 -0.185439,0.291401 -0.590579,0.451655 -0.674352,0.786743 -0.08377,0.335088 0.196099,0.66732 0.224782,1.011527 0.0098,0.118062 -0.09291,0.220315 -0.112389,0.337177 -0.0532,0.319217 -0.0532,0.804698 0,1.123918 0.150056,0.900343 0.368451,1.973215 0.786741,2.809795 0.20492,0.40984 0.50124,0.879433 0.786744,1.236311 0.444889,0.556112 -0.0222,-0.134596 0.561959,0.449567 0.09551,0.09551 0.12927,0.241662 0.224785,0.337177 0.254187,0.254188 0.644945,0.420161 0.899133,0.674351 0.09551,0.09551 0.12927,0.24166 0.224785,0.337175 0.858975,0.858975 3.937143,1.959319 5.170027,2.135447 0.554426,0.0792 1.528524,0.01349 2.023052,0.112392 0.412416,0.08248 0.02416,0.219953 0.561959,0.11239 0.08214,-0.01643 0.143515,-0.09207 0.224784,-0.11239 0.276911,-0.06923 0.62924,0.08996 0.899137,0 0.266549,-0.08885 0.516347,-0.157186 0.786741,-0.224785 0.145383,-0.03635 0.304186,0.03635 0.449569,0 0.210918,-0.05273 0.387718,-0.137663 0.561959,-0.224785 0.08529,-0.04264 0.887452,-0.100708 0.899134,-0.112392 0.02649,-0.02649 -0.02649,-0.0859 0,-0.11239 0.07493,-0.07493 0.374639,0.07493 0.449569,0 0.02649,-0.02649 -0.02649,-0.0859 0,-0.112392 0.135078,-0.135078 0.376632,-0.06606 0.561959,-0.112392"
       id="path59" />
    <path
       style="fill:none;fill-opacity:1;stroke:#000000;stroke-width:0.264583;stroke-linecap:round;stroke-linejoin:round;stroke-dasharray:none;stroke-opacity:1"
       d="m 83.507161,19.443794 c 0.11239,0.149855 0.18732,0.561959 0.337174,0.449567 0.149855,-0.112392 -0.449566,-0.599423 -0.337174,-0.449567 0.224782,0.299711 0.440314,0.60659 0.674349,0.899135 0.16256,0.203198 0.477657,0.42144 0.561961,0.674351 0.02368,0.07108 -0.04156,0.16244 0,0.224784 0.04647,0.0697 0.165548,0.05316 0.224783,0.112391 0.02649,0.02649 -0.01675,0.07888 0,0.112392 0.172955,0.345909 0.389006,0.665618 0.561959,1.011527 0.175789,0.351578 0.161388,0.772341 0.337177,1.123919 0.456266,0.912534 0.02529,-0.304843 0.337174,0.786743 0.03255,0.113913 0.07493,0.224784 0.112392,0.337176 0.03746,0.224783 0.05712,0.45327 0.112393,0.674351 0.159885,0.639546 0.491,1.268939 0.674351,1.910662 0.140526,0.491845 0.178845,0.986102 0.337175,1.461093 0.08006,0.240181 0.189502,0.539774 0.224784,0.786744 0.02119,0.148349 -0.04739,0.307401 0,0.449567 0.06342,0.190251 0.176255,0.36785 0.224782,0.561959 0.04212,0.168478 -0.05486,0.397361 0,0.561961 0.01675,0.05026 0.09564,0.06213 0.112393,0.11239 0.07206,0.216191 0.07493,0.44957 0.112392,0.674352 0.06702,0.402097 0.0531,0.780557 0.224785,1.123918 0.07095,0.141899 -0.107897,0.566457 0,0.674351 0.02649,0.02649 0.0859,-0.02649 0.112392,0 0.05298,0.05298 0,0.149858 0,0.224785 0,0.156033 -0.01185,1.449229 0,1.461095 0.104677,0.104677 0.11239,-0.0088 0.11239,0.224782 0,0.08801 -0.05608,0.505878 0,0.561959 0.144216,0.144217 0.221178,-0.765098 0.224785,-0.786741 0.105682,-0.634092 0.343503,-1.274281 0.449566,-1.910662 0.0619,-0.371385 0.05654,-0.751578 0.112393,-1.123918 0.209825,-1.398836 0.603176,-2.777355 0.899136,-4.158501 0.196982,-0.91925 0.263652,-1.914879 0.561959,-2.809796 0.05298,-0.158946 0.171802,-0.290622 0.224782,-0.449568 0.191765,-0.575293 0.208129,-1.234914 0.44957,-1.79827 0.05321,-0.124156 0.174617,-0.211758 0.224782,-0.337175 0.02783,-0.06957 -0.03351,-0.157767 0,-0.224784 0.04739,-0.09478 0.170267,-0.13392 0.224784,-0.224784 0.54754,-0.912567 -0.02146,-0.04799 0.112393,-0.449567 0.07807,-0.234201 0.909846,-1.236311 1.123918,-1.236311 0.573561,0 0.849304,0.830757 1.011526,1.236311 0.503719,1.259299 0.719894,2.508978 1.011528,3.821323 0.156364,0.703638 0.360035,1.419193 0.449567,2.135446 0.01876,0.149958 0.402087,1.975575 0.449567,2.023055 0.02649,0.02649 0.0859,-0.02649 0.112392,0 0.05298,0.05298 -0.03351,0.157766 0,0.224782 0.06546,0.130924 0.159322,0.206253 0.224785,0.337177 0.01675,0.03351 -0.02649,0.0859 0,0.11239 0.323437,0.32344 1.038064,-0.649375 1.123918,-0.786742 0.106926,-0.171084 0.141298,-0.378293 0.224782,-0.561959 0.284398,-0.625673 0.570355,-1.261496 0.786744,-1.910662 0.176631,-0.529891 0.164912,-1.034631 0.224785,-1.573487 0.05395,-0.485561 0.170595,-0.973414 0.224782,-1.461094 0.215926,-1.943323 0.01384,1.182526 0.224784,-1.348702 0.04004,-0.480499 -0.07801,-3.068965 0.224785,-3.371756 0.200462,-0.200463 0.879454,1.20089 0.899134,1.23631 0.5567,1.002066 0.90886,2.055462 1.23631,3.146972 0.17323,0.577427 0.50112,1.108452 0.67435,1.685878 0.0549,0.182973 0.0575,0.378987 0.11239,0.56196 0.28253,0.941762 0.58809,1.876662 0.89914,2.809797 0.19398,0.581937 0.28053,1.206635 0.44957,1.798269 0.22327,0.781471 -0.0225,-0.172333 0.33717,0.786744 0.17607,0.469517 0.24112,0.980819 0.33718,1.461093 0.13855,0.692764 0.50175,1.340691 0.78674,1.910662 0.0544,0.108828 0.0653,0.627282 0.11239,0.674351 0.0265,0.02649 0.0859,-0.02649 0.11239,0 0.0163,0.0163 0.1124,0.420193 0.1124,0.449567 0,0.299712 -0.0375,-0.03746 0.11239,0.112392 0,0.03746 0,0.07493 0,0.112393 0,0.03746 -0.0265,0.0859 0,0.112392 0.0265,0.02649 0.0859,-0.02649 0.11239,0 0.0265,0.02649 -0.0265,0.138883 0,0.112393 0.21464,-0.214638 0.35322,-0.578001 0.56196,-0.786744 0.0592,-0.05924 0.16555,-0.05315 0.22478,-0.112393 0.11848,-0.118469 0.13185,-0.310163 0.22479,-0.449566 0.10308,-0.154618 0.17339,-0.115594 0.33717,-0.224785 0.15515,-0.103431 0.094,-0.20642 0.22479,-0.337175 0.57299,-0.572992 1.2559,-1.035036 1.79827,-1.685877 0.39152,-0.469831 0.8463,-0.880695 1.23631,-1.348703 0.0865,-0.103769 0.12927,-0.241662 0.22478,-0.337177 0.24114,-0.241138 0.43321,-0.208428 0.67435,-0.449567 0.38787,-0.387868 0.69013,-0.874821 1.12392,-1.23631 0.96225,-0.801876 2.34498,-2.000187 3.03458,-3.034581 0.26498,-0.397466 0.3542,-0.820797 0.56196,-1.23631 0.1264,-0.252793 0.39016,-0.602093 0.44957,-0.899135 0.0294,-0.146946 -0.0474,-0.307402 0,-0.449568 0.12652,-0.379561 0.11239,-0.714678 0.11239,-1.123918 0,-0.262248 0.0514,-0.529588 0,-0.786743 -0.0164,-0.08215 -0.096,-0.142639 -0.11239,-0.224784 -0.022,-0.11021 0.0355,-0.230552 0,-0.337176 -0.0119,-0.03554 -0.0859,0.02649 -0.11239,0 -0.0369,-0.03687 -0.18285,-0.365694 -0.22479,-0.449567 -0.0629,-0.125872 -0.053,-0.330748 -0.11239,-0.449568 -0.0168,-0.03351 -0.0859,0.02649 -0.11239,0 -0.0207,-0.02071 -0.0917,-0.316466 -0.11239,-0.337175 -0.0592,-0.05924 -0.16555,-0.05316 -0.22479,-0.112392 -0.0265,-0.02649 0.0168,-0.07888 0,-0.112392 -0.12982,-0.259639 -0.75291,-0.518857 -1.01152,-0.561959 -1.28837,-0.214728 -2.03148,0.748525 -2.92219,1.461094 -0.56303,0.450421 -1.24361,0.983794 -1.68588,1.573486 -0.0503,0.06702 -0.0749,0.149856 -0.11239,0.224784 -0.11239,0.149856 -0.21726,0.305664 -0.33718,0.449567 -0.0678,0.0814 -0.17026,0.133921 -0.22478,0.224784 -0.12191,0.203177 -0.14986,0.449568 -0.22479,0.674351 -0.10657,0.319706 -0.28185,0.679593 -0.33717,1.011527 -0.059,0.353967 0,0.764249 0,1.123919 0,0.433344 -0.0612,0.920309 0,1.348701 0.1091,0.763725 0.33477,1.456296 0.67435,2.135447 0.15735,0.314698 0.17983,0.696831 0.33718,1.011526 0.0775,0.155006 0.23962,0.303231 0.33717,0.449569 0.24631,0.369465 0.40855,0.76952 0.67435,1.123919 0.67501,0.900006 2.01144,1.838576 3.03458,2.247836 0.21488,0.08595 0.36779,0.27245 0.56196,0.337175 0.0711,0.02371 0.1537,-0.02371 0.22479,0 0.0503,0.01675 0.0621,0.09564 0.11239,0.112392 0.0711,0.02371 0.15209,-0.01818 0.22478,0 0.19411,0.04853 0.37171,0.161367 0.56196,0.224785 0.20274,0.06758 0.46623,-0.05203 0.67435,0 0.44947,0.112365 2.05476,0.251679 2.47262,0.112392 0.0356,-0.01185 -0.0335,-0.09564 0,-0.112392 0.23047,-0.115234 0.64622,0.06323 0.89914,0 0.37293,-0.09323 0.75104,-0.131564 1.12392,-0.224785 0.24682,-0.0617 0.53992,0.06171 0.78674,0 0.0813,-0.02032 0.14531,-0.0859 0.22478,-0.112392 0.19552,-0.06517 0.49211,0.09112 0.67436,0 0.0474,-0.02371 0.0621,-0.09564 0.11239,-0.11239 0.10793,-0.03598 0.34169,0.05393 0.44957,0 0.27776,-0.138883 -0.0388,-0.112393 0.22478,-0.112393"
       id="path60" />
    <path
       style="fill:none;fill-opacity:1;stroke:#000000;stroke-width:0.264583;stroke-linecap:round;stroke-linejoin:round;stroke-dasharray:none;stroke-opacity:1"
       d="m 6.2337288,54.221678 c -0.2541196,0.743614 -0.140276,1.47506 -0.2352352,2.234732 -0.024797,0.198369 -0.1176174,0.388178 -0.1176174,0.588089 0,0.16165 0.099766,0.309809 0.1176174,0.470469 0.1188849,1.069965 0.056304,2.693998 0,3.763762 -0.056226,1.068297 -0.1176174,2.103223 -0.1176174,3.175672 0,1.842674 0,3.685349 0,5.528024 0,0.76636 0.01029,1.483434 0.1176174,2.234734 0.038812,0.271682 -0.03404,0.551 0,0.823322 -0.019688,0.299141 0.1948703,0.540769 0.2352352,0.823323 0.022177,0.155247 -0.022177,0.315222 0,0.470469 -0.050321,0.241046 0.2005253,0.37983 0.2352349,0.588089 0.025781,0.154689 -0.022177,0.315222 0,0.470469 0.1340877,0.938612 0.3528526,1.865056 0.3528526,2.822821 0,0.275833 -0.027723,-0.05545 0.1176176,0.235236 0.028071,0.05614 -0.046675,0.869997 0.1176173,0.705704 0.2501345,-0.250134 0.6197328,-2.788798 0.7057054,-3.175674 0.088794,-0.399574 0.2535775,-0.779074 0.3528526,-1.176174 0.1939425,-0.775771 0.2852558,-1.57445 0.4704699,-2.352352 1.0863834,-4.562808 -0.2048999,1.474748 0.4704702,-2.352349 0.1681377,-0.952781 0.5375674,-1.870041 0.7057051,-2.822821 0.061698,-0.349621 0.05592,-0.708936 0.1176176,-1.058559 0.1123693,-0.636759 0.351309,-1.246354 0.47047,-1.881878 0.175496,-0.935979 0.283764,-1.889291 0.47047,-2.822821 0.361972,-1.809861 0.935398,-3.62536 1.41141,-5.410406 0.07354,-0.275786 0.144977,-0.552548 0.235236,-0.823322 0.337026,-1.011082 1.305253,-3.94592 2.35235,-4.469466 0.112772,-0.05639 0.340078,0 0.47047,0 0.117617,0 0.251996,-0.06052 0.352853,0 0.703282,0.421968 1.353502,3.510383 1.41141,4.23423 0.04377,0.547134 -0.02109,1.098169 0,1.646645 0.01815,0.471752 0.117617,0.93931 0.117617,1.411412 0,0.43304 -0.09795,0.861194 -0.117617,1.293791 -0.06047,1.330251 0.06047,2.668746 0,3.998997 -0.01966,0.432594 -0.09702,0.86124 -0.117618,1.293791 -0.03912,0.82146 0.03912,1.648508 0,2.469968 -0.06107,1.282435 -0.225046,2.592228 -0.117617,3.881379 0.140684,1.688211 0.117617,-0.191222 0.117617,0.94094 0,0.318231 0.107033,1.304378 0.588088,0.823323 0.492266,-0.492265 0.761285,-3.280376 0.94094,-3.998997 0.06014,-0.240554 0.179479,-0.464095 0.235235,-0.705705 0.204112,-0.884484 0.175137,-1.816624 0.352853,-2.705203 0.05598,-0.279879 0.179259,-0.543441 0.235235,-0.823323 0.171956,-0.859782 0.286483,-1.72898 0.47047,-2.587585 0.119609,-0.558173 0.34211,-1.090417 0.47047,-1.646645 0.202451,-0.877287 0.47372,-2.47755 0.823323,-3.29329 0.05568,-0.129929 0.179551,-0.222924 0.235235,-0.352853 0.260763,-0.608449 1.173093,-3.246861 2.117115,-3.058054 1.737431,0.347485 2.069613,2.83071 2.234733,4.23423 0.229175,1.947992 0.494781,3.921448 0.588087,5.880875 0.171901,3.609914 0.154803,7.239944 0.705707,10.820813 0.24571,1.597125 1.135205,3.98622 3.175672,3.646143 2.098577,-0.349763 2.706973,-1.845035 3.881379,-3.410908 0.57327,-0.764362 1.09714,-1.488575 1.529027,-2.352352 0.45571,-0.911421 0.709237,-1.838076 0.94094,-2.822818 0.148096,-0.629412 0.351309,-1.246357 0.470469,-1.881881 0.399674,-2.131589 0.470472,-4.309898 0.470472,-6.468964 0,-1.224063 -0.03222,-4.06586 -1.646645,-4.469466 -0.332044,-0.08301 -0.925148,-0.0158 -1.176176,0.235235 -0.722318,0.722318 -0.766795,3.094554 -0.823323,3.998995 -0.07811,1.249762 0.03982,0.63704 0.117618,1.88188 0.07619,1.219055 0.126167,2.43716 0.352851,3.646144 0.429694,2.291702 2.001864,5.242354 3.881379,6.704198 0.627817,0.488301 1.273421,0.78628 1.999499,1.058558 0.47421,0.177829 0.89341,0.40572 1.411409,0.470471 1.276861,0.159608 2.181537,-0.348461 3.175675,-1.058558 0.369265,-0.263763 0.790019,-0.564989 1.058555,-0.94094 0.671367,-0.939914 1.132086,-2.631811 1.293794,-3.763762 0.216472,-1.515297 0.337471,-3.053537 0.235236,-4.587083 -0.12882,-1.9323 -1.253413,-5.021932 -2.234734,-6.704198 -1.042273,-1.786755 -3.387045,-4.191307 -5.292789,-5.057553 -0.577262,-0.262392 -1.276747,-0.503994 -1.88188,-0.705707 -0.992847,-0.330949 -3.55785,-0.490125 -4.469466,0.117618 -1.361589,0.907727 -2.241228,3.368685 -1.999496,4.939937 0.0434,0.282104 0.171053,0.545209 0.235233,0.823323 0.05363,0.232373 0.03612,0.481584 0.117618,0.705704 0.07813,0.214845 0.241831,0.38825 0.352853,0.588087 1.209696,2.177455 3.487587,2.940439 5.880875,2.940439 2.713945,0 5.547643,-0.539089 7.997992,-1.764263 1.070898,-0.535448 2.064353,-1.219411 3.058057,-1.88188 0.235233,-0.156824 0.470469,-0.313648 0.705704,-0.470469 0.235236,-0.117618 0.483823,-0.211656 0.705705,-0.352854 0.878739,-0.559197 1.946616,-1.789337 2.469967,-2.705203 0.339553,-0.594217 0.822817,-2.001015 0.58809,-2.705203 -0.01754,-0.0526 -0.100084,-0.06502 -0.117618,-0.117618 -0.02479,-0.07439 0.01902,-0.159163 0,-0.235233 -0.04333,-0.173334 -0.404067,-0.644366 -0.58809,-0.705707 -0.07439,-0.02479 -0.160845,0.02479 -0.235233,0 -0.0526,-0.01754 -0.06502,-0.100084 -0.117618,-0.117618 -0.05189,-0.0173 -0.536196,-0.0173 -0.588086,0 -0.0526,0.01754 -0.06502,0.100086 -0.117618,0.117618 -0.07662,0.02553 -0.522229,-0.06586 -0.588089,0 -0.02772,0.02772 0.02772,0.08989 0,0.117617 -0.02772,0.02772 -0.08989,-0.02772 -0.117618,0 -0.256972,0.256972 0.577318,0.232543 0.588089,0.235236 0.337188,0.0843 0.573019,0.117618 0.94094,0.117618 0.779103,0 1.481305,-0.127603 2.234732,-0.235236 0.271682,-0.03881 0.55164,0.03881 0.823322,0 0.751301,-0.107328 1.468372,-0.117618 2.234735,-0.117618 0.457046,0 1.21417,-0.144158 1.646645,0 1.544097,0.5147 0.988491,2.407386 0.823322,3.646144 -0.55735,4.180125 -1.784157,8.329205 -1.176176,12.585075 0.192233,1.345618 0.393951,3.036803 1.293794,4.116613 0.364816,0.437779 0.369044,0.316322 0.823323,0.705704 0.709546,0.608185 1.614797,1.20536 2.587585,1.293794 1.479359,0.134488 3.737649,-0.609886 4.939935,-1.411409 0.591105,-0.39407 0.891346,-0.813734 1.411411,-1.293794 0.821463,-0.758275 1.705759,-1.411737 2.469968,-2.234732 0.813678,-0.876268 1.421233,-1.85929 2.117116,-2.822821 0.253812,-0.351435 1.265714,-1.592558 1.529027,-1.999498 0.879655,-1.359466 1.418895,-2.858865 1.999499,-4.351848 0.139951,-0.359879 0.341955,-0.694439 0.470469,-1.058558 0.307215,-0.870443 0.535543,-1.915282 0.705704,-2.822822 0.276228,-1.473205 0.323451,-3.322693 -0.823322,-4.469465 -0.282541,-0.282541 -0.37089,-0.20936 -0.705705,-0.352851 -0.473681,-0.203007 -0.43071,-0.289076 -0.94094,-0.352854 -0.681326,-0.08517 -1.341673,0.08905 -1.999499,0.235236 -0.484753,0.107722 -1.510765,0.498596 -1.881878,0.823322 -0.922813,0.807461 -1.668118,2.368693 -1.999498,3.528526 -0.437994,1.532977 -0.29065,3.38265 -0.117618,4.939935 0.332798,2.995175 1.276564,5.656135 2.822821,8.233227 0.42191,0.703186 0.517096,1.006737 1.058558,1.646645 0.441063,0.521258 0.893022,0.861803 1.411409,1.293794 0.643107,0.535921 1.272644,1.105027 1.999499,1.529027 1.624192,0.947446 3.779078,1.577607 5.645639,1.764263 1.147289,0.114728 2.399247,0.0079 3.528526,-0.117618 0.441328,-0.04903 0.860912,-0.291013 1.293794,-0.352851 0.155247,-0.02217 0.315222,0.02217 0.470469,0 0.412461,-0.05892 0.778811,-0.371131 1.176176,-0.470472 0.150318,-0.03758 0.951619,-0.181763 1.058558,-0.235235 0.123404,-0.0617 0.415629,-0.235234 0.470469,-0.235234"
       id="path61" />
    <path
       style="fill:none;fill-opacity:1;stroke:#000000;stroke-width:0.264583;stroke-linecap:round;stroke-linejoin:round;stroke-dasharray:none;stroke-opacity:1"
       d="m 6.8364782,86.951456 c 0.1111789,0.821092 0.2452319,1.629352 0.3204599,2.45686 0.067289,0.740178 0.1641578,1.500987 0.2136399,2.24322 0.085754,1.286306 -0.1160809,0.413493 0.10682,1.602298 0.4480298,2.389492 0.9886643,4.756965 1.3886595,7.156936 0.3290657,1.9744 0.2928932,4.00977 0.64092,5.98192 0.2084544,1.18124 0.5265605,2.34544 0.7477395,3.52506 0.166307,0.88697 0.27061,1.7827 0.42728,2.6705 0.215528,1.22132 0.243447,0.47691 0.32046,1.70912 0.01777,0.2843 -0.01777,0.57026 0,0.85456 0.17414,2.78624 0.03457,-0.90471 0.21364,1.6023 0.101835,1.42569 0.144072,2.86169 0.32046,4.2728 0.07009,0.56075 -0.158895,1.65971 0,2.1364 0.03632,0.10895 0.21364,0.52792 0.21364,0.53409"
       id="path65" />
    <path
       style="fill:none;fill-opacity:1;stroke:#000000;stroke-width:0.264583;stroke-linecap:round;stroke-linejoin:round;stroke-dasharray:none;stroke-opacity:1"
       d="m 7.6910379,86.951456 c 0.8930989,-0.940403 1.9922008,-1.50464 3.0977791,-2.136399 0.222933,-0.127391 0.414847,-0.305549 0.64092,-0.427281 0.676595,-0.36432 1.613344,-0.670385 2.350039,-0.854559 0.24426,-0.06107 0.501552,-0.05406 0.74774,-0.10682 0.967721,-0.207367 0.512599,-0.250254 1.49548,-0.320461 1.977485,-0.141248 4.131149,0.558099 5.981918,1.17502 0.64092,0.21364 1.305399,0.366538 1.922759,0.640921 1.332818,0.592363 2.585818,1.468422 3.7387,2.35004 2.474174,1.892014 4.709512,3.956801 6.516018,6.516018 1.088337,1.541812 0.221565,0.362559 1.17502,1.922759 0.200834,0.328636 0.461539,0.620559 0.640918,0.961379 0.357225,0.678725 0.556925,1.429515 0.85456,2.1364 0.547465,1.300227 1.07107,2.654017 1.28184,4.059157 0.151484,1.00989 0.208597,2.18683 0.10682,3.2046 -0.07226,0.72263 -0.284853,1.42427 -0.427278,2.1364 -0.932569,4.66284 -3.538829,8.72661 -7.37058,11.53656 -2.59561,1.90344 -4.888003,3.08859 -7.904677,4.16598 -0.616579,0.2202 -0.771301,0.39163 -1.38866,0.5341 -0.245329,0.0566 -0.50241,0.0502 -0.74774,0.10682 -0.219429,0.0506 -0.422447,0.15902 -0.640919,0.21364 -0.835251,0.20881 -2.022854,0.32046 -2.88414,0.32046 -0.378094,0 -0.802099,0.0533 -1.175019,0 -0.299433,-0.0428 -1.424043,-0.39157 -1.70912,-0.5341 -0.09008,-0.045 -0.123561,-0.1686 -0.21364,-0.21364 -0.134487,-0.0673 -0.42728,-0.0632 -0.42728,-0.21364"
       id="path66" />
    <path
       style="fill:none;fill-opacity:1;stroke:#000000;stroke-width:0.264583;stroke-linecap:round;stroke-linejoin:round;stroke-dasharray:none;stroke-opacity:1"
       d="m 52.021327,84.280956 c -0.681482,-0.102015 -1.036855,0.03774 -1.602301,0.320461 -0.100711,0.05035 -0.226772,0.04436 -0.320461,0.10682 -0.125693,0.0838 -0.206769,0.220983 -0.320458,0.320461 -2.120492,1.85543 -2.882574,3.654864 -3.95234,6.195557 -0.725792,1.72376 -1.116582,3.509666 -1.495478,5.340998 -0.737693,3.565517 -0.92542,7.070487 -0.427281,10.681997 0.212466,1.54038 0.369699,3.0811 0.747739,4.59326 0.473911,1.89564 1.234075,3.71836 2.136399,5.44782 0.599805,1.14962 1.27282,2.43951 2.136399,3.41824 0.250428,0.28381 0.569709,0.49849 0.854562,0.74774 0.284853,0.24924 0.545333,0.52946 0.854559,0.74774 1.728883,1.22038 4.112019,1.72698 6.195558,1.49547 0.286678,-0.0318 1.502746,-0.35358 1.815941,-0.42727 0.930555,-0.21896 1.951244,-0.44509 2.777318,-0.96138 0.679188,-0.4245 1.639591,-1.36557 2.243219,-1.92276 0.241221,-0.22267 0.525077,-0.3997 0.747739,-0.64092 0.207759,-0.22507 0.336249,-0.51392 0.534101,-0.74774 0.849212,-1.00362 0.513292,-0.24555 1.17502,-1.49548 1.703718,-3.21814 1.869287,-7.15732 1.28184,-10.682 -0.166502,-0.99901 -0.551291,-1.92378 -0.854561,-2.88414 -0.741011,-2.34653 -2.0231,-4.700362 -3.418237,-6.729656 -0.391673,-0.569708 -0.766178,-1.151606 -1.17502,-1.709121 -0.579948,-0.790836 -1.316733,-1.471911 -1.922761,-2.243219 -0.850279,-1.082172 -1.808679,-2.217857 -2.884139,-3.097779 -0.198723,-0.162591 -0.44042,-0.26688 -0.640918,-0.427281 -0.157285,-0.125825 -0.276736,-0.293462 -0.427281,-0.427278 -0.815827,-0.72518 -1.685023,-1.364562 -2.45686,-2.136399 -0.125889,-0.125889 -0.30139,-0.194572 -0.427279,-0.320461 -0.0563,-0.0563 -0.05052,-0.15734 -0.10682,-0.21364 -0.0563,-0.0563 -0.157342,-0.05052 -0.21364,-0.10682 -0.109964,-0.109964 -0.103677,-0.210495 -0.213641,-0.320459 -0.0563,-0.0563 -0.157339,-0.05052 -0.21364,-0.10682 -0.01736,-0.01736 -0.213641,-0.655082 -0.213641,-0.21364 0,0.03561 0.07122,0 0.106821,0"
       id="path67" />
    <path
       style="fill:none;fill-opacity:1;stroke:#000000;stroke-width:0.264583;stroke-linecap:round;stroke-linejoin:round;stroke-dasharray:none;stroke-opacity:1"
       d="m 71.996662,83.426397 c 0.01915,2.242825 0.02979,4.501187 0.320458,6.729658 0.204393,1.567 0.493186,3.124235 0.640921,4.70008 0.05328,0.568325 0.05183,1.140955 0.10682,1.709118 0.152223,1.572974 0.478383,3.128896 0.640919,4.700077 0.05508,0.53245 0.05174,1.06986 0.10682,1.6023 0.196263,1.89722 0.618154,3.77023 0.854559,5.66146 0.203126,1.625 0.32538,3.28329 0.427281,4.91372 0.07288,1.16606 -0.116221,2.36285 0,3.52506 0.134753,1.34752 0.10682,-0.176 0.10682,0.96138"
       id="path68" />
    <path
       style="fill:none;fill-opacity:1;stroke:#000000;stroke-width:0.264583;stroke-linecap:round;stroke-linejoin:round;stroke-dasharray:none;stroke-opacity:1"
       d="m 71.676201,84.387776 c 3.688987,-0.937249 7.307381,-2.17401 11.002457,-3.097778 1.371184,-0.342797 2.77731,-0.516295 4.165978,-0.747739 1.497788,-0.249632 0.424971,-0.17765 1.922759,-0.427281 1.441283,-0.240213 0.465093,-0.01677 1.815941,-0.106821 0.502439,-0.0335 0.993407,-0.175019 1.495478,-0.21364 0.213011,-0.01638 0.428019,0.01775 0.640921,0 1.460209,-0.121682 2.926229,-0.349052 4.379619,-0.106818 0.321226,0.05354 0.45144,-0.04133 0.747739,0.106818"
       id="path69" />
    <path
       style="fill:none;fill-opacity:1;stroke:#000000;stroke-width:0.264583;stroke-linecap:round;stroke-linejoin:round;stroke-dasharray:none;stroke-opacity:1"
       d="m 72.851221,98.381194 c 2.496992,-0.698473 5.04286,-1.280919 7.584217,-1.815941 0.405308,-0.08533 1.604032,-0.30907 2.029579,-0.427278 2.018028,-0.560565 4.046318,-1.014913 6.088738,-1.495481 0.571629,-0.134501 1.131937,-0.319058 1.709121,-0.427281 1.133128,-0.21246 2.28904,-0.283165 3.418239,-0.534098 0.392472,-0.08722 0.776933,-0.263591 1.17502,-0.320461 0.460343,-0.06576 0.928282,-0.09855 1.388657,-0.21364 0.535033,-0.133758 1.348203,-0.747739 1.815942,-0.747739"
       id="path70" />
    <path
       style="fill:none;fill-opacity:1;stroke:#000000;stroke-width:0.264583;stroke-linecap:round;stroke-linejoin:round;stroke-dasharray:none;stroke-opacity:1"
       d="m 107.46089,75.948999 c 0.14604,0.830678 0.45059,1.621796 0.5341,2.45686 0.0196,0.195837 -0.0163,0.946542 0,1.17502 0.092,1.288037 0.0757,2.237441 0,3.525057 -0.0551,0.937104 0.0579,1.84735 0.10682,2.777321 0.0374,0.71115 -0.0339,1.425072 0,2.136399 0.0747,1.568072 0.15553,3.131008 0.21364,4.700079 -0.0449,0.969272 0.17659,1.920838 0.21364,2.884139 0.06,1.559782 0,3.139024 0,4.700076 0,2.28485 -0.0156,4.55609 -0.10682,6.83648 -0.0865,2.16349 0,4.35 0,6.51602 0,0.8776 0.0729,1.79527 0,2.6705 -0.0358,0.42981 -0.10682,0.75005 -0.10682,1.17502"
       id="path71" />
    <path
       style="fill:none;fill-opacity:1;stroke:#000000;stroke-width:0.264583;stroke-linecap:round;stroke-linejoin:round;stroke-dasharray:none;stroke-opacity:1"
       d="m 108.10181,124.97936 c -0.70292,0.25892 -1.36436,0.0595 -2.02958,-0.10682 -0.0691,-0.0173 -0.14608,0.0225 -0.21364,0 -0.0478,-0.0159 -0.0618,-0.0843 -0.10682,-0.10681 -0.89261,-0.44631 -2.32397,-0.66699 -3.09778,0.10681 -0.18156,0.18156 -0.28485,0.42729 -0.42728,0.64093 -0.14243,0.21364 -0.32613,0.40491 -0.42728,0.64091 -0.17727,0.41365 -0.17051,0.85053 -0.21364,1.28184 -0.0389,0.38915 -0.18669,0.77564 -0.10682,1.17502 0.17389,0.86945 0.87783,1.48056 1.49548,2.02958 0.15055,0.13382 0.26227,0.31178 0.42728,0.42728 1.54124,1.07887 4.40394,1.36646 6.19556,0.85456 0.5015,-0.14328 0.91548,-0.43812 1.38866,-0.64091 0.27962,-0.11985 0.58613,-0.1773 0.85456,-0.32047 1.26775,-0.67613 1.97012,-1.64222 2.88414,-2.6705 0.13382,-0.15054 0.31177,-0.26226 0.42728,-0.42727 0.13697,-0.19568 0.2001,-0.43461 0.32046,-0.64093 0.28913,-0.49565 0.56422,-0.73127 0.74774,-1.28184 0.4829,-1.4487 0.17808,-2.41151 -1.0682,-3.20459 -0.21662,-0.13785 -0.40391,-0.32853 -0.64092,-0.42728 -0.19993,-0.0833 -0.42854,-0.0644 -0.64092,-0.10682 -0.3219,-0.0644 -0.63491,-0.17928 -0.96138,-0.21364 -2.0001,-0.21054 -4.03944,0.47339 -5.76828,1.38866 -0.51847,0.27448 -1.2841,0.53635 -1.70912,0.96138"
       id="path72" />
  </g>
</svg>
