<?xml version="1.0" encoding="UTF-8" standalone="no"?>
<!-- Created with Inkscape (http://www.inkscape.org/) -->

<svg
   width="210mm"
   height="297mm"
   viewBox="0 0 210 297"
   version="1.1"
   id="svg1"
   inkscape:version="1.4 (86a8ad7, 2024-10-11)"
   sodipodi:docname="drawing-4.svg"
   xmlns:inkscape="http://www.inkscape.org/namespaces/inkscape"
   xmlns:sodipodi="http://sodipodi.sourceforge.net/DTD/sodipodi-0.dtd"
   xmlns="http://www.w3.org/2000/svg"
   xmlns:svg="http://www.w3.org/2000/svg">
  <sodipodi:namedview
     id="namedview1"
     pagecolor="#ffffff"
     bordercolor="#000000"
     borderopacity="0.25"
     inkscape:showpageshadow="2"
     inkscape:pageopacity="0.0"
     inkscape:pagecheckerboard="0"
     inkscape:deskcolor="#d1d1d1"
     inkscape:document-units="mm"
     inkscape:zoom="1.0871218"
     inkscape:cx="166.03476"
     inkscape:cy="401.51895"
     inkscape:window-width="1920"
     inkscape:window-height="991"
     inkscape:window-x="-9"
     inkscape:window-y="-9"
     inkscape:window-maximized="1"
     inkscape:current-layer="layer1" />
  <defs
     id="defs1" />
  <g
     inkscape:label="Layer 1"
     inkscape:groupmode="layer"
     id="layer1">
    <path
       style="fill:none;fill-opacity:1;stroke:#000000;stroke-width:0.264583;stroke-linecap:round;stroke-linejoin:round;stroke-dasharray:none;stroke-opacity:1"
       d="m 18.373035,15.702536 c -0.31706,-0.05808 -0.564935,0.165369 -0.85456,0.21364 -0.210733,0.03512 -0.430187,-0.03512 -0.64092,0 -0.634621,0.10577 -1.2787,0.346772 -1.922759,0.427279 -0.569359,0.07117 -1.13976,0.142471 -1.70912,0.21364 -0.291352,0.03642 -0.56389,0.172116 -0.854559,0.21364 -0.105747,0.01511 -0.21364,0 -0.32046,0 -0.10682,0.03561 -0.209394,0.08831 -0.32046,0.10682 -0.273756,0.04563 -0.586218,-0.06709 -0.85456,0 -0.10682,0.03561 -0.21364,0.07121 -0.32046,0.10682 -0.03561,-0.03561 -0.05646,-0.10682 -0.10682,-0.10682 -0.05035,0 -0.06178,0.0843 -0.10682,0.10682 -0.178631,0.08932 -0.4062934,-0.04292 -0.5340996,-0.10682 -0.088937,-0.04447 -0.3595227,0.06776 -0.4272801,0 -0.2404801,-0.24048 0.4614368,-0.475969 0.5341001,-0.5341 0.5482446,-0.438596 1.1746816,-0.823749 1.7091196,-1.281839 0.267628,-0.229396 0.474169,-0.525464 0.74774,-0.74774 0.298916,-0.242869 0.664074,-0.39608 0.961379,-0.64092 0.310967,-0.25609 0.561209,-0.578465 0.85456,-0.85456 1.019328,-0.959367 2.250564,-1.861339 3.097779,-2.9909586 0.09554,-0.1273902 0.121085,-0.2977028 0.21364,-0.4272801 0.08781,-0.1229275 0.22609,-0.2024967 0.32046,-0.3204599 0.239243,-0.299053 0.385012,-0.663203 0.5341,-0.9613797 0.118883,-0.237767 0.358518,-0.5340998 0.32046,-0.5340998 -0.07121,0 0,0.1424265 0,0.2136399 0,0.4110668 0.10682,0.7337904 0.10682,1.1750196 0,3.6603336 0.788504,7.5083456 1.388659,11.1092766 0.397966,2.387796 0.73938,4.844966 0.85456,7.263758 0.09151,1.921719 -0.04071,3.851032 -0.10682,5.768279 -0.01841,0.533781 0.01779,1.068496 0,1.602298 -0.07796,2.338703 -0.522206,5.309246 -1.0682,7.584221 -0.561178,2.338239 -0.937598,5.702977 -3.418239,6.943296 -1.504653,0.752327 -3.239398,-0.662845 -4.272798,-1.602298 -0.411551,-0.374137 -0.888552,-0.674913 -1.28184,-1.0682 -0.771298,-0.7713 -0.340981,-0.49253 -0.9613796,-1.38866 C 9.7759617,44.956198 9.558453,44.772577 9.4001573,44.543927 9.1367778,44.16349 8.7441338,43.338702 8.5455976,42.941628 7.632851,41.116136 6.9732476,39.224894 6.8364782,37.173349 6.7591508,36.01344 6.8809451,34.752264 7.1569381,33.64829 c 0.027292,-0.109167 0.1817925,-0.395431 0.2136399,-0.427279 0.17248,-0.172481 0.5340998,0.224407 0.5340998,0"
       id="path72" />
    <path
       style="fill:none;fill-opacity:1;stroke:#000000;stroke-width:0.264583;stroke-linecap:round;stroke-linejoin:round;stroke-dasharray:none;stroke-opacity:1"
       d="m 29.375491,29.695952 c -0.840062,1.746099 -1.238977,3.630872 -1.495478,5.554639 -0.125931,0.944483 -0.21364,1.824529 -0.21364,2.777318 0,1.41755 -0.03512,-0.137581 0.10682,1.28184 0.08076,0.807608 -0.0041,1.111279 0.320458,1.922758 0.06743,0.168574 0.02564,0.371711 0.10682,0.534102 0.04504,0.09008 0.161825,0.12728 0.213641,0.21364 0.182398,0.303998 0.226772,0.660617 0.427281,0.961379 0.09128,0.136914 0.257754,0.685036 0.320458,0.747739 0.02519,0.02519 0.0909,-0.03185 0.10682,0 0.03185,0.0637 -0.02252,0.146082 0,0.213641 0.05083,0.152487 0.463862,0.703474 0.640921,0.747739 2.369093,0.592275 3.184242,-3.45381 3.631878,-5.020538 0.09635,-0.337222 0.253544,-0.733623 0.32046,-1.068199 0.06434,-0.321705 0.07295,-0.573186 0.213641,-0.85456 0.03185,-0.0637 -0.07121,-0.21364 0,-0.21364 0.195963,0 0.09137,1.721882 0.10682,1.922759 0.01931,0.251036 0.08591,0.496832 0.10682,0.747739 0.04713,0.56557 -0.05138,1.143973 0,1.709121 0.179594,1.97553 0.185621,3.3622 1.0682,5.127357 0.192735,0.385475 0.263318,0.785001 0.640918,1.0682 0.827188,0.620392 1.700266,0.70702 2.563681,0.213641 0.138258,-0.079 0.306377,-0.110009 0.427281,-0.213641 0.995817,-0.853559 1.873022,-3.942167 2.136399,-5.127358 0.196374,-0.883681 0.398915,-1.79928 0.640919,-2.6705 0.345815,-1.244933 0.323426,-0.658717 0.534101,-1.922759 0.05301,-0.318045 0.05381,-0.643334 0.106817,-0.961379 0.182674,-1.096037 0.454528,-2.19741 0.534101,-3.311419 0.0805,-1.126943 0,-2.285297 0,-3.41824 0,-0.06518 0.04162,-0.385659 0,-0.427278 -0.21364,-0.21364 -0.10682,0.676526 -0.10682,-0.320461"
       id="path73" />
    <path
       style="fill:none;fill-opacity:1;stroke:#000000;stroke-width:0.264583;stroke-linecap:round;stroke-linejoin:round;stroke-dasharray:none;stroke-opacity:1"
       d="m 49.671287,29.802772 c -0.341913,1.254562 -1.031952,2.383396 -1.38866,3.63188 -0.232646,0.814255 -0.371973,1.650018 -0.640919,2.456857 -0.245197,0.735587 -0.554175,1.569326 -0.640922,2.35004 -0.06451,0.58057 -0.130688,1.128469 -0.21364,1.709121 -0.03973,0.278122 0.04618,0.577498 0,0.854559 -0.136596,0.819592 -0.201475,1.757775 0,2.56368 0.03454,0.138174 -0.02793,0.287618 0,0.427279 0.05602,0.280082 0.254235,0.482838 0.320461,0.747739 0.0925,0.369993 -0.135263,0.06416 0.10682,0.42728 0.267216,0.400826 0.589738,0.777788 0.854559,1.17502 0.03561,0.03561 0.07121,0.07121 0.10682,0.106821 0.03561,0 0.08164,-0.02519 0.106821,0 0.0563,0.0563 0.05052,0.157339 0.10682,0.21364 0.0563,0.0563 0.147394,0.06265 0.21364,0.10682 0.123254,0.08217 0.197205,0.238289 0.320458,0.320458 0.556218,0.370811 1.123098,0.661136 1.815942,0.747742 0.247321,0.03091 0.511283,0.07882 0.747738,0 0.03378,-0.01127 0,-0.07122 0,-0.10682 0.106821,-0.03561 0.209394,-0.08831 0.320461,-0.106821 0.318045,-0.05301 0.640919,-0.07121 0.96138,-0.10682"
       id="path74" />
    <path
       style="fill:none;fill-opacity:1;stroke:#000000;stroke-width:0.264583;stroke-linecap:round;stroke-linejoin:round;stroke-dasharray:none;stroke-opacity:1"
       d="m 53.303167,25.102693 c -0.280408,-0.396497 -0.811104,-0.31575 -1.17502,-0.5341 -0.08636,-0.05182 -0.127283,-0.161824 -0.213641,-0.21364 -0.09655,-0.05793 -0.219749,-0.05646 -0.32046,-0.10682 -0.189797,-0.0949 -0.354579,-0.307599 -0.534099,-0.42728 -0.132495,-0.08833 -0.294788,-0.12531 -0.427281,-0.21364 -0.164338,-0.109558 -0.262943,-0.31772 -0.427281,-0.427279 -0.06625,-0.04416 -0.157339,-0.05052 -0.213637,-0.10682 -0.120113,-0.120112 -0.225357,-0.391443 -0.320461,-0.5341 -0.117422,-0.176135 -0.427281,-0.406616 -0.427281,-0.64092 0,-0.05035 0.10682,-0.05646 0.10682,-0.10682 0,-0.196829 -0.161713,-0.155782 -0.10682,-0.32046 0.126571,-0.379716 0.110747,-0.751665 0.427281,-1.0682 0.0563,-0.0563 0.15734,-0.05052 0.21364,-0.10682 0.09078,-0.09078 0.11339,-0.24026 0.213638,-0.32046 0.225949,-0.180758 0.689848,-0.213639 0.961382,-0.213639 1.370253,0 2.372696,0.385661 3.418237,1.281839 0.274145,0.23498 0.686353,0.699879 0.747741,1.0682 0.01757,0.105367 -0.02095,0.215714 0,0.32046 0.01561,0.07807 0.106821,0.134021 0.106821,0.21364 0,0.112598 -0.08831,0.209394 -0.106821,0.32046 -0.01757,0.105366 0.03967,0.22128 0,0.32046 -0.0374,0.09351 -0.161824,0.127281 -0.21364,0.213639 -0.05793,0.09655 -0.04889,0.223908 -0.10682,0.32046 -0.136528,0.227546 -0.452562,0.452563 -0.640919,0.64092 -0.276108,0.276108 -0.526746,0.56422 -0.961379,0.64092 -1.277509,0.225443 -1.855364,-0.549869 -2.884141,-0.96138"
       id="path75" />
    <path
       style="fill:none;fill-opacity:1;stroke:#000000;stroke-width:0.264583;stroke-linecap:round;stroke-linejoin:round;stroke-dasharray:none;stroke-opacity:1"
       d="m 59.926002,47.534888 c 0.222547,-1.870345 1.065443,-3.593873 1.709121,-5.340999 0.128514,-0.348824 0.197655,-0.717327 0.320461,-1.068199 0.389059,-1.111599 0.487963,-0.993392 0.747739,-2.136399 0.096,-0.422402 0.121621,-0.858555 0.21364,-1.281841 0.08624,-0.396713 0.246536,-0.775829 0.320458,-1.175019 0.104545,-0.564542 0.122219,-1.142305 0.213641,-1.709121 0.247084,-1.531919 0.562491,-3.049522 0.747741,-4.593257 0.102169,-0.851416 0.107276,-1.71278 0.213638,-2.56368 0.05373,-0.429829 0.157615,-0.852305 0.213641,-1.28184 0.139679,-1.070864 0.150585,-2.132643 0.21364,-3.204599 0.07552,-1.283836 0.213641,-2.555341 0.213641,-3.845519 0,-1.24186 0.0443,-2.498164 0,-3.738699 -0.145127,-4.063558 -0.04792,0.585036 -0.213641,-2.56368 -0.05045,-0.95864 0.05325,-1.925666 0,-2.884139 -0.01789,-0.3219354 -0.08789,-0.639504 -0.10682,-0.9613796 -0.0532,-0.9044943 0.02066,-1.7780696 -0.10682,-2.6704991 -0.04265,-0.2985696 0.130961,-0.6822594 -0.213641,-0.8545597 -0.473874,-0.2369381 -1.389568,1.4670352 -1.495478,1.7091194 -0.135395,0.3094728 -0.20887,0.6425496 -0.32046,0.9613797 -1.109927,3.1712213 -1.908345,6.3718703 -2.24322,9.7206173 -0.298892,2.988913 -0.32046,5.973362 -0.32046,8.972876 0,0.961383 -0.03695,1.923471 0,2.884141 0.04933,1.282512 0.157887,2.56317 0.21364,3.845518 0.02939,0.675889 -0.0422,1.35437 0,2.029579 0.08689,1.390248 0.221205,2.77641 0.320461,4.165981 0.101655,1.423178 0.09332,2.857137 0.747739,4.165978 0.344032,0.688065 1.144513,1.098735 1.6023,1.709119 0.04777,0.0637 0.05052,0.157342 0.106821,0.21364 0.0563,0.0563 0.157339,0.05052 0.213637,0.10682 0.0563,0.0563 0.05052,0.15734 0.106821,0.213641 0.0563,0.0563 0.157342,0.05052 0.21364,0.10682 0.0563,0.0563 0.06266,0.147391 0.10682,0.21364 0.04607,0.0691 0.775439,0.614545 0.854559,0.640919 0.186648,0.06222 0.347454,0.0446 0.534102,0.10682 0.106375,0.03546 0.214085,0.178181 0.32046,0.213641 0.06756,0.02252 0.146079,-0.02252 0.213638,0 0.04777,0.01593 0.06178,0.0843 0.10682,0.10682 0.148982,0.07449 0.38512,0.03233 0.534101,0.106818 0.151715,0.07586 0.359572,0.21364 0.534099,0.21364"
       id="path76" />
    <path
       style="fill:none;fill-opacity:1;stroke:#000000;stroke-width:0.264583;stroke-linecap:round;stroke-linejoin:round;stroke-dasharray:none;stroke-opacity:1"
       d="m 69.539802,47.107607 c 2.015079,-2.736255 3.112947,-5.996771 3.845517,-9.293336 0.219025,-0.98561 0.491228,-1.993003 0.640922,-2.990961 0.05834,-0.388938 0.0512,-0.785683 0.10682,-1.17502 0.644332,-4.510336 -0.237906,2.634792 0.427278,-2.24322 0.05314,-0.389681 0.04702,-0.786304 0.10682,-1.175017 0.08282,-0.538345 0.230915,-1.065035 0.320461,-1.602301 0.312775,-1.876655 0.585412,-3.77742 0.854559,-5.661458 0.183706,-1.285943 0.252479,-2.553891 0.320461,-3.845519 0.116509,-2.213683 0.08642,0.219499 0.21364,-1.81594 0.110271,-1.764362 0,-3.572229 0,-5.340998 0,-1.139413 0,-2.2788264 0,-3.4182394 0,-0.037846 -0.133506,-0.9346951 -0.32046,-0.7477398 -0.07962,0.079619 -0.05647,0.2197492 -0.106821,0.3204599 -0.659868,1.319734 -0.658553,2.9526273 -0.747739,4.3796183 -0.08221,1.315376 -0.257677,2.633879 -0.32046,3.952339 -0.01863,0.391231 0.01778,0.783751 0,1.17502 -0.08431,1.854875 -0.33459,3.700844 -0.427281,5.554639 -0.06961,1.392154 0.03754,2.780378 0.10682,4.165978 0.01778,0.355624 -0.03543,0.713902 0,1.0682 0.03613,0.361317 0.162288,0.708731 0.213641,1.068199 0.190743,1.33521 0.332229,2.629385 0.640918,3.952341 0.355693,1.524386 0.810239,3.045484 1.0682,4.593257 0.272097,1.632574 0.474834,3.276285 0.747742,4.913719 0.144007,0.864042 0.256569,1.474518 0.640918,2.24322 0.150202,0.300403 0.172942,0.60022 0.427281,0.854559 0.0563,0.0563 0.15734,0.05052 0.213641,0.10682 0.0563,0.0563 0.05052,0.15734 0.106817,0.213641 0.0563,0.0563 0.157343,0.05052 0.213641,0.10682 0.156442,0.156443 0.201551,0.276794 0.427281,0.427278 0.23827,0.158848 0.520234,0.168791 0.747738,0.320461 0.195453,0.130302 0.01066,0.136189 0.320461,0.21364 0.291132,0.07278 0.576506,0.07461 0.854559,0.213641"
       id="path77" />
    <path
       style="fill:none;fill-opacity:1;stroke:#000000;stroke-width:0.264583;stroke-linecap:round;stroke-linejoin:round;stroke-dasharray:none;stroke-opacity:1"
       d="m 99.342574,32.900551 c -0.416431,1.437666 -0.643602,2.9029 -0.854562,4.379619 -0.102219,0.715544 -0.353745,1.746046 -0.427278,2.456859 -0.06239,0.603142 -0.05353,1.211927 -0.106821,1.815939 -0.305173,3.458623 -0.623768,6.917187 -1.068199,10.361538 -0.146947,1.138838 -0.238504,2.285582 -0.427281,3.41824 -0.08381,0.502872 -0.230838,0.993608 -0.320458,1.495478 -0.106577,0.59682 -0.298249,2.26478 -0.427281,2.88414 -0.0828,0.397444 -0.247835,0.775589 -0.320461,1.17502 -0.07035,0.386943 -0.05368,0.785337 -0.10682,1.17502 -0.178382,1.308145 -0.446045,2.631541 -0.534098,3.952338 -0.05456,0.818473 -0.05226,1.638387 -0.106821,2.45686 -0.0335,0.502438 -0.175019,0.993407 -0.21364,1.495478 -0.08265,1.074412 -0.213641,2.129075 -0.213641,3.204599"
       id="path78" />
    <path
       style="fill:none;fill-opacity:1;stroke:#000000;stroke-width:0.264583;stroke-linecap:round;stroke-linejoin:round;stroke-dasharray:none;stroke-opacity:1"
       d="m 97.526633,34.396031 c 0.22779,-0.221429 0.03765,-0.50565 0.10682,-0.747741 0.04375,-0.153109 0.157728,-0.278181 0.21364,-0.427279 0.343736,-0.916627 0.673201,-1.95504 1.388661,-2.6705 0.331411,-0.331412 0.806176,-0.674502 1.175016,-0.961379 0.51074,-0.39724 1.15584,-0.781214 1.81594,-0.85456 1.2089,-0.134321 2.79703,0.148601 3.84552,0.747739 1.33313,0.761786 2.9168,2.708461 3.63188,4.059159 1.1645,2.199618 1.3912,4.302032 1.6023,6.729658 0.13545,1.557732 0.10886,2.954554 -0.21364,4.486439 -0.0748,0.35533 -0.0988,0.723717 -0.21364,1.0682 -0.54275,1.628248 -2.53534,4.447926 -4.16598,5.12736 -0.9687,0.403624 -2.14726,0.722252 -3.2046,0.640919 -1.07449,-0.08265 -0.41603,-0.0773 -1.38866,-0.320461 -0.21012,-0.05253 -0.4308,-0.05429 -0.64092,-0.10682 -0.83084,-0.207709 -0.4784,-0.199332 -1.28184,-0.534099 -0.20787,-0.08661 -0.435906,-0.120454 -0.640918,-0.21364 -0.80163,-0.364376 -2.094111,-1.2466 -2.777318,-1.815939 -0.503296,-0.419415 -0.868672,-1.060156 -0.96138,-1.709121 -0.02901,-0.203075 0.196837,-0.640918 0,-0.640918"
       id="path79" />
    <path
       style="fill:none;fill-opacity:1;stroke:#000000;stroke-width:0.264583;stroke-linecap:round;stroke-linejoin:round;stroke-dasharray:none;stroke-opacity:1"
       d="m 111.52005,50.205385 c 0.17803,-0.178032 0.37952,-0.335359 0.5341,-0.534098 0.0978,-0.125696 0.12815,-0.292939 0.21364,-0.427281 0.7812,-1.227601 1.58949,-2.431232 2.24322,-3.738697 0.72104,-1.442077 1.251,-2.979952 1.81594,-4.486439 0.61502,-1.640047 1.29435,-3.351462 1.81594,-5.020541 0.52316,-1.674137 0.80137,-3.419271 1.17502,-5.127357 0.12549,-0.573675 0.31569,-1.132578 0.42728,-1.709121 0.10239,-0.529008 0.12784,-1.070346 0.21364,-1.602298 0.31008,-1.922501 0.34581,-1.428525 0.5341,-3.31142 0.25607,-2.560724 0.45063,-5.122215 0.64092,-7.691038 0.12935,-1.746245 0.10682,-3.483694 0.10682,-5.234178 0,-0.709118 -0.0428,-1.431959 -0.10682,-2.1363996 -0.13311,-1.4642224 -0.0468,0.1465056 -0.21364,-0.8545597 -8e-4,-0.00502 -0.0867,-0.7678484 -0.21364,-0.6409198 -0.0252,0.025178 0.0198,0.077193 0,0.1068199 -0.0559,0.083797 -0.15778,0.1298435 -0.21364,0.21364 -0.2864,0.4295912 -0.28299,0.7527853 -0.42728,1.2818395 -1.24164,4.5526877 0.5442,-2.2235109 -0.96138,3.5250587 -0.81607,3.115898 -1.45372,6.232925 -2.02958,9.400158 -0.47241,2.598242 -0.9264,5.197626 -1.38866,7.797859 -0.62545,3.518154 -1.17502,7.096254 -1.17502,10.681996 0,2.627066 0.4223,5.237236 0.96138,7.797858 0.35163,1.670275 0.91382,3.363508 1.81594,4.8069 0.13963,0.223414 0.23126,0.551722 0.42728,0.747739 0.25534,0.255341 0.60152,0.489116 0.96138,0.534098 0.18494,0.02313 0.85456,-0.147278 0.85456,0.10682"
       id="path80" />
    <path
       style="fill:none;fill-opacity:1;stroke:#000000;stroke-width:0.264583;stroke-linecap:round;stroke-linejoin:round;stroke-dasharray:none;stroke-opacity:1"
       d="m 121.88159,41.232507 c 0.063,-0.594502 0.40475,-1.082738 0.64092,-1.602298 0.12588,-0.276955 0.1918,-0.578876 0.32046,-0.854559 0.64684,-1.386094 1.90589,-2.892015 3.09777,-3.84552 0.66768,-0.534136 1.35895,-1.24128 2.24322,-1.38866 0.71697,-0.119494 1.73902,0.5076 2.24322,0.961382 0.31857,0.286705 0.7758,1.091718 0.96138,1.388657 0.17804,0.284853 0.38388,0.554112 0.5341,0.854562 0.41911,0.838211 0.54445,1.753986 0.64092,2.670498 0.25776,2.448705 -0.22429,4.793443 -0.85456,7.156939 -0.21244,0.796661 -0.48205,1.555734 -0.64092,2.350037 -0.0644,0.322064 -0.16809,0.640922 -0.10682,0.640922 0.0173,0 0.10012,-1.441842 0.10682,-1.495481 0.17149,-1.371862 0.50408,-5.363519 -0.74774,-6.302377 -1.25284,-0.939631 -4.39821,0.946295 -5.44782,1.6023 -0.13503,0.08439 -0.2977,0.121084 -0.42727,0.213638 -0.56777,0.405548 -1.04602,1.109496 -1.38866,1.709121 -1.14339,2.000922 -0.39366,6.585649 1.38866,8.011499 0.70614,0.564917 0.91495,0.915704 1.92276,0.747739 0.31895,-0.05316 0.81233,-0.244518 1.06819,-0.427281 0.12293,-0.0878 0.19754,-0.232654 0.32047,-0.320458 0.12957,-0.09256 0.30637,-0.110011 0.42727,-0.213641 0.13518,-0.115863 0.21116,-0.28675 0.32046,-0.427281 0.27995,-0.359934 0.60976,-0.6835 0.85456,-1.068199 0.7055,-1.108644 1.29845,-2.317584 1.81594,-3.52506 0.20569,-0.479925 0.3012,-1.029666 0.5341,-1.495478 0.0726,-0.145187 0.24787,-0.282096 0.32046,-0.427281 0.0233,-0.04658 0.0721,-0.568769 0.21364,-0.427281 0.0252,0.02519 -0.0252,0.08164 0,0.106821 0.0252,0.02519 0.0816,-0.02519 0.10682,0 0.0504,0.05036 -0.0504,0.163285 0,0.21364 0.0252,0.02519 0.0816,-0.02519 0.10682,0 0.0295,0.02948 0.38293,1.638522 0.42728,1.815939 0.0832,0.332676 0.29998,0.643117 0.42728,0.961382 0.0963,0.240678 0.11153,0.509476 0.21364,0.747739 0.14633,0.341431 0.45632,0.638323 0.64092,0.961379 0.87862,1.537584 2.19994,3.10837 4.05916,3.418239 1.0952,0.182534 2.05499,-0.32554 3.09778,-0.534101"
       id="path81" />
    <path
       style="fill:none;fill-opacity:1;stroke:#000000;stroke-width:0.264583;stroke-linecap:round;stroke-linejoin:round;stroke-dasharray:none;stroke-opacity:1"
       d="m 141.7501,32.793731 c -1.00882,2.005562 -0.85456,4.330948 -0.85456,6.516018 0,2.17167 0.04,4.412945 0.64092,6.516018 0.23855,0.834937 0.30913,1.796105 0.74774,2.56368 0.05,0.08744 0.15073,0.134998 0.21364,0.21364 0.55755,0.696942 1.08605,1.253869 2.02958,1.388661 0.75812,0.108301 1.47096,-0.300848 2.02958,-0.747742 2.67102,-2.136817 3.89545,-6.530538 4.8069,-9.720617 0.37765,-1.321774 0.79731,-2.630345 1.17502,-3.952338 0.0547,-0.191391 0.32046,-0.789315 0.32046,-0.961379 0,-0.225198 -0.17336,0.419354 -0.21364,0.640919 -0.16037,0.882001 -0.23936,1.778399 -0.32046,2.6705 -0.21467,2.361364 -0.0253,0.213511 -0.10682,3.311416 -0.0545,2.069452 -0.10682,4.123444 -0.10682,6.19556 0,3.979844 0.0361,8.205484 -1.0682,12.070657 -0.18339,0.64185 -1.03847,2.662441 -1.28184,3.311419 -0.36597,0.975908 -0.28102,1.044287 -0.74774,2.029579 -0.49539,1.045819 -0.62002,1.011402 -1.28184,2.029579 -0.78914,1.214067 -1.5157,2.601219 -2.6705,3.52506 -2.03805,1.630436 -4.36615,1.399984 -6.72966,0.854559 -0.42208,-0.0974 -0.87089,-0.07666 -1.28184,-0.21364 -0.2266,-0.07553 -0.42347,-0.221621 -0.64092,-0.320459 -0.74333,-0.33788 -1.93541,-0.672409 -2.56368,-1.175019 -0.41639,-0.333119 -0.0441,-0.07354 -0.32046,-0.534102 -0.0518,-0.08636 -0.17623,-0.120131 -0.21364,-0.21364 -0.15704,-0.392607 0.089,-0.939173 0.21364,-1.281837 0.17603,-0.484071 0.27349,-0.932583 0.5341,-1.388661 1.00062,-1.751086 2.65345,-3.099784 4.16598,-4.379618 2.79079,-2.361436 5.83524,-4.429835 8.75924,-6.622839 2.08931,-1.566984 4.07158,-3.258619 6.08874,-4.91372 2.13694,-1.753383 1.77872,-1.362577 3.84552,-2.990958 1.15318,-0.908566 2.25737,-1.878587 3.41824,-2.777318 1.54784,-1.198332 3.14792,-2.33109 4.70008,-3.52506 0.81481,-0.626779 1.72663,-1.192535 2.45686,-1.922758"
       id="path82" />
    <path
       style="fill:none;fill-opacity:1;stroke:#000000;stroke-width:0.264583;stroke-linecap:round;stroke-linejoin:round;stroke-dasharray:none;stroke-opacity:1"
       d="m 18.693495,77.33766 c -0.584516,-0.08769 -1.129806,-0.237702 -1.70912,-0.320461 -1.363705,-0.194815 -4.250402,0.580742 -5.340998,1.28184 -0.65105,0.418531 -1.426112,1.09941 -2.0295795,1.602298 -1.3279078,1.106591 -2.6667918,2.29107 -3.631879,3.7387 -2.0963364,3.144504 -2.9847932,6.838471 -3.2045992,10.575176 -0.057114,0.970939 0.053273,1.920293 0.10682,2.884141 0.065893,1.186074 -0.1016876,0.741217 0.1068199,1.922759 0.051027,0.289153 0.1626129,0.565407 0.21364,0.854559 0.1598906,0.906048 0.256885,1.783418 0.5340998,2.670498 0.2513092,0.80419 0.6300771,1.577 0.9613796,2.35004 0.503568,1.17499 1.5614338,3.27055 2.4568595,4.16598 0.9554657,0.95547 2.1864878,1.71533 3.4182389,2.24322 0.815731,0.3496 1.78859,0.8144 2.670499,0.96138 0.210733,0.0351 0.42791,-0.0164 0.64092,0 0.442676,-0.0297 0.850445,0.17442 1.28184,0.21364 1.11343,0.10122 2.358315,-0.26912 3.418239,-0.5341 0.21012,-0.0525 0.435447,-0.0383 0.64092,-0.10682 0.226599,-0.0755 0.420436,-0.22859 0.640919,-0.32046 0.999285,-0.41637 2.08832,-0.64999 2.99096,-1.28184 0.747739,-0.52342 0.356066,-0.29554 0.961379,-0.96138 0.676324,-0.74395 1.468471,-1.38498 2.1364,-2.1364 0.675806,-0.76028 1.161864,-1.60557 1.70912,-2.45686 0.700407,-1.08952 1.378291,-2.19492 2.029579,-3.31142 0.393777,-0.67504 0.635108,-1.429477 0.961379,-2.136396 0.527701,-1.143352 0.964893,-2.124869 1.388661,-3.31142 0.363609,-1.018106 0.94004,-1.96556 1.28184,-2.990961 0.386199,-1.158597 0.617415,-2.355585 0.961379,-3.525057 0.32625,-1.109252 0.742069,-2.202579 1.0682,-3.311419 0.09263,-0.314939 0.12101,-0.646443 0.21364,-0.961379 0.323945,-1.101421 0.919573,-2.117805 1.281838,-3.204602 0.09285,-0.27855 0.12606,-0.574304 0.21364,-0.854559 0.253849,-0.812313 0.676365,-1.551995 0.96138,-2.35004 0.08718,-0.244117 0.111529,-0.509476 0.21364,-0.747739 0.113083,-0.263858 0.2989,-0.490976 0.427281,-0.747738 0.469357,-0.938716 0.930899,-1.890123 1.495478,-2.777321 0.888177,-1.395706 2.412476,-2.807502 3.525059,-4.059158 0.532456,-0.599012 0.284311,-0.454491 0.85456,-0.96138 0.680701,-0.605067 1.4557,-1.104053 2.136401,-1.709121 0.761998,-0.67733 1.348203,-1.493705 2.029579,-2.243219 0.509948,-0.560943 1.046689,-1.092033 1.495478,-1.709118 0.336979,-0.463347 0.571889,-1.000805 0.854562,-1.495481 0.734132,-1.284732 1.068488,-2.712995 -0.21364,-3.738697 -0.320133,-0.256106 -0.799272,-0.273492 -1.17502,-0.320461 -0.180158,-0.02252 -0.352542,-0.10682 -0.534101,-0.10682 -1.170501,0 -2.07009,0.642448 -2.884138,1.38866 -0.241991,0.221824 -0.534102,0.391673 -0.747739,0.640919 -0.21861,0.255045 -0.338855,0.581218 -0.534102,0.854562 -0.161639,0.226295 -0.375803,0.412268 -0.534098,0.640918 -0.462142,0.667539 -0.938488,1.507461 -1.28184,2.24322 -0.379733,0.81371 -0.518327,1.703374 -0.747742,2.56368 -0.120417,0.451562 -0.347731,1.151525 -0.427278,1.602298 -0.471567,2.672207 -0.512519,5.421916 -0.640921,8.118319 -0.137391,2.885236 -0.529813,5.763675 -0.640919,8.652417 -0.01643,0.426964 0.01707,0.854901 0,1.28184 -0.05627,1.406676 -0.145325,1.304182 -0.213641,2.670498 -0.03556,0.711245 0.02965,1.424884 0,2.136399 -0.06529,1.566953 -0.148349,3.133127 -0.21364,4.70008 -0.06213,1.491117 -0.01921,2.997036 -0.10682,4.486436 -0.05278,0.89726 -0.106818,1.76703 -0.106818,2.6705 0,1.70272 0.03525,-0.20934 -0.10682,1.49548 -0.05833,0.69997 0,1.4328 0,2.1364 0,0.60749 0.04777,0.0703 -0.10682,0.5341 -0.03733,0.11199 0.08687,0.55405 0,0.64092 -0.02519,0.0252 -0.08164,0.0252 -0.106821,0 -0.02519,-0.0252 0.02519,-0.0816 0,-0.10682 -0.02519,-0.0252 -0.08164,0.0252 -0.10682,0 -0.126455,-0.12646 0.08676,-0.45387 0.10682,-0.5341 0.0259,-0.10363 -0.01757,-0.21509 0,-0.32046 0.01852,-0.11107 0.07121,-0.21364 0.106821,-0.32046 0.0356,-0.17803 0.07921,-0.35465 0.10682,-0.5341 0.13213,-0.85885 0.276333,-1.70833 0.427278,-2.56368 0.180089,-1.0205 0.401323,-2.09146 0.640922,-3.09778 0.0861,-0.361632 0.238072,-0.705697 0.320458,-1.068197 0.363235,-1.598231 0.622802,-3.223257 1.068199,-4.8069 0.152429,-0.541962 0.372327,-1.06305 0.534101,-1.602298 0.434224,-1.447411 0.752743,-2.931813 1.17502,-4.379618 0.233389,-0.80019 0.590974,-1.559285 0.854559,-2.35004 0.247883,-0.743651 0.283806,-1.152726 0.640922,-1.815939 0.473575,-0.879501 1.09823,-1.699561 1.602298,-2.56368 0.418036,-0.716632 1.077772,-2.035051 1.815939,-2.45686 0.195527,-0.111728 0.431831,-0.130003 0.640921,-0.21364 0.276037,-0.110414 0.178488,-0.166087 0.534098,-0.106821 1.240729,0.206788 2.124988,3.153238 2.35004,4.165981 0.06994,0.314754 0.05653,0.642893 0.10682,0.96138 0.18392,1.164817 0.431837,2.349029 0.534101,3.525059 0.03393,0.3902 -0.0145,0.783614 0,1.175018 0.09858,2.661782 0.202031,5.345591 0.106821,8.011498 -0.107847,3.019695 -0.440846,6.261687 0.534098,9.186517 0.291695,0.87509 0.636694,2.07295 1.495481,2.56368 1.557364,0.88992 2.830864,0.22325 4.165978,-0.74774 2.685489,-1.95308 4.345694,-4.26186 5.554639,-7.37058 0.244864,-0.62965 0.41607,-1.285684 0.640918,-1.922756 0.202505,-0.573759 0.469239,-1.125397 0.640922,-1.709121 0.677905,-2.304878 0.961379,-4.65583 0.961379,-7.050116 0,-0.669018 0.07174,-1.374852 -0.10682,-2.029582 -0.07793,-0.285734 -0.309576,-1.114015 -0.427281,-1.388658 -0.366654,-0.85553 -1.470861,-2.292527 -2.456857,-2.45686 -1.637454,-0.272909 -2.511317,1.637067 -2.990961,2.884139 -0.291465,0.757811 -0.376738,1.563227 -0.534099,2.350039 -0.684858,3.424288 -0.514035,7.080922 0.747739,10.361539 0.236178,0.61406 0.16914,0.708329 0.534101,1.281836 0.122404,0.19235 0.304874,0.34175 0.427278,0.5341 0.128236,0.20152 0.200107,0.4346 0.320461,0.64092 0.567436,0.97275 1.425297,1.91636 2.35004,2.56368 0.554625,0.38824 1.182372,0.53655 1.815938,0.74774 1.366523,0.45551 2.862025,0.58985 4.272799,0.21364 1.630188,-0.43472 2.910255,-1.41329 4.272799,-2.35004 1.204901,-0.82837 0.534529,-0.22066 1.709121,-1.17502 3.372408,-2.74008 6.60056,-6.852662 7.370577,-11.216094 0.144512,-0.818907 0.10682,-1.630312 0.10682,-2.45686 0,-2.000059 -1.049324,-4.253923 -2.45686,-5.661459 -0.296701,-0.296701 -0.578302,-0.663022 -0.961379,-0.854559 -0.201422,-0.100711 -0.427281,-0.142428 -0.640919,-0.21364 -0.257892,-0.08596 -0.682617,-0.39015 -0.96138,-0.320461 -0.226356,0.05659 -0.785307,0.257082 -0.854561,0.534101 -0.0259,0.103629 0.01757,0.215093 0,0.320461 -0.01852,0.111064 -0.106821,0.207862 -0.106821,0.320458 0,0.146812 0.09061,0.281368 0.106821,0.427281 0.01966,0.176945 -0.03492,0.359523 0,0.534098 0.0376,0.188026 0.148111,0.353899 0.21364,0.534101 0.441955,1.215377 1.094438,2.210613 1.922759,3.204599 1.085069,1.302081 2.22517,2.658002 3.63188,3.63188 0.236027,0.163401 0.506261,0.272045 0.747739,0.427278 1.497581,0.962732 2.865601,2.122141 4.272798,3.204599 1.021043,0.785418 2.17959,1.431848 3.097781,2.35004 0.728412,0.728411 1.18908,1.590127 1.709119,2.45686 0.538348,0.897247 1.526659,2.287677 0.961379,3.418237 -0.728477,1.45695 -2.587334,1.90997 -4.059158,2.1364 -1.420659,0.21856 -2.828173,0.43159 -4.272798,0.32046 -0.645396,-0.0496 -1.278036,-0.26185 -1.922759,-0.32046 -1.171176,-0.10647 0.153056,0.1588 -1.17502,-0.10682 -0.600488,-0.1201 -1.151848,-0.29527 -1.709121,-0.5341 -0.343747,-0.14732 -0.720974,-0.18157 -1.0682,-0.32046 -1.012306,-0.40492 0.809318,0.22904 -0.534098,-0.10682 -0.04885,-0.0122 -0.05905,-0.0909 -0.10682,-0.10682 -0.08123,-0.0271 -0.53525,0.10567 -0.427281,0.21364 0.04502,0.045 0.567724,0.0824 0.640921,0.10682 0.04777,0.0159 0.05905,0.0909 0.106818,0.10682 0.31166,0.10389 0.996137,0.0156 1.28184,-0.10682 0.118001,-0.0506 0.200252,-0.16856 0.32046,-0.21364 0.170001,-0.0637 0.361858,-0.0494 0.534102,-0.10682 0.828206,-0.27607 1.560562,-0.81064 2.350037,-1.17502 1.301374,-0.60063 2.612773,-1.18311 3.84552,-1.92276 0.849175,-0.509503 1.581526,-1.201126 2.35004,-1.815936 0.556082,-0.444867 1.122291,-0.878398 1.709118,-1.28184 0.276807,-0.190304 0.592257,-0.324257 0.854559,-0.534101 0.837555,-0.670041 1.620385,-1.568265 2.35004,-2.35004 0.70935,-0.760018 1.5358,-1.374563 2.243219,-2.136399 0.691997,-0.745228 1.264092,-1.581592 1.922758,-2.35004 0.19663,-0.229396 0.44576,-0.410276 0.64092,-0.640918 0.53967,-0.637789 0.99498,-1.362247 1.49548,-2.029579 1.55729,-2.076382 2.50733,-4.043503 2.99096,-6.622839 0.23288,-1.242004 0.0242,-0.44583 0.10682,-1.6023 0.0562,-0.786588 0.16368,-1.554041 0.10682,-2.35004 -0.062,-0.868326 -0.34287,-1.555229 -0.64092,-2.350037 -0.0515,-0.137464 -0.034,-0.299815 -0.10682,-0.427281 -0.2789,-0.488074 -1.06495,-0.991436 -1.6023,-1.0682 -1.8763,-0.268044 -3.24053,0.780733 -2.99096,2.777318 0.10536,0.842857 0.74475,1.650842 1.17502,2.35004 0.433,0.70362 0.87602,1.461744 1.49548,2.029579 0.22579,0.206976 0.50496,0.347348 0.74774,0.534101 0.97879,0.752917 1.94103,1.480193 2.99096,2.136399 1.4616,0.913501 2.87747,1.932358 4.37962,2.777318 1.57513,0.886016 2.63504,1.551549 4.05916,2.670501 0.7482,0.587872 1.48718,1.107704 2.1364,1.815938 0.73378,0.800489 1.35713,1.644542 1.92276,2.563681 0.13457,0.218675 0.31968,0.407789 0.42728,0.640918 0.20295,0.43973 0.26177,0.933516 0.42728,1.388661 0.22258,0.6121 0.26287,0.484005 0.32046,1.175019 0.12631,1.515812 -0.46853,3.528841 -1.28184,4.806897 -0.24481,0.3847 -0.56582,0.71529 -0.85456,1.0682 -2.38322,2.91282 -4.73829,4.22894 -8.33196,5.12736 -0.64446,0.16112 -1.25047,0.37126 -1.92276,0.42728 -0.4258,0.0355 -0.85631,-0.0387 -1.28184,0 -0.68995,0.0627 -0.3709,0.1843 -1.0682,0.10682 -0.14591,-0.0162 -0.2816,-0.0886 -0.42728,-0.10682 -0.31798,-0.0397 -0.64288,0.0354 -0.96138,0 -0.5369,-0.0596 -1.98521,-0.40509 -2.45686,-0.64092 -0.22725,-0.11362 -0.43452,-0.28968 -0.64092,-0.42728 -0.15149,-0.101 -0.37733,-0.24208 -0.5341,-0.32046 -0.0318,-0.0159 -0.0909,0.0319 -0.10682,0 -0.0318,-0.0637 0.0225,-0.14608 0,-0.21364 -0.0857,-0.25716 -0.15641,-0.11446 0,-0.42728 0.37904,-0.75807 2.19053,-0.95365 2.88414,-0.85456 0.33394,0.0477 0.44338,0.12668 0.74774,0.21364 0.78068,0.22305 1.56936,0.41787 2.35004,0.64092 0.31934,0.0912 0.63596,0.25538 0.96138,0.32046 0.57068,0.11414 -0.24041,-0.20298 0.5341,0.10682 0.32948,0.13179 0.77069,0.43493 1.0682,0.5341 0.0676,0.0225 0.14608,-0.0225 0.21364,0 0.0478,0.0159 0.0618,0.0843 0.10682,0.10682 0.14328,0.0716 0.39943,0.0395 0.5341,0.10682 0.41422,0.20711 0.86712,0.32674 1.28184,0.5341 0.28733,0.14367 0.57243,0.28622 0.85456,0.42728 0.0901,0.045 0.12356,0.1686 0.21364,0.21364 0.23757,0.11879 0.51016,0.20167 0.74774,0.32046 0.17227,0.0861 0.72303,0.59708 0.85456,0.64092 0.0676,0.0225 0.14608,-0.0225 0.21364,0 0.2004,0.0668 0.35931,0.31075 0.5341,0.42728 0.28606,0.19071 0.55974,0.27987 0.85456,0.42728 0.2504,0.1252 0.38782,0.3373 0.74774,0.42728 0.31505,0.0788 0.7417,0 1.0682,0"
       id="path83" />
    <path
       style="fill:none;fill-opacity:1;stroke:#000000;stroke-width:0.264583;stroke-linecap:round;stroke-linejoin:round;stroke-dasharray:none;stroke-opacity:1"
       d="m 5.841112,163.30775 c 2.5059677,-1.3897 5.043962,-2.70842 7.544769,-4.13745 2.50324,-1.43043 4.639712,-3.49014 6.814631,-5.35436 1.135772,-0.97351 2.349554,-1.86279 3.407315,-2.92055 5.312136,-5.31214 9.369022,-11.83937 10.952085,-19.22699 0.603967,-2.81852 1.320612,-7.92063 -1.703658,-9.73519 -1.231516,-0.73891 -1.955649,-0.97352 -3.407314,-0.97352 -0.405633,0 -0.823378,-0.0984 -1.216899,0 -0.283773,0.0709 -0.476173,0.34164 -0.730138,0.48676 -0.630013,0.36001 -1.356579,0.55176 -1.947039,0.97352 -1.034223,0.73873 -2.251349,2.0932 -2.920555,3.16394 -0.8737,1.39791 -1.257848,3.24815 -1.460278,4.86759 -0.132491,1.05992 0.123063,0.50049 0.243379,1.70366 0.04844,0.48434 -0.08707,0.98137 0,1.46027 0.190526,1.04789 0.942161,2.71809 1.460278,3.6507 0.196993,0.35458 0.533146,0.61893 0.730139,0.97352 0.910839,1.63951 -0.007,0.86025 1.216898,2.4338 0.529455,0.68072 1.130719,1.30248 1.703659,1.94703 1.289299,1.45046 2.897606,2.65805 4.380833,3.89408 0.44069,0.36724 0.776206,0.84965 1.216898,1.21689 0.224708,0.18726 0.48676,0.32451 0.730139,0.48676 0.324506,0.24338 0.665538,0.46616 0.973519,0.73014 1.309224,1.1222 2.143045,2.53289 3.163935,3.89408 0.725691,0.96758 1.496459,1.92075 1.703657,3.16393 0.254196,1.52518 -0.213913,2.76086 -0.730139,4.13746 -0.724114,1.93097 -1.639887,3.60514 -3.407314,4.86759 -1.201354,0.85811 -4.131861,2.25056 -5.597732,2.4338 -0.644001,0.0805 -1.303038,-0.0805 -1.947037,0 -0.331912,0.0415 -0.639026,0.24338 -0.973519,0.24338 -0.181405,0 -0.308878,-0.20781 -0.48676,-0.24338 -0.244669,-0.0489 -2.017207,-0.0702 -2.190417,-0.24338 -0.05736,-0.0574 0.07256,-0.2071 0,-0.24338 -0.145123,-0.0726 -0.332832,0.0513 -0.486759,0 -0.551763,-0.18392 -1.216898,-1.40074 -1.216898,-1.94704 0,-0.86416 1.548868,-2.19602 2.190417,-2.67718 3.862725,-2.89704 8.599086,-4.42123 12.899121,-6.57125 0.832678,-0.41634 2.392781,-1.36867 3.163935,-1.94704 0.506897,-0.38016 0.920652,-0.88481 1.460281,-1.21689 0.526187,-0.32381 1.151043,-0.45384 1.703657,-0.73014 1.263764,-0.63189 2.007203,-1.17588 3.163935,-1.94704 3.532135,-2.35476 6.842659,-5.20685 9.491805,-8.51829 0.221253,-0.27656 1.973887,-2.67717 1.216898,-2.67717 -0.423079,0 -2.488948,3.3213 -2.677175,3.65069 -1.23081,2.15392 -2.076683,4.49399 -2.920556,6.81463 -1.22777,3.37637 -2.433796,6.60425 -2.433796,10.22195 0,1.7275 -0.160599,4.70699 1.216898,6.08449 0.673103,0.6731 2.110163,1.3795 2.920556,1.70366 0.97967,0.39187 2.145246,0.24338 3.163935,0.24338 4.461676,0 5.869119,-1.76756 9.005048,-4.38084 3.473027,-2.89418 4.629108,-2.44358 6.81463,-6.81463 0.243379,-0.48676 0.558043,-0.94399 0.730139,-1.46028 0.156051,-0.46815 0.113538,-0.98419 0.243379,-1.46027 0.114951,-0.42149 0.371811,-0.79542 0.486759,-1.2169 0.657244,-2.40989 0.354531,-7.34355 -0.243379,-9.73519 -0.971844,-3.88738 -5.921275,-7.48668 -9.735185,-8.03153 -0.723432,-0.10334 -1.729891,0.1026 -2.433796,0.24338 -5.377974,1.0756 -4.629727,5.71446 -0.973519,9.00505 4.302223,3.872 14.829549,3.80163 19.470373,0.48676 0.679717,-0.48551 1.289618,-1.17772 1.947037,-1.70366 0.499649,-0.39972 1.262245,-0.77548 1.703657,-1.2169 0.103111,-0.10311 0.638765,-1.12552 0.730139,-1.2169 0.05736,-0.0574 0.186015,0.0574 0.243379,0 0.09411,-0.0941 0.446281,-1.01399 0.24338,-1.21689 -0.751866,-0.75187 -4.105323,5.98961 -4.380833,6.57125 -1.698464,3.58564 -2.63057,6.5816 -3.407315,10.46532 -0.08113,0.40563 -0.243379,0.80323 -0.243379,1.2169 0,3.54198 1.941279,7.67449 5.597731,8.51829 0.499904,0.11536 2.265129,0.37446 2.920555,0.24338 1.950006,-0.39 5.356313,-2.11674 7.058012,-3.16394 4.262252,-2.62292 8.315427,-6.02066 10.708707,-10.46532 1.42277,-2.6423 2.49441,-6.48122 1.94703,-9.49181 -0.99548,-5.47517 -7.612758,-10.59298 -13.142496,-9.97856 -1.15855,0.12872 -2.918497,0.24183 -3.894077,0.97351 -3.715041,2.78629 -1.132768,6.70847 1.947037,8.76167 2.733733,1.82249 6.541527,2.19271 9.735188,1.94704 3.669188,-0.28225 9.370548,-3.92503 11.682228,-6.81463 0.4242,-0.53026 0.78389,-1.16241 1.21689,-1.70366 0.16226,-0.24338 0.32451,-0.48676 0.48676,-0.73014 0,-0.0811 -0.0363,-0.17082 0,-0.24338 0.50645,-1.01289 -0.0168,0.26018 0.48676,-0.24338 0.0574,-0.0574 -0.0363,-0.17082 0,-0.24338 0.31545,-0.63089 0.98326,-0.80477 1.46028,-0.48676 1.23022,0.82015 0.88807,3.18454 0.97352,4.38084 0.0817,1.14439 0.39876,2.26339 0.48676,3.40731 0.099,1.28715 -0.12844,2.60965 0,3.89408 0.148,1.47997 0.24338,2.8788 0.24338,4.38083 0,0.32451 0,0.64901 0,0.97352 0.0811,0.16225 0.21355,0.30782 0.24338,0.48676 0.0421,0.25239 -0.17233,3.16393 0.24338,3.16393 0.49266,0 1.61015,-4.00679 1.70365,-4.38083 0.57865,-2.31457 1.10645,-4.69912 1.46028,-7.05801 0.6371,-4.24732 0.82796,-8.64113 2.4338,-12.65574 0.2119,-0.52975 0.7993,-1.72671 1.46028,-1.94704 0.15393,-0.0513 0.33283,0.0513 0.48676,0 0.4274,-0.14247 0.0391,-0.3553 0.48676,-0.24338 4.37428,1.09357 5.72331,8.80861 6.57125,12.41237 0.4211,1.78968 1.10054,3.55567 1.46027,5.35435 0.46536,2.32679 0.68271,4.74317 1.2169,7.05801 0.11538,0.49995 0.38614,0.95715 0.48676,1.46027 0.0636,0.31821 -0.0459,0.65228 0,0.97352 0.17616,1.23308 0.79737,2.41762 0.97352,3.6507 0.15757,1.10295 0.10306,4.55405 1.2169,5.11097 0.14512,0.0726 0.34163,-0.0726 0.48676,0 0.56845,0.28423 0.16169,0.28423 0.73014,0 0.38434,-0.19217 1.24376,-0.0594 1.70365,-0.24338 0.55331,-0.22132 0.94861,-0.71768 1.46028,-0.97352 0.71465,-0.35732 1.46028,-0.64901 2.19042,-0.97352"
       id="path84" />
    <path
       style="fill:none;fill-opacity:1;stroke:#000000;stroke-width:0.264583;stroke-linecap:round;stroke-linejoin:round;stroke-dasharray:none;stroke-opacity:1"
       d="m 159.65706,96.865105 c -0.10708,0.560277 0.0803,1.141479 0,1.703658 -0.64971,4.547927 -0.45751,9.054217 0,13.629257 0.0807,0.80724 -0.0807,1.62656 0,2.4338 0.21172,2.11721 0.76144,4.20708 0.97352,6.32787 0.29157,2.91575 0.43855,5.84586 0.73014,8.76167 0.21781,2.17817 -0.048,4.42253 -0.24338,6.57125 -0.11506,1.26562 0,2.62105 0,3.89407 0,2.67718 0,5.35436 0,8.03153"
       id="path85" />
    <path
       style="fill:none;fill-opacity:1;stroke:#000000;stroke-width:0.264583;stroke-linecap:round;stroke-linejoin:round;stroke-dasharray:none;stroke-opacity:1"
       d="m 156.49312,169.39224 c 0,0.32451 -0.32451,0.97352 0,0.97352 0.32451,0 -0.0636,-1.29172 0,-0.97352 0.31657,1.58283 0.12075,2.61491 0.97352,3.89408 0.34241,0.51361 0.35086,0.91668 0.48676,1.46028 0.29382,1.17526 0.11566,-0.0121 0.48676,0.73014 0.55497,1.10993 0.90096,2.53206 1.46028,3.65069 0.29971,0.59943 -0.70647,-0.21971 0.24338,0.73014 0.0564,0.0564 0.89264,0.4598 0.97352,0.48676 0.52229,0.17409 1.39132,0 1.94703,0 0.20198,0 1.41925,0.0615 1.46028,0 1.0553,-1.58294 1.40348,-3.30988 1.70366,-5.11097 0.04,-0.24007 -0.0669,-0.49613 0,-0.73014 0.28681,-1.00384 1.11625,-2.0056 0.73014,-3.16394 -0.25905,-0.77713 -1.01812,-1.73339 -1.70366,-2.19042 -0.21346,-0.1423 -0.51668,-0.10107 -0.73014,-0.24338 -0.15094,-0.10062 -0.0811,-0.40563 -0.24338,-0.48676 -0.14512,-0.0726 -0.33283,0.0513 -0.48676,0 -0.41778,-0.13925 -0.79912,-0.83425 -1.2169,-0.97351 -0.15392,-0.0513 -0.33283,0.0513 -0.48676,0 -0.10884,-0.0363 -0.14076,-0.19208 -0.24337,-0.24338 -0.87664,-0.43832 -0.82948,-0.0249 -1.70366,-0.24338 -0.11131,-0.0278 -0.13454,-0.2071 -0.24338,-0.24338 -0.21484,-0.0716 -0.71784,0 -0.97352,0 -0.24236,0 -1.5633,-0.14036 -1.70366,0 -0.081,0.081 0.0164,0.9244 0,0.97352 -0.19538,0.58613 -0.48676,1.13577 -0.73014,1.70365 z"
       id="path87" />
  </g>
</svg>
