<?xml version="1.0" encoding="UTF-8" standalone="no"?>
<!-- Created with Inkscape (http://www.inkscape.org/) -->

<svg
   width="210mm"
   height="297mm"
   viewBox="0 0 210 297"
   version="1.1"
   id="svg1"
   inkscape:version="1.4 (86a8ad7, 2024-10-11)"
   sodipodi:docname="drawing-5.svg"
   xmlns:inkscape="http://www.inkscape.org/namespaces/inkscape"
   xmlns:sodipodi="http://sodipodi.sourceforge.net/DTD/sodipodi-0.dtd"
   xmlns="http://www.w3.org/2000/svg"
   xmlns:svg="http://www.w3.org/2000/svg">
  <sodipodi:namedview
     id="namedview1"
     pagecolor="#ffffff"
     bordercolor="#000000"
     borderopacity="0.25"
     inkscape:showpageshadow="2"
     inkscape:pageopacity="0.0"
     inkscape:pagecheckerboard="0"
     inkscape:deskcolor="#d1d1d1"
     inkscape:document-units="mm"
     inkscape:zoom="1.5744445"
     inkscape:cx="383.94495"
     inkscape:cy="220.71277"
     inkscape:window-width="1920"
     inkscape:window-height="991"
     inkscape:window-x="-9"
     inkscape:window-y="-9"
     inkscape:window-maximized="1"
     inkscape:current-layer="layer1" />
  <defs
     id="defs1" />
  <g
     inkscape:label="Layer 1"
     inkscape:groupmode="layer"
     id="layer1">
    <path
       style="fill:none;fill-opacity:1;stroke:#000000;stroke-width:0.264583;stroke-linecap:round;stroke-linejoin:round;stroke-dasharray:none;stroke-opacity:1"
       d="m 84.360442,54.279728 c -0.871088,0.319786 -1.789692,0.660424 -2.688778,0.840242 -0.430413,0.08608 -0.911264,-0.07219 -1.34439,0 -0.68943,0.114906 -0.302474,0.268881 -1.008293,0.168048 -0.228639,-0.03266 -0.442645,-0.142542 -0.672195,-0.168048 -0.501062,-0.05567 -1.012184,0.06253 -1.512437,0 -0.740103,-0.09251 -1.339046,-0.418118 -2.016586,-0.672195 -0.861592,-0.323098 -0.554177,-0.01667 -1.512437,-0.336097 -1.175592,-0.391864 -2.617148,-1.231437 -3.697071,-1.848535 -0.435012,-0.248579 -0.936688,-0.380982 -1.34439,-0.672196 C 68.370476,51.452814 68.242293,51.238946 68.05972,51.086802 67.904563,50.957503 67.723622,50.862737 67.555572,50.750705 67.331507,50.638672 67.078997,50.5711 66.88338,50.414607 66.78557,50.336357 66.8039,50.167079 66.71533,50.07851 c -0.420122,-0.420122 -0.924269,-0.756219 -1.344391,-1.17634 -0.386503,-0.386506 -1.011253,-1.857423 -1.17634,-2.352683 -0.936979,-2.810939 -0.676531,-6.259357 0.16805,-9.074629 0.224192,-0.74731 0.58057,-1.448898 0.840243,-2.184633 1.614524,-4.574487 3.959093,-8.312092 8.234386,-10.755116 2.447825,-1.398757 -0.708991,0.438519 1.17634,-0.504146 0.864926,-0.432463 1.876274,-0.844867 2.856828,-1.008292 0.587433,-0.09791 1.251257,0 1.848535,0 0.687515,0 1.501678,-0.113827 2.184633,0 2.096477,0.349412 4.595186,1.672696 6.217801,3.024876 0.426006,0.355003 0.759013,0.811177 1.176343,1.176342 0.21078,0.184433 0.489918,0.291491 0.672192,0.504145 0.163034,0.190204 0.182298,0.474453 0.336098,0.672195 0.663189,0.852668 0.867825,0.654622 1.34439,1.512438 0.146497,0.263694 0.189601,0.576548 0.336098,0.840242 0.694102,1.249387 1.561854,2.332879 2.016585,3.697074 0.212032,0.636098 0.730544,1.190349 0.840243,1.848535 0.09768,0.58606 0.371707,3.4578 0.168047,3.865118 -0.02506,0.0501 -0.142997,-0.0501 -0.168047,0 -0.125603,0.251208 -0.07744,0.736462 -0.168051,1.008292 -0.05802,0.17407 -0.252737,0.337431 -0.336094,0.504148 -0.203134,0.406268 -0.17457,0.745596 -0.336098,1.17634 -0.374825,0.99953 -1.041543,1.915033 -1.51244,2.856828 -0.214752,0.429506 -0.580173,0.786236 -0.840243,1.17634 -0.345257,0.517885 -0.910804,1.149414 -1.17634,1.680488 -0.02506,0.0501 0.03961,0.128439 0,0.168047 -0.408157,0.408157 -0.246766,-0.04997 -0.504148,0.336098 -0.22987,0.344808 -0.73443,1.070528 -1.00829,1.34439 -0.369273,0.369271 -1.088006,0.66357 -1.34439,1.17634 -0.02506,0.0501 0.03961,0.12844 0,0.168051 -0.08857,0.08857 -0.247528,0.07948 -0.336097,0.168047 -0.110898,0.110897 -0.237408,0.538827 -0.504146,0.672195 -0.231801,0.115898 -0.150315,-0.203517 -0.336097,0.168048 -0.02506,0.0501 0.03961,0.128439 0,0.16805 -0.03961,0.03961 -0.117946,-0.02506 -0.16805,0 -0.141711,0.07086 -0.216861,0.231764 -0.336098,0.336097 -0.388662,0.34008 -0.784227,0.672195 -1.17634,1.008293 z"
       id="path89" />
    <path
       style="fill:none;fill-opacity:1;stroke:#000000;stroke-width:0.264583;stroke-linecap:round;stroke-linejoin:round;stroke-dasharray:none;stroke-opacity:1"
       d="m 122.33945,53.103385 c -0.99312,0.407186 -1.97931,0.967227 -3.02488,1.176343 -0.30454,0.06091 -0.70285,-0.07636 -1.00829,0 -0.44945,0.11236 -0.19909,0.262668 -0.6722,0.168047 -0.56518,-0.113035 -1.11327,-0.241562 -1.68048,-0.336097 -0.52949,-0.08825 -1.00335,-0.08155 -1.51244,-0.336098 -0.3361,-0.168047 -0.68608,-0.310814 -1.00829,-0.504145 -0.13586,-0.08151 -0.20024,-0.254582 -0.3361,-0.336097 -0.30379,-0.182274 -0.69142,-0.17766 -1.00829,-0.336098 -0.3613,-0.180647 -0.647,-0.491548 -1.0083,-0.672195 -0.15843,-0.07922 -0.35225,-0.07691 -0.50414,-0.168047 -0.13586,-0.08152 -0.20024,-0.254583 -0.3361,-0.336098 -0.49755,-0.298529 -1.04123,-0.447574 -1.51244,-0.840245 -2.73153,-2.276279 -5.49099,-5.104466 -6.2178,-8.738531 -0.77071,-3.853564 -0.0998,-5.650556 0.84024,-9.410727 0.28801,-1.152012 -0.004,-0.898959 0.50415,-2.016585 0.36058,-0.793284 0.8296,-1.543608 1.17634,-2.35268 0.0698,-0.162817 0.11203,-0.336098 0.16805,-0.504148 0.16805,-0.28008 0.37149,-0.541766 0.50415,-0.840243 0.0938,-0.211055 0.0648,-0.465617 0.16805,-0.672194 0.21549,-0.430998 0.62474,-0.745343 0.84024,-1.176341 0.30454,-0.609078 0.57493,-1.138788 1.00829,-1.680487 0.43653,-0.54566 1.1406,-0.912483 1.68049,-1.344389 0.12371,-0.09898 0.20023,-0.254582 0.33609,-0.336098 0.1519,-0.09114 0.34571,-0.08883 0.50415,-0.168048 0.18065,-0.09032 0.3235,-0.245774 0.50415,-0.336098 0.31687,-0.158438 0.69141,-0.177659 1.00829,-0.336097 0.18065,-0.09032 0.31504,-0.265181 0.50414,-0.336098 1.08956,-0.408583 2.39528,-0.530476 3.52903,-0.672194 3.23272,-0.40409 5.97687,0.04759 8.90658,1.512438 0.31687,0.158438 0.69142,0.177659 1.00829,0.336097 0.37145,0.185728 1.53265,0.93943 1.84854,1.176341 0.37255,0.279415 0.62122,0.750248 1.00829,1.008292 0.0466,0.03107 0.11203,0 0.16805,0 0.11203,0.112033 0.23712,0.212379 0.33609,0.336098 0.09,0.112538 0.30704,0.540787 0.50415,0.672194 0.10422,0.06948 0.24753,0.07948 0.3361,0.168049 0.25869,0.25869 0.4135,0.749602 0.67219,1.008292 0.0886,0.08857 0.23589,0.09289 0.3361,0.168049 0.25377,0.190328 0.81452,1.053726 1.00829,1.344389 0.86688,1.300327 1.3786,3.195932 1.68049,4.705364 0.16039,0.801968 -0.0904,1.707483 0,2.52073 0.23203,2.088306 0.24023,-0.09702 0,1.34439 -0.1264,0.758386 0.15075,1.598943 0,2.35268 -0.0246,0.122825 -0.12844,0.217271 -0.16805,0.336098 -0.13444,0.403318 0.13444,0.941073 0,1.34439 -0.0251,0.07515 -0.13262,0.09719 -0.16805,0.168048 -0.0955,0.190934 0.0361,0.432054 -0.16805,0.840245 -0.0806,0.161285 0.0538,0.51081 0,0.672195 -0.0558,0.167349 -0.28031,0.336796 -0.3361,0.504145 -0.0354,0.106283 0.0354,0.229815 0,0.336098 -0.12731,0.381955 -0.44136,0.662045 -0.67219,1.008292 -0.056,0.112033 -0.11203,0.224065 -0.16805,0.336098 0,0.05602 0.0251,0.117946 0,0.168047 -0.10628,0.212567 -0.37232,0.306404 -0.50415,0.504148 -0.10696,0.160441 -0.20647,0.477758 -0.33609,0.672192 -0.40706,0.610587 -2.3338,2.438406 -2.85683,2.856828 -0.3617,0.289359 -0.62375,0.751936 -1.00829,1.008293 -0.22806,0.152038 -0.46599,0.232992 -0.6722,0.336098 -0.20165,0.10083 -0.30248,0.403317 -0.50414,0.504145 -0.10185,0.05092 -0.43373,0.09763 -0.50415,0.16805 -0.0396,0.03961 0.0396,0.128439 0,0.168047 -0.056,0.05602 -0.44813,0.112033 -0.50414,0.16805 -0.0396,0.03961 0.0396,0.12844 0,0.168048 -0.15698,0.156972 -0.68328,0.179128 -0.84025,0.336097 -0.084,0.08402 -0.084,0.252074 -0.16805,0.336098 -0.0792,0.07922 -0.25688,-0.07922 -0.33609,0 -0.0396,0.03961 0.0396,0.128439 0,0.16805 -0.0396,0.03961 -0.12844,-0.03961 -0.16805,0 -0.0396,0.03961 0.0396,0.128439 0,0.168047 -0.0396,0.03961 -0.12844,-0.03961 -0.16805,0 -0.0396,0.03961 0.0396,0.12844 0,0.168051 -0.0396,0.03961 -0.12844,-0.03961 -0.16805,0 -0.0396,0.03961 0.0396,0.128439 0,0.168047 -0.0396,0.03961 -0.11203,0 -0.16805,0 -0.22406,0.392112 -0.44813,0.784228 -0.67219,1.17634 z"
       id="path90" />
    <path
       style="fill:none;fill-opacity:1;stroke:#000000;stroke-width:0.264583;stroke-linecap:round;stroke-linejoin:round;stroke-dasharray:none;stroke-opacity:1"
       d="m 54.615823,68.05972 c 0.283771,1.949532 1.506336,3.568766 2.184635,5.377558 0.955281,2.547416 2.269416,4.496189 4.033168,6.553899 1.288865,1.503674 -0.371435,-0.29055 1.008293,1.680487 0.181716,0.259594 0.463529,0.433721 0.672192,0.672193 0.368872,0.421566 0.639424,0.922824 1.008293,1.34439 0.611336,0.698669 1.319488,1.251024 2.016585,1.848535 0.929,0.796288 1.748851,1.737458 2.688778,2.520731 1.012111,0.843425 2.155399,1.545717 3.192926,2.352683 1.337143,1.04 2.520828,2.199962 4.033168,3.024875 3.258828,1.777542 -0.930672,-0.54936 1.848535,0.840242 0.954551,0.477277 1.83778,0.980446 2.856828,1.344391 0.950217,0.339362 1.949095,0.386376 2.856828,0.840245 1.599777,0.799888 3.235682,1.456751 4.873413,2.184633 0.22892,0.101743 0.44813,0.224065 0.672195,0.336097 0.28008,0.168048 0.542891,0.368986 0.840243,0.504145 1.183812,0.538096 2.510123,0.835696 3.69707,1.344386 0.18564,0.0796 0.318508,0.25654 0.504148,0.3361 0.424572,0.18196 0.901949,0.20337 1.344388,0.3361 1.280189,0.38406 2.563757,0.62335 3.86512,0.84024 0.174728,0.0291 0.336098,0.11203 0.504145,0.16805 0.336098,0.056 0.669251,0.13415 1.008296,0.16805 2.39114,0.23911 4.69019,0.12793 7.05804,-0.16805 0.87044,-0.1088 1.66136,0.0468 2.52073,-0.16805 0.93994,-0.23498 2.06359,0.13733 3.02488,0 0.22864,-0.0327 0.44355,-0.13539 0.67219,-0.16805 0.65845,-0.0941 1.35546,0.0735 2.01659,0 1.35412,-0.15046 2.70232,-0.33779 4.03317,-0.50414 0.45835,-0.0573 0.88992,-0.25347 1.34439,-0.3361 0.93725,-0.17041 1.93832,-0.2286 2.85683,-0.50415 1.31602,-0.3948 2.611,-1.123099 3.86511,-1.680483 0.77316,-0.343625 1.62976,-0.556464 2.35269,-1.008293 0.2375,-0.148442 0.42736,-0.368125 0.67219,-0.504145 1.43421,-0.796785 0.27033,0.104124 1.51244,-0.672195 0.23751,-0.148442 0.42168,-0.378891 0.67219,-0.504145 0.31688,-0.158438 0.68127,-0.199837 1.00829,-0.336098 1.08331,-0.451379 2.04323,-1.066956 3.02488,-1.680487 0.93961,-0.587254 1.95096,-1.02167 2.85683,-1.680488 1.31324,-0.955085 0.40584,-0.379418 1.68049,-1.512438 0.41867,-0.372152 0.94829,-0.612198 1.34439,-1.008293 0.25362,-0.253624 0.41857,-0.586618 0.67219,-0.840242 0.58571,-0.585708 1.23902,-0.963869 1.84854,-1.512438 0.79841,-0.718568 1.63411,-1.554273 2.35268,-2.352683 0.75635,-0.840393 1.28503,-1.835303 2.01658,-2.688778 0.87386,-1.019495 1.98298,-1.837332 2.85683,-2.856827 1.03667,-1.209451 2.06508,-2.983712 2.85683,-4.369266 0.59838,-1.047171 1.41567,-1.973281 2.01658,-3.024878 0.68778,-1.203608 1.38123,-2.556664 1.84854,-3.865118 0.57821,-1.618988 0.0669,-0.684829 0.67219,-2.016585 0.66335,-1.45936 1.34468,-2.913465 2.01659,-4.369266 0.57662,-1.249355 1.23611,-2.472222 1.84853,-3.697071 0.18065,-0.361293 0.51308,-0.637013 0.6722,-1.008292 0.36245,-0.845736 0.66385,-1.974879 0.84024,-2.856828 0.0578,-0.289092 0.2949,-2.93923 0.16805,-3.192926 -0.22887,-0.457737 -0.35541,-0.187356 -0.50415,-0.336097 -0.0396,-0.03961 0.0396,-0.128439 0,-0.168048 -0.10148,-0.101483 -0.84893,0 -1.00829,0 -0.21374,0 -1.20834,-0.136046 -1.34439,0 -0.0396,0.03961 0.0396,0.12844 0,0.168048 -0.0792,0.07922 -0.25688,-0.07922 -0.3361,0 -0.0396,0.03961 0.0396,0.128439 0,0.16805 -0.0728,0.07278 -0.56373,0.26379 -0.67219,0.336098 -0.32081,0.213873 -0.53898,0.59923 -0.84024,0.840242 -0.88023,0.704181 -1.81361,1.287275 -2.68878,2.016583 -0.6722,0.560162 -1.31659,1.155488 -2.01659,1.680488 -0.78753,0.590647 -1.7469,0.996555 -2.52073,1.512437 -0.96801,0.645343 -1.64594,1.327116 -2.68878,1.848536 -0.25388,0.126941 -0.40508,0.583157 -0.67219,0.672195 -0.10628,0.03543 -0.22982,-0.03543 -0.3361,0 -0.25933,0.08644 -0.44733,0.503549 -0.67219,0.672195 -0.52357,0.392673 -1.14534,0.651526 -1.68049,1.008292 -0.31024,0.206831 -0.69805,0.297318 -1.00829,0.504145 -0.55754,0.37169 -1.0879,0.837719 -1.68049,1.176343 -0.59332,0.339043 -1.24764,0.539795 -1.84853,0.840243 -0.51528,0.257635 -0.99887,0.583456 -1.51244,0.840242 -0.87054,0.435272 -1.66786,1.038622 -2.52074,1.512441 -0.87468,0.485936 -1.82007,0.847987 -2.68877,1.344387 -0.76113,0.434933 -1.55003,1.000398 -2.35269,1.344391 -1.082,0.463719 -2.25761,0.762579 -3.36097,1.17634 -0.66726,0.250227 -1.33588,0.636034 -2.01658,0.840245 -0.32636,0.09791 -0.67957,0.07839 -1.00829,0.168047 -1.07116,0.292135 -2.12744,0.688647 -3.19293,1.008293 -0.54716,0.164147 -1.12936,0.18579 -1.68049,0.336098 -0.90223,0.246065 -1.78062,0.613203 -2.68878,0.840242 -0.95767,0.239419 -1.90298,0.399669 -2.85682,0.672195 -1.20387,0.343964 -2.52541,0.568921 -3.69707,1.008293 -1.28528,0.481978 -2.36379,0.712004 -3.69708,1.008293 -0.45092,0.100203 -0.88529,0.285085 -1.34438,0.336095 -2.80452,0.311613 -5.57456,0.336097 -8.402441,0.336097 -1.051163,0 -2.14589,0.08725 -3.192925,0 -1.176134,-0.09801 -2.349251,-0.251828 -3.529021,-0.336097 -3.500691,-0.250048 -6.987944,-0.318572 -10.419019,-1.176341 -1.207971,-0.301992 -2.338924,-0.819311 -3.529023,-1.17634 -1.143179,-0.342953 -2.249297,-0.731671 -3.360973,-1.17634 -0.81571,-0.326284 -1.722244,-0.498036 -2.52073,-0.840245 -0.185639,-0.07956 -0.318508,-0.256537 -0.504148,-0.336098 -0.212285,-0.09098 -0.459906,-0.07707 -0.672195,-0.168047 -0.295904,-0.197271 -0.517276,-0.37496 -0.840242,-0.504145 -1.20799,-0.483198 -2.224739,-1.199258 -3.360973,-1.848538 -1.323859,-0.756489 -2.68106,-1.508577 -4.033168,-2.184633 -0.714381,-0.357187 -2.367767,-0.802002 -3.192926,-1.00829 -0.46967,-0.117419 -0.933778,-0.130791 -1.34439,-0.336097 -0.39197,-0.195985 -1.40058,0 -1.848535,0 -0.112033,0 -0.256879,-0.07922 -0.336098,0 -0.03961,0.03961 0.03961,0.128439 0,0.168047 -0.07922,0.07922 -0.256878,-0.07922 -0.336097,0 -0.03961,0.03961 0.03961,0.128439 0,0.16805 -0.07922,0.07922 -0.256879,-0.07922 -0.336098,0 -0.03961,0.03961 0.03961,0.128439 0,0.168048 -0.03961,0.03961 -0.117946,-0.02506 -0.168047,0 -0.329674,0.164838 0.01286,0.336097 -0.336098,0.336097"
       id="path91" />
    <path
       style="fill:none;fill-opacity:1;stroke:#000000;stroke-width:0.264583;stroke-linecap:round;stroke-linejoin:round;stroke-dasharray:none;stroke-opacity:1"
       d="m 92.258731,77.134349 c 0,0.224065 -0.224065,0.672195 0,0.672195 0.224065,0 0,-0.89626 0,-0.672195 0,1.400405 0,2.80081 0,4.201218 0,1.245065 -0.03373,2.318374 0.168047,3.52902 0.143764,0.862574 -0.04187,1.764803 0.336098,2.520731 0.08815,0.176307 -0.134128,0.706114 0,0.840245 0.03961,0.03961 0.128439,-0.03961 0.16805,0 0.122468,0.122467 0.0024,0.674491 0.168047,0.840242 0.03961,0.03961 0.12844,-0.03961 0.16805,0 0.03961,0.03961 -0.03961,0.12844 0,0.168048 0.07768,0.07768 0.402683,-0.05073 0.504145,0 0.07086,0.03543 0.0929,0.142999 0.168051,0.16805 0.707649,0.235884 1.626452,-0.181557 2.35268,0 0.439269,0.109818 0.856665,0.265594 1.34439,0.168047 0.173699,-0.03474 0.330446,-0.133307 0.504145,-0.168047 0.320194,-0.06404 0.691886,0.0791 1.008293,0 0.733957,-0.183489 2.556743,-0.40812 2.856823,-1.008293 0.17571,-0.351409 0.20581,-0.785447 0.3361,-1.17634 0.0251,-0.07515 0.14884,-0.0912 0.16805,-0.16805 0.0408,-0.163031 -0.0238,-0.337786 0,-0.504145 0.20883,-1.461815 0.0967,0.02072 0.3361,-1.17634 0.0782,-0.391224 0.0386,-0.619927 0.16805,-1.008293 0.0986,-0.295775 -0.20561,-1.138785 0,-1.34439 0.0396,-0.03961 0.12844,0.03961 0.16804,0 0.0308,-0.03081 0,-2.578119 0,-2.856828 0,-0.213736 0.13605,-1.208344 0,-1.344388 -0.0396,-0.03961 -0.12843,0.03961 -0.16804,0 -0.1066,-0.106595 0.0699,-0.53228 0,-0.672195 -0.20766,-0.415316 -0.16805,0.05801 -0.16805,-0.336097"
       id="path92" />
    <path
       style="fill:none;fill-opacity:1;stroke:#000000;stroke-width:0.264583;stroke-linecap:round;stroke-linejoin:round;stroke-dasharray:none;stroke-opacity:1"
       d="m 114.10506,75.117763 c -0.14365,0.911236 -0.35412,1.788623 -0.50415,2.688781 -0.0553,0.331523 0.0475,0.675571 0,1.008292 -0.0888,0.621388 -0.25828,1.226021 -0.33609,1.848536 -0.0568,0.454289 0.20713,1.434261 0,1.848535 -0.0354,0.07086 -0.13262,0.09719 -0.16805,0.168047 -0.027,0.05408 -0.027,2.130558 0,2.184633 0.63431,1.268635 2.21868,1.366846 3.52902,1.51244 0.79886,0.08876 1.6353,0.358693 2.35268,0 0.21217,-0.106084 0.84697,0.161325 1.00829,0 0.0396,-0.03961 -0.0396,-0.128439 0,-0.16805 0.17321,-0.173209 1.00314,0.0052 1.17634,-0.168047 0.0396,-0.03961 -0.0396,-0.128439 0,-0.16805 0.16806,-0.168048 0.6722,0 0.84025,-0.168048 0.0396,-0.03961 -0.0251,-0.117946 0,-0.16805 0.0891,-0.178244 0.24697,-0.15785 0.3361,-0.336097 0.19131,-0.382625 0.35781,-0.905391 0.50414,-1.344388 0.2228,-0.668388 0.50347,-1.341686 0.6722,-2.016585 0.12972,-0.518893 -0.005,-0.993907 0.16805,-1.512438 0.059,-0.177165 0.064,-0.984226 0,-1.17634 -0.20766,-0.622975 -0.16805,0.204843 -0.16805,-0.336098 0,-0.43739 0.13784,-1.098901 0,-1.51244 -0.13934,-0.418007 -0.15548,-0.815089 -0.3361,-1.17634 -0.07,-0.139914 0.1066,-0.5656 0,-0.672195 -0.0396,-0.03961 -0.12844,0.03961 -0.16805,0 -0.11203,-0.112033 0.11203,-0.560163 0,-0.672195 -0.0396,-0.03961 -0.12844,0.03961 -0.16805,0 -0.0436,-0.04358 -0.16805,-1.160275 -0.16805,-1.344388"
       id="path93" />
    <path
       style="fill:none;fill-opacity:1;stroke:#000000;stroke-width:0.264583;stroke-linecap:round;stroke-linejoin:round;stroke-dasharray:none;stroke-opacity:1"
       d="m 89.906048,101.16531 c 0.216754,-0.77631 0.159022,-1.836497 0.672195,-2.520728 0.07515,-0.100206 0.247528,-0.07948 0.336098,-0.16805 0.366762,-0.366763 0.573873,-0.850527 1.008292,-1.17634 0.35991,-0.269934 0.312283,-0.06616 0.672195,-0.336098 0.702379,-0.526783 1.271852,-1.183997 2.016583,-1.680488 0.988814,-0.659207 2.187895,-1.009922 3.192926,-1.512438 0.172328,-0.08616 0.499866,-0.08188 0.672195,-0.168047 0.391453,-0.195728 1.30316,-0.698746 1.680488,-0.840245 0.29079,-0.109046 2.94744,-0.59476 3.02487,-0.672195 0.0396,-0.03961 -0.0501,-0.142997 0,-0.168048 0.10021,-0.0501 0.22741,0.02717 0.3361,0 0.79404,-0.198509 1.50841,-0.566661 2.35269,-0.672195 0.16675,-0.02085 0.33609,0 0.50414,0 0.22407,-0.05602 0.44356,-0.135385 0.6722,-0.168047 0.62811,-0.08973 1.39708,0.154874 2.01658,0 0.93557,-0.233895 2.04612,-0.499224 3.02488,-0.336098 0.17472,0.02912 0.32878,0.142997 0.50414,0.168048 0.17562,0.02508 1.34533,-0.167111 1.51244,0 0.0396,0.03961 -0.0396,0.128439 0,0.16805 0.0338,0.03379 2.26781,-0.01061 2.35268,0 0.55794,0.06974 1.81862,0.326122 2.35268,0.504145 0.0752,0.02506 0.0929,0.142996 0.16805,0.168047 0.15943,0.05314 0.35384,-0.07515 0.50415,0 0.46178,0.230894 1.12405,0.560909 1.68048,0.672195 1.18091,0.236183 -1.03806,-0.514072 1.0083,0.16805 0.23765,0.07922 0.42916,0.275339 0.67219,0.336098 1.58294,0.395735 2.90538,0.978418 4.36927,1.344387 0.35587,0.08897 0.65242,0.415182 1.00829,0.504148 0.49311,0.123277 0.89778,0.280839 1.34439,0.504145 0.1002,0.0501 0.25688,-0.07922 0.3361,0 0.0396,0.03961 -0.0396,0.12844 0,0.16805 0.0792,0.07922 0.25687,-0.07922 0.33609,0 0.0396,0.03961 -0.0396,0.12844 0,0.168048 0.0792,0.07922 0.25688,-0.07922 0.3361,0 0.0396,0.03961 -0.0396,0.128439 0,0.16805 0.11165,0.111646 0.22445,-0.111649 0.3361,0 0.0396,0.03961 -0.0396,0.128439 0,0.168047 0.0792,0.07922 0.25688,-0.07922 0.3361,0 0.0396,0.03961 -0.0396,0.12844 0,0.16805 0.0792,0.07922 0.25688,-0.07922 0.33609,0 0.0396,0.03961 -0.0396,0.12844 0,0.168048 0.0792,0.07922 0.25688,-0.07922 0.3361,0 0.0396,0.03961 -0.0396,0.128439 0,0.16805 0.0792,0.07922 0.25688,-0.07922 0.3361,0 0.15651,0.156514 -0.0132,0.168047 0.3361,0.168047"
       id="path94" />
    <path
       style="fill:none;fill-opacity:1;stroke:#000000;stroke-width:0.264583;stroke-linecap:round;stroke-linejoin:round;stroke-dasharray:none;stroke-opacity:1"
       d="m 47.221682,85.200685 c 0.97341,1.34398 1.941502,2.660181 2.856828,4.033168 0.68604,1.029062 1.171024,2.085366 2.016582,3.024878 1.025674,1.139634 2.272692,2.104641 3.360976,3.192925 1.577657,1.577658 3.042097,3.208425 4.705363,4.705364 1.389923,1.25093 0.26438,0.14644 1.680488,1.17634 1.97521,1.43652 3.937706,2.80114 6.049751,4.03317 0.801714,0.46766 1.330626,0.61413 2.184633,1.00829 2.159775,0.99682 4.272769,1.98689 6.553901,2.68878 2.434785,0.74917 -0.07976,-0.0171 2.35268,0.50415 1.95698,0.41935 3.826388,1.21944 5.713656,1.84853 1.229249,0.40975 2.332037,1.05206 3.529023,1.51244 0.380621,0.14639 0.792295,0.19894 1.17634,0.3361 1.956631,0.69879 3.833135,1.5776 5.881703,2.01658 3.44714,0.73867 6.886424,1.00829 10.419024,1.00829 1.16319,0 2.36912,0.0829 3.52902,0 0.39509,-0.0282 0.78112,-0.1417 1.17634,-0.16805 0.44714,-0.0298 0.90019,0.0592 1.34439,0 0.40423,-0.0539 0.77646,-0.25612 1.17634,-0.33609 0.44285,-0.0886 0.90051,-0.0848 1.34439,-0.16805 0.45401,-0.0851 0.89038,-0.25097 1.34439,-0.3361 0.44388,-0.0832 0.90626,-0.0585 1.34439,-0.16805 0.46431,-0.11608 0.88757,-0.36139 1.34439,-0.50414 2.92581,-0.91432 5.82665,-1.8862 8.73853,-2.85683 2.08953,-0.69651 4.15272,-1.42382 6.2178,-2.18463 0.49865,-0.18372 1.02682,-0.28832 1.51244,-0.50415 0.52702,-0.23423 0.9966,-0.58233 1.51244,-0.84024 1.21078,-0.60539 2.50069,-1.04711 3.69707,-1.68049 4.37487,-2.31611 -1.8911,0.69348 2.85683,-1.68049 0.49345,-0.24672 1.02485,-0.41406 1.51243,-0.67219 0.97642,-0.51693 1.88041,-1.16356 2.85683,-1.68049 1.00741,-0.53333 1.88808,-0.8856 2.85683,-1.51244 0.94059,-0.60862 1.77351,-1.370511 2.68878,-2.016581 1.40251,-0.99001 2.89353,-1.904 4.20122,-3.024878 3.40959,-2.92251 6.58699,-6.293482 9.24267,-9.914871 0.31251,-0.426151 0.52774,-0.918242 0.84025,-1.34439 0.3054,-0.416462 0.70288,-0.759878 1.00829,-1.17634 0.98887,-1.348465 0.71476,-1.270678 1.51244,-2.688781 0.54164,-0.962927 1.12693,-1.900692 1.68048,-2.856828 0.87969,-1.519457 1.90245,-2.964638 2.68878,-4.537313 1.1331,-2.266196 0.27687,-0.751504 1.17635,-3.192925 0.19072,-0.517681 0.46213,-1.002298 0.67219,-1.512438 0.9799,-2.379755 1.79467,-4.925555 2.52073,-7.394144 0.40626,-1.38127 0.51393,-2.77681 0.67219,-4.201218 0.10589,-0.952979 0.27629,-1.899851 0.3361,-2.856825 0.20281,-3.24494 -0.34362,-6.875957 -1.51244,-9.914874 -0.13489,-0.350721 -0.35962,-0.661429 -0.50414,-1.008293 -0.59937,-1.438479 -1.05801,-3.01407 -1.84854,-4.369265 -0.18073,-0.30982 -0.47963,-0.537639 -0.67219,-0.840243 -0.20174,-0.317021 -0.30241,-0.691272 -0.50415,-1.008293 -0.38513,-0.605208 -0.93301,-1.092803 -1.34439,-1.680487 -0.85523,-1.221767 -1.64169,-2.488396 -2.52073,-3.697071 -0.63223,-0.869312 -1.38436,-1.651418 -2.01658,-2.52073 -0.70883,-0.974638 -1.46212,-1.893478 -2.18464,-2.856828 -0.92229,-1.22973 -1.76279,-2.603037 -2.85682,-3.697071 -1.03684,-1.036833 -2.27174,-1.876514 -3.36098,-2.856828 -1.40807,-1.267262 -2.80948,-2.605223 -4.36926,-3.697071 -0.86191,-0.603335 -1.82688,-1.077151 -2.68878,-1.680487 -0.29384,-0.205689 -0.53764,-0.479629 -0.84025,-0.672195 -1.42543,-0.907093 -3.03344,-1.600743 -4.53731,-2.352681 -0.58429,-0.292145 -1.08579,-0.737973 -1.68049,-1.008292 -1.15578,-0.5253556 -2.38537,-0.9406152 -3.52902,-1.5124385 -0.89856,-0.4492826 -1.77563,-0.9293235 -2.68878,-1.3443894 -1.07134,-0.4869722 -0.76633,-0.1994278 -1.68049,-0.5041461 -1.23128,-0.4104283 -2.43568,-0.8609938 -3.69707,-1.1763409 -1.53719,-0.3842978 -0.46699,0.040688 -1.84853,-0.3360973 -0.94439,-0.2575613 -1.91762,-0.4160459 -2.85683,-0.6721949 -1.31609,-0.358934 -0.34499,-0.3557574 -1.68049,-0.504146 -1.45377,-0.16153 -2.90332,-0.550033 -4.36926,-0.6721946 -0.33494,-0.027911 -0.67336,0.027911 -1.00829,0 -1.35389,-0.1128236 -2.68007,-0.5491856 -4.03317,-0.6721949 -2.89721,-0.2633821 -5.83439,0.055348 -8.73854,-0.1680487 -1.2054,-0.092723 -1.03791,-0.2722962 -2.18463,-0.1680486 -0.96079,0.087345 -0.63241,0.2658296 -1.51244,0.1680486 -2.28175,-0.2535277 -4.60717,-0.2282822 -6.889993,0 -1.575962,0.1575961 -3.533786,0.7124403 -5.041461,1.1763409 -0.677222,0.208376 -1.326174,0.5128694 -2.016585,0.6721948 -1.385885,0.3198196 -0.895543,0.013824 -2.184633,0.3360973 -1.015249,0.2538124 -2.009627,0.586431 -3.024875,0.8402434 -1.05038,0.262595 -2.142546,0.4095999 -3.192926,0.6721948 -1.076992,0.2692477 -2.115934,0.7390443 -3.192925,1.0082922 -0.997945,0.2494859 -2.033135,0.40172 -3.024876,0.6721946 -0.753954,0.2056241 -1.460608,0.5687343 -2.184633,0.8402436 -0.917635,0.3441131 -1.924894,0.5295982 -2.856828,0.8402434 -1.368197,0.4560653 -2.746801,1.2053513 -4.033168,1.8485353 -1.281639,0.640819 -2.656482,1.247452 -3.86512,2.016584 -0.251836,0.160259 -1.69912,1.400377 -1.848535,1.512439 -1.305354,0.979014 -2.646934,1.928508 -3.865121,3.024876 -0.294415,0.264973 -0.533683,0.589422 -0.840243,0.840244 -0.312631,0.255789 -0.695661,0.416405 -1.008292,0.672194 -1.022149,0.836305 -2.440628,2.118215 -3.192926,3.192926 -1.104347,1.57764 -2.390354,3.275807 -3.192925,5.041461 -0.146601,0.322521 -0.199837,0.681265 -0.336098,1.008292 -0.289052,0.693724 -0.693354,1.33422 -1.00829,2.016583 -1.642332,3.558386 0.460074,-0.93613 -0.840245,2.184633 -0.719669,1.727208 -0.328036,0.279921 -1.008293,2.184633 -0.137157,0.384048 -0.184642,0.797705 -0.336095,1.176342 -0.186076,0.465188 -0.460319,0.890368 -0.672195,1.344388 -0.776345,1.663597 -1.450917,3.364391 -2.184633,5.041461 -0.200821,0.459017 -0.496273,0.875265 -0.672195,1.34439 -0.162192,0.432512 -0.198318,0.903494 -0.336097,1.34439 -1.282679,4.104569 -2.382764,8.337058 -2.856828,12.603652 -0.193614,1.742527 0,3.623627 0,5.377558 0,3.390083 -0.06446,-0.83802 0.168047,2.184633 0.05585,0.726064 -0.06047,1.458936 0,2.184633 0.08423,1.010753 0.25187,2.014122 0.336098,3.024875 0.193595,2.32315 0.460751,4.613045 0.840245,6.889996 0.147693,0.886172 0.618866,1.741882 1.00829,2.520731 0.268266,0.53653 0.402071,1.140237 0.672195,1.680487 0.177358,0.354717 0.462831,0.526193 0.672195,0.840243 0.297336,0.446003 0.519679,0.916969 0.840243,1.34439 0.142594,0.190124 0.372319,0.306404 0.504148,0.504145 0.06188,0.09283 0.655312,1.012513 0.672195,1.008293 0.438131,-0.109532 0.856998,-0.991537 1.17634,-0.672195 0.338423,0.338423 -0.400323,0.877183 -0.504145,1.34439 -0.03437,0.154665 0.248211,0.204269 0.336097,0.336098 0.06948,0.104219 0.07948,0.247528 0.168048,0.336097 0.08857,0.08857 0.231878,0.09857 0.336097,0.168048 0.452438,0.301627 0.723903,0.874715 1.17634,1.176342 0.341837,0.227889 0.666459,0.444305 1.008293,0.672193 0.323075,0.215384 0.366414,0.636391 0.672195,0.840245 0.274826,0.183219 0.5455,0.188725 0.840243,0.336098"
       id="path96" />
    <path
       style="fill:none;fill-opacity:1;stroke:#000000;stroke-width:0.264583;stroke-linecap:round;stroke-linejoin:round;stroke-dasharray:none;stroke-opacity:1"
       d="m 75.789958,31.257057 c -1.265092,1.046215 -2.963693,2.948194 -3.360973,4.537313 -0.436837,1.747351 -0.163028,3.722172 0.168048,5.377558 0.117827,0.58913 0.516231,1.19447 0.840245,1.680488 0.143595,0.215392 0.405498,1.077693 0.504145,1.17634 0.08857,0.08857 0.247528,0.07948 0.336098,0.16805 0.177138,0.177139 0.197138,0.463754 0.336097,0.672193 0.263552,0.39533 0.706427,0.538379 1.008293,0.840245 0.08857,0.08857 0.07948,0.247528 0.168047,0.336098 0.487966,0.487963 1.086335,0.523655 1.680488,0.672195 0.533358,0.133339 0.896747,0.270663 1.512438,0.168047 0.173231,-0.02887 1.648989,-0.490646 1.680488,-0.504145 0.145626,-0.06241 0.212378,-0.237122 0.336097,-0.336097 0.471355,-0.377087 1.041083,-0.631209 1.512438,-1.008293 0.323231,-0.258585 0.637971,-0.655082 1.008293,-0.840243 0.0501,-0.02506 0.128439,0.03961 0.168047,0 0.103246,-0.103245 0.111022,-0.391609 0.336098,-0.504147 0.231798,-0.115898 0.150315,0.203517 0.336097,-0.168048 0.04961,-0.09923 0.280353,-0.61645 0.336098,-0.672195 0.03961,-0.03961 0.128439,0.03961 0.168047,0 0.03961,-0.03961 -0.02506,-0.117946 0,-0.16805 0.437928,-0.875853 0.504148,-1.22624 0.504148,-2.35268 0,-0.545391 0.132606,-1.318104 0,-1.848535 -0.181314,-0.725252 -0.32294,-1.459802 -0.504148,-2.184633 -0.06076,-0.243033 -0.275338,-0.429162 -0.336097,-0.672195 -0.02717,-0.108689 0.03543,-0.229815 0,-0.336098 -0.163444,-0.490336 -1.006213,-1.845421 -1.344388,-2.352683 -0.169503,-0.254254 -0.490403,-0.429802 -0.672195,-0.672195 -0.422728,-0.563634 -1.148027,-1.446982 -1.848535,-1.680485 -0.106283,-0.03543 -0.229815,0.03543 -0.336098,0 -0.204015,-0.06801 -0.467863,-0.285015 -0.672195,-0.336098 -1.388811,-0.347202 -2.624148,0.476446 -3.865121,1.008293 z"
       id="path97" />
    <path
       style="fill:none;fill-opacity:1;stroke:#000000;stroke-width:0.264583;stroke-linecap:round;stroke-linejoin:round;stroke-dasharray:none;stroke-opacity:1"
       d="m 116.28969,29.408522 c -0.22406,0.168047 -0.84024,0.28008 -0.67219,0.504145 0.16805,0.224065 0.89626,-0.672195 0.67219,-0.504145 -1.55424,1.16568 -1.90603,1.553739 -2.52073,3.192923 -0.82364,2.196372 -1.76235,4.545965 -1.17634,6.889998 0.0408,0.163031 -0.0751,0.353838 0,0.504145 0.0354,0.07086 0.143,0.09289 0.16805,0.168048 0.0354,0.106283 -0.0354,0.229814 0,0.336097 0.0884,0.26529 0.48106,0.649111 0.6722,0.840246 1.64989,1.649896 4.48577,1.118089 6.38584,0.168047 1.22948,-0.614738 2.15807,-1.490295 3.19293,-2.35268 0.15516,-0.1293 0.36133,-0.193284 0.50415,-0.336098 0.19804,-0.198048 0.25363,-0.546939 0.50414,-0.672195 0.0501,-0.02506 0.12844,0.03961 0.16805,0 0.0704,-0.07042 0.11713,-0.402299 0.16805,-0.504148 0.0709,-0.14171 0.26524,-0.194384 0.3361,-0.336097 0.3051,-0.610209 0.66061,-1.402287 0.50414,-2.184633 -0.0569,-0.284596 -0.26559,-0.558234 -0.33609,-0.840243 -0.0272,-0.108688 0.0354,-0.229814 0,-0.336097 -0.10792,-0.323744 -0.56428,-0.684549 -0.6722,-1.008293 -0.0354,-0.106283 0.0354,-0.229814 0,-0.336097 -0.074,-0.222139 -0.39704,-0.457989 -0.50414,-0.672193 -1.02103,-2.042057 -4.68714,-3.697073 -7.05805,-3.697073"
       id="path98" />
    <path
       style="fill:none;fill-opacity:1;stroke:#000000;stroke-width:0.264583;stroke-linecap:round;stroke-linejoin:round;stroke-dasharray:none;stroke-opacity:1"
       d="m 100.49312,56.800458 c -0.22407,0 -0.672198,-0.224065 -0.672198,0 0,0.224063 0.889568,-0.05434 0.672198,0 -0.753933,0.188481 -1.345422,0.112374 -2.016588,0.336095 -0.801,0.267002 -1.471237,1.261991 -1.848536,2.016586 -0.320701,0.641402 -0.39144,1.340347 -0.504145,2.016585 -0.02912,0.174728 -0.138927,0.329417 -0.16805,0.504145 -0.242001,1.452001 0.509826,3.030556 1.512438,4.033168 1.051409,1.051409 3.422641,1.586188 4.873411,1.34439 0.7129,-0.118816 1.24606,-0.539004 1.84854,-0.840242 0.41389,-0.20695 -0.15171,0.487799 0.50414,-0.168051 0.0396,-0.03961 0,-0.112032 0,-0.168047 0.056,-0.05602 0.10214,-0.124105 0.16805,-0.16805 0.29671,-0.197803 0.63027,-0.357227 0.84025,-0.672195 0.88079,-1.321189 0.79666,-3.074702 0.50414,-4.537313 -0.0844,-0.421968 -0.38916,-0.663345 -0.50414,-1.008293 -0.0354,-0.106283 0.0354,-0.229814 0,-0.336097 -0.19286,-0.578583 -0.84468,-1.014942 -1.17634,-1.512438 -0.25637,-0.38454 -0.30184,-0.487013 -0.6722,-0.672195 -0.14171,-0.07086 -0.19439,-0.265242 -0.3361,-0.336098 -0.0501,-0.02506 -0.12844,0.03961 -0.16805,0 -0.0396,-0.03961 0.0396,-0.128439 0,-0.168047 -0.0792,-0.07922 -0.23589,0.0501 -0.33609,0 -0.33935,-0.169672 -0.83544,-0.340908 -1.17635,0"
       id="path99" />
  </g>
</svg>
