<?xml version="1.0" encoding="UTF-8" standalone="no"?>
<!-- Created with Inkscape (http://www.inkscape.org/) -->

<svg
   width="210mm"
   height="297mm"
   viewBox="0 0 210 297"
   version="1.1"
   id="svg1"
   inkscape:version="1.4 (86a8ad7, 2024-10-11)"
   sodipodi:docname="drawing-1.svg"
   xmlns:inkscape="http://www.inkscape.org/namespaces/inkscape"
   xmlns:sodipodi="http://sodipodi.sourceforge.net/DTD/sodipodi-0.dtd"
   xmlns="http://www.w3.org/2000/svg"
   xmlns:svg="http://www.w3.org/2000/svg">
  <sodipodi:namedview
     id="namedview1"
     pagecolor="#ffffff"
     bordercolor="#000000"
     borderopacity="0.25"
     inkscape:showpageshadow="2"
     inkscape:pageopacity="0.0"
     inkscape:pagecheckerboard="0"
     inkscape:deskcolor="#d1d1d1"
     inkscape:document-units="mm"
     inkscape:zoom="1.9477379"
     inkscape:cx="444.87505"
     inkscape:cy="201.51582"
     inkscape:window-width="1920"
     inkscape:window-height="991"
     inkscape:window-x="-9"
     inkscape:window-y="-9"
     inkscape:window-maximized="1"
     inkscape:current-layer="layer1" />
  <defs
     id="defs1" />
  <g
     inkscape:label="Layer 1"
     inkscape:groupmode="layer"
     id="layer1">
    <path
       style="fill:none;fill-opacity:1;stroke:#000000;stroke-width:0.264583;stroke-linecap:round;stroke-linejoin:round;stroke-dasharray:none;stroke-opacity:1"
       d="m 3.8035576,17.25185 c 0.6532549,0.589512 1.0866459,1.358308 1.6300961,2.03762 0.2000154,0.25002 0.4742317,0.433237 0.6792065,0.679207 0.1045173,0.12542 0.1562399,0.292081 0.2716827,0.407524 0.115443,0.115443 0.2920812,0.15624 0.4075242,0.271683 0.115443,0.115443 0.1562396,0.292081 0.2716826,0.407524 0.8710565,0.871056 2.0722145,1.436399 3.1243503,2.03762 0.501601,0.286629 0.353799,0.319456 0.95089,0.543365 1.842463,0.690924 4.028936,0.856305 5.977019,0.679207 0.892744,-0.08116 1.841093,-0.348758 2.716827,-0.543365 1.697675,-0.377262 3.57301,-1.31605 4.890288,-2.445145 0.565517,-0.484729 1.021796,-1.063145 1.494255,-1.630096 0.340707,-0.408848 0.779691,-0.792717 1.086729,-1.222572 0.117703,-0.164781 0.171215,-0.367546 0.271685,-0.543365 0.367861,-0.643756 0.757351,-1.243023 1.086731,-1.901779 0.259138,-0.518278 0.05962,-0.281521 0.13584,-0.815048 -0.01286,-0.343961 0.21749,-0.625728 0.271682,-0.950889 0.121555,-0.72933 -0.04954,-1.507048 -0.271682,-2.173462 C 28.711316,11.828737 28.657502,11.400632 28.526681,11.13899 27.270125,8.6258783 25.154832,6.4724668 22.27798,6.1128602 20.537936,5.8953547 17.716817,7.5966901 16.436802,8.6938457 c -1.03507,0.8872027 0.258643,-0.122801 -0.815048,0.9508895 -0.160091,0.1600904 -0.383275,0.2474333 -0.543365,0.4075238 -0.549239,0.549239 -1.383682,1.621243 -1.765938,2.309303 -0.644077,1.159339 0.08417,0.218518 -0.543365,1.222572 -1.491121,2.385794 -2.288127,5.363929 -2.716827,8.15048 -0.2554217,1.660243 -0.3273074,3.383934 -0.6792064,5.02613 -1.10177,5.141592 -1.3034052,10.394696 -1.6300963,15.621754 -0.045544,0.728704 -0.2261386,1.444757 -0.2716827,2.173462 -0.1358857,2.174174 -0.2523775,4.348337 -0.4075239,6.520383 -0.022812,0.319368 -0.090561,0.633926 -0.1358413,0.950889 -0.04528,0.362244 -0.1115579,0.722477 -0.1358413,1.086731 -0.1423001,2.1345 -0.3661331,4.257757 -0.5433656,6.384544 -0.045124,0.541488 0.049194,1.088962 0,1.630095 -0.020902,0.229939 -0.1128672,0.449467 -0.1358413,0.679207 -0.053526,0.535257 0.066738,1.09619 0,1.630098 -0.023156,0.185253 -0.1126844,0.358111 -0.1358413,0.543364 -0.1003559,0.802849 0.089372,1.6408 0,2.445144 -0.068181,0.613624 -0.1358413,1.146337 -0.1358413,1.765938 0,0.565533 0.1383472,1.348391 0,1.901777 -0.024556,0.09823 -0.1038233,0.175631 -0.1358413,0.271685 -0.1206251,0.361873 0.074979,0.847677 0,1.222571 -0.088646,0.44323 -0.1358413,0.765032 -0.1358413,1.222573 0,0.09056 0,0.181121 0,0.271682 -0.045281,0 -0.1155915,-0.0405 -0.1358413,0 -0.083155,0.166309 0.058956,0.502341 0,0.679207 -0.020251,0.06075 -0.1072037,0.07856 -0.1358414,0.135842 -0.065756,0.131511 0.0069,0.25789 -0.1358413,0.543364 -0.071258,0.142518 0.1084231,0.570783 0,0.679207 -0.032018,0.03202 -0.1038233,-0.03202 -0.1358416,0 -0.032018,0.03202 -0.04528,0.135842 0,0.135842 0.045281,0 0,-0.09056 0,-0.135842 0,-0.181121 0,-0.362244 0,-0.543364 0,-0.769768 0,-1.539537 0,-2.309305 0,-2.538399 -0.010078,-4.799584 0.2716829,-7.335432 0.1545228,-1.390706 0.2494545,-2.839498 0.5433653,-4.211082 0.6405139,-2.989064 1.5330723,-5.911056 2.4451442,-8.829686 0.3419073,-1.094105 0.5973995,-2.211625 1.0867308,-3.260193 0.4767654,-1.021641 1.1533304,-1.966867 1.6300964,-2.988508 0.493971,-1.058511 0.836357,-2.137505 1.494254,-3.124351 0.840079,-1.26012 1.893752,-2.359866 2.852669,-3.531875 0.700928,-0.856689 1.412407,-1.908315 2.309302,-2.580987 0.162001,-0.121499 0.367546,-0.171214 0.543366,-0.271682 0.437798,-0.250171 0.943324,-0.538321 1.358413,-0.815049 0.106563,-0.07104 0.157131,-0.214405 0.271683,-0.271682 0.320584,-0.160292 0.630304,-0.11139 0.950889,-0.271682 0.894025,-0.447014 2.081995,-0.887677 3.124351,-0.679207 3.403964,0.680792 3.369574,4.84799 3.531874,7.607115 0.02143,0.364432 0.11307,0.722379 0.135843,1.086731 0.09021,1.443403 -0.04599,0.735743 -0.135843,2.173462 -0.0733,1.172779 0.069,2.358803 0,3.531875 -0.02143,0.364432 -0.113069,0.722379 -0.135842,1.086729 -0.155128,2.482069 0.02958,4.990039 -0.13584,7.471275 -0.133847,2.007719 -0.280006,4.094562 -0.135842,6.112859 0.02281,0.319368 0.114543,0.631418 0.135842,0.950891 0.04829,0.724292 0.09056,1.448972 0.13584,2.17346 0.02259,0.36154 -0.04787,0.727665 0,1.086731 0.04357,0.326755 0.202613,0.62856 0.271685,0.950891 0.06709,0.313074 0.06384,0.638905 0.135839,0.950889 0.218602,0.947269 0.301795,0.724302 0.679207,1.630095 0.394433,0.946637 0.833501,2.603127 1.494256,3.396033 0.104518,0.12542 0.282104,0.167166 0.407524,0.271685 0.451353,0.376126 0.838237,0.789485 1.358413,1.086728 1.246831,0.712475 2.931486,1.017254 4.346924,0.815049 3.058957,-0.436994 5.123665,-2.72982 6.927909,-5.026128 0.257918,-0.328261 0.57854,-0.606883 0.815046,-0.950891 0.264112,-0.384159 0.436113,-0.824781 0.679206,-1.222571 0.712724,-1.166273 1.560833,-2.306616 2.173462,-3.531875 0.218099,-0.4362 0.343237,-0.913683 0.543365,-1.358414 1.19035,-2.645219 2.70701,-5.133922 3.667717,-7.878796 0.641543,-1.832986 0.215832,-0.863328 0.679207,-2.716829 0.540858,-2.163435 1.010457,-4.316667 1.358413,-6.520384 0.281527,-1.782995 0.04169,-0.886261 0.135842,-2.580984 0.08248,-1.48464 0.197888,-2.86277 0,-4.346924 -0.159879,-1.199086 -0.223871,-2.496238 -0.543366,-3.667715 -0.466934,-1.712098 -1.750904,-3.531875 -3.667715,-3.531875 -2.10489,0 -3.44695,3.857815 -3.9394,5.433652 -0.45988,1.471615 -0.685102,2.976632 -0.950889,4.482764 -0.303612,1.720469 -0.304591,0.456523 -0.407524,2.309305 -0.0226,0.406894 0.0226,0.815673 0,1.22257 -0.02569,0.46231 -0.245999,2.118678 -0.271682,2.580987 -0.110422,1.987571 0.01228,4.000206 0.135839,5.977017 0.216474,3.463589 0.588783,7.027905 1.765938,10.323944 0.561909,1.573344 1.34974,3.04125 2.173462,4.482763 1.149932,2.012384 3.634788,4.750787 6.112862,5.026129 2.611818,0.290202 5.526905,-2.385521 6.927908,-4.346922 0.532913,-0.74608 0.985671,-1.546431 1.494253,-2.309302 0.583147,-0.874723 1.044059,-1.494732 1.494255,-2.445144 0.521928,-1.101849 0.867389,-2.280071 1.358414,-3.396036 0.203887,-0.463378 0.47735,-0.894146 0.679206,-1.358413 0.661406,-1.521229 0.743998,-2.103747 1.358413,-3.667715 0.252188,-0.641932 0.575509,-1.255022 0.815049,-1.90178 0.878819,-2.372807 1.404276,-4.892532 2.03762,-7.335432 0.805577,-3.107227 1.476735,-6.237782 2.173462,-9.373053 0.392716,-1.76722 0.867553,-3.522715 1.222571,-5.29781 0.556527,-2.782633 0.871373,-5.612572 1.222573,-8.422164 0.136652,-1.093213 0.40087,-2.167725 0.543364,-3.260192 0.294008,-2.254054 0.01746,-0.756553 0.135843,-3.124351 0.05434,-1.086799 0.207769,-2.173686 0.271682,-3.260192 0.06591,-1.120485 0,-2.273049 0,-3.396034 0,-1.733754 0.0076,-3.4400811 -0.135842,-5.1619706 -0.03384,-0.4061164 0.05055,-0.8181951 0,-1.2225721 -0.05778,-0.4621983 -0.652905,-2.5634519 -1.086729,-2.8526682 -0.03383,-0.022553 -0.638326,-0.010221 -0.679209,0 -0.309356,0.07734 -0.297328,0.2106949 -0.543364,0.407524 C 71.717785,4.0260563 71.676,4.3294384 71.045021,5.4336537 70.21582,6.8847564 69.467822,8.3049466 69.007402,9.9164178 67.433885,15.423723 69.830126,7.3307071 68.05651,12.904927 c -0.792826,2.491744 -1.200316,5.061824 -1.765937,7.607115 -0.790705,3.558182 -1.619012,7.103547 -2.03762,10.731466 -0.477239,4.136077 -0.932407,8.330692 -1.086731,12.497403 -0.06872,1.855509 -0.06957,3.713871 -0.13584,5.569495 -0.112826,3.159143 -0.257574,6.343814 -0.135842,9.508894 0.141772,3.686033 0.119959,-0.09363 0.271682,3.396033 0.05627,1.29413 0.100142,2.516995 0.271685,3.803558 0.351859,2.638949 1.20795,7.020652 3.667715,8.558006 0.496729,0.310454 1.066826,0.418192 1.630095,0.543364 0.198752,0.04417 1.346801,0.271682 1.494256,0.271682 1.538152,0 2.922822,-0.758105 4.211081,-1.494253 4.674294,-2.671027 7.317296,-7.491756 9.780577,-12.089881 0.344781,-0.643591 0.769308,-1.244261 1.086731,-1.901777 0.636061,-1.317559 1.048375,-2.732805 1.630095,-4.075243 1.392312,-3.213025 2.693938,-6.451711 3.803558,-9.780574 0.953561,-2.86068 1.639012,-5.791766 2.445144,-8.693845 1.492456,-5.372844 2.651302,-10.797379 3.531875,-16.300962 0.288473,-1.802963 0.599541,-3.601338 0.679207,-5.433654 0.04327,-0.99523 0,-1.99234 0,-2.988509 0,-2.050305 -0.224999,-5.3037841 -1.086731,-7.1995913 C 96.202255,5.1932913 96.022064,4.9906009 95.903985,4.7544468 95.536852,4.0201815 94.802109,2.1357147 93.866366,1.9017788 92.705419,1.611542 91.421547,2.9032427 90.742015,3.6677163 c -1.190099,1.3388618 -1.82294,3.0952376 -2.445144,4.7544468 -1.196047,3.1894549 -1.716509,6.1579139 -2.173463,9.5088939 -0.894691,6.561076 -1.705329,13.129589 -2.580983,19.696995 -0.279004,2.09251 -0.680731,4.154966 -0.950889,6.248701 -0.5363,4.156319 -0.92406,8.318217 -1.222574,12.497403 -0.323823,4.533535 -0.396359,9.341416 0.950889,13.719974 0.689576,2.241122 1.658472,5.02294 3.803557,6.248704 0.283502,0.161999 0.514927,0.41474 0.815049,0.543365 0.171601,0.07354 0.371764,0.0623 0.543365,0.135842 0.150061,0.06431 0.257466,0.20737 0.407524,0.271682 0.616609,0.264261 2.327942,0.501891 2.988511,0.407525 0.18482,-0.02641 0.358111,-0.112687 0.543364,-0.135843 0.679278,-0.08491 1.388393,-0.129283 2.03762,-0.407524 0.150061,-0.06431 0.257463,-0.20737 0.407525,-0.271682 0.1716,-0.07354 0.371766,-0.0623 0.543366,-0.135843 1.331931,-0.570828 3.068593,-2.914166 3.939397,-4.075239 0.76168,-1.015572 1.532718,-2.025933 2.173461,-3.124351 0.9861,-1.69046 -0.1939,0.107823 0.81505,-1.765938 0.1548,-0.287493 0.39734,-0.522996 0.54336,-0.815049 0.12808,-0.256143 0.16154,-0.550698 0.27169,-0.815046 0.38086,-0.914072 0.88788,-1.779691 1.22257,-2.716826 0.71116,-1.991246 -0.14601,0.02643 0.54336,-1.765938 0.69661,-1.811165 0.16059,-0.08659 0.67921,-1.90178 0.38355,-1.342406 0.64641,-2.754262 1.08673,-4.075239 0.49493,-1.484781 1.13983,-2.946921 1.49426,-4.482764 0.11383,-0.493287 0.16186,-1.000059 0.27168,-1.494256 0.10216,-0.459711 0.316,-0.90079 0.40752,-1.358413 0.037,-0.18502 -0.0841,-0.510897 0,-0.679206 0.0286,-0.05728 0.13585,-0.07181 0.13585,-0.135843 0,-0.150918 -0.32098,-0.179115 -0.40753,-0.13584 -0.14825,0.07413 -0.20077,0.289343 -0.27168,0.407525 -0.76307,1.271773 -1.05074,2.639422 -1.35842,4.075239 -0.0691,0.322329 -0.20703,0.627645 -0.27168,0.950889 -0.26777,1.338871 -0.31737,2.722981 -0.40752,4.075239 -0.0755,1.133158 -0.20492,2.261132 -0.27168,3.396036 -0.06,1.020863 0.0639,1.980713 0.13584,2.988508 0.2265,3.171 0.64009,5.339297 2.17346,8.150482 0.69762,1.278975 1.20289,2.066502 2.3093,2.988508 0.14758,0.122984 0.2512,0.295863 0.40753,0.407525 0.65956,0.471114 0.35965,0.111905 0.95088,0.407524 0.14603,0.07301 0.25747,0.20737 0.40753,0.271682 0.66152,0.283509 0.36658,0.05237 0.95089,0.13584 0.8391,0.119872 1.48635,0.216853 2.3093,-0.13584 1.63328,-0.699976 2.8483,-2.234832 3.80356,-3.667717 2.06493,-3.097398 3.46154,-8.242919 3.66771,-11.954036 0.0251,-0.452107 -0.0226,-0.906175 0,-1.358414 0.0807,-1.613487 0.22156,-1.038063 0.13584,-2.580986 -0.0228,-0.409401 -0.11176,-0.813247 -0.13584,-1.222571 -0.10483,-1.782202 -0.13588,-4.754549 -0.81504,-6.384544 -0.40017,-0.960384 -1.05625,-1.856057 -1.6301,-2.716826 -0.44538,-0.668076 -0.92065,-1.328177 -1.49425,-1.90178 -0.99163,-0.991627 -3.64797,-1.919065 -5.02613,-1.765938 -0.18556,0.02061 -0.35781,0.115226 -0.54337,0.135843 -0.22502,0.025 -0.45419,-0.025 -0.67921,0 -0.40496,0.045 -0.85976,0.2624 -1.22257,0.407524 -2.34478,0.937911 -4.68136,2.790169 -5.43365,5.297813 -0.17732,0.591074 -0.13584,1.160412 -0.13584,1.765935 0,0.991597 -0.0366,1.149339 0.40752,2.037622 0.22097,0.441931 0.0182,0.425744 0.40752,0.815047 0.11545,0.115443 0.28211,0.167166 0.40753,0.271682 0.29516,0.24597 0.51988,0.569079 0.81505,0.815049 1.24285,1.035706 3.15983,0.83512 4.6186,0.543366 3.46988,-0.693975 5.53819,-2.179775 7.8788,-4.754448 0.84275,-0.927023 1.8757,-1.646394 2.71683,-2.580984 0.98997,-1.099971 1.87781,-2.281915 2.85267,-3.396036 0.253,-0.289152 0.56907,-0.519882 0.81504,-0.815046 0.30991,-0.371885 0.5631,-0.776502 0.95089,-1.086731 0.35472,-0.283771 0.73202,-0.531278 1.08673,-0.815049 0.49325,-0.3946 1.01268,-1.016765 1.6301,-1.222571 0.0859,-0.02864 0.18577,0.02864 0.27168,0 0.0608,-0.02024 0.0751,-0.115591 0.13584,-0.135842 0.97576,-0.325252 1.82409,0.49475 2.30931,1.222573 0.071,0.106561 0.23118,0.150183 0.27168,0.271682 0.0286,0.08591 -0.0286,0.18577 0,0.271683 0.0795,0.238482 0.32803,0.440727 0.40752,0.679206 0.043,0.128871 -0.096,0.31147 0,0.407525 0.032,0.03202 0.10383,-0.03202 0.13584,0 0.0352,0.03523 0.13584,0.937902 0.13584,1.086731"
       id="path1" />
    <path
       style="fill:none;fill-opacity:1;stroke:#000000;stroke-width:0.264583;stroke-linecap:round;stroke-linejoin:round;stroke-dasharray:none;stroke-opacity:1"
       d="m 146.57281,3.3960334 c -0.0727,5.6767301 0.13584,11.3113896 0.13584,16.9801676 0,1.436223 0.0896,2.913803 0,4.346923 -0.0963,1.541444 -0.28925,3.080988 -0.40753,4.618606 -0.25406,3.302791 -0.42514,6.613602 -0.6792,9.916417 -0.0102,0.131903 -0.25647,1.568085 -0.27169,1.765938 -0.2089,2.71576 -0.31706,5.434816 -0.54336,8.150481 -0.0727,0.87177 -0.32138,1.719556 -0.40753,2.580984 -0.027,0.270335 0.0246,0.544481 0,0.815049 -0.054,0.594056 -0.1982,1.178105 -0.27168,1.765938 -0.0449,0.359444 0.04,0.726701 0,1.086731 -0.11577,1.041942 -0.14223,2.088753 -0.27168,3.12435 -0.0669,0.535006 0.0669,1.09509 0,1.630096 -0.21591,1.727255 -0.39533,3.458707 -0.67921,5.16197 -0.036,0.215736 -0.0969,2.813738 -0.13584,2.852669 -0.032,0.03202 -0.10382,-0.03202 -0.13584,0 -0.064,0.06404 0,0.18112 0,0.271682 0,0.463719 -0.13584,0.791726 -0.13584,1.222573"
       id="path2" />
    <path
       style="fill:none;fill-opacity:1;stroke:#000000;stroke-width:0.264583;stroke-linecap:round;stroke-linejoin:round;stroke-dasharray:none;stroke-opacity:1"
       d="m 143.17677,75.256103 c -1.33758,-1.411546 -1.60751,-1.630098 -3.39603,-1.630098 -0.38126,0 -0.72719,-0.04393 -1.08673,0.135843 -0.11455,0.05727 -0.16186,0.20579 -0.27168,0.271682 -0.29607,0.177638 -0.65483,0.229886 -0.95089,0.407524 -0.16474,0.09884 -0.2357,0.321612 -0.40753,0.407525 -0.29137,0.145687 -0.78259,0.478446 -0.95089,0.815046 -0.68983,1.379678 -0.44685,2.657843 0.40753,3.9394 0.80923,1.21385 1.77999,2.044647 3.12435,2.716826 0.24743,0.123717 0.65107,0.357555 0.95089,0.407525 1.23513,0.205856 2.56396,0.312928 3.80355,0.135842 0.37941,-0.0542 1.02822,-0.209404 1.35842,-0.407524 0.10982,-0.06589 0.16186,-0.205791 0.27168,-0.271683 0.43695,-0.262167 1.15643,-0.578215 1.6301,-0.815049 0.19665,-0.09833 0.59065,-0.502089 0.6792,-0.679206 0.0203,-0.0405 -0.032,-0.103823 0,-0.135842 0.0716,-0.07159 0.21552,-0.05159 0.27169,-0.13584 0.0502,-0.07535 -0.0286,-0.185769 0,-0.271682 0.0202,-0.06075 0.0906,-0.09056 0.13584,-0.135843 0.0453,-0.135842 0.10776,-0.267115 0.13584,-0.407524 0.0722,-0.360966 -0.34096,-1.462331 -0.54337,-1.765938 -0.49753,-0.746299 -0.22599,-0.180792 -0.6792,-0.543364 -0.15002,-0.12001 -0.25752,-0.287515 -0.40753,-0.407524 -0.6441,-0.515282 -1.50234,-0.719233 -2.17346,-1.222574 -0.98445,-0.738336 -0.77814,0.02945 -1.90178,-0.407522 -1.00966,-0.392644 -1.26746,-1.358413 -2.44514,-1.358413"
       id="path3" />
  </g>
</svg>
