<?xml version="1.0" encoding="UTF-8" standalone="no"?>
<!-- Created with Inkscape (http://www.inkscape.org/) -->

<svg
   width="210mm"
   height="297mm"
   viewBox="0 0 210 297"
   version="1.1"
   id="svg1"
   inkscape:version="1.4 (86a8ad7, 2024-10-11)"
   sodipodi:docname="drawing-2.svg"
   xmlns:inkscape="http://www.inkscape.org/namespaces/inkscape"
   xmlns:sodipodi="http://sodipodi.sourceforge.net/DTD/sodipodi-0.dtd"
   xmlns="http://www.w3.org/2000/svg"
   xmlns:svg="http://www.w3.org/2000/svg">
  <sodipodi:namedview
     id="namedview1"
     pagecolor="#ffffff"
     bordercolor="#000000"
     borderopacity="0.25"
     inkscape:showpageshadow="2"
     inkscape:pageopacity="0.0"
     inkscape:pagecheckerboard="0"
     inkscape:deskcolor="#d1d1d1"
     inkscape:document-units="mm"
     inkscape:zoom="0.8598601"
     inkscape:cx="401.80955"
     inkscape:cy="450.6547"
     inkscape:window-width="1920"
     inkscape:window-height="991"
     inkscape:window-x="-9"
     inkscape:window-y="-9"
     inkscape:window-maximized="1"
     inkscape:current-layer="layer1" />
  <defs
     id="defs1" />
  <g
     inkscape:label="Layer 1"
     inkscape:groupmode="layer"
     id="layer1">
    <path
       style="fill:none;fill-opacity:1;stroke:#000000;stroke-width:0.453481;stroke-linecap:round;stroke-linejoin:round;stroke-dasharray:none;stroke-opacity:1"
       d="m 19.390542,14.193889 c -0.556562,0.08658 -1.808829,-0.08658 -1.669687,0.259726 0.139139,0.3463 2.243379,-0.259726 1.669687,-0.259726 -1.121787,0 -2.223156,0.190273 -3.339376,0.259726 -0.553801,0.03446 -1.141687,-0.109511 -1.669689,0 -0.186679,0.03872 -0.241423,0.204971 -0.417423,0.259726 -0.61842,0.192395 -2.215279,0 -2.921955,0 -0.390346,0 -1.2567052,0.51669 -1.6696895,0.259726 -0.098387,-0.06122 0.098389,-0.198509 0,-0.259726 -0.5804353,-0.361156 -2.5961751,0.202705 -3.3393774,-0.259726 -0.098387,-0.06122 0.098389,-0.19851 0,-0.259726 -0.098387,-0.06122 -0.3190346,0.06122 -0.4174221,0 -0.098389,-0.06122 0.098389,-0.198508 0,-0.259726 C 5.4485281,13.830193 5.0851548,13.7935 4.7807655,13.414712 4.2134325,12.708706 5.5234176,6.7765654 6.0330321,6.142387 c 0.062227,-0.07744 0.3190349,0.061217 0.4174222,0 C 6.7677621,5.9449544 6.6489197,5.116235 6.8678768,4.8437583 7.0493525,4.6179245 8.0848904,3.0037424 8.9549876,3.545128 c 0.098389,0.061217 -0.062227,0.1822908 0,0.2597264 0.2465642,0.3068304 0.9452772,0.4926579 1.2522664,0.7791776 1.209465,1.1288195 -0.5228014,-0.179676 0.834845,1.2986288 0.345165,0.3758418 0.883544,0.6718254 1.252266,1.0389038 1.096373,1.091485 1.782574,2.4382616 2.504534,3.6361614 0.26924,0.446734 1.586169,3.343956 1.669688,3.376437 0.834323,0.324455 2.708523,-0.337876 2.921955,0.259726 0.284753,0.797301 -1.63852,1.310232 -2.087109,2.077806 -0.300735,0.514585 0.690172,1.018257 0.834842,1.558355 0.114374,0.426988 -0.168741,0.878678 0,1.298629 0.6041,1.503515 0.417422,-0.682723 0.417422,1.298631 0,2.631015 0.466295,5.440294 0,8.051499 -0.613686,3.436605 -2.093042,7.019982 -4.591643,10.129309 -0.06222,0.07744 0,0.173151 0,0.259727 -0.139138,0.173148 -0.244839,0.358378 -0.417422,0.519452 0.280933,0.365656 -0.784031,0.228107 -0.834845,0.259726 -0.389906,0.242604 -0.444939,1.056021 -0.834844,1.298629 -0.09839,0.06122 -0.292971,-0.03872 -0.417422,0 -1.7372115,0.540458 0.446239,-0.01793 -0.417422,0.51945 -0.09839,0.06122 -0.319035,-0.06122 -0.417423,0 -0.20871,0.129858 -0.20871,0.389589 -0.417422,0.519453 -0.196775,0.122432 -0.6380692,-0.122434 -0.8348445,0 -0.098387,0.06122 0.098389,0.198508 0,0.259724 -0.2520772,0.156846 -2.1086815,0 -2.5045327,0"
       id="path5" />
    <path
       style="fill:none;fill-opacity:1;stroke:#000000;stroke-width:0.453481;stroke-linecap:round;stroke-linejoin:round;stroke-dasharray:none;stroke-opacity:1"
       d="m 34.417742,31.855246 c 0.461879,0.898582 0.417424,1.69987 0.417424,2.59726 0,0.481499 0.499797,1.66087 0.834843,2.077806 0.222626,0.277042 -0.222627,0.761864 0,1.038903 0.358896,0.446623 0.475949,0.852008 0.834842,1.29863 0.126024,0.156815 -0.192948,0.659115 0,0.779178 0.388777,0.2419 0.417423,-0.0204 0.417423,0.519451 0,0.892743 1.849317,0.463569 2.504535,0.259726 0.929995,-0.289331 1.76035,-1.095315 2.504531,-1.558355 0.377271,-0.234741 1.988262,-0.915891 2.087111,-1.038904 0.06224,-0.07743 -0.0984,-0.198508 0,-0.259726 0.863662,-0.53738 -0.03376,0.821192 0.834847,-0.259726 0.06224,-0.07743 -0.0984,-0.198507 0,-0.259726 0.0984,-0.06122 0.319033,0.06122 0.41742,0 0.0984,-0.06122 -0.0984,-0.198507 0,-0.259727 0.0984,-0.06122 0.319037,0.06122 0.417423,0 0.0984,-0.06122 -0.0984,-0.198506 0,-0.259724 0.0984,-0.06122 0.319035,0.06122 0.417424,0 0.0984,-0.06122 -0.0984,-0.198508 0,-0.259726 0.161417,-0.100434 1.739113,-0.476255 2.087108,-0.259727 0.0984,0.06122 -0.0984,0.198508 0,0.259727 0.0984,0.06122 0.319037,-0.06122 0.417423,0 0.0984,0.06122 -0.06222,0.182292 0,0.259726 0.176008,0.219023 0.710393,0.287147 0.834844,0.519451 0.08799,0.164264 -0.124461,0.364581 0,0.519452 0.264001,0.328531 1.065591,0.430718 1.252267,0.779177 0.08799,0.164264 -0.08799,0.355187 0,0.519453 0.09193,0.171568 2.315851,2.019106 2.504534,2.077807 0.124462,0.03872 0.319034,-0.06122 0.417423,0 0.0984,0.06122 -0.0984,0.198507 0,0.259725 0.196772,0.122434 0.638067,-0.122432 0.834843,0 0.0984,0.06122 -0.0984,0.198509 0,0.259725 0.196774,0.122432 0.556566,0 0.834843,0 3.436519,0 4.271957,-2.718879 5.426489,-4.155613 0.362934,-0.451648 -0.347708,-3.592785 -0.417422,-3.636161 -0.0984,-0.06122 -0.319035,0.06122 -0.417419,0 -0.196774,-0.122432 0.196772,-0.397016 0,-0.519452 -0.0984,-0.06122 -0.319037,0.06122 -0.417424,0 -0.196774,-0.122433 0.196773,-0.397017 0,-0.519451 -0.388776,-0.241902 -0.417423,0.0204 -0.417423,-0.519452"
       id="path6" />
    <path
       style="fill:none;fill-opacity:1;stroke:#000000;stroke-width:0.453481;stroke-linecap:round;stroke-linejoin:round;stroke-dasharray:none;stroke-opacity:1"
       d="m 63.550404,41.257042 c 1.250589,-0.591768 2.19241,-1.386934 3.191187,-2.132681 0.620661,-0.463415 1.31044,-0.93644 1.772885,-1.470816 0.815712,-0.942586 1.439802,-1.912084 1.891069,-2.94163 0.216219,-0.493266 0.472768,-0.955664 0.472768,-1.470812 0,-0.269649 0,-0.539298 0,-0.808948 0,-0.122571 0,-0.245137 0,-0.367703 0,-0.02449 0.03937,-0.07353 0,-0.07353 -0.07878,0 0,0.09805 0,0.147079 0,0.171598 0,0.343191 0,0.514789 0,0.563811 0,1.127622 0,1.691436 0,1.858786 -0.03922,-0.389907 0.118197,1.470814 0.02895,0.342714 -0.06091,0.68848 0,1.02957 0.05659,0.316945 0.24316,0.644067 0.354582,0.956029 0.163758,0.458542 0.309289,0.959127 0.590954,1.397275 0.213786,0.332546 0.642719,0.673404 0.945542,0.95603 0.179952,0.167958 0.389744,0.168967 0.59096,0.294163 0.06231,0.03876 0.05589,0.108319 0.118169,0.14708 0.188949,0.117557 0.594507,0.172328 0.827348,0.220623 0.775066,0.160751 1.683927,0.09666 2.363838,-0.220623 1.855759,-0.86601 3.098259,-2.45301 3.900339,-3.750577 0.223848,-0.362131 0.256976,-0.745062 0.472767,-1.103112 0.06187,-0.102642 0.198163,-0.187144 0.236382,-0.294162 0.04272,-0.119651 -0.02172,-0.245887 0,-0.367706 0.07891,-0.441875 0.27529,-0.879715 0.354579,-1.323732 0.04488,-0.251584 0.125327,-1.089796 0,-1.323733 -0.06019,-0.112318 -0.118169,-0.08583 -0.118169,-0.220621 0,-0.06572 0.07112,-0.367706 -0.118197,-0.367706 -0.148696,0 0.654464,0.968325 0.709152,1.029572 0.498126,0.557899 1.670137,1.43438 2.482033,1.838517 0.179387,0.0893 0.409625,0.132871 0.590961,0.220624 1.051631,0.508931 1.949381,1.242152 2.718418,1.912059 1.640977,1.429458 1.405615,2.712617 -0.827347,3.824117 -1.192668,0.593677 -2.033422,0.858478 -3.545759,1.029571 -0.870352,0.09847 -1.699384,0.24349 -2.482036,0 -0.125522,-0.03904 -0.367409,-0.008 -0.472765,-0.07355 -0.147394,-0.09169 1.269864,-1.084289 1.418304,-1.176649 0.963488,-0.599496 2.107485,-1.090685 3.072992,-1.691437 0.41414,-0.257684 0.77752,-0.545344 1.181921,-0.808951 1.412584,-0.92078 1.242839,-0.706086 2.600226,-1.691433 0.691302,-0.501831 1.290657,-1.078273 1.891071,-1.617896 1.481284,-1.33131 2.931577,-2.716218 4.018532,-4.19182 1.225782,-1.664076 2.216423,-3.396673 3.072992,-5.147854 0.404506,-0.826971 0.752394,-1.660945 1.06373,-2.500384 0.154736,-0.417172 0.386831,-0.822436 0.472768,-1.250193 0.02931,-0.145944 -0.03884,-0.296165 0,-0.441246 0.03887,-0.145078 0.236381,-0.44124 0,-0.44124 -0.09029,0 -0.235875,0.220095 -0.236387,0.220621 -0.556893,0.577507 -0.802137,1.187459 -1.063728,1.838516 -0.735157,1.829703 -1.017508,3.71346 -1.300111,5.589097 -0.207245,1.375536 -0.524762,2.741502 -0.709154,4.118279 -0.217066,1.620715 0.03922,0.09053 -0.354574,1.397274 -0.262683,0.871697 -0.355092,1.768835 -0.472768,2.647467 -0.06093,0.454877 -0.236386,0.862613 -0.236386,1.323733 0,0.728233 -0.190537,1.491735 -0.354573,2.20622 -0.0081,0.03467 -0.440505,0.882489 -0.354577,0.882489 0.03937,0 -0.01755,-0.05161 0,-0.07353 0.06354,-0.07905 0.172857,-0.14157 0.236382,-0.220625 0.330297,-0.411029 0.593216,-0.843072 0.945535,-1.250191 0.815702,-0.942574 1.70097,-1.931269 2.718419,-2.794548 1.240952,-1.052914 2.769345,-1.962978 4.373105,-2.79455 1.09291,-0.566686 2.30514,-1.202808 3.78215,-0.808944 0.38203,0.101864 0.45856,0.233343 0.70915,0.441242 0.83881,0.695894 1.14817,1.365814 1.4183,2.206224 0.17435,0.542401 0.41716,1.0772 0.59096,1.617896 0.26214,0.815514 0.48316,1.775749 1.18193,2.500382 0.23232,0.240933 0.88688,0.441326 1.30011,0.514786 2.64537,0.470283 3.17281,-0.44943 4.01853,-1.764977 0.27528,-0.428213 0.41057,-0.874771 0.59096,-1.323733"
       id="path14" />
    <path
       style="fill:none;fill-opacity:1;stroke:#000000;stroke-width:0.453481;stroke-linecap:round;stroke-linejoin:round;stroke-dasharray:none;stroke-opacity:1"
       d="m 70.760124,28.755119 c -0.157585,0 -0.472766,-0.09806 -0.472766,0 0,0.09806 0.627293,0.01926 0.472766,0 -1.601498,-0.199293 -1.488566,0.08151 -2.363842,-0.735408 -0.566927,-0.529124 -0.422104,-1.124149 -0.118212,-1.691437 0.440137,-0.821573 1.3667,-1.182995 2.600226,-1.470812 1.416626,-0.330542 2.042923,-0.411053 3.545767,-0.294163 0.689023,0.05359 1.261487,0.09829 1.891069,0.294163 0.153056,0.04762 0.537818,0.334633 0.590962,0.367703 1.113888,0.693078 -0.266569,1.677043 -1.181923,2.132681 -0.457921,0.227938 -0.997172,0.402927 -1.536496,0.514783 -0.91822,0.190444 -1.84551,0.220625 -2.836605,0.220625"
       id="path16" />
    <path
       style="fill:none;fill-opacity:1;stroke:#000000;stroke-width:0.453481;stroke-linecap:round;stroke-linejoin:round;stroke-dasharray:none;stroke-opacity:1"
       d="m 144.51196,27.210761 c -0.47108,0.02934 -0.94673,-0.02095 -1.41829,0 -1.02675,0.04563 -2.0467,0.180711 -3.07301,0.220625 -1.21043,0.04708 -2.45028,0 -3.66395,0 -1.22322,0 -2.45757,0.03369 -3.66395,-0.07353 -0.69943,-0.06217 -1.37095,-0.27103 -2.00927,-0.441246 -1.00194,-0.267181 -1.32019,-0.552256 -1.65469,-1.17665 -0.0279,-0.05199 -0.11817,-0.09227 -0.11817,-0.147083 0,-0.07751 0.0788,-0.147079 0.11817,-0.220622 0.45705,-0.853136 1.39493,-1.296253 2.60023,-1.764974 2.29664,-0.893126 5.03906,-1.322847 7.5643,-1.912062 1.12871,-0.263365 2.1204,-0.622906 3.19118,-0.956029 0.28726,-0.08937 0.44148,-0.284428 0.70916,-0.367705 0.0996,-0.03101 0.34781,-0.147079 0.23638,-0.147079 -0.0394,0 -0.0279,0.05621 0,0.07355 0.0279,0.01735 0.0903,-0.01735 0.11817,0 0.0836,0.05199 -0.0194,0.148081 0,0.220621 0.13198,0.492499 0.27409,0.970073 0.35456,1.470814 0.0988,0.614173 0.29633,1.222347 0.35458,1.838519 0.0463,0.489427 -0.0513,0.981582 0,1.470813 0.0671,0.640222 0.37856,1.270653 0.35458,1.912058 -0.0161,0.427996 -0.32573,0.831974 -0.47277,1.250197 -0.39132,1.113063 -0.79639,2.212352 -1.30011,3.309329 -0.83462,1.817587 -1.83504,3.607306 -3.19118,5.294934 -0.76651,0.95386 -1.54127,1.853987 -2.71843,2.647466 -1.47952,0.997296 -2.58531,1.542809 -4.72768,1.76498 -0.56423,0.0585 -1.01478,0.114147 -1.4183,-0.220625 -0.52264,-0.433587 -0.1182,-1.05737 -0.1182,-1.544355"
       id="path17" />
    <path
       style="fill:none;fill-opacity:1;stroke:#000000;stroke-width:0.453481;stroke-linecap:round;stroke-linejoin:round;stroke-dasharray:none;stroke-opacity:1"
       d="m 5.0306798,68.50448 c 0.7187268,0.02437 1.394496,0.103945 2.1274572,0.07355 1.6065582,-0.06664 3.150637,-0.254338 4.72768,-0.441245 0.432695,-0.05128 0.876588,-0.0718 1.300114,-0.147084 0.51424,-0.09142 1.734163,-0.454324 2.245643,-0.588325 0.782144,-0.204905 1.596889,-0.362278 2.363845,-0.588325 0.847813,-0.249878 1.215312,-0.444814 2.009264,-0.735408 1.316915,-0.481999 2.574508,-1.01357 3.663954,-1.691434 0.25684,-0.159809 0.452312,-0.354976 0.709152,-0.514787 0.217578,-0.135379 0.502168,-0.226036 0.709149,-0.367704 0.732616,-0.501423 2.440905,-2.517447 1.06373,-3.088709 -0.830928,-0.344678 -1.845706,0.469606 -2.245651,0.808948 -1.39195,1.181035 -1.92788,2.51714 -2.600226,3.897657 -0.896876,1.841561 -0.320483,0.50348 -1.063728,2.353305 -0.752369,1.872548 -1.759149,3.705453 -2.836606,5.515553 -0.907541,1.524645 -2.183566,2.947771 -3.309378,4.412446 -0.395367,0.51437 -0.820947,1.020285 -1.181915,1.544354 -1.18944,1.726869 0.108473,0.06212 -0.827347,1.323734 -0.511948,0.690168 -0.285281,0.22526 -0.827343,0.956029 -0.162376,0.218914 -1.3933571,1.917234 -0.709152,2.059138 0.764206,0.158501 2.336949,-0.623409 2.836609,-0.882489 2.472175,-1.281852 4.55466,-2.948898 6.264178,-4.633065 0.365785,-0.463245 0.97294,-0.821931 1.418301,-1.250192 0.631378,-0.607134 1.086554,-1.283609 1.654691,-1.912059 0.182217,-0.201561 0.416055,-0.384272 0.590962,-0.588325 0.141184,-0.164726 0.212331,-0.350408 0.354574,-0.514783 0.350573,-0.405099 0.742854,-0.777347 1.063727,-1.176654 0.04985,-0.06202 0.157605,-0.09805 0.236383,-0.147079 0.03937,-0.0245 0.09328,-0.04253 0.11817,-0.07355 0.01755,-0.02192 -0.03937,-0.07355 0,-0.07355 0.348613,0 0.236387,0.524185 0.236387,0.588326 0,1.254993 0.03347,-0.459088 -0.118197,0.956029 -0.04455,0.415809 0.03519,0.834038 0,1.250192 -0.02086,0.246019 -0.09843,0.489357 -0.118211,0.735409 -0.07659,0.953225 0.03777,0.520174 0.118211,1.470816 0.107399,1.269823 0.345336,3.364972 1.65469,4.412441 0.136823,0.109461 0.326007,0.189806 0.472768,0.294164 0.779061,0.553992 1.542785,0.920236 2.718415,1.103111 1.528192,0.237717 3.335484,-0.04144 4.727684,-0.441246 2.421224,-0.695315 4.306702,-1.87605 5.436831,-3.382869 0.284696,-0.379591 0.459125,-0.787729 0.709155,-1.176655 0.608559,-0.946632 1.064246,-2.054616 0.945536,-3.088709 -0.01978,-0.172898 -0.09682,-0.341958 -0.118212,-0.514787 -0.01812,-0.146646 0.03888,-0.296161 0,-0.441242 -0.134213,-0.501093 -1.160339,-1.979849 -2.009263,-2.206224 -0.914115,-0.243761 -1.764367,-0.164964 -2.600224,0.147082 -3.737185,1.395197 -4.771949,6.268076 -2.127456,8.383644 0.754485,0.603577 2.133121,1.157386 3.427573,0.956028 1.293986,-0.201282 2.752101,-1.495892 3.191184,-2.206222 0.42784,-0.692145 0.709149,-2.182786 0.709149,-2.941627 0,-0.434296 -0.02065,-0.825627 -0.11817,-1.250193 -0.02787,-0.121342 0.04777,-0.248794 0,-0.367703 -0.135804,-0.338014 -0.118169,-0.01668 -0.118169,-0.220622 0,-0.04902 0.07878,-0.147083 0,-0.147083 -0.03937,0 0,0.04902 0,0.07355 0,0.171592 0,0.343191 0,0.514782 0,0.539302 0,1.0786 0,1.617896 0,1.473256 0.300898,5.430334 2.600226,6.324504 1.917282,0.745601 3.748211,0.305423 5.555027,-0.294162 0.31092,-0.103181 0.652335,-0.172541 0.945534,-0.294162 0.572002,-0.237273 1.299151,-0.753229 1.772883,-1.029572 1.203326,-0.70193 2.418753,-1.385385 3.427569,-2.206221 1.972124,-1.604649 3.934494,-3.833904 2.836609,-5.883257 -0.327301,-0.610955 -0.719973,-1.195402 -1.65469,-1.544355 -0.181935,-0.06792 -0.401198,-0.08806 -0.590961,-0.147083 -0.205464,-0.06392 -0.375063,-0.171774 -0.590958,-0.22062 -0.853615,-0.193143 -1.833393,-0.03964 -2.600226,0.22062 -3.286775,1.115495 -3.114232,3.825699 -2.954801,5.809717 0.01775,0.220345 -0.03713,0.442458 0,0.661867 0.04209,0.248614 0.173724,0.488477 0.236388,0.735408 0.190275,0.749845 0.321308,1.188104 0.709149,1.912058 0.404671,0.755369 0.866163,1.658514 2.009264,2.13268 0.207332,0.08599 0.472768,0.09806 0.709152,0.147082 0.118211,0.0245 0.22999,0.07355 0.354578,0.07355 1.335733,0 2.342743,-1.384533 2.718415,-1.985601 1.162083,-1.859307 1.503326,-3.857937 2.009264,-5.809717 0.273699,-1.055851 0.637052,-2.096622 0.827347,-3.162253 0.17061,-0.955318 0.295726,-1.913281 0.472768,-2.868088 0.258242,-1.39252 0.57663,-2.789943 0.709151,-4.191821 0.01529,-0.171301 0,-0.343191 0,-0.514785 0.03933,-0.171595 0.09843,-0.341885 0.118197,-0.514786 0.03368,-0.293416 -0.04695,-0.589784 0,-0.882487 0.0066,-0.04522 0.221326,-0.965397 0.118197,-1.029572 -0.124503,-0.07752 -0.198164,0.187147 -0.236377,0.294163 -0.220217,0.616626 -0.334445,1.288145 -0.472767,1.912058 -0.599554,2.704616 -0.945762,5.443727 -1.300111,8.163021 -0.111626,0.856564 -0.155263,1.716034 -0.236387,2.573925 -0.11044,1.168238 -0.257216,2.288606 -0.118198,3.456417 0.06377,0.535622 0.135093,1.38853 0.354581,1.912058 0.338863,0.808243 1.23161,1.988029 2.36383,2.500383 0.394305,0.178437 0.965381,0.273768 1.418311,0.367705 0.684547,0.141979 1.396936,0.217012 2.127439,0.147083 1.189843,-0.113884 2.777548,-0.601732 3.66394,-1.103112 0.332156,-0.187892 1.346223,-1.323734 1.536492,-1.323734"
       id="path18" />
    <path
       style="fill:none;fill-opacity:1;stroke:#000000;stroke-width:0.453481;stroke-linecap:round;stroke-linejoin:round;stroke-dasharray:none;stroke-opacity:1"
       d="m 88.47411,72.181519 c 1.025792,1.245328 1.656178,2.602801 2.12744,3.971194 0.237601,0.689882 0.03867,0.336277 0.118197,1.029571 0.134074,1.168113 0.202509,2.335916 -0.472768,3.456417 -0.24233,0.402102 -0.518436,0.792241 -0.827349,1.17665 -0.05562,0.06933 -0.02999,0.165808 -0.118197,0.220621 -0.132107,0.08223 -0.492512,-0.01229 -0.236383,0.147083 0.107775,0.06703 0.362974,-0.328264 0.590947,-0.588325 0.521477,-0.594875 1.131371,-1.168023 1.654682,-1.76498 1.682636,-1.919449 3.32782,-3.860879 5.318611,-5.662636 0.743824,-0.673191 1.374425,-1.357989 2.363824,-1.912058 0.489144,-0.273913 1.552246,-1.010939 2.363826,-0.808947 0.10343,0.02576 0.15753,0.09806 0.2364,0.147079 0.57252,0.35624 0.55244,0.615637 0.70913,1.103113 0.25561,0.795227 0.29526,1.173473 0.35458,1.985599 0.0217,0.294879 0.11821,0.587306 0.11821,0.882488 0,0.754642 -0.17578,1.525751 -0.23636,2.279763 -0.0532,0.660765 -0.0424,1.325874 -0.11821,1.985599 -0.0276,0.239615 -0.23756,1.470453 0.23639,1.617896 0.33378,0.103844 0.69334,-0.555559 0.70914,-0.588325 0.4402,-0.913011 0.88186,-1.861037 1.18191,-2.79455 0.81442,-2.533743 -0.38824,1.088182 0.59096,-1.470812 0.38655,-1.010176 0.69082,-2.040318 1.3001,-3.01517 0.43133,-0.690123 1.07664,-1.272653 1.65468,-1.91206 0.59331,-0.656292 1.46016,-1.769316 2.8366,-1.912058 1.8078,-0.187471 2.08812,1.962504 2.12745,2.647467 0.13821,2.406096 -0.1936,4.817412 -0.59097,7.206992 -0.18273,1.098977 -0.83669,2.79769 -0.35456,3.897658 0.25426,0.580102 0.89845,1.326989 2.00926,1.250193 1.84024,-0.127236 3.0849,-1.508366 4.0185,-2.353305 0.73464,-0.664885 1.28901,-1.347388 1.89106,-2.059141 0.58553,-0.692215 0.87311,-0.899913 1.41829,-1.691435 0.84465,-1.226289 1.48957,-2.635551 1.65468,-3.9712 0.04,-0.323294 -0.0521,-0.847599 -0.11819,-1.17665 -0.0704,-0.350874 -0.10431,-0.108145 -0.35459,-0.367703 -0.0641,-0.06648 -0.0541,-0.154152 -0.1182,-0.220626 -0.53466,-0.554449 -1.63533,-0.197391 -2.12746,0.147083 -3.22474,2.257306 -3.18402,10.701981 4.25491,9.633834 0.75104,-0.10783 1.39513,-0.383962 2.00924,-0.661866 2.54295,-1.15073 3.30937,-3.386444 3.30937,-5.221391 0,-0.441244 0.0782,-0.885186 0,-1.323734 -0.11255,-0.629802 -0.39024,-1.243196 -0.70915,-1.838517 -0.2276,-0.424838 -0.21882,-0.632631 -0.59096,-1.029572 -0.25423,-0.271161 -0.61035,-0.500774 -0.94553,-0.735408 -0.57233,-0.40062 -0.34648,-0.217261 -1.06373,-0.514783 -0.16384,-0.068 -0.29275,-0.170842 -0.47277,-0.22062 -0.1836,-0.05076 -0.39395,-0.04902 -0.59094,-0.07355 -2.53715,-0.315733 -3.61629,1.433183 -4.13671,2.647467 -0.41572,0.970019 -0.81357,2.17766 0.1182,3.088707 1.33538,1.305689 4.11975,1.14331 6.02776,0.514788 0.7476,-0.246265 1.53046,-0.454352 2.24564,-0.735408 0.3798,-0.14925 0.70828,-0.343888 1.06373,-0.514783 2.37434,-1.141595 4.57271,-2.485052 5.67318,-4.265363 0.4966,-0.803365 0.45856,-2.206224 -1.4183,-2.206224 -1.07952,0 -1.91124,0.600881 -2.6002,1.029571 -1.4993,0.932891 -1.39513,2.441264 0.1182,3.382875 1.29105,0.80331 2.98332,1.204543 4.37308,1.912058 0.73569,0.374531 1.46954,1.051691 1.77288,1.617896 0.40624,0.758309 -0.0243,1.594232 -0.11817,2.353302 -0.0218,0.171091 0.0218,0.343695 0,0.514786 -0.0504,0.407948 -0.21358,0.83498 -0.11817,1.250191 0.0522,0.227077 0.38164,0.58833 0.82734,0.58833 0.12445,0 0.23479,-0.05225 0.35458,-0.07355 0.32582,-0.05792 0.78268,-0.09822 1.06373,-0.220621 0.67089,-0.29221 1.50168,-0.928972 2.00924,-1.323734 0.92926,-0.722749 1.57963,-1.450949 2.24565,-2.279763 0.31567,-0.392829 1.26772,-1.550796 1.53647,-1.985601 0.19229,-0.311195 0.30946,-0.638471 0.47277,-0.956029 0.72189,-1.403666 1.30012,-2.785445 1.30012,-4.265361 0,-0.343191 0.0459,-0.687568 0,-1.029571 -0.055,-0.410383 -0.11413,-0.312757 -0.35458,-0.661867 -0.35684,-0.518071 -0.80392,-0.814412 -1.77288,-0.588326 -1.58644,0.37017 -2.2296,2.112119 -2.48201,3.015168 -0.46463,1.662302 -0.7395,3.602148 0.23638,5.221391 0.65043,1.079225 1.96063,1.983651 3.42755,2.647467 0.20403,0.09232 0.36949,0.219001 0.59096,0.294163 0.91594,0.310868 2.38971,0.485116 3.42754,0.367705 0.90218,-0.102065 2.02608,-0.703817 2.48203,-1.176651 0.25863,-0.268211 0.20185,-0.597294 0.35456,-0.882488"
       id="path19" />
    <path
       style="fill:none;fill-opacity:1;stroke:#000000;stroke-width:0.453481;stroke-linecap:round;stroke-linejoin:round;stroke-dasharray:none;stroke-opacity:1"
       d="m 23.088493,127.65582 c 0,-0.42802 -0.142751,-2.30744 0,-2.57393 0.01737,-0.0328 0.105166,-0.0398 0.118197,-0.0736 0.108208,-0.26945 0.05129,-1.4783 0,-1.76499 -0.156434,-0.8759 -0.118197,0.279 -0.118197,-0.58832 0,-0.86997 0.149489,-2.03084 0,-2.86811 -0.02216,-0.12424 -0.09864,-0.24332 -0.118212,-0.36771 -0.05846,-0.36413 0.05323,-0.73862 0,-1.10311 -0.147318,-1.0077 -0.325688,-2.009 -0.472788,-3.01517 -0.07584,-0.5185 -0.278944,-1.02743 -0.354559,-1.54437 -0.08669,-0.59322 0.07214,-0.26963 0,-0.80894 -0.15079,-1.12511 -0.03107,-2.26393 -0.236383,-3.38287 0.31517,-0.14708 0.613148,-0.30964 0.945528,-0.44125 0.282317,-0.11181 1.312717,-0.18516 1.654679,-0.22062 0.122996,-0.0122 0.231685,-0.0609 0.354581,-0.0736 0.522266,-0.0542 1.038461,0.0219 1.536498,0.0736 0.772831,0.0802 1.614329,0.11925 2.363824,0.29416 1.723944,0.40225 3.338665,1.00876 4.727649,1.76498 0.497009,0.2706 1.070596,0.51906 1.536492,0.80895 0.934192,0.58126 -0.191429,0.0345 0.709151,0.51479 0.149489,0.0798 0.333466,0.13398 0.47276,0.22061 0.169705,0.10559 0.886586,0.65465 1.063718,0.80895 0.102334,0.0892 0.13406,0.20496 0.236376,0.29416 0.09713,0.0847 0.257438,0.13599 0.354588,0.22062 0.371598,0.32371 0.931186,0.95972 1.18191,1.32375 0.180991,0.26273 0.281839,0.53742 0.354587,0.80894 0.08649,0.32284 0.385869,0.6317 0.472761,0.95603 0.0389,0.14508 -0.03347,0.29563 0,0.44125 0.31378,1.36668 -0.06974,2.73437 -1.063731,3.97122 -0.524866,0.65315 -2.262223,1.96446 -3.191173,2.42685 -0.33151,0.16503 -0.732196,0.27622 -1.063708,0.44125 -0.08713,0.0433 -0.136669,0.11612 -0.236383,0.14707 -0.0704,0.022 -0.159927,-0.0122 -0.236385,0 -0.286093,0.0445 -0.237296,0.11073 -0.472761,0.22064 -0.210549,0.0983 -0.372141,0.0564 -0.59097,0.14707 -0.09279,0.0385 -0.1306,0.12522 -0.236384,0.14709 -0.07474,0.0155 -0.161663,-0.0156 -0.236375,0 -0.197513,0.041 -0.535064,0.23227 -0.709153,0.29417 -0.323378,0.11506 -0.751363,0.17754 -1.06373,0.29415 -0.0956,0.0358 -0.143619,0.10856 -0.236385,0.14708 -0.0328,0.0136 -0.07888,0 -0.118197,0 -0.07888,0.0245 -0.174045,0.0348 -0.236378,0.0736 -0.02782,0.0173 0.02781,0.0563 0,0.0736 -0.31063,0.19329 -0.836827,0.22457 -1.181912,0.3677 -0.415186,0.17223 -0.855341,0.37643 -1.300115,0.5148 -0.0704,0.022 -0.161664,-0.0155 -0.236384,0 -0.494473,-0.13318 -0.136669,0.1162 -0.236384,0.14708 -0.0704,0.022 -0.161664,-0.0155 -0.236382,0 -0.135372,0.0281 -0.34602,0.10767 -0.472761,0.14709 -0.09974,0.031 -0.1306,0.12522 -0.236385,0.14708 -0.07474,0.0155 -0.166005,-0.022 -0.236383,0 -0.09974,0.031 -0.149282,0.10377 -0.236385,0.14708 -0.443687,0.22085 -0.945528,0.39221 -1.418289,0.58834"
       id="path20" />
    <path
       style="fill:none;fill-opacity:1;stroke:#000000;stroke-width:0.453481;stroke-linecap:round;stroke-linejoin:round;stroke-dasharray:none;stroke-opacity:1"
       d="m 56.182068,109.71184 c -1.778763,-0.1789 -3.781881,-0.11289 -5.436814,0.3677 -0.575651,0.16715 -1.103103,0.39221 -1.654679,0.58833 -1.006521,0.35786 -2.127485,0.73543 -2.954789,1.25019 -0.403953,0.25134 -0.857029,0.67302 -1.181912,0.95603 -3.070346,2.67458 -3.418517,6.11513 -1.06371,9.04553 1.136805,1.41471 2.678207,2.67939 5.200411,3.16227 3.028366,0.57978 6.026807,0.45293 8.746172,-0.58834 0.493665,-0.18903 1.082114,-0.35701 1.536472,-0.58832 0.431222,-0.21952 0.787959,-0.49028 1.181933,-0.7354 0.315171,-0.19612 0.671866,-0.36942 0.945528,-0.58834 0.590753,-0.47261 1.085178,-1.18551 1.300093,-1.76499 0.243793,-0.65734 0.185558,-1.46283 0.118211,-2.13268 -0.07909,-0.78771 -0.403751,-1.51968 -0.709165,-2.27977 -0.626499,-1.55929 -1.522899,-2.88657 -2.60021,-4.33891 -0.345503,-0.46581 -0.646784,-0.95254 -1.063708,-1.39727 -0.0691,-0.0738 -1.259092,-1.17665 -1.418297,-1.17665 -0.336609,0 -0.676248,0.34628 -0.945527,0.22062 -0.283667,-0.13236 0.06953,-0.44552 0,-0.66187 -0.01737,-0.0538 -0.168836,-0.0384 -0.236406,-0.0736 -0.171213,-0.0888 -0.315165,-0.19611 -0.472762,-0.29416"
       id="path21" />
    <path
       style="fill:none;fill-opacity:1;stroke:#000000;stroke-width:0.453481;stroke-linecap:round;stroke-linejoin:round;stroke-dasharray:none;stroke-opacity:1"
       d="m 68.473971,108.82934 c 1.046458,3.48913 1.222935,7.12424 0.590949,10.66342 -0.140145,0.78452 -0.10451,1.57536 -0.354563,2.35333 -0.05628,0.17499 -0.171876,0.34088 -0.236386,0.51478 -0.196859,0.5307 -0.262971,1.09574 -0.472782,1.61789 -0.08713,0.21696 -0.206638,0.40419 -0.354564,0.58835 -0.0352,0.0438 0.05562,0.11247 0,0.14707 -0.157531,0.0981 -0.118197,-0.12258 -0.118197,0.0736"
       id="path22" />
    <path
       style="fill:none;fill-opacity:1;stroke:#000000;stroke-width:0.453481;stroke-linecap:round;stroke-linejoin:round;stroke-dasharray:none;stroke-opacity:1"
       d="m 67.410241,108.38811 c 1.026185,-0.0474 2.043314,-0.0335 3.072975,-0.0736 1.616496,-0.0629 3.229653,-0.22711 4.845844,-0.29416 1.324732,-0.055 2.714002,-0.028 4.018505,0.0736 0.57119,0.0445 1.208223,-0.0702 1.772874,0 0.533456,0.0664 0.683164,0.0736 1.300116,0.0736"
       id="path23" />
    <path
       style="fill:none;fill-opacity:1;stroke:#000000;stroke-width:0.453481;stroke-linecap:round;stroke-linejoin:round;stroke-dasharray:none;stroke-opacity:1"
       d="m 67.883009,114.19783 c 1.287946,0.16058 2.608856,0.0502 3.900317,0 0.353869,-0.0138 0.709627,0.0122 1.063713,0 0.71749,0.004 1.415161,-0.12101 2.127463,-0.14708 1.47022,-0.0538 0.661255,0.0786 2.127441,-0.0736 1.891361,-0.19614 3.776166,-0.41127 5.673177,-0.58833 0.32169,-0.03 1.889384,-0.23875 2.245642,-0.29417 0.988813,-0.1538 0.523548,-0.14707 0.94553,-0.14707"
       id="path24" />
    <path
       style="fill:none;fill-opacity:1;stroke:#000000;stroke-width:0.453481;stroke-linecap:round;stroke-linejoin:round;stroke-dasharray:none;stroke-opacity:1"
       d="m 106.05882,109.78537 c -0.11429,1.14544 0.22725,-1.48747 -0.1182,0.66187 -0.0552,0.34372 -0.18622,0.81907 0.1182,1.10311 0.26317,0.24562 1.15901,0.59547 1.65469,0.44124 0.24184,-0.0752 0.46441,-0.14448 0.70915,-0.22062 0.14862,-0.0462 0.37716,-0.10166 0.47277,-0.22062 0.3706,-0.46121 -0.21738,-0.92363 -0.82735,-1.17664 -0.0928,-0.0385 -0.13667,-0.11613 -0.23639,-0.14709 -0.0717,-0.0224 -0.30504,-0.0427 -0.35458,-0.0736 -0.0278,-0.0173 0.0278,-0.0562 0,-0.0736 -0.0556,-0.0347 -0.18056,0.0346 -0.23638,0 -0.15753,-0.098 0.19708,-0.0736 -0.1182,-0.0736"
       id="path25" />
    <path
       style="fill:none;fill-opacity:1;stroke:#000000;stroke-width:0.453481;stroke-linecap:round;stroke-linejoin:round;stroke-dasharray:none;stroke-opacity:1"
       d="m 106.64978,119.49276 c -0.21315,0.51289 -0.92184,0.94119 -1.06373,1.47084 -0.0587,0.21913 -0.0676,0.44161 -0.1182,0.66185 -0.023,0.1 -0.11819,0.1931 -0.11819,0.29417 0,0.0774 0.0978,0.14416 0.11819,0.22062 0.0621,0.23172 0.0574,0.43909 0.23639,0.66188 0.67775,0.84342 2.42979,1.29102 3.90032,1.17664 0.521,-0.0405 1.52532,-0.28025 1.77286,-0.58832 0.11147,-0.13867 0.15752,-0.29415 0.23638,-0.44124 0.0393,-0.0736 0.1182,-0.14311 0.1182,-0.22062 0,-0.0774 -0.0978,-0.14416 -0.1182,-0.22063 -0.0196,-0.0725 0.0196,-0.14807 0,-0.22062 -0.1019,-0.38032 -0.79219,-0.94709 -1.18191,-1.2502 -0.095,-0.074 -0.81525,-0.47426 -0.94553,-0.51479 -0.2911,-0.0905 0.10669,0.21348 -0.35457,-0.0736 -0.0278,-0.0173 0.0278,-0.0562 0,-0.0736 -0.0556,-0.0346 -0.166,0.0219 -0.23638,0 -0.22076,-0.0687 -0.63442,-0.13751 -0.82735,-0.22063 -0.48587,-0.2093 -0.94552,-0.44124 -1.41829,-0.66185 z"
       id="path26" />
    <path
       style="fill:none;fill-opacity:1;stroke:#000000;stroke-width:0.453481;stroke-linecap:round;stroke-linejoin:round;stroke-dasharray:none;stroke-opacity:1"
       d="m 119.76902,109.12351 c -0.0793,1.5374 -0.4023,3.0844 -0.23638,4.63306 0.0196,0.17295 0.0789,0.3432 0.11819,0.51479 0.0393,0.19611 0.0984,0.39108 0.1182,0.58832 0.0196,0.19574 -0.0196,0.39261 0,0.58833 0.0791,0.78749 0.39367,1.56581 0.47278,2.3533 0.10061,1.00225 -0.0174,2.01857 -0.11819,3.01519 -0.0589,0.58596 0.0628,1.17923 0,1.76499 -0.0196,0.17296 -0.0984,0.34189 -0.1182,0.5148 -0.0934,0.81322 -0.0654,1.70072 0.1182,2.50038 0.0763,0.33247 -0.10581,0.70041 0,1.02959 0.0841,0.26172 0.11819,0.46611 0.11819,0.7354"
       id="path27" />
    <path
       style="fill:none;fill-opacity:1;stroke:#000000;stroke-width:0.453481;stroke-linecap:round;stroke-linejoin:round;stroke-dasharray:none;stroke-opacity:1"
       d="m 120.35998,109.63829 c 0.80324,-0.2452 1.46575,-0.6129 2.24564,-0.88247 1.30594,-0.45145 2.79894,-0.75309 4.25489,-0.8825 0.1608,-0.0143 0.31032,-0.0736 0.47276,-0.0736 0.20077,0 0.39161,0.058 0.59097,0.0736 0.77918,0.0607 1.07549,0.0772 1.77286,0.29416 0.42349,0.13183 0.87804,0.2364 1.30011,0.3677 0.46877,0.14584 0.86398,0.56168 1.18191,0.80895 0.37612,0.29254 0.67612,0.65323 0.82733,1.02958 0.0371,0.0925 -0.0302,0.2004 0,0.29416 0.0889,0.27631 0.18382,0.30268 0.1182,0.58832 -0.15189,0.66157 -1.11538,1.15036 -1.77288,1.6179 -0.75526,0.53707 -1.51007,0.94576 -2.482,1.32374 -0.45102,0.17539 -0.8491,0.41293 -1.30012,0.58832 -0.65812,0.25592 -0.26489,0.0618 -0.94553,0.22062 -0.32994,0.0769 -0.61558,0.21717 -0.94552,0.29417 -0.31518,0.0736 -0.6262,0.15439 -0.94554,0.22061 -0.81138,0.1683 0.55051,-0.28158 -0.59096,0.0736 -0.13777,0.0429 -0.21685,0.10424 -0.35457,0.14708 -0.0704,0.022 -0.18055,-0.0346 -0.23638,0 -0.0278,0.0173 0.0278,0.0562 0,0.0736 -0.0545,0.0339 -0.28323,-0.0222 -0.35458,0 -0.17535,0.0545 -0.55692,0.14959 -0.70915,0.22063 -0.56281,0.26264 -1.19193,0.47722 -1.77286,0.73541 -0.33896,0.15063 -0.57415,0.47278 -0.94555,0.58832 -0.0352,0.0108 -0.0904,-0.0173 -0.11819,0 -0.0973,0.0606 0.007,0.14709 -0.23639,0.14709"
       id="path28" />
    <path
       style="fill:none;fill-opacity:1;stroke:#000000;stroke-width:0.453481;stroke-linecap:round;stroke-linejoin:round;stroke-dasharray:none;stroke-opacity:1"
       d="m 90.457556,107.79977 c 0.409537,2.2037 0.01737,4.41441 -0.236383,6.61867 -0.06476,0.56489 -0.284746,1.12674 -0.354558,1.69144 -0.130363,1.05454 -0.200772,2.11 -0.354588,3.16227 -0.04932,0.33767 0.04455,0.63503 0.118197,0.95603 0.09931,0.43251 -0.07757,0.88927 0,1.32374 0.01737,0.1004 0.098,0.19388 0.118198,0.29417 0.05345,0.2655 -0.05345,0.54345 0,0.80895 0.01956,0.1003 0.09516,0.1941 0.118197,0.29416 0.07475,0.32559 0.09931,0.83241 -0.118197,1.10312 -0.108208,0.13452 0,0.76089 0,0.95602"
       id="path29" />
    <path
       style="fill:none;fill-opacity:1;stroke:#000000;stroke-width:0.453481;stroke-linecap:round;stroke-linejoin:round;stroke-dasharray:none;stroke-opacity:1"
       d="m 89.866615,129.20019 c -0.598597,-0.11368 -1.849151,-0.0195 -2.363847,0.22061 -0.0704,0.0328 -0.05583,0.1083 -0.118198,0.14711 -0.100381,0.0624 -0.243663,0.092 -0.354586,0.14707 -0.493208,0.24551 -1.015864,0.60234 -1.300094,0.95604 -0.770309,0.9586 -0.657019,1.79201 0.709151,2.5004 0.367727,0.19067 0.730112,0.3943 1.181913,0.51478 0.735676,0.19618 1.588271,0.14709 2.363823,0.14709 0.630532,0 1.431328,-0.0409 2.009261,-0.22063 0.462707,-0.14394 0.786737,-0.33916 1.181912,-0.51479 0.143412,-0.0637 0.329402,-0.0834 0.472761,-0.14709 0.542927,-0.24129 0.920721,-0.62554 1.300114,-0.95602 0.04325,-0.0377 0.531261,-0.42814 0.59095,-0.5148 0.735695,-1.06811 0.488186,-2.2382 -1.300115,-2.79456 -0.653195,-0.20321 -1.52983,-0.38185 -2.245622,-0.44124 -1.514815,-0.12573 -2.904668,0.23718 -4.373084,0.3677"
       id="path30" />
  </g>
</svg>
