<?xml version="1.0" encoding="UTF-8" standalone="no"?>
<!-- Created with Inkscape (http://www.inkscape.org/) -->

<svg
   width="210mm"
   height="297mm"
   viewBox="0 0 210 297"
   version="1.1"
   id="svg1"
   inkscape:version="1.4 (86a8ad7, 2024-10-11)"
   sodipodi:docname="drawing-7.svg"
   xmlns:inkscape="http://www.inkscape.org/namespaces/inkscape"
   xmlns:sodipodi="http://sodipodi.sourceforge.net/DTD/sodipodi-0.dtd"
   xmlns="http://www.w3.org/2000/svg"
   xmlns:svg="http://www.w3.org/2000/svg">
  <sodipodi:namedview
     id="namedview1"
     pagecolor="#ffffff"
     bordercolor="#000000"
     borderopacity="0.25"
     inkscape:showpageshadow="2"
     inkscape:pageopacity="0.0"
     inkscape:pagecheckerboard="0"
     inkscape:deskcolor="#d1d1d1"
     inkscape:document-units="mm"
     inkscape:zoom="1.2778474"
     inkscape:cx="405.76049"
     inkscape:cy="328.28645"
     inkscape:window-width="1920"
     inkscape:window-height="991"
     inkscape:window-x="-9"
     inkscape:window-y="-9"
     inkscape:window-maximized="1"
     inkscape:current-layer="layer1" />
  <defs
     id="defs1" />
  <g
     inkscape:label="Layer 1"
     inkscape:groupmode="layer"
     id="layer1">
    <path
       style="fill:none;fill-opacity:1;stroke:#000000;stroke-width:0.264583;stroke-linecap:round;stroke-linejoin:round;stroke-dasharray:none;stroke-opacity:1"
       d="m 5.79751,13.665559 c 0.8628427,-0.181545 1.6464388,-0.204556 2.484647,-0.414108 0.4547068,-0.113676 0.9946709,0.113677 1.4493777,0 0.8651673,-0.216292 1.9699693,-0.361851 2.8987553,-0.207054 0.152229,0.02537 0.264386,0.169624 0.414107,0.207054 0.26783,0.06696 0.557505,-0.05414 0.828216,0 1.211086,0.242218 2.685363,0.415164 3.934025,0.207054 2.856242,-0.47604 5.633454,-0.607711 8.489211,-1.242323"
       id="path157" />
    <path
       style="fill:none;fill-opacity:1;stroke:#000000;stroke-width:0.264583;stroke-linecap:round;stroke-linejoin:round;stroke-dasharray:none;stroke-opacity:1"
       d="m 16.150206,12.423236 c 0.06902,0.34509 0.163403,0.686063 0.207054,1.035269 0.174872,1.398974 -0.207054,2.759157 -0.207054,4.141079 0,1.555819 0.171548,3.218315 0,4.76224 -0.160811,1.447307 -0.292544,2.889375 -0.414107,4.348133 -0.05732,0.687795 0.06868,1.383784 0,2.070539 -0.138229,1.382287 -0.242626,2.769219 -0.414109,4.141079 -0.02572,0.205734 -0.150981,4.667332 0,4.969293 0.257119,0.514238 0.207055,1.038674 0.207055,1.656431"
       id="path158" />
    <path
       style="fill:none;fill-opacity:1;stroke:#000000;stroke-width:0.264583;stroke-linecap:round;stroke-linejoin:round;stroke-dasharray:none;stroke-opacity:1"
       d="m 7.0398335,41.410786 c 5.3448565,-0.873474 10.6908355,0.585782 15.9431525,1.242322 2.534715,0.316841 5.001932,-0.212492 7.453942,-0.621162"
       id="path159" />
    <path
       style="fill:none;fill-opacity:1;stroke:#000000;stroke-width:0.264583;stroke-linecap:round;stroke-linejoin:round;stroke-dasharray:none;stroke-opacity:1"
       d="m 42.239001,12.216182 c -0.647248,-0.452324 -3.069542,-2.3587001 -3.934023,-2.070539 -2.675546,0.891847 -3.323665,4.619981 -3.726972,7.039833 -0.169862,1.019168 0.261819,3.075058 0.414108,4.141078 0.09354,0.654811 -0.07484,0.92553 0,1.449378 0.235325,1.647285 0.414599,3.316801 0.621162,4.969295 0.05992,0.479396 -0.07943,0.972825 0,1.449377 0.604732,3.628397 0.621162,7.254573 0.621162,10.973858"
       id="path160" />
    <path
       style="fill:none;fill-opacity:1;stroke:#000000;stroke-width:0.264583;stroke-linecap:round;stroke-linejoin:round;stroke-dasharray:none;stroke-opacity:1"
       d="m 30.229873,26.088795 c 2.625963,-0.570578 5.222161,-0.293988 7.86805,0 1.353028,0.150336 2.579613,0.88478 3.934023,1.035269 0.89054,0.09895 1.581044,0.02633 2.484649,0.207055"
       id="path161" />
    <path
       style="fill:none;fill-opacity:1;stroke:#000000;stroke-width:0.264583;stroke-linecap:round;stroke-linejoin:round;stroke-dasharray:none;stroke-opacity:1"
       d="m 57.9751,3.5199169 c -2.805017,2.1026646 -5.027771,3.4298138 -6.625725,6.6257261 -0.371771,0.743542 -0.712174,1.879395 -0.828217,2.6917 -0.06832,0.478271 0.06833,0.971108 0,1.449378 -0.575027,4.025189 -0.08078,8.186506 0.207055,12.216181 0.159996,2.23997 0.230767,4.642138 0.828214,6.83278 0.0978,0.358576 0.316315,0.676693 0.414108,1.035269 0.110463,0.405027 0.06358,0.847781 0.207055,1.242325 0.13753,0.378211 0.45463,0.668901 0.621162,1.03527 0.482838,1.062244 0.765082,2.239068 1.242322,3.312861 0.337269,0.758854 0.877781,1.341456 1.242324,2.070539 0.657167,1.314333 1.443763,2.628532 2.691702,3.519919 1.937091,1.383636 4.392763,2.386697 6.83278,2.691701 1.674352,0.209293 0.06993,-0.252764 1.449376,0.207052"
       id="path162" />
    <path
       style="fill:none;fill-opacity:1;stroke:#000000;stroke-width:0.264583;stroke-linecap:round;stroke-linejoin:round;stroke-dasharray:none;stroke-opacity:1"
       d="m 67.085471,19.463069 c -0.940541,0.06745 -2.402271,-0.924692 -3.312861,-0.621162 -0.0926,0.03087 -0.114456,0.176189 -0.207055,0.207054 -0.523383,0.174461 -0.879393,-0.07794 -1.449377,0.207054 -2.253348,1.126674 -2.943606,3.492267 -3.519916,5.79751 -0.253106,1.012424 -0.491696,2.070079 -0.621162,3.105809 -0.06848,0.547881 0.06097,1.107665 0,1.656432 -0.03142,0.282826 -0.171757,0.545843 -0.207055,0.828214 -0.212021,1.696175 -0.0049,0.182359 0.207055,1.242325 0.0406,0.203033 -0.02928,0.41619 0,0.621162 0.247896,1.735273 1.165304,3.085605 2.484646,4.141079 0.632828,0.506261 0.302654,0.565433 1.242325,1.035269 0.50905,0.254527 1.104286,0.276072 1.656432,0.414108 0.552143,0.138035 1.091689,0.343516 1.656429,0.414107 1.080331,0.135041 1.74635,-0.102016 2.691701,-0.207052 0.411576,-0.04573 0.83075,0.04573 1.242325,0 1.470221,-0.16336 3.963175,-1.088343 5.383403,-1.656432"
       id="path163" />
    <path
       style="fill:none;fill-opacity:1;stroke:#000000;stroke-width:0.264583;stroke-linecap:round;stroke-linejoin:round;stroke-dasharray:none;stroke-opacity:1"
       d="m 79.301654,22.361824 c -0.207055,-0.276072 -0.345091,-1.03527 -0.621162,-0.828215 -0.276072,0.207053 0.917074,1.005762 0.621162,0.828215 -0.71265,-0.42759 -1.075047,-1.393619 -1.863484,-1.656431 -0.918999,-0.306332 -2.455524,0.503603 -2.898757,1.242323 -1.136176,1.89363 -0.909267,4.023927 -0.414107,6.004563 0.09656,0.386228 0.07907,0.858385 0.207055,1.242325 0.165777,0.497337 1.307333,2.479839 1.656429,2.898756 0.373751,0.4485 2.97548,2.626535 3.519919,2.898754 0.233529,0.116766 0.762331,0.116075 1.035269,0.207055 0.292817,0.09761 0.528773,0.339246 0.828215,0.414107 2.141072,0.535268 5.406977,0.112752 6.004565,-2.277594 0.230233,-0.920933 -0.771022,-3.316298 -1.242324,-4.141078 -0.237347,-0.415359 -0.674294,-0.780558 -0.828215,-1.242325 -0.617641,-1.852916 -4.441473,-4.548394 -6.004565,-5.590455 z"
       id="path166" />
    <path
       style="fill:none;fill-opacity:1;stroke:#000000;stroke-width:0.264583;stroke-linecap:round;stroke-linejoin:round;stroke-dasharray:none;stroke-opacity:1"
       d="m 100.83526,21.740662 c -0.27607,-0.276072 -0.55214,-1.104287 -0.82821,-0.828215 -0.276076,0.276072 1.17742,1.002819 0.82821,0.828215 -0.46032,-0.23016 -1.514927,-1.40221 -2.277591,-1.656431 -1.254943,-0.418314 -2.265651,-0.545505 -3.519916,0.207054 -0.940359,0.564214 -1.214329,0.583837 -1.863485,1.449377 -1.117002,1.489334 0.229908,-0.436962 -0.828217,0.621162 -0.508629,0.07383 -0.08599,0.439564 -0.207052,0.621162 -0.108286,0.162426 -0.296982,0.257938 -0.41411,0.414108 -0.77011,1.026812 -0.997405,3.784967 -0.828215,4.969295 0.287793,2.014543 1.635726,3.867766 2.898754,5.3834 0.207055,0.207055 0.41411,0.41411 0.621162,0.621162 0.06902,0 0.15825,-0.0488 0.207055,0 0.0488,0.0488 -0.04881,0.158253 0,0.207055 0.0488,0.0488 0.15825,-0.0488 0.207053,0 0.257984,0.257982 0.422428,0.692952 0.828217,0.828215 1.3775,0.459166 2.769843,-0.13675 3.519916,-1.449377 0.76636,-1.34113 1.048389,-2.877822 1.449379,-4.348133 0.58878,-2.158863 0.32763,-0.757603 0.62116,-3.105809 0.069,-0.552143 0.13351,-1.104871 0.20706,-1.656431 0.0645,-0.483749 0.30276,-0.970824 0.20705,-1.449377 -0.12107,-0.605328 -0.85904,-1.039886 -0.82822,-1.656432 0.0448,-0.896114 0.80693,-1.616955 1.03527,-2.484647 0.12295,-0.467219 0,-0.966252 0,-1.449377 0,-1.679947 -7.9e-4,-3.319519 -0.20705,-4.969295 -0.32096,-2.567643 -0.0703,0.613435 -0.41411,-1.449377 -0.32485,-1.9491211 0.49669,1.013714 -0.20705,-1.4493774 -0.30842,-1.0794592 -0.78985,-2.2008563 -1.242327,-3.105809 -0.06396,-0.1279189 -0.130307,-0.7514678 -0.207055,-0.8282157 -0.0488,-0.048803 -0.15825,-0.048803 -0.207052,0 -0.188243,0.1882431 0.366638,5.7844011 0.414107,6.2116181 0.503207,4.528834 -0.01929,-0.385832 0.207057,4.141078 0.16262,3.252386 1.0865,6.416562 1.86348,9.524481 0.0775,0.309909 0.50983,0.812606 0.62116,1.035268 0.26574,0.531477 0.30999,1.137799 0.62116,1.656432 0.72116,1.201915 1.59046,2.446891 2.48465,3.519919 0.35894,0.430726 0.95562,1.120201 1.44938,1.449377 0.12841,0.08561 0.30498,0.09792 0.41411,0.207052 0.0488,0.04881 -0.0488,0.158253 0,0.207055 0.4284,0.428403 -0.0168,-0.654656 0.41411,0.207055 0.1428,0.285599 -0.25076,0.185203 0.20705,0.414107 0.40396,0.201978 0.66892,0.25481 1.03527,0.621163"
       id="path167" />
    <path
       style="fill:none;fill-opacity:1;stroke:#000000;stroke-width:0.264583;stroke-linecap:round;stroke-linejoin:round;stroke-dasharray:none;stroke-opacity:1"
       d="m 112.43028,23.19004 c 0.43612,-0.500115 3.5857,-1.101047 3.93403,-1.449378 0.0488,-0.0488 -0.0488,-0.158251 0,-0.207053 0.0976,-0.09761 0.29064,0.06173 0.4141,0 0.22144,-0.110718 0.9834,-0.569291 1.03527,-0.621162 0.60992,-0.609915 -1.33251,-1.015792 -1.44937,-1.03527 -1.25805,-0.209674 -2.656,0.499783 -3.72697,1.03527 -1.59614,0.798068 0.66359,1.406943 -0.20706,2.277593 -1.52166,-0.380415 -1.46948,-0.870422 -2.27759,0.207054 -0.0414,0.05521 0.0383,0.149627 0,0.207054 -0.88695,1.330425 0.0344,-0.08589 -0.41411,1.035269 -0.50588,1.264709 -0.42931,-0.08542 -0.62116,1.449378 -0.18176,1.454068 0.0564,0.244075 0.20705,1.449377 0.13093,1.047432 0.042,2.3476 0.62116,3.312863 0.10044,0.167394 0.29217,0.261673 0.41411,0.414108 1.11355,1.39193 1.93729,2.716302 3.72697,3.312863 0.78118,0.26039 1.67136,0.712031 2.48465,0.828215 1.97713,0.282448 4.0987,-0.197636 6.00456,-0.621162 1.07449,-0.238773 2.0423,-0.769393 3.10581,-1.03527 0.13392,-0.03348 0.31651,0.09761 0.41411,0 0.0488,-0.0488 -0.0488,-0.15825 0,-0.207052 0.10182,-0.101822 0.63284,-0.207055 0.82822,-0.207055"
       id="path168" />
    <path
       style="fill:none;fill-opacity:1;stroke:#000000;stroke-width:0.264583;stroke-linecap:round;stroke-linejoin:round;stroke-dasharray:none;stroke-opacity:1"
       d="m 126.50995,23.19004 c 1.10052,-0.473859 2.15951,-1.27198 3.31286,-1.656431 0.47382,-0.157941 0.97507,-0.04895 1.44938,-0.207055 0.0926,-0.03087 0.11446,-0.176188 0.20705,-0.207054 0.26191,-0.0873 0.56631,0.0873 0.82822,0 0.0926,-0.03086 0.11446,-0.176188 0.20705,-0.207053 0.13096,-0.04365 0.2802,0.03348 0.41411,0 0.8729,-0.218226 1.8127,-0.577071 2.6917,-0.828216"
       id="path169" />
    <path
       style="fill:none;fill-opacity:1;stroke:#000000;stroke-width:0.264583;stroke-linecap:round;stroke-linejoin:round;stroke-dasharray:none;stroke-opacity:1"
       d="m 129.20165,28.159334 c 0.27607,-0.138036 0.96625,-0.138036 0.82822,-0.414107 -0.13804,-0.276072 -1.12766,0.488968 -0.82822,0.414107 0.57208,-0.143021 1.09161,-0.451715 1.65643,-0.621162 0.5462,-0.163859 1.10229,-0.229394 1.65643,-0.414108 0.17462,-0.05821 0.45766,0.08176 0.62117,0 0.70588,-0.352941 1.30018,-0.376809 2.27759,-0.621162"
       id="path170" />
    <path
       style="fill:none;fill-opacity:1;stroke:#000000;stroke-width:0.264583;stroke-linecap:round;stroke-linejoin:round;stroke-dasharray:none;stroke-opacity:1"
       d="m 144.7307,18.634853 c -0.20706,0.34509 -0.47986,0.658453 -0.62117,1.03527 -0.0727,0.193871 0.0293,0.416189 0,0.621162 -0.10149,0.710467 -0.2753,1.376492 -0.4141,2.070539 -0.13913,0.695638 0,1.567282 0,2.277593 0,0.145451 -0.10268,0.932599 0,1.03527 0.0488,0.0488 0.19031,-0.06696 0.20705,0 0.12992,0.519665 -0.12992,1.136767 0,1.656432 0.0514,0.205558 0.82185,3.099441 0.82822,3.105809 0.0488,0.0488 0.15825,-0.04881 0.20705,0 0.0202,0.02021 0.12966,0.698553 0.41411,0.414107 0.0488,-0.0488 -0.0488,-0.15825 0,-0.207055 0.0868,-0.08676 0.49567,-0.144309 0.62116,-0.207052 0.31917,-0.159586 0.82641,-0.756788 1.03527,-1.035269 0.43632,-0.581764 0.94103,-1.260904 1.24232,-1.863487 0.0873,-0.174604 0.32681,-0.239504 0.41411,-0.414108 0.0611,-0.122256 0.34542,-0.759531 0.41411,-0.828215 0.18983,-0.189832 0.92304,-0.313481 1.24232,-0.207054 1.70048,0.566825 3.36743,2.800826 4.14108,4.348133 0.0617,0.123463 -0.0976,0.3165 0,0.414107 0.0488,0.0488 0.15825,-0.0488 0.20705,0 0.19341,0.193406 0.22071,0.841865 0.41411,1.03527 0.0488,0.0488 0.13804,0 0.20706,0 0.96156,0 1.19845,-1.317755 1.44937,-2.070539 0.66812,-2.004364 1.18706,-5.093828 0.82822,-7.246888 -0.107,-0.641978 -0.14847,-1.332209 -0.41411,-1.863485 -0.13803,-0.276072 0.13804,-0.759198 0,-1.03527 -0.17425,-0.348506 -0.20705,-0.402434 -0.20705,-0.828216"
       id="path171" />
    <path
       style="fill:none;fill-opacity:1;stroke:#000000;stroke-width:0.264583;stroke-linecap:round;stroke-linejoin:round;stroke-dasharray:none;stroke-opacity:1"
       d="m 162.33028,14.907883 c 0.16601,0.883111 -0.10148,1.640021 -0.20706,2.484647 -0.136,1.088052 0.0732,0.58588 0.20706,1.656431 0.11901,0.952079 -0.10598,1.944959 0,2.898755 0.13217,1.18958 0.45466,2.3544 0.62116,3.519917 0.039,0.273297 -0.0541,0.557505 0,0.828216 0.0427,0.213586 0.85357,1.681788 1.03527,1.863485 0.98897,0.98897 2.3149,0.953818 3.31286,0.621162 0.24527,-0.08176 0.38834,-0.504751 0.62116,-0.621162 0.61589,-0.307943 -0.44596,0.919803 0.62117,-0.414107 0.78617,-0.98271 1.13914,-2.281776 1.24232,-3.519918 0.20442,-2.453054 -0.70737,-5.860618 -1.65643,-8.075103 -0.30663,-0.71547 -0.64641,-1.979636 -1.24233,-2.277593 -0.8617,-0.430854 0.22135,0.01429 -0.20705,-0.414108 -0.0488,-0.0488 -0.15825,0.0488 -0.20705,0 -0.10913,-0.109127 -0.0787,-0.328501 -0.20706,-0.414108 -0.006,-0.0039 -1.18757,-0.228953 -1.24232,-0.207054 -0.62698,0.250792 -0.72504,0.621446 -1.24232,1.03527 -0.46362,0.370891 -1.18386,0.504235 -1.44938,1.03527 -0.34092,0.681847 -0.0911,1.524129 -0.20706,2.277593 -0.0897,0.582833 -0.43468,1.097002 -0.62116,1.656431"
       id="path172" />
    <path
       style="fill:none;fill-opacity:1;stroke:#000000;stroke-width:0.264583;stroke-linecap:round;stroke-linejoin:round;stroke-dasharray:none;stroke-opacity:1"
       d="m 172.68297,15.529045 c 0.20317,0.253952 1.02258,1.216933 1.24233,1.656431 0.80226,1.604532 3.28499,5.674084 2.6917,7.453941 -0.14704,0.441126 -0.74151,2.424473 -1.44938,2.07054 -0.38993,-0.194969 -0.62116,-2.166001 -0.62116,-2.484648 0,-0.351924 0.17519,-0.68479 0.20705,-1.035269 0.0375,-0.412407 -0.0412,-0.830271 0,-1.242324 0.17265,-1.726431 0.80225,-3.97262 1.44938,-5.590456 0.0948,-0.2369 0.47851,-0.407185 0.62116,-0.621161 0.0856,-0.12841 0.13804,-0.276072 0.20706,-0.414109 0.41411,-0.552143 0.82821,-1.104287 1.24232,-1.656431"
       id="path173" />
    <path
       style="fill:none;fill-opacity:1;stroke:#000000;stroke-width:0.264583;stroke-linecap:round;stroke-linejoin:round;stroke-dasharray:none;stroke-opacity:1"
       d="m 180.55102,6.4186717 c 0.67959,3.7133343 0.84541,7.5757583 0.62117,11.3879663 -0.27554,4.684162 -0.20706,-1.36071 -0.20706,3.312862 0,2.205604 0.2625,5.353965 0,7.453941 -0.0271,0.21657 -0.20705,0.402908 -0.20705,0.621163 0,0.284567 0.17563,0.545388 0.20705,0.828214 0.2071,1.863908 0,3.920085 0,5.79751"
       id="path174" />
    <path
       style="fill:none;fill-opacity:1;stroke:#000000;stroke-width:0.264583;stroke-linecap:round;stroke-linejoin:round;stroke-dasharray:none;stroke-opacity:1"
       d="m 180.34397,18.634853 c 1.19458,-1.433493 0.58675,-0.943313 1.65643,-1.656431 0.33485,-0.223234 0.71332,-0.379697 1.03527,-0.621162 0.23426,-0.175691 0.37752,-0.458735 0.62116,-0.621161 0.36416,-0.242769 1.01856,-0.302225 1.24233,-0.414109 0.0617,-0.03087 -0.0617,-0.176187 0,-0.207053 0.53446,-0.267234 2.10948,0.03894 2.48464,0.414108 0.0488,0.0488 -0.0309,0.145322 0,0.207054 0.27133,0.54265 0.75687,0.977937 0.62117,1.656431 -0.2302,1.151003 -1.18319,2.100134 -2.07054,2.691701 -0.10737,0.07157 -0.53769,0.123576 -0.62117,0.207054 -0.0488,0.0488 0.0488,0.158251 0,0.207054 -0.0976,0.09761 -0.3165,-0.09761 -0.4141,0 -0.0534,0.05337 -0.0275,0.745597 0,0.828215 0.7068,2.120399 3.60873,4.876433 4.96929,6.625725 1.20074,1.543812 0.11846,0.488278 1.03527,1.863487 0.10829,0.162425 0.29698,0.257937 0.41411,0.414107 0.41901,0.558684 -0.003,0.33931 0.41411,1.03527 0.10043,0.167394 0.30582,0.251682 0.4141,0.414107 0.38516,0.577731 0.92434,1.72112 1.24233,2.277594"
       id="path175" />
    <path
       style="fill:none;fill-opacity:1;stroke:#000000;stroke-width:0.264583;stroke-linecap:round;stroke-linejoin:round;stroke-dasharray:none;stroke-opacity:1"
       d="m 195.0448,20.084231 c -1.95339,0.341901 -4.76224,0.301819 -4.76224,2.898755 0,0.373466 -0.0926,0.735618 0.20705,1.03527 0.24402,0.244015 0.53231,0.443614 0.82822,0.621161 1.03777,0.622663 3.43845,0.497269 4.76224,0.828216 0.13391,0.03348 0.29064,-0.06173 0.41411,0 1.03169,0.515844 2.31247,1.344739 1.86348,2.691701 -0.26112,0.783352 -0.10442,0.621932 -0.82821,1.242325 -0.62492,0.535638 -0.92226,0.708966 -1.65643,1.035269 -0.91785,0.407932 -1.72684,0.690377 -2.69171,0.828215 -1.00744,0.143922 -1.8768,0.414107 -2.89875,0.414107"
       id="path176" />
    <path
       style="fill:none;fill-opacity:1;stroke:#000000;stroke-width:0.264583;stroke-linecap:round;stroke-linejoin:round;stroke-dasharray:none;stroke-opacity:1"
       d="m 192.97426,3.7269708 c 2.14353,1.0326343 4.45745,1.9119873 6.41867,3.3128627 0.81689,0.5834885 2.39663,2.5317767 2.89876,3.3128625 0.28423,0.442145 0.4366,0.95722 0.62116,1.449378 1.27057,3.388203 1.33128,5.972302 1.03527,9.52448 -0.11914,1.429685 -0.25994,1.27101 -0.82822,2.691702 -0.79733,1.993341 -1.64699,3.955105 -2.27759,6.004562 -0.25674,0.834411 -0.46696,1.689883 -0.82822,2.484649 -1.96334,4.31936 0.46643,-1.640472 -1.03527,1.863484 -0.086,0.200608 -0.0948,0.434012 -0.20705,0.621163 -0.19164,0.319405 -0.87559,1.058955 -1.24232,1.242324 -0.0617,0.03086 -0.15826,-0.0488 -0.20706,0 -0.0488,0.0488 0.0488,0.15825 0,0.207053 -0.038,0.03803 -0.72311,0.414107 -0.82821,0.414107"
       id="path177" />
    <path
       style="fill:none;fill-opacity:1;stroke:#000000;stroke-width:0.264583;stroke-linecap:round;stroke-linejoin:round;stroke-dasharray:none;stroke-opacity:1"
       d="m 45.137757,76.053508 c -0.138038,-0.27608 -0.138038,-0.966244 -0.41411,-0.828217 -0.276071,0.13804 0.632362,1.046464 0.41411,0.828217 -0.556442,-0.556437 -0.920035,-1.281204 -1.449379,-1.863481 -0.556916,-0.612607 -1.343544,-0.744464 -2.070539,-1.035264 -0.491972,-0.196787 -0.942264,-0.494377 -1.449377,-0.621157 -1.771769,-0.442937 -3.84746,0.517277 -4.969293,1.863481 -0.554853,0.665817 -1.223338,1.312611 -1.656432,2.070528 -0.699945,1.224894 -1.051851,2.608915 -1.449377,3.933999 -1.031677,3.438899 -2.082834,7.975022 0.207052,11.180844 1.673604,2.343038 6.326233,5.36045 9.317427,4.762213 0.724902,-0.144977 1.227783,-0.510357 1.863486,-0.828204 0.195213,-0.0976 0.43401,-0.0948 0.621163,-0.20706 0.574635,-0.344777 1.999019,-1.834628 2.277591,-2.484635 1.366028,-3.187372 1.449377,-6.715291 1.449377,-10.145583 0,-2.223238 -0.290621,-4.402943 -0.414107,-6.625681 -0.103209,-1.857741 0.103209,-3.732689 0,-5.59043 -0.127132,-2.288365 -0.336447,-4.555033 -0.621162,-6.832741 -0.187532,-1.500241 -0.304004,-3.075102 -0.62116,-4.555153 -0.297638,-1.388974 -0.715769,-2.756555 -1.03527,-4.141056 -0.136329,-0.590747 -0.12972,-1.294704 -0.41411,-1.863481 -0.486116,-0.972224 -0.31125,-0.260497 -0.621159,-1.035264 -0.169011,-0.422517 -0.60248,-1.449371 -1.03527,-1.449371 -0.678817,0 -0.43302,2.257718 -0.41411,2.484635 0.208333,2.499965 0.697095,4.973963 1.03527,7.453898 0.283001,2.075318 0.106995,2.196018 0.41411,4.141056 0.109773,0.695237 0.309697,1.374474 0.414107,2.070528 0.205785,1.371894 0.217921,2.767765 0.414107,4.141059 0.109128,0.763884 0.383268,1.506561 0.414108,2.277575 0.03872,0.967934 -0.424879,1.954841 -0.207053,2.898745 0.215601,0.934264 1.020575,1.627031 1.449377,2.484635 0.724541,1.449071 0.521401,1.666961 1.03527,3.105782 0.79311,1.850591 0.454943,0.950724 1.035269,2.691695 0.255461,0.766367 0.572755,1.511201 0.828215,2.277578 0.838854,2.516545 0.895641,4.369786 3.105809,6.211574 1.268021,1.056684 3.03889,2.611515 4.76224,2.898745 0.204238,0.034 0.416926,-0.034 0.621163,0 0.42128,-0.0719 0.670814,0.341217 1.035269,0.414107 0.632114,0.12642 1.418773,0 2.07054,0 0.233971,0 1.297278,0.1521 1.449376,0 0.0488,-0.0488 -0.0488,-0.15825 0,-0.20706 0.0488,-0.0488 0.145323,0.0309 0.207055,0 0.174604,-0.0873 0.239504,-0.326797 0.414108,-0.414097 0.276071,-0.13804 0.207055,0.20705 0.207055,-0.20706"
       id="path179" />
    <path
       style="fill:none;fill-opacity:1;stroke:#000000;stroke-width:0.264583;stroke-linecap:round;stroke-linejoin:round;stroke-dasharray:none;stroke-opacity:1"
       d="m 64.600825,74.811184 c -1.403311,0.0425 -2.919474,0.21742 -4.141079,0.828217 -1.075536,0.537767 -2.246437,2.862062 -2.484646,3.934006 -0.05989,0.26949 0.03424,0.554267 0,0.828207 -0.249957,1.999638 -0.388186,4.020406 0.207055,6.004524 0.674708,2.249028 1.885624,3.346062 3.105808,5.17632 0.171212,0.25682 0.234704,0.577047 0.414108,0.828217 0.568761,0.796254 1.322099,1.121824 2.070539,1.656421 0.238276,0.170197 0.382886,0.450957 0.621162,0.621157 1.856071,1.325761 4.617845,1.877918 6.83278,1.656418 2.045211,-0.204517 6.165832,-2.438845 7.660995,-3.933996 0.714065,-0.714067 1.920885,-3.093482 2.070539,-4.141056 0.09898,-0.692867 -0.11407,-1.212584 -0.207055,-1.863481 -0.122359,-0.856524 -0.129593,-1.631091 -0.414108,-2.484625 -0.53948,-1.618441 -2.265291,-4.078526 -3.519916,-5.17632 -2.983719,-2.610745 0.869715,0.897304 -1.449377,-1.035264 -0.713755,-0.594797 -1.424892,-1.230074 -2.277594,-1.656421 -1.237549,-0.618777 -2.525498,-1.273304 -3.934023,-1.449374 -0.853652,-0.106707 -2.68042,0.663697 -3.105811,0.621157 -0.499965,-0.05 -0.966251,-0.276067 -1.449377,-0.414107 z"
       id="path180" />
    <path
       style="fill:none;fill-opacity:1;stroke:#000000;stroke-width:0.264583;stroke-linecap:round;stroke-linejoin:round;stroke-dasharray:none;stroke-opacity:1"
       d="m 94.830698,72.533606 c -0.08248,-0.281367 0.625562,1.255514 1.242324,3.105795 0.138211,0.414637 0.152874,1.997028 0.207055,2.484635 0.07773,0.699537 0.336381,1.370981 0.414108,2.070518 0.06097,0.548767 -0.06098,1.107664 0,1.656431 0.254711,2.292385 0.414107,4.508943 0.414107,6.832741 0,1.146184 0.207055,2.172828 0.207055,3.312842 0,0.552137 0,1.104284 0,1.656418 0,0.13804 -0.138036,0.41411 0,0.41411 0.05777,0 0.194246,-1.139874 0.207052,-1.242324 0.198874,-1.590961 0.475253,-3.157212 0.621162,-4.762213 0.207897,-2.286848 0.414108,-4.536833 0.414108,-6.832731 0,-1.378401 -0.445551,-3.886839 0.414107,-5.17632 0.169439,-0.25416 0.244671,-0.15995 0.41411,-0.414107 0.202883,-0.30432 0.298831,-0.613327 0.621164,-0.828217 0.67365,-0.449097 1.72198,-0.637547 2.48464,-0.828204 1.00801,-0.252 2.38279,0.468367 2.89876,1.242311 0.88601,1.329014 1.43118,1.924961 1.65643,3.726949 0.0599,0.479397 -0.0683,0.971104 0,1.449374 0.11323,0.792584 0.31186,0.715714 0.20706,1.449371 -0.16628,1.163904 -0.4818,5.733767 -0.20706,6.832741 0.29784,1.191374 0.31057,2.484605 0.82822,3.519889 0.0625,0.12502 -0.0957,0.525447 0,0.621157 0.0488,0.0488 0.15825,-0.0488 0.20705,0 0.0976,0.0976 -0.0976,0.316507 0,0.414107 0.0488,0.0488 0.15825,-0.0488 0.20706,0 0.0976,0.0976 -0.0617,0.29065 0,0.414107 0.19919,0.3984 0.82821,1.248614 0.82821,1.449374"
       id="path181" />
    <path
       style="fill:none;fill-opacity:1;stroke:#000000;stroke-width:0.264583;stroke-linecap:round;stroke-linejoin:round;stroke-dasharray:none;stroke-opacity:1"
       d="m 121.12655,73.154763 c -0.27607,-0.069 -0.7592,-0.483117 -0.82822,-0.207047 -0.069,0.276067 1.11278,0.207047 0.82822,0.207047 -1.24876,0 -2.03759,-0.356067 -3.10581,0 -0.1852,0.0617 -0.25168,0.30583 -0.41411,0.414107 -0.89682,0.597877 -1.63628,1.215444 -2.27759,2.070531 -0.28333,0.377767 -0.77344,0.642514 -1.03527,1.035264 -0.46631,0.699454 -0.66718,1.541391 -1.03527,2.277575 -0.11129,0.22258 -0.31608,0.39244 -0.41411,0.621167 -0.3755,0.876154 -0.28331,1.983138 -0.41411,2.898735 -0.12347,0.864344 -0.35796,1.786238 -0.20705,2.691685 0.15751,0.945054 0.53441,2.478085 1.03527,3.312839 0.43125,0.718747 1.12919,1.411484 1.65643,2.070528 1.07799,1.347484 2.26941,1.858801 3.72697,2.691685 0.0805,0.046 0.81353,0.584207 1.03527,0.621157 0.27232,0.0454 0.55492,-0.039 0.82822,0 0.63772,0.0911 1.22575,0.530057 1.86348,0.621167 0.47346,0.0676 0.97591,-0.0676 1.44938,0 0.9915,0.14164 1.70423,0.19749 2.6917,0 0.53626,-0.10725 2.30592,-1.270644 2.6917,-1.656431 0.21825,-0.21825 0.22891,-0.581277 0.41411,-0.828204 0.33738,-0.44984 0.91568,-0.851427 1.03527,-1.449374 0.77221,-3.861036 0.0754,-6.245294 -2.48465,-9.317366 -0.42266,-0.507187 -0.77691,-1.191014 -1.24232,-1.656421 -0.17596,-0.17597 -0.4452,-0.238147 -0.62116,-0.414107 -0.35193,-0.351927 -0.51731,-0.853687 -0.82822,-1.242324 -0.434,-0.542487 -0.8224,-1.096524 -1.24232,-1.656421 -0.31058,-0.414107 -0.20706,0 -0.62117,-0.621154 -0.0383,-0.0574 0.0488,-0.15825 0,-0.20705 -0.10912,-0.10913 -0.30498,-0.0979 -0.4141,-0.20706 -0.0488,-0.0488 0.0488,-0.158247 0,-0.207047 -0.0488,-0.0488 -0.14533,0.0309 -0.20706,0 -0.78571,-0.39286 -1.24232,-1.242324 -1.86348,-1.863481 z"
       id="path182" />
    <path
       style="fill:none;fill-opacity:1;stroke:#000000;stroke-width:0.264583;stroke-linecap:round;stroke-linejoin:round;stroke-dasharray:none;stroke-opacity:1"
       d="m 130.23692,45.409702 c 0.48281,2.131108 0.54185,4.280506 1.03527,6.418634 1.06574,4.618183 2.1197,9.335286 2.48465,14.079589 0.0635,0.825764 -0.0688,1.659281 0,2.484625 0.0349,0.418367 0.16904,0.824227 0.20705,1.242324 0.093,1.023464 -0.1274,2.086568 0,3.105792 0.10823,0.865814 0.20705,1.596111 0.20705,2.484625 0,1.106324 0.18243,2.425368 0,3.519902 -0.0359,0.215277 -0.17618,0.405097 -0.20705,0.621154 -0.26331,1.843191 0,4.846323 0,6.832744 0,1.101751 -0.25625,2.908982 0,3.933996 0.0237,0.0947 0.18338,0.11237 0.20705,0.20706 0.067,0.267827 -0.0873,0.566307 0,0.828204 0.0848,0.2544 0.41411,1.249864 0.41411,1.449371"
       id="path183" />
    <path
       style="fill:none;fill-opacity:1;stroke:#000000;stroke-width:0.264583;stroke-linecap:round;stroke-linejoin:round;stroke-dasharray:none;stroke-opacity:1"
       d="m 125.06057,68.806657 c 3.38455,0 -0.16455,-0.130947 1.86349,0.20705 1.61119,0.26854 3.34742,-0.20273 4.96929,0 2.20896,0.27612 4.387,0.414107 6.62573,0.414107 0.6464,0 1.43881,0.10529 2.07054,0 0.15223,-0.0254 0.27607,-0.138027 0.4141,-0.207047 0.48313,0 0.96626,0 1.44938,0"
       id="path184" />
    <path
       style="fill:none;fill-opacity:1;stroke:#000000;stroke-width:0.264583;stroke-linecap:round;stroke-linejoin:round;stroke-dasharray:none;stroke-opacity:1"
       d="m 145.55891,39.819272 c -0.092,1.511811 0.10791,3.044482 0,4.555166 -0.30883,4.323543 -0.64291,8.697179 -0.41411,13.044315 0.22912,4.353186 0.55639,8.695152 0.82822,13.044325 0.19657,3.145172 0,6.370584 0,9.524426 0,2.645075 0.20705,5.2129 0.20705,7.868005"
       id="path185" />
    <path
       style="fill:none;fill-opacity:1;stroke:#000000;stroke-width:0.264583;stroke-linecap:round;stroke-linejoin:round;stroke-dasharray:none;stroke-opacity:1"
       d="m 147.21534,76.467615 c -0.0829,-2.474585 0.94965,-6.223524 3.10581,-7.660958 0.30461,-0.203067 0.64668,-0.556397 1.03527,-0.621154 2.7457,-0.45762 4.52433,1.957388 5.17635,4.348103 0.97161,3.562572 0.92759,7.379418 0.41411,10.9738 -0.10868,0.760764 -0.28761,1.518571 -0.41411,2.277575 -0.1727,1.036164 0,2.268888 0,3.312842 0,0.0931 -0.067,0.834177 0,1.035264 0.37818,1.134544 0.73693,2.326568 1.03527,3.519899"
       id="path186" />
    <path
       style="fill:none;fill-opacity:1;stroke:#000000;stroke-width:0.264583;stroke-linecap:round;stroke-linejoin:round;stroke-dasharray:none;stroke-opacity:1"
       d="m 163.77966,70.670138 c -0.069,0.345077 -0.16819,0.685487 -0.20706,1.035264 -0.14945,1.345061 0,2.785285 0,4.141046 0,2.667895 -0.19005,5.4143 0,8.075065 0.0348,0.486787 0.17229,0.962574 0.20706,1.449371 0.10597,1.483581 -0.003,2.878395 0.20705,4.348106 0.1066,0.746217 -0.23883,1.768131 0,2.484625 0.33589,1.007674 0.20594,0.612247 0.41411,2.277588"
       id="path187" />
    <path
       style="fill:none;fill-opacity:1;stroke:#000000;stroke-width:0.264583;stroke-linecap:round;stroke-linejoin:round;stroke-dasharray:none;stroke-opacity:1"
       d="m 160.8809,57.83286 c -0.24044,0.625487 -0.20705,1.224994 -0.20705,1.863481 0,0.211967 -0.47639,0.972974 -0.20706,1.242311 0.0488,0.0488 0.15825,-0.0488 0.20706,0 0.0976,0.0976 -0.0976,0.3165 0,0.41411 0.0488,0.0488 0.15825,-0.0488 0.20705,0 0.0488,0.0488 -0.0488,0.158247 0,0.207047 0.0976,0.0976 0.29065,-0.0617 0.41411,0 0.0873,0.0437 0.10945,0.20706 0.20705,0.20706 0.15433,0 0.26439,-0.16963 0.41411,-0.20706 0.20087,-0.0502 0.47475,0.14641 0.62116,0 0.0488,-0.0488 -0.0488,-0.15825 0,-0.207047 0.0868,-0.0868 0.49568,-0.14431 0.62116,-0.20706 0.41627,-0.20813 0.82822,-1.465261 0.82822,-1.863471 0,-1.056974 -1.23735,-2.398825 -2.07054,-2.898742 -0.58391,-0.350337 -2.27925,-0.371697 -2.89875,0 -1.03751,0.622507 -0.89475,1.856018 -1.24233,2.898742"
       id="path188" />
    <path
       style="fill:none;fill-opacity:1;stroke:#000000;stroke-width:0.264583;stroke-linecap:round;stroke-linejoin:round;stroke-dasharray:none;stroke-opacity:1"
       d="m 171.85476,71.498342 c -0.3691,1.650501 -0.26246,3.301102 -0.41411,4.969273 -0.17607,1.936788 -0.6786,3.852539 -0.82821,5.797477 -0.12808,1.664911 -0.24815,3.309642 -0.41411,4.969263 -0.0842,0.841524 -0.29709,1.665498 -0.41411,2.484635 -0.0956,0.669227 0.13248,1.408121 0,2.070528 -0.15943,0.797137 -0.20705,1.455281 -0.20705,2.277578"
       id="path189" />
    <path
       style="fill:none;fill-opacity:1;stroke:#000000;stroke-width:0.264583;stroke-linecap:round;stroke-linejoin:round;stroke-dasharray:none;stroke-opacity:1"
       d="m 170.81949,82.265092 c -0.0236,-2.210758 1.43239,-4.163086 2.48465,-6.004537 0.23184,-0.405717 0.38932,-1.043654 0.62116,-1.449371 0.06,-0.514457 0.60084,-0.656307 0.82821,-1.035264 0.1123,-0.18715 0.10945,-0.425947 0.20706,-0.621157 0.43085,-0.861704 -0.0143,0.22135 0.41411,-0.207047 0.11699,-0.11699 0.25986,-0.673977 0.4141,-0.828217 0.10913,-0.10912 0.29065,-0.11445 0.41411,-0.207047 0.63028,-0.47271 1.50641,-1.568391 2.48465,-1.242314 0.0926,0.0309 0.11236,0.18338 0.20705,0.20705 0.8666,0.216647 0.45298,-0.37523 1.24233,0.414107 1.43777,1.437761 1.6904,3.686519 1.86348,5.590417 0.41008,4.510826 0,8.942179 0,13.458435"
       id="path190" />
    <path
       style="fill:none;fill-opacity:1;stroke:#000000;stroke-width:0.264583;stroke-linecap:round;stroke-linejoin:round;stroke-dasharray:none;stroke-opacity:1"
       d="m 197.11534,74.604134 c -0.27607,-0.276067 -0.55215,-0.552134 -0.82822,-0.828214 0.27607,0.27608 1.10429,1.104284 0.82822,0.828214 -0.06,-0.06 -1.57156,-1.788108 -2.27759,-2.070528 -0.12817,-0.0513 -0.27876,0.0271 -0.41411,0 -2.3975,-0.479497 -3.57749,0.0576 -5.3834,1.863481 -0.75358,0.753564 -1.72611,1.565491 -2.2776,2.484625 -0.22458,0.374307 -0.27607,0.828217 -0.41411,1.242324 -0.11753,0.352597 -0.34121,0.670807 -0.4141,1.035264 -0.37855,1.892698 0.64629,4.075226 1.65643,5.590417 0.29361,0.440427 1.03416,0.723857 1.44938,1.035264 0.15617,0.11713 0.2395,0.32681 0.4141,0.41411 0.24693,0.123457 0.56631,-0.0873 0.82822,0 0.0926,0.0309 0.11236,0.183377 0.20705,0.207047 0.78977,0.19745 0.42533,-0.0546 1.03527,-0.207047 0.77494,-0.19373 1.65937,-0.41705 2.2776,-1.035264 0.91303,-0.913027 1.87564,-2.314068 2.27759,-3.519902 0.19922,-0.597667 0.54534,-1.297731 0.82822,-1.863468 0.0617,-0.12347 -0.0617,-0.29065 0,-0.41411 0.14947,-0.298937 0.26463,-0.529267 0.4141,-0.828204 0.0862,-0.1724 -0.13133,-0.696887 0,-0.828214 0.27607,-0.27607 0.20706,0.345087 0.20706,-0.20705"
       id="path191" />
    <path
       style="fill:none;fill-opacity:1;stroke:#000000;stroke-width:0.264583;stroke-linecap:round;stroke-linejoin:round;stroke-dasharray:none;stroke-opacity:1"
       d="m 197.7365,72.533606 c -0.82583,5.956397 -1.67263,11.963994 -2.27759,18.013588 -0.12975,1.297414 0.14396,2.638305 0,3.934009 -0.0389,0.349767 -0.16819,0.685497 -0.20706,1.035264 -0.15135,1.362171 0.16996,2.781385 0,4.141046 -0.0353,0.28238 -0.17562,0.545387 -0.20705,0.828217 -0.0816,0.73445 0.12187,1.54638 0,2.27759 -0.63411,3.80467 -1.16428,5.8875 -3.31286,9.11038 -0.42824,0.64236 0.0141,0.18585 -0.41411,0.82821 -0.2111,0.31665 -0.2859,0.16267 -0.62116,0.41411 -0.69277,0.51958 -0.67273,1.0559 -1.65643,1.44938 -0.12817,0.0513 -0.28595,-0.0513 -0.41411,0 -0.53058,0.21223 -0.72123,0.44746 -1.24233,0.62116 -0.31058,0.10353 -0.72468,-0.10353 -1.03527,0 -0.0926,0.0309 -0.11445,0.17619 -0.20705,0.20705 -0.41077,0.13693 -0.6817,-0.0892 -1.03527,-0.20705 -0.49464,-0.16488 -1.14954,-0.0381 -1.65643,-0.20705 -1.30216,-0.43406 -2.53863,-2.05243 -2.89876,-3.31287 -0.13749,-0.48122 -0.17589,-2.37107 0,-2.89875 0.0309,-0.0926 0.17619,-0.11446 0.20706,-0.20706 0.11129,-0.33386 0.13803,-0.69018 0.20705,-1.03527 0.0928,-0.46402 0.0929,-0.99261 0.20706,-1.44937 0.24506,-0.98027 0.78922,-1.91459 1.03527,-2.89876 0.0854,-0.34141 0.0958,-0.7014 0.20705,-1.03527 0.18742,-0.56224 0.73731,-1.15983 1.03527,-1.65643 0.11229,-0.18715 0.086,-0.43956 0.20705,-0.621157 0.0383,-0.0574 0.15826,0.0488 0.20706,0 0.6459,-0.645897 1.00504,-1.626191 1.65643,-2.277578 0.0488,-0.0488 0.13804,0 0.20705,0 0.13804,-0.13804 0.29698,-0.257937 0.41411,-0.414107 0.85419,-1.138914 1.80387,-2.651945 3.10581,-3.519902 0.46327,-0.308837 0.98406,-0.517997 1.44938,-0.828214 0.16242,-0.10828 0.2395,-0.326797 0.4141,-0.414097 0.0617,-0.0309 0.13804,0 0.20706,0 0.13804,-0.069 0.2857,-0.12145 0.41411,-0.20706 0.63514,-0.423417 1.17316,-0.690104 1.86348,-1.035264 0.63142,-0.315707 -0.37869,-0.16414 0.62116,-0.414097 0.82941,-0.20736 1.65508,-0.620827 2.48465,-0.828214 0.53636,-0.13409 0.98818,-0.18351 1.44938,-0.41411 0.44712,-0.223557 1.41399,0.0354 1.86348,-0.414107"
       id="path192" />
    <path
       style="fill:none;fill-opacity:1;stroke:#000000;stroke-width:0.264583;stroke-linecap:round;stroke-linejoin:round;stroke-dasharray:none;stroke-opacity:1"
       d="m 36.234438,104.00565 c -0.181948,1.05757 0.06438,1.90002 0.207053,2.89875 0.06833,0.47827 -0.05992,0.96999 0,1.44938 0.4568,3.65439 1.320546,7.27911 1.656432,10.97386 0.153953,1.69347 0,3.47611 0,5.17635 0,2.2959 0.07621,4.56662 -0.207055,6.83278 -0.0033,0.0266 -0.01447,3.91954 0,3.93402 0.276074,0.27607 0.207055,-0.34509 0.207055,0.20706"
       id="path193" />
    <path
       style="fill:none;fill-opacity:1;stroke:#000000;stroke-width:0.264583;stroke-linecap:round;stroke-linejoin:round;stroke-dasharray:none;stroke-opacity:1"
       d="m 39.754354,122.22639 c 0.639797,-2.82482 2.396236,-5.1893 4.555186,-7.03983 0.887815,-0.76098 1.835272,-1.74585 2.898757,-2.27759 0.254523,-0.12727 0.561766,-0.10714 0.828214,-0.20706 0.769639,-0.28861 0.714854,-0.47426 1.449377,-0.62116 3.660907,-0.73218 6.84921,2.98639 7.453942,6.21162 0.986827,5.26307 -0.753496,11.5203 -4.555186,15.32199 -1.040669,1.04067 -2.43337,1.63079 -3.726971,2.27759 -1.724982,0.86249 -3.80457,1.78154 -5.79751,1.44938 -3.181903,-0.53032 -5.031425,-2.46395 -7.453942,-4.34813"
       id="path194" />
    <path
       style="fill:none;fill-opacity:1;stroke:#000000;stroke-width:0.264583;stroke-linecap:round;stroke-linejoin:round;stroke-dasharray:none;stroke-opacity:1"
       d="m 60.045639,114.35834 c 6.919923,1.51141 10.884974,9.96685 11.59502,16.35727 0.12668,1.14012 -0.06898,2.20829 -0.207055,3.31286 -0.05136,0.41091 0.100436,0.84058 0,1.24232 -0.0412,0.16481 -0.596399,1.63167 -0.621162,1.65643 -0.531889,0.53189 -1.002535,-1.90687 -1.035269,-2.07054 -0.571969,-2.85984 -0.295773,-6.67513 0.207055,-9.52448 0.283501,-1.60651 0.655203,-3.44278 1.242324,-4.96929 0.166201,-0.43213 0.449212,-0.81245 0.62116,-1.24233 0.105688,-0.26421 0.09496,-0.56665 0.207055,-0.82821 0.855374,-1.99587 2.473584,-4.20088 4.141078,-5.59046 1.89203,-1.57669 -1.039029,1.24609 1.449377,-1.24232"
       id="path195" />
    <path
       style="fill:none;fill-opacity:1;stroke:#000000;stroke-width:0.264583;stroke-linecap:round;stroke-linejoin:round;stroke-dasharray:none;stroke-opacity:1"
       d="m 85.306219,121.19112 c 2.57039,-0.52961 4.814663,-1.7707 7.039832,-3.10581 2.233896,-1.34033 4.216715,-2.61835 6.004565,-4.55518 1.513123,-1.63922 2.326324,-2.97185 3.519914,-4.76224 0.33002,-0.49502 0.47956,-0.26181 0.62116,-0.82822 0.78202,-3.12804 -4.037714,-2.22575 -5.590453,-1.44938 -0.610412,0.30521 -2.605646,1.77744 -3.105809,2.2776 -0.244014,0.24401 -0.377145,0.5842 -0.62116,0.82821 -0.646146,0.64615 -1.523058,1.09701 -2.070541,1.86349 -0.179404,0.25116 -0.234704,0.57705 -0.414108,0.82821 -0.170196,0.23828 -0.458734,0.37753 -0.621162,0.62117 -0.846106,1.26916 -1.700898,3.69778 -2.070539,5.17634 -0.117173,0.46871 0.05993,0.96999 0,1.44938 -0.216226,1.72982 -0.132125,1.61697 0.207055,3.31287 0.207544,1.03772 0.304263,2.16269 0.828214,3.1058 0.56855,1.02339 1.79749,2.9818 2.691702,3.72698 3.336454,2.78037 7.990962,3.81001 12.216181,3.1058 0.36662,-0.0611 0.68267,-0.29657 1.03527,-0.4141 2.30966,-0.76989 3.18844,-1.94612 4.96929,-3.72697"
       id="path196" />
    <path
       style="fill:none;fill-opacity:1;stroke:#000000;stroke-width:0.264583;stroke-linecap:round;stroke-linejoin:round;stroke-dasharray:none;stroke-opacity:1"
       d="m 116.77841,110.21727 c 0.069,-0.27608 0.48313,-0.7592 0.20706,-0.82822 -0.27607,-0.069 -0.26286,1.10726 -0.20706,0.82822 0.13804,-0.62117 0.27608,-1.24233 0.41411,-1.86349 0.069,-0.069 0.17619,-0.11446 0.20706,-0.20705 0.0436,-0.13096 -0.0335,-0.2802 0,-0.41411 0.22964,-0.91856 1.11652,-1.28295 1.86348,-1.65643 1.13449,-0.56725 0.0577,-0.41411 1.44938,-0.41411 0.64489,0 1.71949,0.0653 2.27759,0.41411 0.33108,0.20692 0.53802,0.56703 0.82822,0.82821 1.07205,0.96485 1.53493,1.13794 2.48465,2.2776 0.31861,0.38234 0.53548,0.83982 0.82821,1.24232 1.94404,2.67306 3.5614,5.34263 3.93403,8.69626 0.0789,0.71003 -0.0802,1.2294 -0.20706,1.86349 -0.0899,0.44933 -0.4718,2.6917 -0.82821,2.6917 -0.069,0 0.0488,-0.15825 0,-0.20705 -0.0488,-0.0488 -0.15825,0.0488 -0.20706,0 -0.0488,-0.0488 0.0488,-0.15825 0,-0.20706 -0.0488,-0.0488 -0.13803,0 -0.20705,0 -0.069,-0.13803 -0.0979,-0.30498 -0.20706,-0.4141 -0.58574,-0.58575 -1.268,-1.06096 -1.86348,-1.65644 -0.24402,-0.24401 -0.34035,-0.62763 -0.62116,-0.82821 -0.23157,-0.16541 -0.57369,-0.0798 -0.82822,-0.20706 -0.30866,-0.15432 -0.51956,-0.46683 -0.82821,-0.62116 -2.56446,-1.28223 -6.55056,-0.26719 -8.69627,1.44938 -2.2252,1.78016 -3.58625,5.11403 -2.48465,7.86805 0.12817,0.32041 0.46684,0.51956 0.62116,0.82822 0.33681,0.6736 0.0278,0.64893 0.62117,1.24232 1.53794,1.53795 3.50314,2.18646 5.59045,2.48465 0.9368,0.13382 0.32209,-0.0756 1.24233,-0.20706 0.27329,-0.039 0.55492,0.039 0.82821,0 0.98432,-0.14061 3.47371,-1.71744 3.93403,-2.48464 0.11229,-0.18716 0.10945,-0.42595 0.20705,-0.62117 0.46788,-0.93576 0.98838,-1.67592 1.24232,-2.6917 0.20361,-0.81442 0.27875,-1.59276 0.62117,-2.27759 0.11043,-0.22086 -0.11043,-0.60736 0,-0.82822 0.0713,-0.14262 0.23329,-0.50451 0.4141,-0.4141 0.55411,0.27705 0.94959,0.84248 1.44938,1.24232 1.54302,1.23441 2.8285,2.65657 4.55519,3.51992 0.0873,0.0436 0.11446,0.17618 0.20705,0.20705 0.13095,0.0437 0.28316,-0.0436 0.41411,0 0.0926,0.0309 0.11975,0.1634 0.20705,0.20705 0.23503,0.11752 0.9243,0.20706 1.24233,0.20706"
       id="path197" />
    <path
       style="fill:none;fill-opacity:1;stroke:#000000;stroke-width:0.264583;stroke-linecap:round;stroke-linejoin:round;stroke-dasharray:none;stroke-opacity:1"
       d="m 137.0697,94.8953 c 0.1542,1.026974 0.06,2.076568 0.20705,3.105792 0.0805,0.563417 0.29065,1.100844 0.41411,1.656421 0.32345,1.455527 0.47462,2.882667 0.62116,4.348137 0.07,0.70035 0.34408,1.37018 0.41411,2.07054 0.1446,1.44595 0.28214,2.89648 0.41411,4.34813 0.0625,0.68735 -0.0492,1.38211 0,2.07054 0.11417,1.59835 0.50732,3.16851 0.62116,4.76224 0.0836,1.1711 0.0613,2.35344 0.20706,3.51992 0.23018,1.8415 0.14811,0.26756 0.4141,1.86348 0.0681,0.40847 -0.0586,0.83238 0,1.24233 0.1075,0.75246 0.28904,1.52714 0.41411,2.27759 0.30293,1.81755 0.0762,-0.3165 0.41411,1.03527 0.067,0.26783 -0.0873,0.56631 0,0.82821 0.0309,0.0926 0.17619,0.11446 0.20705,0.20706 0.0917,0.27518 -0.13145,0.77237 0,1.03527 0.25777,0.51553 0.20706,1.0324 0.20706,1.65643"
       id="path198" />
    <path
       style="fill:none;fill-opacity:1;stroke:#000000;stroke-width:0.264583;stroke-linecap:round;stroke-linejoin:round;stroke-dasharray:none;stroke-opacity:1"
       d="m 140.58962,109.38905 c 0.27607,-0.27607 1.10428,-0.55214 0.82821,-0.82822 -0.27607,-0.27607 -1.14055,1.06248 -0.82821,0.82822 0.58693,-0.4402 1.08353,-0.99106 1.65643,-1.44938 0.40076,-0.3206 0.80061,-0.30368 1.24232,-0.41411 0.99985,-0.24996 -0.0103,-0.0984 0.62116,-0.4141 0.1222,-0.0611 0.482,0 0.62117,0 1.25936,0 2.535,-0.002 3.31286,1.24232 1.03985,1.66376 0.98423,4.18919 0.62116,6.00456 -0.16919,0.84593 -0.56061,1.47479 -0.82822,2.2776 -0.13268,0.39804 -0.2147,1.05057 -0.4141,1.44937 -0.53699,1.07398 -1.41945,1.84852 -2.2776,2.2776 -0.33681,0.1684 -0.9593,-0.90418 -0.82821,-1.03527 0.023,-0.023 0.8707,0.49773 1.03527,0.62116 1.05609,0.79207 1.87388,1.8718 2.89875,2.6917 0.38864,0.31091 0.85713,0.51306 1.24233,0.82822 1.62121,1.32644 3.12581,2.83194 4.76224,4.14108 0.12051,0.0964 0.27607,0.13803 0.4141,0.20705 0.20706,0.13803 0.42685,0.25865 0.62117,0.41411 0.48759,0.39007 0.76297,0.67575 1.24232,1.03527 0.24693,0.18519 0.60996,0.19585 0.82822,0.41411 0.0488,0.0488 -0.0488,0.15825 0,0.20705 0.0488,0.0488 0.14962,-0.0383 0.20705,0 0.16243,0.10828 0.2395,0.32681 0.41411,0.41411 0.12346,0.0617 0.28594,-0.0513 0.41411,0 0.23104,0.0924 0.39858,0.30282 0.62116,0.41411 0.18519,0.0926 0.4214,-0.0545 0.62116,0 0.63169,0.17227 1.24232,0.4141 1.86348,0.62116"
       id="path199" />
    <path
       style="fill:none;fill-opacity:1;stroke:#000000;stroke-width:0.264583;stroke-linecap:round;stroke-linejoin:round;stroke-dasharray:none;stroke-opacity:1"
       d="m 164.60787,112.90897 c -0.27607,0.20705 -1.03527,0.34509 -0.82821,0.62116 0.20705,0.27607 1.13687,-0.77549 0.82821,-0.62116 -0.87722,0.43861 -1.93978,1.05711 -2.27759,2.07054 -0.52063,1.56189 0.88972,2.95752 2.48465,2.6917 1.32093,-0.22016 2.55809,-0.86494 3.72697,-1.44938 0.27731,-0.13866 0.2869,-0.49396 0.4141,-0.62116 0.42841,-0.4284 -0.0167,0.65465 0.41411,-0.20706 0.41891,-0.83781 0.522,-1.44646 -0.41411,-2.07054 -0.37885,-0.25256 -0.0207,-0.26398 -0.62116,-0.4141 -0.42237,-0.1056 -1.00311,0 -1.44938,0"
       id="path200" />
    <path
       style="fill:none;fill-opacity:1;stroke:#000000;stroke-width:0.264583;stroke-linecap:round;stroke-linejoin:round;stroke-dasharray:none;stroke-opacity:1"
       d="m 172.89003,129.68034 c -0.68345,0.0442 -1.41888,-0.0441 -2.07054,-0.20706 -0.37476,0.1248 -0.38508,-0.33541 -0.62116,-0.41411 -0.13095,-0.0437 -0.28316,0.0436 -0.41411,0 -0.18519,-0.0617 -0.23951,-0.3268 -0.41411,-0.4141 -0.0617,-0.0309 -0.15825,0.0488 -0.20705,0 -0.10913,-0.10913 -0.0979,-0.30499 -0.20706,-0.41411 -0.16798,-0.16799 -0.51568,-0.4102 -0.62116,-0.62116 -0.63132,-0.14658 -0.0798,-0.57369 -0.20705,-0.82822 -0.17136,-0.34272 -0.39557,-0.0556 -0.20706,-0.62116 0.0309,-0.0926 0.18339,-0.11236 0.20706,-0.20706 0.0502,-0.20087 -0.0655,-0.42473 0,-0.62116 0.13678,-0.41034 0.93289,-1.2173 1.24232,-1.44937 0.0368,-0.0276 1.95198,-0.32562 2.07054,-0.20706 0.0488,0.0488 -0.0488,0.15825 0,0.20706 0.27607,0.27607 0.19868,-0.43923 0.41411,0.20705 0.34126,1.02379 -0.18404,2.39258 -0.41411,3.31286 -0.067,0.26783 0.067,0.56039 0,0.82822 -0.2173,0.86919 -0.67699,1.78433 -0.82821,2.6917 -0.034,0.20423 0.0502,0.42029 0,0.62116 -0.25811,1.03244 -1.27082,3.87324 -1.86349,4.76224 -0.13803,0.20706 -0.23814,0.4452 -0.41411,0.62116 -0.10912,0.10913 -0.3177,0.0866 -0.41411,0.20705 -0.19281,0.24103 -0.22891,0.58129 -0.4141,0.82822 -0.0414,0.0552 -0.14963,-0.0383 -0.20706,0 -0.16242,0.10829 -0.29216,0.26168 -0.41411,0.41411 -0.15545,0.19432 -0.27607,0.41411 -0.4141,0.62116 -0.41411,0.48313 -0.82822,0.96625 -1.24233,1.44938"
       id="path202" />
    <path
       style="fill:none;fill-opacity:1;stroke:#000000;stroke-width:0.264583;stroke-linecap:round;stroke-linejoin:round;stroke-dasharray:none;stroke-opacity:1"
       d="m 16.978422,48.864726 c -3.261085,-2.188157 4.017411,2.493269 -1.863485,-1.03527 -0.200819,-0.120491 -1.630085,-0.647507 -1.863486,-0.414107 -0.0488,0.0488 0.0488,0.158252 0,0.207055 -0.103527,0.103526 -0.517635,-0.103529 -0.621161,0 -0.0488,0.0488 0.0488,0.15825 0,0.207052 -0.06902,0.06902 -0.552144,0.138036 -0.621162,0.207055 -0.06868,0.06868 -0.35298,0.705959 -0.414108,0.828215 -0.124233,0.248465 -0.49693,0.372697 -0.621162,0.621162 -0.176405,0.352811 -0.480755,0.821103 -0.621162,1.242325 -0.245007,0.73502 -0.5894862,1.354351 -0.8282152,2.070539 -0.039035,0.117104 0.083161,0.538001 0,0.621162 -0.048803,0.0488 -0.158251,-0.04881 -0.207054,0 -0.1707919,0.170791 -0.060672,1.777775 -0.2070541,2.070539 -0.043651,0.0873 -0.163403,0.119751 -0.207054,0.207053 -0.016454,0.03291 -0.044045,3.224773 0,3.312863 0.27871,0.557419 0.072277,0.97277 0.207054,1.242325 0.4293295,0.858657 0.4173979,2.077119 0.8282159,2.898754 0.4271374,0.854276 0.7846964,1.776447 1.2423234,2.691701 0.190114,0.380228 0.596407,0.687557 0.828216,1.03527 0.03828,0.05743 0,0.138036 0,0.207052 0.06902,0.138039 0.121448,0.2857 0.207054,0.41411 0.365944,0.548915 1.182429,1.329587 1.449377,1.863484 0.06274,0.125487 0.12029,0.534398 0.207054,0.621163 0.428402,0.428402 -0.01675,-0.654656 0.414108,0.207055 0.06173,0.123462 -0.09761,0.316499 0,0.414107 0.0488,0.0488 0.158251,-0.04881 0.207054,0 0.06902,0.06902 0.138036,0.552143 0.207054,0.621162 0.0488,0.0488 0.158251,-0.04881 0.207054,0 0.09761,0.09761 -0.09761,0.3165 0,0.414107 0.0488,0.0488 0.158251,-0.0488 0.207054,0 0.09761,0.09761 -0.09761,0.3165 0,0.414108 0.0488,0.0488 0.158251,-0.0488 0.207053,0 0.143459,0.143457 0.0636,0.891812 0.207055,1.035269 0.0488,0.0488 0.15825,-0.0488 0.207054,0 0.103527,0.103526 -0.103527,0.517634 0,0.621163 0.0488,0.0488 0.15825,-0.0488 0.207053,0 0.138036,0.138035 -0.138036,0.690178 0,0.828214 0.0488,0.0488 0.158251,-0.0488 0.207054,0 0.04197,0.04197 0.04197,0.993299 0,1.03527 -0.0488,0.0488 -0.158251,-0.0488 -0.207054,0 -0.01122,0.01122 -0.402888,0.609941 -0.414107,0.621162 -0.09761,0.09761 -0.316502,-0.09761 -0.414108,0 -0.0488,0.0488 0.0488,0.15825 0,0.207055 -0.06902,0.06902 -0.552144,0.138036 -0.621162,0.207052 -0.0488,0.0488 0.0488,0.158253 0,0.207055 -0.09761,0.09761 -0.316502,-0.09761 -0.414108,0 -0.01122,0.01122 -0.402888,0.609942 -0.414108,0.621163 -0.127208,0.127206 -0.482502,0.136789 -0.621162,0.414107 -0.09837,0.196741 0.114847,0.736007 0.207054,0.828215 0.01122,0.01122 0.609942,0.402889 0.621162,0.414107 0.0488,0.04881 -0.0488,0.158252 0,0.207055 0.06902,0.06902 0.552144,0.138036 0.621162,0.207055 0.01122,0.01122 0.402888,0.609941 0.414108,0.621162 0.0488,0.0488 0.158251,-0.0488 0.207054,0 0.0488,0.0488 -0.0488,0.15825 0,0.207052 0.0488,0.0488 0.158251,-0.0488 0.207053,0 0.01122,0.01122 0.402889,0.609942 0.414109,0.621163 0.103527,0.103526 0.31058,0.103526 0.414107,0.207055 0.338237,0.338235 -0.361153,0.568206 -0.414107,0.621159 -0.0488,0.04881 0.0488,0.158253 0,0.207055 -0.144319,0.144317 -0.26979,-0.144319 -0.414109,0 -0.0488,0.0488 0.0488,0.15825 0,0.207055 -0.0488,0.0488 -0.145322,-0.03087 -0.207053,0 -0.418332,0.209164 -1.315862,1.669989 -1.449378,2.070539 -0.04365,0.130951 0.04365,0.283155 0,0.414108 -0.114342,0.343024 -0.414108,0.591989 -0.414108,1.035269 0,0.851559 -0.346413,1.648492 -0.207054,2.484647 0.192062,1.152374 0.555164,2.973813 1.03527,3.934026 0.19927,0.398536 0.579016,0.661469 0.828216,1.035269 0.301011,0.451515 0.702324,1.269376 1.242323,1.449377 0.130953,0.04365 0.283156,-0.04365 0.414108,0 0.0926,0.03087 0.138036,0.138036 0.207054,0.207053 0.138036,0.06902 0.264387,0.169624 0.414108,0.207055 0.200872,0.05022 0.435967,-0.0926 0.621162,0 0.483115,0.241556 0.848409,0.207055 1.449377,0.207055"
       id="path203" />
    <path
       style="fill:none;fill-opacity:1;stroke:#000000;stroke-width:0.264583;stroke-linecap:round;stroke-linejoin:round;stroke-dasharray:none;stroke-opacity:1"
       d="m 173.09708,98.557669 c -0.0784,-1.11724 0.22866,-1.999419 0.82822,-2.898754 -0.0207,-0.410186 0.30498,-0.09793 0.41411,-0.207055 0.0488,-0.0488 -0.0488,-0.15825 0,-0.207052 0.0488,-0.04881 0.14532,0.03086 0.20705,0 0.1746,-0.0873 0.23951,-0.326808 0.41411,-0.41411 0.12346,-0.06173 0.29064,0.06173 0.41411,0 0.55785,-0.278924 1.13203,-0.317342 1.65643,0.207055 0.35784,0.357838 0.51141,0.80333 0.62116,1.242324 0.37015,1.480587 1.05581,2.962019 0.82821,4.555183 -0.21589,1.51127 -0.52882,3.05821 -0.82821,4.55519 -0.14183,0.70917 -0.51729,1.3434 -0.62116,2.07054 -0.0544,0.38097 0.0766,0.85929 0,1.24232 -0.11815,0.59072 -0.49453,3.15203 -0.20706,3.72697 0.0437,0.0873 0.16341,0.11975 0.20706,0.20706 0.065,0.13011 0.0299,1.47924 0.20705,1.65643 0.0488,0.0488 0.15825,-0.0488 0.20706,0 0.0976,0.0976 -0.0976,0.3165 0,0.4141 0.0488,0.0488 0.15825,-0.0488 0.20705,0 0.0488,0.0488 -0.0488,0.15826 0,0.20706 0.0112,0.0112 0.60994,0.40289 0.62116,0.41411 0.10353,0.10352 0.10353,0.31058 0.20705,0.4141 0.10913,0.10913 0.30498,0.0979 0.41411,0.20706 0.10913,0.10913 0.0979,0.30498 0.20706,0.41411 0.1272,0.12721 0.4825,0.13679 0.62116,0.4141 0.0309,0.0617 -0.0488,0.15826 0,0.20706 0.4284,0.4284 -0.0168,-0.65466 0.41411,0.20705 0.0587,0.11737 0.57578,0.9899 0.62116,1.03527 0.0488,0.0488 0.15825,-0.0488 0.20705,0 0.0488,0.0488 -0.0488,0.15825 0,0.20706 0.0488,0.0488 0.15825,-0.0488 0.20706,0 0.0994,0.0994 0.28576,0.69987 0.4141,0.82821 0.0829,0.0829 0.26313,0.11214 0.41411,0.41411 0.11053,0.22106 -0.44637,0.74082 -0.62116,0.82822 -0.12792,0.064 -0.75147,0.1303 -0.82822,0.20705 -0.0488,0.0488 0.0488,0.15825 0,0.20705 -0.069,0.069 -0.55214,0.13804 -0.62116,0.20706 -0.0488,0.0488 0.0488,0.15825 0,0.20705 -0.10352,0.10353 -0.31058,0.10353 -0.41411,0.20705 -0.0909,0.0909 -0.002,1.44162 0,1.44938 0.0748,0.37421 0.55938,1.38759 0.82822,1.65643 0.0488,0.0488 0.16877,-0.0574 0.20705,0 0.12107,0.1816 0.0948,0.43402 0.20706,0.62117 0.31552,0.52587 0.88863,0.9542 1.24232,1.44937 0.26911,0.37675 0.34337,0.87194 0.62116,1.24233 0.23426,0.31234 0.62735,0.49343 0.82822,0.82821 0.11229,0.18715 0.0948,0.43401 0.20705,0.62116 0.10044,0.1674 0.31367,0.24672 0.41411,0.41411 0.22458,0.3743 0.25199,0.83704 0.41411,1.24233 0.66685,1.66713 0.5562,3.44277 -0.20705,4.96929 -0.0926,0.18519 0.0655,0.42473 0,0.62116 -0.13495,0.40483 -0.63433,0.85454 -0.82822,1.24233 -0.28097,0.56193 -0.79561,1.44937 -1.44938,1.44937"
       id="path204" />
  </g>
</svg>
